<?xml version="1.0" standalone="no"?>
<!DOCTYPE svg PUBLIC "-//W3C//DTD SVG 20010904//EN"
 "http://www.w3.org/TR/2001/REC-SVG-20010904/DTD/svg10.dtd">
<svg version="1.0" xmlns="http://www.w3.org/2000/svg"
 width="1741.000000pt" height="1741.000000pt" viewBox="0 0 1741.000000 1741.000000"
 preserveAspectRatio="xMidYMid meet">
<metadata>
Created by potrace 1.14, written by Peter Selinger 2001-2017
</metadata>
<g transform="translate(0.000000,1741.000000) scale(0.100000,-0.100000)"
fill="#000000" stroke="none">
<path d="M3688 16749 c-23 -9 -55 -29 -71 -45 -31 -31 -60 -91 -51 -105 3 -5
1 -9 -3 -9 -5 0 -9 -16 -9 -35 0 -19 4 -35 8 -35 4 0 5 -9 3 -20 -2 -11 1 -20
6 -20 6 0 7 -4 4 -10 -3 -5 -1 -10 4 -10 6 0 11 -7 11 -15 0 -8 5 -15 11 -15
5 0 7 -5 4 -11 -4 -6 -9 -8 -12 -6 -2 3 -19 1 -38 -3 -20 -5 -33 -4 -29 1 3 5
0 9 -5 9 -6 0 -11 -5 -11 -11 0 -6 -5 -7 -12 -2 -17 10 -39 10 -60 0 -10 -4
-18 -4 -18 1 0 8 -104 7 -127 -2 -7 -3 -15 -1 -18 4 -3 6 -16 5 -31 0 -16 -7
-23 -7 -19 0 3 5 0 8 -7 5 -7 -3 -28 -7 -47 -9 -18 -2 -37 -9 -41 -16 -4 -6
-10 -11 -14 -10 -16 4 -77 -46 -82 -67 -4 -13 -10 -23 -16 -23 -5 0 -6 -5 -3
-10 4 -6 3 -16 -2 -23 -8 -10 -10 -102 -3 -117 1 -3 2 -8 1 -12 0 -5 4 -8 10
-8 5 0 7 -4 4 -10 -3 -5 -1 -10 6 -10 7 0 9 -3 6 -6 -6 -7 55 -74 67 -74 3 0
46 -20 96 -44 49 -25 90 -42 90 -39 0 3 8 -1 18 -9 9 -8 32 -20 50 -28 17 -7
32 -16 32 -21 0 -5 7 -6 15 -3 8 4 15 1 15 -5 0 -6 6 -11 14 -11 8 0 22 -7 30
-16 9 -8 16 -13 16 -10 0 6 61 -25 205 -104 33 -19 62 -37 63 -42 2 -4 8 -6
13 -2 5 3 9 0 9 -7 0 -7 3 -9 6 -6 4 4 19 -2 34 -13 16 -11 33 -20 39 -20 6 0
11 -4 11 -8 0 -5 16 -14 35 -22 19 -8 35 -17 35 -21 0 -4 8 -9 18 -13 9 -3 29
-14 44 -23 24 -16 81 -51 163 -100 17 -10 32 -21 33 -25 2 -5 10 -8 18 -8 8 0
17 -7 20 -15 4 -8 10 -12 15 -9 5 3 9 0 9 -5 0 -6 6 -11 13 -11 7 0 23 -9 35
-20 12 -11 23 -20 25 -20 9 0 132 -84 135 -92 2 -4 10 -8 18 -8 8 0 14 -5 14
-11 0 -5 4 -8 9 -5 5 4 11 2 13 -2 1 -5 44 -35 93 -67 50 -33 96 -65 103 -72
7 -7 19 -13 27 -13 7 0 15 -7 19 -15 3 -8 12 -15 21 -15 8 0 15 -4 15 -10 0
-5 6 -10 13 -10 6 0 26 -13 42 -28 17 -15 37 -31 45 -34 8 -3 55 -36 103 -72
48 -36 90 -66 93 -66 3 0 11 -6 18 -12 7 -7 25 -22 41 -33 16 -11 39 -30 51
-41 13 -12 25 -20 28 -17 2 3 11 -4 18 -16 7 -12 17 -21 23 -21 5 0 26 -15 46
-33 53 -46 79 -67 83 -67 2 0 22 -16 43 -35 68 -63 83 -76 83 -72 0 6 106 -91
219 -200 52 -51 98 -93 101 -93 4 0 13 -11 20 -25 7 -13 16 -23 19 -21 3 2 12
-2 19 -10 7 -8 11 -14 8 -14 -3 0 17 -22 44 -49 27 -27 46 -51 44 -54 -3 -3 4
-8 15 -12 12 -3 21 -11 21 -17 0 -6 8 -18 18 -27 16 -15 45 -50 95 -114 12
-15 32 -39 45 -52 12 -13 22 -27 22 -30 0 -4 16 -26 35 -49 19 -24 35 -48 35
-54 0 -6 3 -12 8 -14 9 -4 62 -74 62 -83 0 -8 43 -68 55 -77 7 -5 7 -8 0 -8
-7 0 -7 -3 0 -8 9 -6 17 -20 59 -97 6 -10 17 -25 24 -33 6 -7 12 -22 12 -32 0
-10 4 -20 8 -22 10 -4 72 -131 72 -147 0 -6 4 -11 10 -11 5 0 9 -3 8 -7 -1 -5
6 -26 16 -48 10 -22 19 -49 22 -60 2 -11 8 -21 14 -23 6 -2 8 -8 5 -12 -3 -5
-1 -17 4 -27 9 -16 15 -34 20 -55 1 -4 13 -38 26 -75 14 -37 22 -69 20 -71 -3
-3 -1 -10 4 -16 5 -6 11 -25 14 -43 3 -18 10 -48 17 -67 6 -20 13 -51 15 -69
2 -17 4 -32 5 -32 3 0 10 -37 14 -75 2 -19 5 -35 6 -35 4 0 18 -129 25 -227 4
-64 6 -78 19 -136 13 -58 55 -155 86 -197 19 -25 118 -124 147 -147 30 -23
131 -73 168 -83 17 -5 33 -9 38 -10 4 -2 8 -3 10 -5 1 -1 16 -4 32 -8 32 -6
2994 -8 3058 -2 20 2 37 8 37 13 0 4 4 6 9 2 5 -3 12 -1 16 5 4 6 11 8 16 5 5
-4 9 -1 9 6 0 7 3 9 6 6 4 -4 19 2 34 13 16 11 36 20 45 20 9 0 13 5 10 10 -3
6 -2 10 3 10 13 0 92 75 92 88 0 6 4 12 8 14 11 4 59 105 68 144 4 16 8 89 8
162 1 72 4 132 8 132 4 0 5 6 2 14 -8 22 -11 146 -3 146 4 0 4 12 0 28 -5 15
-5 36 -1 47 4 11 6 28 4 38 -1 9 3 17 9 17 5 0 8 3 4 6 -3 3 5 30 18 60 27 62
93 137 136 154 16 7 29 16 29 20 0 3 6 7 13 8 37 5 53 9 63 15 12 7 164 2 204
-7 27 -6 77 -13 155 -21 52 -6 90 -12 90 -15 0 -2 58 -8 112 -11 27 -1 40 -6
36 -13 -4 -6 0 -5 9 1 8 7 17 11 19 9 5 -5 94 -17 159 -21 25 -2 45 -4 45 -5
0 -1 23 -3 50 -5 28 -2 84 -6 125 -9 89 -8 216 -16 321 -20 42 -2 81 -6 87
-10 6 -3 13 -2 16 3 3 5 21 6 38 2 18 -3 80 -6 138 -6 59 0 108 -4 112 -10 5
-7 8 -7 8 0 0 6 105 10 298 9 163 0 302 3 309 8 6 5 14 5 17 -1 5 -7 15 -7 31
-1 17 6 25 6 25 -1 0 -6 5 -7 11 -3 6 3 46 8 88 10 91 3 210 11 306 20 39 3
93 7 120 9 28 2 50 4 50 5 0 1 50 7 140 15 28 2 50 5 50 5 0 1 14 3 30 4 51 4
105 18 105 27 0 5 6 9 14 9 18 0 65 55 84 100 22 50 21 98 0 155 -29 77 -95
133 -167 142 -83 10 -138 16 -163 17 -16 0 -28 3 -28 6 0 4 -10 6 -22 6 -30 1
-141 15 -148 19 -3 1 -32 6 -65 10 -81 10 -100 13 -100 15 0 1 -9 3 -20 4 -11
2 -39 6 -62 10 -23 4 -55 8 -70 10 -15 2 -39 7 -53 10 -24 6 -40 8 -120 22
-46 8 -64 12 -67 14 -4 3 -11 5 -68 15 -27 4 -54 9 -60 11 -5 1 -21 5 -35 8
-14 3 -43 10 -65 15 -22 6 -41 10 -42 11 -2 0 -4 0 -5 1 -2 1 -14 3 -28 4 -38
6 -54 10 -67 18 -7 5 -13 6 -13 4 0 -3 -60 11 -132 29 -73 19 -144 37 -158 40
-14 3 -34 8 -45 11 -11 4 -22 8 -25 8 -3 1 -17 5 -31 9 -14 4 -32 9 -40 10 -8
2 -21 5 -29 8 -31 11 -96 29 -112 32 -10 1 -21 5 -24 9 -4 4 -18 7 -30 7 -13
0 -26 5 -29 11 -4 6 -13 8 -21 5 -7 -3 -16 -1 -19 5 -4 5 -11 7 -16 4 -5 -4
-9 -2 -9 2 0 8 -15 12 -57 15 -7 1 -13 5 -13 10 0 4 -8 8 -19 8 -10 0 -34 7
-54 15 -19 8 -37 11 -41 8 -3 -4 -6 -1 -6 6 0 7 -6 11 -14 8 -7 -3 -19 0 -25
6 -6 6 -11 8 -11 5 0 -4 -12 -1 -27 7 -15 8 -30 12 -35 9 -4 -3 -8 -1 -8 4 0
4 -24 14 -52 22 -29 7 -60 17 -68 21 -14 7 -47 20 -62 24 -5 2 -9 3 -10 5 -2
1 -10 3 -18 5 -33 7 -126 48 -142 62 -10 9 -18 14 -18 10 0 -3 -16 9 -36 26
-42 37 -91 105 -96 132 -1 11 -7 23 -11 26 -4 3 -9 38 -10 77 -1 40 -5 72 -9
72 -4 0 -3 13 2 29 4 16 6 32 3 35 -3 3 -7 38 -9 78 -2 40 -6 89 -9 108 -3 19
-8 62 -11 95 -3 33 -9 62 -12 65 -4 3 -8 23 -10 45 -1 22 -5 47 -8 55 -4 8 -9
31 -11 50 -2 19 -7 37 -11 40 -4 3 -7 12 -7 20 1 8 -3 20 -7 26 -5 7 -8 16 -7
20 1 5 0 16 -3 24 -3 8 -18 53 -33 100 -15 47 -33 99 -40 115 -12 28 -26 63
-30 75 -1 3 -7 19 -14 35 -7 17 -13 32 -13 35 0 3 -9 17 -20 33 -11 15 -17 27
-14 27 6 0 -53 110 -63 120 -4 3 -7 12 -9 20 -2 8 -10 22 -18 31 -8 8 -14 20
-14 26 0 6 -7 16 -15 23 -8 7 -12 16 -9 21 3 5 0 9 -6 9 -6 0 -15 10 -20 23
-11 24 -32 59 -41 67 -3 3 -19 25 -36 50 -17 25 -39 55 -49 67 -11 12 -29 35
-41 50 -12 15 -31 38 -42 50 -12 12 -21 24 -21 27 0 5 -224 230 -266 266 -16
14 -51 43 -79 65 -27 21 -55 44 -60 49 -18 19 -74 56 -84 56 -5 0 -11 4 -13 8
-4 11 -127 92 -139 92 -5 0 -9 5 -9 10 0 6 -5 10 -11 10 -6 0 -24 9 -40 21
-16 11 -29 17 -29 13 0 -3 -7 -1 -15 6 -25 21 -184 98 -189 92 -4 -3 -6 1 -6
8 0 7 -3 10 -7 7 -3 -4 -11 -3 -17 1 -14 11 -156 65 -164 62 -1 0 -15 6 -32
15 -16 8 -40 15 -54 15 -13 0 -26 4 -28 8 -3 7 -115 39 -165 47 -12 2 -26 6
-31 9 -6 3 -30 9 -53 12 -24 3 -55 8 -69 11 -14 3 -41 7 -60 8 -19 2 -35 4
-35 6 0 1 -16 3 -35 4 -19 2 -35 4 -35 5 0 9 -408 11 -2682 13 -2400 2 -2616
1 -2655 -14z m6526 -2203 c41 -7 109 -40 136 -66 25 -26 72 -90 64 -90 -3 0
-1 -7 6 -15 7 -8 14 -34 15 -57 2 -24 4 -45 5 -48 3 -6 2 -9 -4 -41 -2 -13
-10 -37 -17 -54 -7 -16 -13 -33 -13 -36 -1 -3 -8 -13 -18 -22 -9 -9 -18 -20
-20 -25 -5 -13 -95 -72 -115 -75 -10 -1 -22 -5 -28 -9 -20 -11 -108 -5 -152
12 -90 34 -170 130 -176 209 -1 17 -6 31 -10 31 -5 0 -5 5 -1 12 4 6 8 23 10
37 5 44 13 73 27 95 8 11 16 26 18 31 3 9 24 29 66 65 24 20 108 51 125 47 10
-3 21 -1 24 4 3 5 8 7 12 5 4 -2 25 -7 46 -10z"/>
<path d="M6295 11180 c-22 -3 -55 -5 -72 -4 -18 0 -33 -3 -33 -6 0 -4 -10 -6
-22 -5 -13 1 -68 -6 -123 -16 -55 -10 -116 -21 -135 -24 -19 -3 -37 -9 -40
-13 -3 -4 -21 -9 -40 -10 -19 -2 -41 -8 -47 -14 -7 -6 -13 -7 -13 -3 0 4 -6 2
-13 -4 -8 -6 -17 -8 -20 -4 -4 3 -12 1 -19 -4 -15 -11 -99 -38 -110 -35 -5 1
-8 -3 -8 -9 0 -5 -4 -8 -9 -4 -5 3 -12 1 -16 -5 -4 -6 -11 -8 -16 -5 -5 4 -9
2 -9 -2 0 -5 -10 -10 -22 -10 -13 -1 -24 -7 -26 -13 -2 -5 -8 -8 -13 -4 -5 3
-9 0 -9 -6 0 -6 -5 -8 -11 -4 -6 3 -15 1 -19 -5 -4 -7 -13 -13 -21 -14 -20 -3
-149 -68 -178 -89 -13 -10 -27 -15 -32 -12 -5 3 -9 1 -9 -4 0 -5 -13 -15 -30
-22 -16 -7 -30 -16 -30 -21 0 -5 -9 -9 -20 -9 -11 0 -20 -4 -20 -9 0 -4 -27
-25 -60 -45 -33 -21 -60 -41 -60 -47 0 -5 -3 -8 -7 -7 -11 4 -123 -82 -123
-93 0 -5 -3 -8 -8 -6 -4 1 -25 -14 -47 -33 -65 -56 -316 -313 -311 -318 3 -2
-5 -14 -18 -26 -13 -11 -51 -59 -85 -106 -34 -47 -69 -93 -77 -102 -7 -10 -11
-18 -7 -18 3 0 -4 -11 -17 -25 -13 -14 -19 -25 -14 -25 5 0 4 -4 -1 -8 -14
-10 -65 -89 -65 -100 0 -5 -8 -20 -19 -33 -10 -13 -22 -35 -26 -49 -4 -14 -15
-31 -24 -38 -11 -10 -12 -11 -1 -6 8 5 5 -4 -8 -20 -12 -16 -19 -32 -16 -37 3
-5 1 -9 -5 -9 -5 0 -13 -10 -16 -22 -4 -13 -16 -43 -27 -68 -20 -42 -56 -133
-62 -155 -4 -13 -16 -45 -26 -70 -15 -36 -53 -167 -55 -194 -1 -14 -5 -33 -8
-41 -3 -8 -8 -28 -11 -45 -5 -30 -10 -61 -23 -125 -3 -19 -7 -44 -9 -55 -4
-28 -11 -73 -19 -115 -4 -19 -8 -51 -11 -70 -2 -19 -6 -53 -10 -75 -3 -22 -7
-52 -7 -67 -1 -16 -4 -28 -7 -28 -3 0 -6 -19 -7 -43 -2 -23 -5 -64 -9 -92 -8
-74 -11 -101 -30 -305 -3 -30 -7 -90 -9 -134 -2 -43 -6 -81 -9 -84 -3 -3 -1
-11 5 -19 6 -7 8 -13 3 -13 -23 0 -23 -1011 0 -1048 3 -6 2 -13 -4 -17 -7 -4
-7 -12 0 -25 7 -13 7 -21 0 -25 -6 -4 -7 -11 -4 -17 12 -19 20 -320 10 -337
-4 -6 -4 -11 1 -11 7 0 7 -60 1 -412 -2 -69 -7 -124 -11 -121 -5 3 -4 -4 2
-16 7 -11 8 -21 4 -21 -4 0 -9 -28 -9 -63 -1 -65 -12 -252 -14 -252 -1 0 -3
-29 -6 -65 -3 -36 -7 -83 -9 -105 -9 -79 -18 -181 -19 -217 -1 -21 -3 -38 -6
-38 -3 0 -6 -12 -7 -27 -4 -75 -9 -103 -17 -103 -5 0 -3 -6 3 -13 6 -8 8 -16
5 -19 -3 -4 -7 -19 -9 -35 -10 -75 -17 -121 -22 -153 -3 -19 -5 -42 -5 -50 -1
-8 -5 -21 -11 -27 -6 -9 -6 -13 2 -13 7 0 8 -8 1 -25 -5 -14 -11 -40 -14 -58
-2 -17 -7 -57 -11 -87 -4 -30 -11 -57 -16 -58 -5 -2 -7 -8 -4 -13 3 -5 1 -37
-6 -71 -19 -106 -20 -112 -20 -135 1 -12 -3 -24 -8 -27 -4 -3 -7 -17 -6 -31 2
-14 0 -25 -5 -25 -5 0 -7 -8 -5 -17 1 -10 0 -22 -3 -27 -3 -5 -6 -23 -8 -40
-2 -17 -6 -42 -10 -56 -4 -14 -7 -35 -8 -47 0 -13 -3 -23 -6 -23 -3 0 -6 -8
-7 -17 0 -10 -4 -36 -8 -58 -5 -22 -8 -48 -9 -57 0 -10 -3 -18 -6 -18 -3 0 -6
-8 -7 -17 -1 -17 -4 -31 -19 -102 -3 -13 -10 -33 -15 -44 -8 -15 -8 -18 1 -12
9 5 9 3 2 -11 -5 -11 -18 -55 -28 -99 -10 -44 -18 -82 -19 -85 -6 -17 -19 -96
-17 -102 1 -5 -3 -8 -10 -8 -6 0 -9 -3 -6 -6 3 -3 2 -21 -4 -41 -5 -19 -11
-43 -13 -52 -2 -9 -11 -45 -20 -81 -9 -36 -19 -75 -21 -87 -2 -12 -8 -33 -14
-47 -5 -13 -6 -27 -3 -30 4 -3 2 -6 -3 -6 -5 0 -11 -12 -12 -26 -1 -15 -6 -32
-12 -39 -5 -6 -8 -14 -5 -16 2 -3 0 -21 -5 -40 -5 -19 -9 -36 -9 -39 0 -3 -5
-18 -11 -35 -7 -16 -14 -41 -16 -55 -3 -14 -9 -36 -14 -50 -5 -14 -11 -34 -13
-45 -1 -11 -6 -26 -10 -32 -5 -7 -5 -17 -2 -23 3 -5 1 -10 -5 -10 -7 0 -10 -7
-6 -15 3 -8 1 -15 -5 -15 -6 0 -7 -5 -4 -10 4 -6 1 -17 -5 -25 -7 -8 -9 -15
-5 -15 4 0 2 -7 -5 -15 -7 -8 -10 -15 -6 -15 3 0 1 -12 -5 -27 -6 -16 -13 -39
-16 -53 -2 -13 -10 -31 -16 -39 -10 -12 -9 -13 1 -7 12 7 12 5 1 -15 -7 -13
-14 -26 -14 -29 -1 -3 -5 -22 -9 -43 -5 -20 -11 -37 -15 -37 -4 0 -8 -8 -9
-17 -3 -30 -7 -48 -14 -58 -15 -24 -12 -64 6 -84 26 -28 38 -27 95 13 27 19
52 32 55 29 3 -4 6 -1 6 5 0 7 6 12 14 12 8 0 16 3 18 8 5 11 75 62 85 62 5 0
19 9 30 20 12 11 27 21 34 22 7 2 22 11 34 21 11 10 45 35 75 55 30 20 60 41
67 47 33 28 43 35 48 35 4 0 13 6 20 13 18 15 18 16 145 111 58 44 110 85 116
90 6 6 26 22 45 36 18 14 43 35 55 48 12 12 25 22 29 22 4 0 16 10 26 22 11
11 19 18 19 15 0 -3 15 9 33 26 53 51 107 98 107 94 0 -7 173 158 314 299 151
150 234 238 306 324 25 29 56 65 70 81 25 27 39 45 83 104 12 16 32 40 44 52
12 13 20 23 17 23 -6 0 14 25 39 48 9 9 17 21 17 26 0 5 8 19 19 30 28 32 181
262 181 274 0 6 4 12 8 14 10 4 72 105 72 118 0 6 3 10 8 10 4 0 15 17 25 38
10 20 28 55 40 77 53 95 61 110 59 118 -1 4 3 7 9 7 5 0 8 4 5 9 -4 5 -3 11 2
13 11 4 132 254 132 273 0 8 4 15 10 15 5 0 13 12 16 27 4 15 14 34 21 42 8 7
12 20 9 27 -3 8 -1 14 4 14 6 0 10 9 10 20 0 11 5 20 10 20 6 0 10 9 10 19 0
11 5 23 10 26 6 4 8 10 5 15 -3 5 2 16 11 24 8 9 12 16 8 16 -3 0 -1 6 5 13 6
8 8 17 4 20 -3 4 -1 7 5 7 7 0 11 3 10 7 -2 5 6 28 16 53 11 25 20 47 21 50 1
3 7 19 14 35 6 17 19 50 28 75 9 25 21 51 26 58 5 6 6 12 2 12 -4 0 -2 7 5 15
7 8 10 15 7 15 -3 0 5 25 19 56 13 30 22 60 19 65 -4 5 -2 9 2 9 5 0 15 21 22
48 8 26 17 52 21 57 3 6 6 17 5 25 0 8 2 17 5 20 7 6 52 145 57 175 2 11 8 31
13 45 5 14 12 39 15 55 8 38 13 60 15 60 3 0 21 82 23 108 1 9 4 17 8 17 4 0
7 11 8 25 4 56 6 65 11 65 5 0 10 27 13 68 0 6 4 12 8 12 4 0 7 10 7 23 1 22
10 92 12 92 3 0 12 51 13 73 1 12 4 22 7 22 4 0 7 6 7 13 0 12 9 63 18 107 3
14 8 45 11 70 3 25 7 47 9 50 2 3 6 30 10 60 5 30 9 64 11 75 1 11 3 20 4 20
1 0 3 11 5 25 2 14 7 48 11 75 4 28 8 69 8 92 1 22 5 38 10 35 5 -3 7 2 3 10
-3 9 -3 19 0 22 4 3 7 23 8 44 1 20 5 55 9 78 6 39 10 67 21 179 3 28 8 68 10
90 3 22 8 69 11 105 9 119 13 151 20 162 5 7 3 8 -6 3 -9 -6 -11 -4 -5 5 4 7
9 34 11 59 10 140 16 245 18 314 2 43 6 81 10 84 3 3 1 12 -5 20 -6 7 -8 13
-3 13 5 0 9 48 9 108 0 59 3 115 8 126 7 14 6 16 -4 11 -8 -6 -10 -4 -4 6 12
19 12 62 0 72 -7 4 -6 10 1 15 13 9 12 124 -1 134 -6 5 -6 8 2 8 10 0 11 45 3
85 -1 6 -1 13 0 18 7 24 3 127 -5 127 -6 0 -5 4 1 8 12 7 12 72 0 90 -3 6 -2
13 2 16 7 4 9 51 2 51 -1 0 -3 45 -6 100 -4 105 -11 220 -14 220 -1 0 -10 131
-13 193 -1 28 -4 52 -7 52 -3 0 -6 17 -6 38 -1 20 -4 60 -7 87 -3 28 -9 75
-12 105 -3 30 -8 66 -11 80 -3 14 -7 48 -9 75 -2 28 -4 52 -5 55 -1 3 -3 10
-5 15 -1 6 -3 12 -4 15 -4 8 -12 83 -14 118 -1 17 -4 32 -7 32 -6 0 -7 13 -10
85 -1 19 -6 38 -11 41 -5 3 -6 11 -2 17 11 17 13 37 4 37 -4 0 -7 10 -5 23 1
12 3 22 4 22 0 0 3 32 5 70 2 39 7 84 11 100 3 17 8 41 9 55 2 14 4 26 5 28 1
1 4 7 5 12 1 6 3 11 5 13 1 1 3 11 4 22 5 30 10 49 17 55 7 7 39 94 36 101 -1
3 6 13 16 23 9 10 15 22 12 27 -4 5 -2 9 4 9 6 0 13 11 17 25 3 14 10 25 15
25 5 0 9 5 9 11 0 6 12 26 26 45 15 19 25 35 23 35 -12 5 -190 4 -224 -1z"/>
<path d="M7345 11179 c-2 -3 -18 -5 -35 -4 -16 1 -30 -3 -30 -8 0 -6 -3 -8 -6
-4 -4 3 -23 -1 -43 -9 -20 -9 -44 -17 -54 -19 -10 -2 -41 -18 -68 -34 -27 -17
-49 -29 -49 -27 0 7 -47 -34 -106 -91 -30 -29 -54 -57 -54 -63 0 -5 -4 -10 -8
-10 -4 0 -21 -25 -37 -55 -17 -30 -34 -55 -39 -55 -5 0 -6 -3 -3 -7 4 -3 2
-12 -4 -20 -6 -7 -8 -13 -4 -13 4 0 3 -6 -2 -12 -13 -16 -33 -98 -39 -156 -2
-25 -7 -48 -9 -52 -3 -5 -1 -20 5 -34 6 -16 6 -27 -1 -31 -5 -4 -7 -10 -4 -15
2 -4 7 -23 10 -41 3 -19 8 -50 11 -69 3 -19 7 -49 8 -66 2 -17 5 -35 8 -40 3
-5 5 -21 4 -36 -1 -16 1 -28 4 -28 3 0 6 -10 7 -22 0 -13 3 -41 7 -63 10 -59
18 -134 19 -182 1 -24 4 -43 7 -43 5 0 12 -75 14 -147 1 -24 3 -43 6 -43 3 0
6 -15 7 -32 2 -82 10 -179 16 -185 4 -3 2 -12 -4 -20 -6 -7 -8 -13 -3 -13 5 0
10 -19 11 -43 6 -185 14 -321 19 -328 3 -5 1 -9 -5 -9 -6 0 -6 -11 0 -32 6
-22 6 -34 -1 -36 -6 -2 -7 -9 -3 -15 9 -14 10 -397 1 -397 -4 0 -3 -13 2 -30
5 -16 5 -30 1 -30 -4 0 -7 -11 -7 -25 0 -14 4 -25 9 -25 4 0 5 -5 1 -11 -6
-10 -13 -152 -18 -336 0 -35 -5 -63 -10 -63 -5 0 -3 -6 3 -13 6 -8 8 -17 5
-20 -4 -4 -8 -37 -10 -74 -5 -95 -13 -218 -14 -218 -1 0 -3 -22 -5 -50 -7 -77
-15 -166 -20 -210 -3 -22 -7 -62 -9 -90 -6 -56 -14 -130 -22 -190 -3 -22 -6
-55 -6 -72 -1 -18 -4 -33 -7 -33 -3 0 -6 -17 -5 -38 0 -20 -2 -41 -5 -47 -3
-5 -6 -19 -7 -30 -1 -20 -11 -90 -18 -135 -3 -14 -7 -45 -11 -70 -6 -49 -13
-85 -15 -85 -1 0 -3 -13 -5 -30 -8 -66 -22 -150 -25 -150 -1 0 -3 -11 -4 -25
-2 -14 -6 -37 -9 -51 -4 -14 -9 -44 -12 -65 -3 -21 -9 -46 -12 -54 -3 -8 -7
-26 -8 -40 -1 -14 -4 -34 -8 -45 -3 -11 -9 -36 -12 -55 -3 -19 -11 -53 -17
-75 -5 -22 -12 -49 -13 -60 -2 -11 -6 -31 -9 -45 -22 -96 -24 -104 -26 -107
-3 -3 -2 -2 -15 -58 -5 -22 -9 -43 -9 -47 -1 -3 -4 -9 -8 -13 -4 -4 -4 -13 -1
-21 3 -8 1 -14 -4 -14 -5 0 -10 -6 -11 -12 -6 -54 -28 -135 -58 -213 -4 -11
-7 -23 -6 -27 1 -4 -3 -20 -9 -35 -10 -25 -14 -42 -22 -78 -2 -5 -6 -15 -9
-21 -4 -6 -9 -21 -12 -35 -4 -23 -29 -96 -43 -129 -3 -8 -7 -17 -8 -20 -4 -19
-29 -87 -34 -95 -3 -5 -6 -16 -7 -23 -2 -8 -9 -28 -17 -45 -9 -18 -17 -41 -19
-52 -1 -11 -5 -22 -8 -25 -3 -3 -16 -32 -29 -65 -38 -95 -61 -148 -76 -176 -8
-14 -12 -29 -8 -33 3 -3 0 -6 -7 -6 -7 0 -10 -3 -7 -6 4 -4 -2 -19 -12 -33
-10 -14 -16 -32 -14 -38 3 -7 0 -13 -6 -13 -6 0 -11 -4 -11 -9 0 -14 -82 -185
-92 -191 -4 -3 -9 -16 -11 -28 -2 -13 -11 -32 -21 -44 -10 -11 -19 -26 -20
-32 -1 -6 -16 -36 -33 -66 -17 -30 -41 -72 -52 -92 -12 -21 -31 -55 -43 -75
-12 -21 -33 -58 -47 -83 -13 -25 -29 -48 -34 -51 -9 -7 -29 -39 -45 -74 -24
-51 -139 -214 -147 -208 -4 5 -5 3 -2 -3 4 -7 0 -17 -8 -24 -8 -7 -12 -16 -9
-21 3 -5 1 -9 -4 -9 -5 0 -21 -18 -36 -40 -15 -22 -33 -48 -41 -58 -8 -9 -36
-46 -62 -82 -68 -92 -74 -100 -107 -134 -16 -17 -29 -33 -29 -36 1 -14 -10
-29 -18 -24 -5 3 -9 0 -9 -6 0 -12 -8 -22 -57 -75 -18 -20 -33 -38 -33 -40 0
-3 -8 -13 -17 -23 -10 -11 -49 -54 -88 -98 -99 -111 -423 -434 -436 -434 -5 0
-7 -4 -4 -10 3 -5 2 -10 -2 -10 -5 0 -22 -12 -39 -27 -17 -16 -53 -48 -80 -73
-28 -25 -67 -58 -87 -75 -21 -16 -48 -39 -61 -50 -13 -11 -40 -33 -61 -50 -20
-16 -45 -37 -55 -45 -10 -8 -31 -24 -46 -35 -16 -11 -36 -28 -46 -38 -10 -9
-21 -17 -24 -17 -3 0 -12 -6 -19 -13 -34 -30 -43 -35 -49 -30 -3 4 -6 1 -6 -4
0 -6 -20 -24 -45 -40 -25 -15 -45 -31 -45 -35 0 -5 -6 -8 -14 -8 -8 0 -16 -4
-18 -8 -5 -13 -261 -185 -275 -185 -7 0 -13 -4 -13 -8 0 -9 -142 -94 -152 -91
-5 1 -8 -2 -8 -7 0 -5 -20 -19 -45 -31 -25 -12 -47 -26 -51 -31 -3 -5 -9 -7
-14 -4 -4 3 -10 -2 -14 -10 -3 -8 -12 -15 -20 -15 -18 0 -14 -49 4 -60 7 -4
27 -2 45 6 18 7 35 10 39 7 3 -4 6 -1 6 5 0 7 3 11 8 10 4 -1 21 4 37 11 38
15 53 20 63 22 4 0 12 4 17 9 9 7 67 28 90 32 6 1 16 8 23 15 7 7 20 13 29 13
8 0 27 6 41 14 28 15 183 81 192 81 3 1 28 11 55 24 28 12 55 24 61 25 7 1 19
8 28 15 9 7 16 10 16 6 0 -4 6 -2 13 4 8 6 17 8 20 4 4 -3 7 -2 7 3 0 9 70 40
79 35 2 -2 7 1 10 6 10 13 73 44 65 31 -4 -7 7 -2 24 11 18 12 32 20 32 16 0
-3 10 1 23 10 13 8 27 12 30 8 4 -3 7 -1 7 5 0 9 70 39 79 33 2 -2 7 3 12 11
5 7 12 13 16 14 18 1 93 37 93 43 0 4 6 8 14 8 7 0 41 14 75 32 33 17 61 29
61 25 0 -3 7 2 16 10 8 9 20 14 25 11 5 -4 9 -2 9 3 0 9 37 25 52 23 5 -1 8 3
8 8 0 8 18 17 65 31 6 2 16 10 23 17 8 7 17 11 22 8 5 -3 10 -1 12 4 1 5 10
11 18 13 8 2 19 6 25 11 17 12 197 106 238 123 20 9 37 20 37 25 0 5 7 9 14 9
8 0 43 17 78 37 35 21 66 36 71 35 4 -1 7 3 7 9 0 5 5 7 10 4 6 -3 13 1 16 9
3 9 10 14 14 11 5 -3 15 2 23 10 9 8 19 15 22 15 4 0 60 31 124 69 64 38 120
69 125 69 5 0 12 4 15 9 3 5 29 22 56 38 28 17 57 34 66 40 9 5 36 21 60 34
24 13 48 30 52 37 4 8 13 14 19 14 5 0 30 14 55 30 24 17 46 30 48 30 6 0 244
155 270 175 11 9 37 26 58 37 20 12 37 26 37 30 0 5 4 7 9 4 5 -3 11 1 15 9 3
8 12 15 20 15 8 0 16 3 18 8 5 11 78 64 78 56 0 -4 8 2 18 13 9 11 22 22 28
24 6 2 24 14 40 26 16 13 70 53 119 90 50 37 93 72 97 78 4 5 8 6 8 2 0 -4 11
3 24 17 13 15 26 26 30 26 6 0 43 30 72 58 8 7 14 11 14 8 0 -3 16 10 35 29
19 19 38 35 42 35 4 0 27 18 51 40 24 22 45 40 48 40 3 0 18 12 33 27 16 16
40 37 53 48 37 29 137 116 168 145 67 62 100 90 110 90 5 0 10 7 10 15 0 8 5
15 10 15 6 0 21 10 34 22 13 13 56 52 96 88 39 36 110 102 156 146 46 45 84
80 84 77 0 -2 11 8 24 24 14 15 78 83 143 150 144 148 280 296 338 368 17 20
43 50 58 66 16 16 26 29 23 29 -3 0 5 10 17 23 28 29 78 89 103 123 10 14 24
31 29 38 6 6 26 31 45 56 19 25 38 47 42 48 5 2 8 10 8 17 0 8 6 18 13 22 6 4
25 26 42 48 16 22 33 42 37 43 4 2 8 10 8 18 0 8 5 14 10 14 6 0 10 6 10 13 0
7 9 19 19 27 11 7 18 17 15 22 -3 4 2 11 10 14 9 3 16 12 16 20 0 8 4 14 9 14
5 0 12 8 15 18 3 9 19 32 35 51 17 19 28 38 25 43 -3 4 0 8 6 8 6 0 15 11 20
25 5 14 13 25 18 25 10 0 37 50 34 63 -1 4 2 7 6 7 5 0 24 24 42 53 19 28 38
55 43 58 5 3 8 9 7 13 0 4 15 30 35 60 19 29 35 58 35 65 0 6 5 11 10 11 6 0
10 7 10 15 0 8 4 15 9 15 5 0 12 8 15 18 8 21 28 55 44 74 6 8 9 18 5 21 -3 4
-1 7 5 7 7 0 12 7 12 15 0 9 7 18 15 21 8 4 15 11 15 18 0 6 9 29 20 51 11 22
20 35 20 30 0 -11 31 44 33 60 1 6 5 12 8 15 3 3 21 34 40 70 18 36 37 68 42
71 5 3 8 8 6 10 -1 2 20 47 47 99 27 52 49 99 49 103 0 4 6 11 13 16 8 5 13
11 12 15 -4 12 22 66 31 66 5 0 8 3 7 8 -3 14 14 62 23 62 5 0 9 6 9 13 0 6
17 46 38 89 20 42 33 73 27 70 -5 -3 0 7 13 22 12 16 19 32 16 37 -3 5 0 9 5
9 6 0 11 7 11 15 0 8 11 38 24 67 42 91 60 133 61 144 0 6 6 19 14 28 7 9 10
16 6 16 -4 0 -2 7 5 15 7 8 10 15 6 15 -4 0 3 18 14 40 11 22 17 40 13 40 -5
0 -3 4 2 8 10 7 43 90 51 126 2 11 9 23 16 28 7 4 9 8 4 8 -5 0 -2 8 5 17 12
15 12 16 -1 8 -13 -8 -13 -6 1 15 8 14 32 77 53 140 20 63 41 123 47 133 5 10
7 22 4 27 -4 6 -2 10 3 10 5 0 9 6 10 13 2 21 7 42 15 54 4 6 8 23 9 37 1 14
6 26 11 26 5 0 7 7 3 15 -3 8 -2 15 3 15 4 0 8 6 8 13 0 6 6 32 13 57 8 25 14
48 16 53 1 4 2 8 4 10 1 1 4 15 6 32 3 16 9 34 14 40 8 10 19 59 22 103 1 6 4
12 8 12 3 0 6 8 7 18 1 17 10 57 13 57 1 0 4 11 6 24 2 14 11 50 19 80 8 31
16 67 19 81 2 14 7 32 10 40 8 22 18 71 19 98 1 12 4 22 7 22 3 0 6 8 6 18 1
9 5 33 9 52 4 19 8 46 10 60 1 14 5 32 9 40 3 8 8 31 10 50 3 19 5 35 6 35 1
0 3 9 4 20 2 11 6 38 11 60 4 22 8 51 10 65 2 14 4 26 5 28 1 1 3 10 4 20 2
18 16 109 23 152 7 43 18 127 27 210 2 19 5 35 6 35 1 0 3 23 5 50 1 28 4 50
5 50 2 0 4 20 5 45 2 25 4 45 5 45 0 0 3 23 4 51 2 29 7 57 10 63 4 6 2 11 -4
11 -6 0 -8 5 -3 13 8 13 9 16 18 177 11 189 13 260 6 260 -3 0 -7 19 -8 43 -2
58 -54 201 -78 219 -6 5 -6 8 -1 8 6 0 1 7 -10 16 -10 8 -12 13 -4 9 10 -4 9
-2 -2 8 -10 8 -18 17 -18 21 0 13 -145 156 -157 156 -7 0 -13 5 -13 10 0 6 -7
10 -15 10 -8 0 -15 4 -15 8 0 8 -60 36 -72 33 -5 0 -8 3 -8 8 0 5 -10 11 -22
14 -13 3 -41 11 -63 17 -22 6 -51 14 -65 17 -35 7 -2841 10 -2845 2z"/>
<path d="M8044 3178 c-3 -4 -10 -6 -15 -3 -5 4 -14 3 -21 -1 -6 -4 -23 -9 -37
-10 -38 -5 -55 -9 -68 -17 -7 -5 -17 -5 -23 -2 -5 3 -10 1 -10 -4 0 -6 -3 -10
-7 -10 -5 1 -11 0 -15 -1 -5 -1 -11 -3 -15 -5 -10 -2 -37 -13 -83 -33 -19 -8
-41 -16 -49 -18 -8 -1 -17 -6 -20 -11 -3 -4 -15 -10 -26 -11 -11 -2 -22 -7
-25 -11 -3 -4 -36 -22 -75 -41 -38 -19 -72 -37 -75 -40 -3 -3 -22 -15 -43 -26
-95 -47 -107 -55 -107 -66 0 -6 -3 -9 -6 -5 -3 3 -24 -5 -45 -19 -21 -13 -43
-24 -47 -24 -5 0 -21 -11 -36 -25 -14 -13 -26 -22 -26 -19 0 2 -36 -18 -80
-45 -44 -28 -80 -47 -80 -43 0 4 -4 2 -8 -4 -4 -7 -36 -28 -72 -48 -36 -20
-72 -41 -80 -46 -43 -27 -211 -120 -216 -120 -3 0 -12 -7 -21 -15 -8 -8 -19
-13 -24 -10 -5 4 -9 1 -9 -5 0 -6 -4 -8 -10 -5 -5 3 -10 2 -10 -4 0 -5 -10
-13 -22 -17 -13 -4 -25 -9 -28 -13 -3 -3 -27 -17 -55 -31 -27 -14 -53 -29 -56
-33 -3 -5 -10 -9 -15 -9 -17 -1 -54 -21 -54 -30 0 -4 -3 -7 -7 -6 -8 3 -104
-42 -113 -53 -3 -3 -21 -11 -40 -19 -19 -8 -37 -17 -40 -20 -9 -10 -185 -95
-192 -92 -5 1 -8 -3 -8 -9 0 -5 -4 -7 -10 -4 -5 3 -10 2 -10 -2 0 -8 -72 -43
-89 -43 -5 0 -11 -4 -13 -8 -3 -9 -93 -52 -108 -52 -5 0 -10 -5 -10 -10 0 -6
-3 -9 -7 -8 -5 1 -39 -14 -78 -32 -38 -19 -72 -34 -75 -35 -3 -1 -40 -18 -82
-38 -42 -20 -81 -37 -86 -37 -5 0 -15 -7 -22 -15 -7 -9 -15 -13 -18 -11 -3 3
-17 -1 -31 -9 -50 -27 -184 -85 -197 -85 -8 0 -14 -4 -14 -10 0 -5 -7 -10 -15
-10 -8 0 -31 -9 -52 -19 -60 -30 -278 -121 -291 -121 -7 0 -12 -4 -12 -9 0 -5
-16 -12 -35 -15 -19 -4 -35 -12 -35 -18 0 -6 -3 -8 -6 -5 -4 4 -19 0 -33 -7
-33 -18 -64 -30 -73 -28 -5 1 -8 -2 -8 -6 0 -5 -6 -9 -12 -9 -12 0 -122 -43
-208 -81 -19 -8 -36 -14 -38 -13 -1 1 -16 -6 -32 -14 -16 -8 -32 -15 -35 -15
-3 0 -22 -7 -42 -15 -20 -9 -47 -18 -60 -21 -13 -4 -26 -10 -29 -15 -3 -5 -14
-9 -25 -9 -10 0 -19 -5 -19 -11 0 -5 -5 -7 -10 -4 -6 4 -17 2 -24 -4 -7 -6
-22 -12 -33 -14 -12 -2 -29 -9 -39 -17 -9 -8 -18 -13 -18 -10 -2 8 -146 -44
-146 -52 0 -4 -7 -5 -15 -2 -8 4 -15 1 -15 -6 0 -6 -4 -9 -9 -5 -5 3 -12 1
-16 -5 -3 -5 -17 -10 -31 -10 -13 0 -24 -4 -24 -8 0 -5 -7 -9 -15 -10 -8 -1
-22 -3 -30 -4 -8 -1 -15 -4 -15 -8 0 -4 -6 -7 -12 -7 -23 -1 -162 -56 -174
-68 -7 -6 -14 -21 -16 -32 -4 -23 21 -73 36 -73 6 0 51 -20 101 -44 49 -24
110 -53 135 -64 106 -47 126 -55 135 -57 21 -5 151 -57 175 -70 14 -7 27 -13
30 -13 14 -1 66 -16 75 -22 6 -4 24 -10 40 -14 71 -15 80 -18 85 -24 3 -4 16
-9 30 -11 14 -1 33 -7 42 -12 9 -5 27 -9 41 -9 13 0 27 -3 31 -7 3 -4 12 -8
19 -9 7 -1 41 -10 77 -19 36 -9 75 -19 88 -21 37 -7 66 -13 92 -19 14 -4 32
-7 40 -7 8 0 21 -5 28 -11 8 -6 12 -6 12 3 0 9 4 10 13 2 7 -6 22 -11 32 -11
11 0 31 -2 45 -5 14 -2 48 -7 75 -11 28 -3 61 -9 75 -11 53 -10 223 -25 350
-30 200 -8 510 -2 551 11 15 5 19 4 14 -5 -5 -9 -2 -10 11 -3 11 5 26 9 34 8
8 -1 27 2 43 6 18 5 27 4 27 -4 0 -8 3 -8 8 -2 4 6 21 10 37 10 17 0 34 2 39
4 6 2 24 6 40 7 35 2 128 14 166 20 14 2 39 6 55 9 43 6 104 16 185 31 14 2
34 6 45 7 12 2 27 7 34 11 7 4 15 5 18 2 3 -3 14 -1 24 4 16 9 72 21 112 23 9
1 17 4 17 7 0 3 14 7 32 8 18 2 35 6 38 10 3 4 14 8 25 10 11 2 51 12 89 24
38 11 76 21 85 23 41 9 207 71 213 80 4 5 8 7 8 3 0 -15 360 145 368 165 2 4
8 5 13 1 5 -3 9 0 9 6 0 6 5 8 10 5 6 -3 10 -2 10 2 0 5 12 14 28 20 31 14 33
15 170 108 57 39 110 75 119 80 30 20 76 62 176 160 111 110 143 146 190 215
17 25 34 47 39 48 4 2 8 8 8 13 0 5 12 28 27 52 36 56 103 194 103 212 0 8 5
15 12 15 6 0 8 3 5 7 -4 3 -3 11 2 17 6 7 12 23 15 36 2 14 11 44 20 68 9 24
15 46 15 50 -1 4 0 10 1 15 1 4 4 12 5 17 1 6 3 11 5 13 1 1 3 11 5 22 6 39
14 80 19 105 26 117 26 423 2 545 -3 11 -5 20 -6 20 -1 0 -4 16 -7 35 -2 19
-8 37 -11 40 -4 3 -8 14 -10 25 -6 35 -83 183 -98 189 -9 3 -12 10 -9 16 3 5
-1 10 -10 10 -9 0 -14 4 -11 8 3 5 -6 15 -19 22 -14 7 -25 17 -25 22 0 4 -7 8
-15 8 -8 0 -15 4 -15 8 0 8 -75 42 -109 50 -35 8 -212 9 -217 0z"/>
</g>
</svg>
