<svg width="506" height="41" viewBox="0 0 506 41" fill="none" xmlns="http://www.w3.org/2000/svg">
<path d="M2.94503 16.5049L3.94503 14.9449C4.47182 15.2518 4.9825 15.5856 5.47503 15.9449C5.5097 15.9804 5.55239 16.0071 5.5995 16.0226C5.64661 16.0382 5.69676 16.0422 5.74575 16.0344C5.79474 16.0266 5.84113 16.0071 5.88103 15.9776C5.92093 15.9481 5.95317 15.9095 5.97503 15.8649L7.36503 13.6749C7.4157 13.5921 7.43452 13.4937 7.41796 13.398C7.4014 13.3023 7.3506 13.2159 7.27504 13.1549C6.65604 12.6048 5.93602 12.1803 5.15503 11.9049C5.06954 11.8696 4.9746 11.8641 4.88564 11.8896C4.79668 11.915 4.71893 11.9697 4.66504 12.0449L3.75503 13.3949C3.26167 13.0388 2.71939 12.7558 2.14503 12.5549C2.0593 12.5213 1.96491 12.5168 1.87638 12.5421C1.78784 12.5674 1.71007 12.6211 1.65503 12.6949L0.255032 14.7949C0.222238 14.8301 0.198364 14.8725 0.185414 14.9188C0.172464 14.9651 0.170822 15.0138 0.180623 15.0608C0.190424 15.1079 0.211382 15.1519 0.241734 15.1892C0.272086 15.2264 0.310946 15.2558 0.355038 15.2749C1.55504 15.9849 2.24503 16.4249 2.44503 16.5749C2.47999 16.6088 2.52222 16.6343 2.56851 16.6494C2.61479 16.6645 2.66391 16.6688 2.71213 16.6621C2.76035 16.6553 2.80639 16.6377 2.84675 16.6104C2.88711 16.5832 2.92073 16.5471 2.94503 16.5049Z" fill="#08044A"/>
<path d="M51.2253 31.6352C51.1398 31.5998 51.0449 31.5944 50.9559 31.6198C50.8669 31.6452 50.7892 31.7 50.7353 31.7752L49.8253 33.1052C49.3307 32.751 48.7887 32.4682 48.2153 32.2652C48.1298 32.2298 48.0349 32.2244 47.9459 32.2498C47.8569 32.2752 47.7792 32.33 47.7253 32.4052L46.3253 34.5052C46.2924 34.5393 46.2684 34.581 46.2553 34.6266C46.2423 34.6722 46.2406 34.7203 46.2505 34.7667C46.2604 34.8131 46.2815 34.8564 46.3119 34.8927C46.3424 34.929 46.3813 34.9574 46.4253 34.9752C47.6253 35.6952 48.3153 36.1352 48.5153 36.2852C48.5495 36.3235 48.5923 36.353 48.6403 36.3713C48.6882 36.3896 48.7399 36.396 48.7909 36.3901C48.8419 36.3843 48.8907 36.3662 48.9332 36.3375C48.9758 36.3088 49.0108 36.2702 49.0353 36.2252L50.0353 34.6652C50.5621 34.9721 51.0728 35.3058 51.5653 35.6652C51.6 35.7006 51.6426 35.7273 51.6898 35.7429C51.7369 35.7584 51.787 35.7625 51.836 35.7546C51.885 35.7468 51.9314 35.7273 51.9713 35.6978C52.0112 35.6683 52.0434 35.6297 52.0653 35.5852L53.4453 33.4052C53.496 33.3223 53.5148 33.2239 53.4982 33.1282C53.4817 33.0325 53.4309 32.9461 53.3553 32.8852C52.7333 32.3339 52.0098 31.9093 51.2253 31.6352Z" fill="#08044A"/>
<path d="M77.9848 19.815C78.02 19.8533 78.0637 19.8828 78.1124 19.901C78.1611 19.9192 78.2134 19.9256 78.2651 19.9198C78.3167 19.9139 78.3663 19.896 78.4097 19.8673C78.4531 19.8387 78.4891 19.8002 78.5148 19.755L79.8948 17.565C79.9466 17.4833 79.9671 17.3856 79.9523 17.29C79.9376 17.1944 79.8888 17.1074 79.8148 17.045C79.1943 16.497 78.4747 16.0727 77.6948 15.795C77.6079 15.7589 77.5113 15.7531 77.4206 15.7785C77.3299 15.8039 77.2504 15.859 77.1948 15.935L75.7948 18.025C75.7621 18.0611 75.7383 18.1043 75.7254 18.1513C75.7125 18.1983 75.7109 18.2476 75.7206 18.2954C75.7304 18.3431 75.7512 18.3878 75.7815 18.426C75.8117 18.4642 75.8506 18.4947 75.8948 18.515C77.0948 19.225 77.7948 19.665 77.9848 19.815Z" fill="#08044A"/>
<path d="M140.665 31.6351C140.58 31.5978 140.484 31.5914 140.395 31.617C140.306 31.6425 140.228 31.6984 140.175 31.7751L139.265 33.1051C138.769 32.7529 138.228 32.4703 137.655 32.2651C137.568 32.229 137.472 32.2232 137.381 32.2486C137.29 32.274 137.211 32.3291 137.155 32.4051L135.765 34.5051C135.732 34.5392 135.708 34.5809 135.695 34.6265C135.682 34.6721 135.681 34.7202 135.69 34.7666C135.7 34.813 135.721 34.8563 135.752 34.8926C135.782 34.929 135.821 34.9573 135.865 34.9751C137.055 35.6951 137.755 36.1351 137.955 36.2851C137.989 36.3234 138.032 36.3529 138.08 36.3712C138.128 36.3895 138.18 36.396 138.231 36.3901C138.282 36.3842 138.331 36.3661 138.373 36.3374C138.416 36.3087 138.451 36.2702 138.475 36.2251L139.475 34.6651C140.315 35.1751 140.825 35.5051 141.015 35.6651C141.05 35.7006 141.093 35.7272 141.14 35.7428C141.187 35.7584 141.237 35.7624 141.286 35.7546C141.335 35.7467 141.381 35.7272 141.421 35.6977C141.461 35.6683 141.493 35.6296 141.515 35.5851L142.895 33.3951C142.949 33.3141 142.971 33.2158 142.956 33.1196C142.941 33.0233 142.891 32.9361 142.815 32.8751C142.186 32.3252 141.456 31.9039 140.665 31.6351Z" fill="#08044A"/>
<path d="M182.445 30.4651C183.29 30.4789 184.125 30.2831 184.875 29.8951C185.388 29.613 185.835 29.2243 186.185 28.7551C186.852 27.6705 187.094 26.3776 186.865 25.1251C186.565 22.1251 186.225 18.1251 185.735 13.4551L186.445 12.5251C186.523 12.4498 186.582 12.3579 186.619 12.2564C186.656 12.1548 186.67 12.0462 186.66 11.9387C186.649 11.8311 186.614 11.7272 186.558 11.6349C186.502 11.5425 186.426 11.464 186.335 11.4051C185.724 10.893 185.267 10.2214 185.015 9.46513C184.735 8.67513 184.455 8.54513 184.185 9.08513L183.445 10.5251C183.346 10.7329 183.295 10.9601 183.295 11.1901C183.295 11.4202 183.346 11.6473 183.445 11.8551C183.512 12.1285 183.602 12.6285 183.715 13.3551C184.565 19.7651 184.945 23.6151 185.125 25.1651C185.224 25.6369 185.135 26.1289 184.875 26.5351C184.227 27.1878 183.363 27.5823 182.445 27.6451C152.935 27.8051 144.195 27.5451 143.855 27.4151C143.855 27.4151 143.385 27.2351 142.635 27.0251C142.269 26.9708 141.918 26.8393 141.606 26.6393C141.294 26.4394 141.028 26.1755 140.825 25.8651C140.825 25.8651 140.825 25.6651 140.825 25.3551C140.825 25.0451 140.665 24.8851 140.375 24.8851C140.085 24.8851 139.985 25.0251 139.825 25.3151C139.305 26.3151 137.895 26.8451 135.605 27.0151C123.882 28.1353 112.078 28.1353 100.355 27.0151C98.995 26.8929 97.7043 26.3592 96.6551 25.4851C95.6341 24.6739 94.7379 23.717 93.9951 22.6451C93.9148 22.5218 93.7921 22.4323 93.6501 22.3935C93.5081 22.3548 93.3569 22.3696 93.2251 22.4351C91.7098 23.1133 90.5138 24.3487 89.8851 25.8851C89.5651 26.5851 88.5751 26.9551 86.8851 27.0151C86.6051 27.0151 86.2251 27.0151 85.7351 27.0151C84.7657 27.0651 83.7945 27.0651 82.8251 27.0151C82.2551 27.0151 81.8251 27.0151 81.5751 27.0151C81.2095 26.9619 80.8596 26.8308 80.5491 26.6307C80.2385 26.4306 79.9746 26.1661 79.7751 25.8551C79.762 25.6854 79.762 25.5149 79.7751 25.3451C79.7751 25.0251 79.6151 24.8751 79.3351 24.8751C79.0551 24.8751 78.9351 25.0151 78.7751 25.3051C78.2551 26.3051 76.8451 26.8351 74.5551 27.0051C71.4851 27.2451 67.9351 27.3751 63.8851 27.3751C59.8351 27.3751 56.3551 27.2451 53.4151 27.0051C53.3921 27 53.3682 27 53.3451 27.0051C52.9843 26.9492 52.6393 26.8179 52.3326 26.6197C52.0259 26.4216 51.7644 26.1611 51.5651 25.8551C51.5651 25.8551 51.5651 25.6551 51.5651 25.3451C51.5651 25.0351 51.4051 24.8751 51.1251 24.8751C50.8451 24.8751 50.7351 25.0151 50.5751 25.3051C50.0451 26.3051 48.6351 26.8351 46.3451 27.0051C34.6218 28.1253 22.8184 28.1253 11.0951 27.0051C11.0951 27.0051 11.0951 27.0051 11.0451 27.0051C10.0451 27.0051 9.44511 26.1451 9.22511 24.3351L8.39511 17.4051C8.29511 16.3451 8.03511 16.0751 7.58511 16.6151L6.44511 17.6751C6.20511 17.9751 6.15511 18.8851 6.30511 20.3851C4.9936 21.1064 3.79986 22.0236 2.76511 23.1051C2.40351 23.5549 2.09481 24.0448 1.84511 24.5651C1.51146 25.1638 1.28791 25.8175 1.18511 26.4951C1.16484 26.7397 1.21419 26.9849 1.32744 27.2026C1.4407 27.4202 1.61323 27.6014 1.82511 27.7251C2.5253 28.1364 3.31418 28.373 4.12511 28.4151C4.61597 28.4859 5.11665 28.4379 5.58511 28.2751C6.21128 27.7631 6.73687 27.1392 7.13511 26.4351C7.18251 27.5522 7.52777 28.6364 8.13511 29.5751C8.46266 29.9122 8.86212 30.1709 9.30368 30.332C9.74523 30.493 10.2175 30.5522 10.6851 30.5051C22.4342 31.6453 34.266 31.6453 46.0151 30.5051C46.762 30.4881 47.4972 30.3157 48.1739 29.9989C48.8505 29.6821 49.4537 29.2279 49.9451 28.6651C50.2878 29.1919 50.7478 29.6321 51.2891 29.9513C51.8304 30.2706 52.4383 30.4601 53.0651 30.5051C56.0651 30.7451 59.5351 30.8751 63.5951 30.8751C67.6551 30.8751 71.2351 30.7451 74.3151 30.5051C75.0512 30.4818 75.7746 30.3073 76.4403 29.9924C77.1061 29.6776 77.7 29.2292 78.1851 28.6751C78.5268 29.2006 78.9853 29.64 79.5247 29.9592C80.0642 30.2784 80.67 30.4686 81.2951 30.5151C83.1001 30.6251 84.9101 30.6251 86.7151 30.5151C87.3201 30.3952 87.8919 30.1453 88.3909 29.7827C88.8899 29.4201 89.3041 28.9535 89.6051 28.4151C90.3097 29.2119 91.1661 29.8602 92.1242 30.3221C93.0823 30.784 94.1229 31.0502 95.1851 31.1051C95.3894 31.0946 95.5878 31.0333 95.7624 30.9268C95.937 30.8203 96.0823 30.6719 96.1851 30.4951C96.3277 30.1345 96.4088 29.7526 96.4251 29.3651C97.5362 30.0637 98.8133 30.4537 100.125 30.4951C111.871 31.6353 123.699 31.6353 135.445 30.4951C136.206 30.4841 136.956 30.3118 137.646 29.9894C138.335 29.667 138.949 29.202 139.445 28.6251C139.787 29.1506 140.245 29.59 140.785 29.9092C141.324 30.2284 141.93 30.4186 142.555 30.4651H182.445ZM3.59511 24.6451C3.56737 24.6335 3.54278 24.6155 3.52336 24.5925C3.50394 24.5696 3.49024 24.5423 3.48341 24.513C3.47658 24.4837 3.47679 24.4532 3.48404 24.4241C3.49129 24.3949 3.50537 24.3678 3.52511 24.3451C4.29556 23.4146 5.34906 22.7614 6.52511 22.4851C6.64511 23.3751 6.74511 24.1251 6.82511 24.7451C5.76705 25.0702 4.63103 25.0351 3.59511 24.6451ZM94.1551 27.2551C93.2471 26.9862 92.401 26.5411 91.6651 25.9451C91.643 25.9237 91.6255 25.898 91.6135 25.8697C91.6015 25.8414 91.5953 25.8109 91.5953 25.7801C91.5953 25.7494 91.6015 25.7189 91.6135 25.6906C91.6255 25.6622 91.643 25.6366 91.6651 25.6151C91.9864 25.2383 92.428 24.984 92.9151 24.8951C93.0151 24.8951 93.0751 24.8951 93.1051 24.9551C93.4405 25.712 93.8526 26.4324 94.3351 27.1051C94.4751 27.2851 94.4151 27.3351 94.1551 27.2551Z" fill="#08044A"/>
<path d="M191.955 10.5851C191.835 9.34511 191.585 9.14511 191.185 10.0051L189.985 12.5851C189.804 12.9539 189.741 13.3694 189.805 13.7751L190.425 18.5951C190.952 21.9263 191.286 25.2853 191.425 28.6551C191.425 29.5251 191.485 29.9851 191.665 30.0551C191.845 30.1251 192.025 29.9751 192.215 29.6151C193.062 27.9951 193.198 23.9951 192.625 17.6151L191.955 10.5851Z" fill="#08044A"/>
<path d="M265.525 21.705C265.315 21.315 265.055 21.445 264.755 22.095L263.945 23.885C263.861 24.0795 263.841 24.2957 263.888 24.5024C263.934 24.7091 264.045 24.8956 264.205 25.035C264.552 25.4007 264.794 25.8533 264.905 26.345C264.204 26.872 263.326 27.1084 262.455 27.005C251.343 28.0655 240.158 28.1224 229.035 27.175C228.322 27.1126 227.631 26.8949 227.011 26.5373C226.391 26.1798 225.856 25.6909 225.445 25.105C224.575 23.855 223.685 20.525 223.445 11.835C223.305 10.485 223.025 10.335 222.595 11.395L221.755 13.395C221.575 13.9011 221.514 14.4415 221.575 14.975L223.075 32.415C223.142 33.1393 222.993 33.8673 222.646 34.5065C222.299 35.1457 221.769 35.6673 221.125 36.005C219.978 36.6002 218.716 36.9412 217.425 37.005C214.585 37.175 212.875 36.465 212.295 34.895C211.795 33.495 212.295 31.715 213.725 29.555C213.819 29.4505 213.87 29.3152 213.87 29.175C213.87 29.0348 213.819 28.8995 213.725 28.795C213.535 28.585 213.315 28.655 213.075 29.025C211.892 30.6613 211.076 32.5341 210.685 34.515C210.535 35.3488 210.565 36.2051 210.774 37.0262C210.983 37.8473 211.365 38.6141 211.895 39.275C212.456 39.8676 213.145 40.3243 213.909 40.6102C214.673 40.8962 215.493 41.0038 216.305 40.925C218.566 40.8288 220.723 39.9484 222.405 38.435C223.59 37.1199 224.382 35.4986 224.692 33.7556C225.001 32.0125 224.815 30.2177 224.155 28.575C224.536 29.157 225.049 29.6411 225.652 29.9885C226.254 30.3359 226.93 30.5368 227.625 30.575C239.229 31.6849 250.912 31.6849 262.515 30.575C264.515 30.575 265.735 29.515 266.245 27.415C266.512 26.4634 266.587 25.4679 266.463 24.4872C266.339 23.5065 266.02 22.5605 265.525 21.705Z" fill="#08044A"/>
<path d="M267.745 16.275C267.444 16.2869 267.146 16.3305 266.855 16.405C266.574 16.4798 266.285 16.5267 265.995 16.545C265.025 16.5788 264.076 16.2589 263.325 15.645C263.289 15.616 263.261 15.5793 263.241 15.5378C263.221 15.4963 263.211 15.451 263.211 15.405C263.211 15.3591 263.221 15.3137 263.241 15.2722C263.261 15.2307 263.289 15.1941 263.325 15.165C263.412 15.0761 263.519 15.0097 263.638 14.9714C263.756 14.9331 263.882 14.924 264.005 14.945C264.159 14.9617 264.306 15.0137 264.436 15.097C264.566 15.1802 264.675 15.2925 264.755 15.425C264.785 15.4896 264.83 15.5462 264.886 15.5905C264.942 15.6347 265.008 15.6653 265.077 15.6798C265.147 15.6944 265.22 15.6925 265.289 15.6743C265.358 15.6561 265.421 15.6221 265.475 15.575C265.648 15.4198 265.8 15.2414 265.925 15.045C266.185 14.5902 266.329 14.0786 266.345 13.555C266.38 13.411 266.379 13.2608 266.343 13.117C266.308 12.9732 266.238 12.8402 266.14 12.7292C266.041 12.6183 265.918 12.5327 265.78 12.4797C265.641 12.4268 265.492 12.408 265.345 12.425C264.784 12.4257 264.233 12.5762 263.75 12.861C263.266 13.1458 262.867 13.5546 262.595 14.045C262.239 14.4549 261.968 14.9308 261.796 15.4455C261.625 15.9603 261.556 16.5038 261.595 17.045C261.674 17.3001 261.803 17.5368 261.975 17.7412C262.146 17.9455 262.357 18.1135 262.595 18.235C261.725 18.825 261.425 19.335 261.705 19.775C261.793 19.8973 261.924 19.983 262.071 20.0162C262.218 20.0493 262.373 20.0276 262.505 19.955C263.685 19.435 264.505 19.115 264.925 18.955C265.648 18.7449 266.383 18.5746 267.125 18.445C267.505 18.355 267.895 17.895 268.295 17.055C268.329 16.9707 268.342 16.8794 268.333 16.789C268.324 16.6985 268.294 16.6115 268.245 16.535C268.191 16.4528 268.116 16.3857 268.029 16.3402C267.941 16.2947 267.843 16.2723 267.745 16.275Z" fill="#08044A"/>
<path d="M294.275 33.035C294.19 32.9977 294.094 32.9913 294.005 33.0169C293.915 33.0424 293.838 33.0983 293.785 33.175L292.385 35.265C292.352 35.3001 292.328 35.3426 292.315 35.3889C292.302 35.4352 292.301 35.4839 292.311 35.5309C292.32 35.578 292.341 35.622 292.372 35.6592C292.402 35.6965 292.441 35.7259 292.485 35.745C293.675 36.465 294.375 36.905 294.575 37.055C294.609 37.0933 294.652 37.1228 294.7 37.1411C294.748 37.1594 294.799 37.1659 294.85 37.16C294.901 37.1541 294.95 37.136 294.993 37.1073C295.035 37.0786 295.07 37.0401 295.095 36.995L296.445 34.805C296.494 34.7201 296.512 34.6205 296.496 34.5237C296.479 34.4269 296.43 34.3389 296.355 34.275C295.745 33.7358 295.039 33.3152 294.275 33.035Z" fill="#08044A"/>
<path d="M312.095 15.155C312.129 15.1933 312.172 15.2228 312.22 15.2411C312.268 15.2594 312.32 15.2658 312.371 15.2599C312.422 15.2541 312.471 15.236 312.513 15.2073C312.556 15.1786 312.591 15.14 312.615 15.095L313.615 13.535C314.455 14.045 314.965 14.375 315.155 14.535C315.189 14.5708 315.231 14.598 315.278 14.6144C315.325 14.6307 315.374 14.6356 315.423 14.6288C315.472 14.6219 315.519 14.6035 315.559 14.575C315.6 14.5465 315.632 14.5088 315.655 14.465L317.035 12.275C317.09 12.1924 317.112 12.0925 317.097 11.9946C317.082 11.8967 317.032 11.8077 316.955 11.745C316.333 11.2015 315.614 10.7807 314.835 10.505C314.75 10.4677 314.655 10.4613 314.565 10.4868C314.476 10.5124 314.398 10.5683 314.345 10.645L313.445 11.965C312.949 11.6159 312.407 11.3367 311.835 11.135C311.75 11.0977 311.655 11.0913 311.565 11.1168C311.476 11.1424 311.398 11.1983 311.345 11.275L309.945 13.365C309.91 13.399 309.884 13.4414 309.87 13.4882C309.855 13.5349 309.853 13.5846 309.863 13.6325C309.873 13.6804 309.895 13.725 309.927 13.7622C309.959 13.7993 309.999 13.8278 310.045 13.845C311.195 14.565 311.895 15.005 312.095 15.155Z" fill="#08044A"/>
<path d="M368.055 10.5851C367.945 9.34511 367.695 9.14511 367.295 10.0051L366.095 12.5851C365.914 12.9539 365.852 13.3694 365.915 13.7751L366.535 18.5951C367.059 21.9267 367.393 25.2855 367.535 28.6551C367.535 29.5251 367.605 29.9851 367.775 30.0551C367.945 30.1251 368.145 29.9751 368.335 29.6151C369.175 27.9951 369.312 23.9951 368.745 17.6151L368.055 10.5851Z" fill="#08044A"/>
<path d="M393.365 15.2951L392.445 16.6351C391.951 16.2809 391.409 15.9981 390.835 15.7951C390.75 15.7597 390.655 15.7543 390.566 15.7797C390.477 15.8051 390.399 15.8599 390.345 15.9351L388.945 18.0251C388.912 18.0611 388.889 18.1044 388.876 18.1514C388.863 18.1983 388.861 18.2477 388.871 18.2954C388.881 18.3431 388.902 18.3879 388.932 18.4261C388.962 18.4642 389.001 18.4947 389.045 18.5151C390.245 19.2251 390.935 19.6651 391.135 19.8151C391.169 19.8534 391.212 19.8829 391.26 19.9012C391.308 19.9195 391.36 19.9259 391.411 19.92C391.462 19.9142 391.511 19.8961 391.553 19.8674C391.596 19.8387 391.631 19.8002 391.655 19.7551L392.655 18.2051C393.184 18.5095 393.694 18.8433 394.185 19.2051C394.22 19.2405 394.263 19.2672 394.31 19.2828C394.357 19.2983 394.407 19.3024 394.456 19.2945C394.505 19.2867 394.551 19.2672 394.591 19.2377C394.631 19.2082 394.663 19.1696 394.685 19.1251L396.075 16.9351C396.126 16.8522 396.145 16.7538 396.128 16.6581C396.112 16.5624 396.061 16.476 395.985 16.4151C395.366 15.8459 394.643 15.4011 393.855 15.1051C393.764 15.0743 393.665 15.0765 393.576 15.1112C393.486 15.146 393.412 15.211 393.365 15.2951Z" fill="#08044A"/>
<path d="M402.205 19.245L401.345 21.8049C401.294 21.9178 401.279 22.0438 401.302 22.1656C401.325 22.2874 401.386 22.3989 401.475 22.4849C402.112 22.9929 402.565 23.6953 402.765 24.4849C399.241 26.3013 395.306 27.173 391.345 27.015C385.918 27.015 383.022 25.905 382.655 23.685C382.63 23.2961 382.696 22.9069 382.847 22.5477C382.997 22.1885 383.23 21.8693 383.525 21.615C383.785 21.345 383.815 21.115 383.625 20.925C383.435 20.735 383.195 20.775 382.925 21.085C382.289 21.7541 381.787 22.538 381.445 23.395C381.107 24.1182 380.972 24.9194 381.053 25.7134C381.134 26.5075 381.428 27.2648 381.905 27.905C383.578 29.965 386.695 30.875 391.255 30.635C395.329 30.5233 399.306 29.3663 402.805 27.275C403.158 27.0081 403.451 26.6698 403.665 26.2821C403.878 25.8944 404.008 25.4661 404.045 25.025C404.465 23.1061 404.136 21.0991 403.125 19.4149C402.685 18.7749 402.385 18.715 402.205 19.245Z" fill="#08044A"/>
<path d="M410.335 17.6551L409.635 10.5851C409.525 9.34511 409.275 9.14511 408.875 10.0051L407.675 12.5851C407.494 12.9539 407.431 13.3694 407.495 13.7751L408.115 18.5951C408.637 21.927 408.971 25.2857 409.115 28.6551C409.115 29.5251 409.175 29.9851 409.355 30.0551C409.535 30.1251 409.715 29.9751 409.905 29.6151C410.772 27.9951 410.915 24.0084 410.335 17.6551Z" fill="#08044A"/>
<path d="M493.995 21.365C492.065 21.195 490.515 22.605 488.295 24.585C487.487 25.3404 486.719 26.1382 485.995 26.975C484.802 26.7033 483.741 26.0244 482.995 25.0549C482.914 24.8777 482.789 24.7246 482.631 24.6106C482.473 24.4966 482.289 24.4257 482.095 24.405C481.911 24.4182 481.734 24.4823 481.584 24.5899C481.434 24.6976 481.316 24.8447 481.245 25.015C480.997 25.5089 480.645 25.9435 480.214 26.2887C479.782 26.6339 479.281 26.8817 478.745 27.015H422.045C421.981 25.907 421.637 24.8334 421.045 23.895C420.922 23.7051 420.76 23.5433 420.57 23.4202C420.38 23.297 420.166 23.2154 419.943 23.1804C419.719 23.1455 419.49 23.1582 419.272 23.2175C419.054 23.2769 418.85 23.3816 418.675 23.525C417.785 24.0749 417.125 25.2949 416.675 27.1949C416.502 27.6386 416.481 28.1273 416.617 28.5837C416.753 29.0402 417.037 29.4382 417.425 29.715C418.391 30.1682 419.448 30.3908 420.515 30.365C419.638 32.2475 418.17 33.7924 416.335 34.765C414.188 36.0983 412.248 36.455 410.515 35.835C410.145 35.695 409.915 35.715 409.805 35.905C409.695 36.095 409.805 36.295 410.075 36.525C411.695 37.885 412.995 38.525 413.975 38.525C414.792 38.5046 415.596 38.3139 416.335 37.965C419.262 36.6316 421.072 34.1383 421.765 30.4849C440.555 30.1849 459.345 30.7649 478.135 30.4849C478.679 30.478 479.209 30.3061 479.653 29.9918C480.098 29.6776 480.437 29.2358 480.625 28.725C480.656 28.6389 480.708 28.5622 480.777 28.5024C480.846 28.4426 480.93 28.4016 481.019 28.3835C481.109 28.3654 481.201 28.3707 481.288 28.399C481.375 28.4273 481.453 28.4776 481.515 28.545C482.116 29.2208 482.875 29.7364 483.725 30.045C483.476 30.6463 483.282 31.2688 483.145 31.905C483.114 31.9915 483.1 32.0836 483.104 32.1756C483.109 32.2676 483.132 32.3577 483.172 32.4407C483.212 32.5236 483.269 32.5977 483.338 32.6585C483.407 32.7194 483.488 32.7658 483.575 32.795C483.945 32.915 484.185 32.795 484.285 32.285C484.41 31.6658 484.612 31.0646 484.885 30.495C485.956 30.7575 487.053 30.8983 488.155 30.9149C490.577 30.9892 492.959 30.2885 494.955 28.9149C495.437 28.4176 495.833 27.843 496.125 27.215C496.6 26.3916 496.937 25.4966 497.125 24.565C497.205 24.2365 497.205 23.8934 497.125 23.565C496.865 22.345 495.315 21.485 493.995 21.365ZM420.225 27.365C419.225 27.365 418.535 27.205 418.225 26.815C418.157 26.7457 418.118 26.6523 418.118 26.5549C418.118 26.4576 418.157 26.3642 418.225 26.295C418.412 26.0932 418.67 25.9714 418.945 25.955C419.505 25.955 419.945 26.335 420.335 27.145C420.385 27.285 420.345 27.355 420.225 27.355V27.365ZM491.715 27.105C490.28 27.2569 488.838 27.3237 487.395 27.3049C488.569 26.232 490.015 25.5021 491.575 25.1949C492.925 25.0962 494.263 25.4985 495.335 26.325C494.192 26.8217 492.961 27.0868 491.715 27.105Z" fill="#08044A"/>
<path d="M505.275 4.55507C504.974 4.55615 504.674 4.59992 504.385 4.68507C504.1 4.76073 503.809 4.80763 503.515 4.82507C502.544 4.85603 501.595 4.53257 500.845 3.91507C500.809 3.88599 500.781 3.84938 500.761 3.80787C500.741 3.76637 500.731 3.721 500.731 3.67507C500.731 3.62913 500.741 3.58377 500.761 3.54226C500.781 3.50076 500.809 3.46414 500.845 3.43507C500.932 3.34649 501.04 3.28093 501.158 3.24427C501.277 3.20762 501.403 3.20102 501.525 3.22507C501.679 3.23911 501.828 3.28888 501.96 3.37046C502.092 3.45203 502.203 3.56316 502.285 3.69507C502.315 3.75964 502.36 3.81627 502.416 3.86049C502.472 3.90471 502.538 3.9353 502.607 3.94985C502.677 3.9644 502.75 3.9625 502.818 3.94432C502.887 3.92613 502.951 3.89216 503.005 3.84507C503.175 3.68644 503.326 3.50858 503.455 3.31507C503.711 2.86215 503.855 2.35478 503.875 1.83507C503.909 1.69063 503.908 1.54008 503.873 1.396C503.837 1.25193 503.767 1.11851 503.669 1.00691C503.571 0.895306 503.448 0.808764 503.31 0.754512C503.172 0.70026 503.023 0.679876 502.875 0.695067C502.313 0.698759 501.763 0.851628 501.279 1.13803C500.796 1.42444 500.398 1.8341 500.125 2.32507C499.767 2.73372 499.495 3.20945 499.323 3.72451C499.152 4.23958 499.084 4.78367 499.125 5.32507C499.204 5.58012 499.333 5.81681 499.505 6.02119C499.676 6.22557 499.887 6.39349 500.125 6.51507C499.255 7.10507 498.965 7.62507 499.235 8.05507C499.322 8.1817 499.454 8.27062 499.605 8.304C499.755 8.33738 499.912 8.31276 500.045 8.23507C501.215 7.71507 502.045 7.39507 502.455 7.23507C502.865 7.07507 503.625 6.92507 504.655 6.72507C505.035 6.63507 505.425 6.17507 505.835 5.33507C505.866 5.24975 505.877 5.15824 505.867 5.06791C505.856 4.97758 505.825 4.89097 505.775 4.81507C505.722 4.7314 505.648 4.66326 505.56 4.61759C505.472 4.57191 505.374 4.55034 505.275 4.55507Z" fill="#08044A"/>
<path d="M503.015 10.5851C502.905 9.34511 502.655 9.14511 502.255 10.0051L501.055 12.5851C500.874 12.9539 500.812 13.3694 500.875 13.7751L501.495 18.5951C502.012 21.9277 502.346 25.286 502.495 28.6551C502.495 29.5251 502.555 29.9851 502.735 30.0551C502.915 30.1251 503.095 29.9751 503.285 29.6151C504.125 27.9951 504.262 23.9951 503.695 17.6151L503.015 10.5851Z" fill="#08044A"/>
<path d="M363.445 12.455C363.522 12.378 363.581 12.2847 363.618 12.182C363.654 12.0793 363.667 11.9697 363.655 11.8613C363.644 11.753 363.608 11.6485 363.551 11.5557C363.494 11.4629 363.417 11.3841 363.325 11.325C362.713 10.7893 362.257 10.0983 362.005 9.32502C361.715 8.52502 361.435 8.39502 361.165 8.94502L360.445 10.435C360.344 10.6437 360.291 10.8729 360.291 11.105C360.291 11.3372 360.344 11.5663 360.445 11.775C360.515 12.045 360.605 12.555 360.715 13.295C361.795 21.355 362.342 25.6184 362.355 26.085C362.117 26.407 361.804 26.6663 361.444 26.8405C361.083 27.0147 360.686 27.0986 360.285 27.085L320.445 27.105H319.215C318.352 27.0448 317.5 26.8665 316.685 26.575C316.968 26.1006 317.221 25.6097 317.445 25.105C318.077 23.7191 318.266 22.1721 317.985 20.675C317.947 20.2984 317.829 19.9343 317.64 19.6067C317.45 19.2792 317.193 18.9957 316.885 18.775C316.725 18.704 316.551 18.6666 316.375 18.665C315.713 18.7294 315.087 18.9985 314.585 19.435C313.041 20.5506 311.848 22.0841 311.145 23.855C310.816 24.6906 310.676 25.5888 310.735 26.485C309.86 26.7617 308.964 26.9658 308.055 27.095H307.985C307.515 27.095 306.805 27.095 305.775 27.095C304.035 27.155 302.295 27.155 300.535 27.095C299.415 27.095 298.655 27.095 298.195 27.095H298.115C297.748 27.0366 297.396 26.9025 297.083 26.7011C296.769 26.4997 296.501 26.2354 296.295 25.925C296.295 25.925 296.295 25.725 296.295 25.405C296.295 25.085 296.135 24.925 295.845 24.925C295.555 24.925 295.455 25.075 295.285 25.365C294.752 26.3317 293.332 26.9017 291.025 27.075C287.528 27.3583 284.013 27.3583 280.515 27.075C276.055 26.575 273.235 24.915 272.065 22.075C271.455 20.605 271.125 17.205 271.065 11.865C271.065 10.865 271.195 10.265 271.445 10.155C271.816 10.0242 272.203 9.9435 272.595 9.91502C273.105 9.85502 273.395 9.61503 273.455 9.18502L273.695 7.18503C273.775 6.54503 273.505 6.24502 272.905 6.28502C272.153 6.29525 271.435 6.60049 270.905 7.13502C270.412 7.69478 270.105 8.39346 270.025 9.13502C269.79 12.2127 269.75 15.3023 269.905 18.385C269.905 19.115 270.015 20.135 270.165 21.455C270.276 23.4894 270.944 25.4542 272.095 27.135C274.009 29.5017 278.205 30.695 284.685 30.715C286.837 30.773 288.991 30.7062 291.135 30.515C291.871 30.4863 292.594 30.3084 293.259 29.9921C293.924 29.6758 294.518 29.2277 295.005 28.675C295.353 29.2043 295.818 29.6464 296.365 29.9672C296.911 30.288 297.524 30.4789 298.155 30.525C301.489 30.6784 304.842 30.6784 308.215 30.525C308.215 30.525 308.215 30.525 308.275 30.525C309.013 30.4222 309.738 30.2377 310.435 29.975C311.364 29.6952 312.276 29.3613 313.165 28.975C314.978 30.059 317.054 30.6229 319.165 30.605C319.565 30.605 360.255 30.605 360.275 30.605C362.175 30.2917 363.295 28.5117 363.635 25.265C363.842 23.1184 363.552 19.1717 362.765 13.425L363.445 12.455ZM312.445 23.915C312.719 23.4914 313.098 23.1461 313.545 22.913C313.992 22.6798 314.491 22.5668 314.995 22.585C315.745 22.585 316.125 23.255 316.125 24.515C314.445 25.745 313.225 25.545 312.445 23.915Z" fill="#08044A"/>
</svg>
