<svg xmlns="http://www.w3.org/2000/svg" width="17" height="18" viewBox="0 0 17 18" fill="none">
  <path d="M12.041 7.87174H11.3327C11.1448 7.87174 10.9647 7.94637 10.8318 8.07921C10.699 8.21205 10.6243 8.39222 10.6243 8.58008C10.6243 8.76794 10.699 8.94811 10.8318 9.08095C10.9647 9.21378 11.1448 9.28841 11.3327 9.28841H12.041C12.2289 9.28841 12.409 9.21378 12.5419 9.08095C12.6747 8.94811 12.7493 8.76794 12.7493 8.58008C12.7493 8.39222 12.6747 8.21205 12.5419 8.07921C12.409 7.94637 12.2289 7.87174 12.041 7.87174ZM12.041 10.7051H11.3327C11.1448 10.7051 10.9647 10.7797 10.8318 10.9125C10.699 11.0454 10.6243 11.2255 10.6243 11.4134C10.6243 11.6013 10.699 11.7814 10.8318 11.9143C10.9647 12.0471 11.1448 12.1217 11.3327 12.1217H12.041C12.2289 12.1217 12.409 12.0471 12.5419 11.9143C12.6747 11.7814 12.7493 11.6013 12.7493 11.4134C12.7493 11.2255 12.6747 11.0454 12.5419 10.9125C12.409 10.7797 12.2289 10.7051 12.041 10.7051ZM7.79102 6.45508H12.041C12.2289 6.45508 12.409 6.38045 12.5419 6.24761C12.6747 6.11477 12.7493 5.93461 12.7493 5.74674C12.7493 5.55888 12.6747 5.37872 12.5419 5.24588C12.409 5.11304 12.2289 5.03841 12.041 5.03841H7.79102C7.60315 5.03841 7.42299 5.11304 7.29015 5.24588C7.15731 5.37872 7.08268 5.55888 7.08268 5.74674C7.08268 5.93461 7.15731 6.11477 7.29015 6.24761C7.42299 6.38045 7.60315 6.45508 7.79102 6.45508V6.45508ZM14.8743 2.20508H4.95768C4.76982 2.20508 4.58965 2.27971 4.45682 2.41254C4.32398 2.54538 4.24935 2.72555 4.24935 2.91341V5.03841H2.12435C1.93649 5.03841 1.75632 5.11304 1.62348 5.24588C1.49064 5.37872 1.41602 5.55888 1.41602 5.74674V12.8301C1.41602 13.3937 1.6399 13.9342 2.03841 14.3327C2.43693 14.7312 2.97743 14.9551 3.54102 14.9551H12.7493C13.5008 14.9551 14.2215 14.6566 14.7528 14.1252C15.2842 13.5939 15.5827 12.8732 15.5827 12.1217V2.91341C15.5827 2.72555 15.5081 2.54538 15.3752 2.41254C15.2424 2.27971 15.0622 2.20508 14.8743 2.20508V2.20508ZM4.24935 12.8301C4.24935 13.0179 4.17472 13.1981 4.04188 13.3309C3.90904 13.4638 3.72888 13.5384 3.54102 13.5384C3.35315 13.5384 3.17299 13.4638 3.04015 13.3309C2.90731 13.1981 2.83268 13.0179 2.83268 12.8301V6.45508H4.24935V12.8301ZM14.166 12.1217C14.166 12.4975 14.0168 12.8578 13.7511 13.1235C13.4854 13.3892 13.1251 13.5384 12.7493 13.5384H5.53852C5.62098 13.3113 5.6641 13.0717 5.66602 12.8301V3.62174H14.166V12.1217ZM7.79102 9.28841H8.49935C8.68721 9.28841 8.86738 9.21378 9.00022 9.08095C9.13305 8.94811 9.20768 8.76794 9.20768 8.58008C9.20768 8.39222 9.13305 8.21205 9.00022 8.07921C8.86738 7.94637 8.68721 7.87174 8.49935 7.87174H7.79102C7.60315 7.87174 7.42299 7.94637 7.29015 8.07921C7.15731 8.21205 7.08268 8.39222 7.08268 8.58008C7.08268 8.76794 7.15731 8.94811 7.29015 9.08095C7.42299 9.21378 7.60315 9.28841 7.79102 9.28841V9.28841ZM7.79102 12.1217H8.49935C8.68721 12.1217 8.86738 12.0471 9.00022 11.9143C9.13305 11.7814 9.20768 11.6013 9.20768 11.4134C9.20768 11.2255 9.13305 11.0454 9.00022 10.9125C8.86738 10.7797 8.68721 10.7051 8.49935 10.7051H7.79102C7.60315 10.7051 7.42299 10.7797 7.29015 10.9125C7.15731 11.0454 7.08268 11.2255 7.08268 11.4134C7.08268 11.6013 7.15731 11.7814 7.29015 11.9143C7.42299 12.0471 7.60315 12.1217 7.79102 12.1217V12.1217Z" fill="url(#paint0_linear_1244_2383)"/>
  <defs>
    <linearGradient id="paint0_linear_1244_2383" x1="1.41602" y1="8.57982" x2="15.5828" y2="8.57982" gradientUnits="userSpaceOnUse">
      <stop stop-color="#AE8556"/>
      <stop offset="1" stop-color="#90794C"/>
    </linearGradient>
  </defs>
</svg>