<svg xmlns="http://www.w3.org/2000/svg" width="17" height="18" viewBox="0 0 17 18" fill="none">
  <path d="M14.9964 1.53888C14.4886 1.45143 13.9745 1.40641 13.4593 1.4043C11.7014 1.40286 9.98028 1.90691 8.50094 2.85638C7.01779 1.91938 5.2969 1.4277 3.5426 1.43972C3.02739 1.44183 2.51325 1.48684 2.00552 1.5743C1.83921 1.60297 1.6886 1.69008 1.58081 1.81994C1.47303 1.94981 1.41515 2.11389 1.4176 2.28263V10.7826C1.41608 10.8867 1.43752 10.9898 1.4804 11.0847C1.52327 11.1795 1.58651 11.2638 1.66564 11.3314C1.74477 11.399 1.83783 11.4484 1.9382 11.476C2.03856 11.5036 2.14378 11.5087 2.24635 11.491C3.26141 11.3152 4.30137 11.3444 5.30498 11.5767C6.30859 11.8091 7.25556 12.2399 8.0901 12.8439L8.1751 12.8935H8.25302C8.33157 12.9262 8.41583 12.943 8.50094 12.943C8.58604 12.943 8.6703 12.9262 8.74885 12.8935H8.82677L8.91177 12.8439C9.74049 12.2264 10.6847 11.7816 11.6885 11.5358C12.6923 11.2901 13.7353 11.2483 14.7555 11.413C14.8581 11.4308 14.9633 11.4256 15.0637 11.3981C15.164 11.3705 15.2571 11.3211 15.3362 11.2535C15.4154 11.1859 15.4786 11.1016 15.5215 11.0068C15.5643 10.9119 15.5858 10.8088 15.5843 10.7047V2.20472C15.5769 2.04333 15.5146 1.8893 15.4076 1.7682C15.3007 1.64709 15.1556 1.56618 14.9964 1.53888ZM7.7926 10.9526C6.4821 10.2632 5.02339 9.90339 3.5426 9.9043C3.30885 9.9043 3.0751 9.9043 2.83427 9.9043V2.82097C3.07018 2.80737 3.30669 2.80737 3.5426 2.82097C5.05375 2.8193 6.53192 3.26275 7.7926 4.09597V10.9526ZM14.1676 9.93263C13.9268 9.93263 13.693 9.93263 13.4593 9.93263C11.9785 9.93172 10.5198 10.2915 9.20927 10.981V4.09597C10.47 3.26275 11.9481 2.8193 13.4593 2.82097C13.6952 2.80737 13.9317 2.80737 14.1676 2.82097V9.93263ZM14.9964 12.8722C14.4886 12.7848 13.9745 12.7397 13.4593 12.7376C11.7014 12.7362 9.98028 13.2402 8.50094 14.1897C7.02159 13.2402 5.30043 12.7362 3.5426 12.7376C3.02739 12.7397 2.51325 12.7848 2.00552 12.8722C1.91331 12.8868 1.82491 12.9196 1.74539 12.9685C1.66587 13.0174 1.59681 13.0816 1.54217 13.1573C1.48754 13.233 1.4484 13.3187 1.42702 13.4096C1.40565 13.5005 1.40244 13.5947 1.4176 13.6868C1.4536 13.8707 1.56103 14.0329 1.71637 14.1378C1.87171 14.2427 2.06228 14.2817 2.24635 14.2464C3.26141 14.0706 4.30137 14.0998 5.30498 14.3321C6.30859 14.5645 7.25556 14.9953 8.0901 15.5993C8.21007 15.6847 8.35367 15.7306 8.50094 15.7306C8.6482 15.7306 8.7918 15.6847 8.91177 15.5993C9.74631 14.9953 10.6933 14.5645 11.6969 14.3321C12.7005 14.0998 13.7405 14.0706 14.7555 14.2464C14.9396 14.2817 15.1302 14.2427 15.2855 14.1378C15.4408 14.0329 15.5483 13.8707 15.5843 13.6868C15.5994 13.5947 15.5962 13.5005 15.5748 13.4096C15.5535 13.3187 15.5143 13.233 15.4597 13.1573C15.4051 13.0816 15.336 13.0174 15.2565 12.9685C15.177 12.9196 15.0886 12.8868 14.9964 12.8722V12.8722Z" fill="url(#paint0_linear_1244_7320)"/>
  <defs>
    <linearGradient id="paint0_linear_1244_7320" x1="1.4082" y1="8.56717" x2="15.5938" y2="8.56717" gradientUnits="userSpaceOnUse">
      <stop stop-color="#AE8556"/>
      <stop offset="1" stop-color="#90794C"/>
    </linearGradient>
  </defs>
</svg>