<svg width="24" height="25" viewBox="0 0 24 25" fill="none" xmlns="http://www.w3.org/2000/svg">
<path d="M20.9 2.92188H3.1C2.80826 2.92188 2.52847 3.03777 2.32218 3.24406C2.11589 3.45035 2 3.73014 2 4.02187V21.8219C2 21.9663 2.02845 22.1094 2.08373 22.2428C2.13901 22.3763 2.22004 22.4975 2.32218 22.5997C2.42433 22.7018 2.54559 22.7829 2.67905 22.8381C2.81251 22.8934 2.95555 22.9219 3.1 22.9219H12.68V15.1719H10.08V12.1719H12.68V9.92188C12.6261 9.39363 12.6885 8.86 12.8627 8.35841C13.0369 7.85682 13.3188 7.39942 13.6885 7.01829C14.0582 6.63715 14.5068 6.34152 15.0028 6.15211C15.4989 5.96271 16.0304 5.88413 16.56 5.92188C17.3383 5.91709 18.1163 5.95715 18.89 6.04187V8.74188H17.3C16.04 8.74188 15.8 9.34188 15.8 10.2119V12.1419H18.8L18.41 15.1419H15.8V22.9219H20.9C21.0445 22.9219 21.1875 22.8934 21.321 22.8381C21.4544 22.7829 21.5757 22.7018 21.6778 22.5997C21.78 22.4975 21.861 22.3763 21.9163 22.2428C21.9715 22.1094 22 21.9663 22 21.8219V4.02187C22 3.87742 21.9715 3.73438 21.9163 3.60092C21.861 3.46747 21.78 3.3462 21.6778 3.24406C21.5757 3.14191 21.4544 3.06089 21.321 3.00561C21.1875 2.95033 21.0445 2.92187 20.9 2.92188Z" fill="white"/>
</svg>
