<svg width="33" height="33" viewBox="0 0 33 33" fill="none" xmlns="http://www.w3.org/2000/svg">
<path d="M6.44248 26.6048V22.2252C6.44248 20.7704 7.58237 19.4655 9.20221 19.4655C10.6571 19.4655 11.9619 20.6054 11.9619 22.2252V26.4398C11.9619 29.3645 9.53217 31.7943 6.60747 31.7943C3.68276 31.7943 1.253 29.3495 1.253 26.4398V17.2007C1.08802 8.77158 7.74735 1.94727 16.1765 1.94727C24.6057 1.94727 31.25 8.77158 31.25 17.0358V26.2748C31.25 29.1995 28.8202 31.6293 25.8955 31.6293C22.9708 31.6293 20.5411 29.1995 20.5411 26.2748V22.0603C20.5411 20.6054 21.681 19.3005 23.3008 19.3005C24.7557 19.3005 26.0605 20.4404 26.0605 22.0603V26.6048" stroke="white" stroke-width="2" stroke-linecap="round" stroke-linejoin="round"/>
</svg>
