<svg width="25" height="25" viewBox="0 0 25 25" fill="none" xmlns="http://www.w3.org/2000/svg">
<path d="M12.1826 10.095C11.6921 10.095 11.2126 10.2404 10.8048 10.5129C10.397 10.7854 10.0791 11.1727 9.8914 11.6259C9.70369 12.0791 9.65458 12.5777 9.75027 13.0588C9.84596 13.5398 10.0822 13.9817 10.429 14.3286C10.7758 14.6754 11.2177 14.9116 11.6988 15.0073C12.1799 15.103 12.6785 15.0539 13.1317 14.8662C13.5848 14.6785 13.9722 14.3606 14.2447 13.9528C14.5172 13.5449 14.6626 13.0654 14.6626 12.575C14.6626 12.2493 14.5985 11.9268 14.4738 11.6259C14.3492 11.325 14.1665 11.0516 13.9362 10.8213C13.706 10.591 13.4326 10.4084 13.1317 10.2837C12.8308 10.1591 12.5083 10.095 12.1826 10.095ZM22.1126 7.64495C22.1074 6.87271 21.9652 6.10752 21.6926 5.38495C21.4919 4.85621 21.1813 4.37604 20.7814 3.97614C20.3815 3.57623 19.9014 3.26567 19.3726 3.06495C18.65 2.79241 17.8849 2.65021 17.1126 2.64495C15.8226 2.57495 15.4426 2.57495 12.1826 2.57495C8.92262 2.57495 8.54262 2.57495 7.25262 2.64495C6.48038 2.65021 5.71519 2.79241 4.99262 3.06495C4.46388 3.26567 3.98371 3.57623 3.5838 3.97614C3.18389 4.37604 2.87333 4.85621 2.67262 5.38495C2.40008 6.10752 2.25788 6.87271 2.25262 7.64495C2.18262 8.93495 2.18262 9.31495 2.18262 12.575C2.18262 15.835 2.18262 16.215 2.25262 17.505C2.26338 18.2799 2.40539 19.0474 2.67262 19.775C2.87245 20.3013 3.18275 20.7787 3.58262 21.175C3.98081 21.5773 4.46201 21.8878 4.99262 22.085C5.71519 22.3575 6.48038 22.4997 7.25262 22.505C8.54262 22.575 8.92262 22.575 12.1826 22.575C15.4426 22.575 15.8226 22.575 17.1126 22.505C17.8849 22.4997 18.65 22.3575 19.3726 22.085C19.9032 21.8878 20.3844 21.5773 20.7826 21.175C21.1825 20.7787 21.4928 20.3013 21.6926 19.775C21.9649 19.0488 22.1071 18.2804 22.1126 17.505C22.1826 16.215 22.1826 15.835 22.1826 12.575C22.1826 9.31495 22.1826 8.93495 22.1126 7.64495ZM19.5726 15.645C19.5405 16.2621 19.4088 16.8699 19.1826 17.445C18.9885 17.9246 18.6999 18.3604 18.334 18.7263C17.9681 19.0922 17.5323 19.3808 17.0526 19.575C16.4721 19.7885 15.8609 19.9067 15.2426 19.925C14.4526 19.925 14.2426 19.925 12.1826 19.925C10.1226 19.925 9.91262 19.925 9.12262 19.925C8.50435 19.9067 7.89311 19.7885 7.31262 19.575C6.81672 19.3907 6.36889 19.0967 6.00262 18.715C5.64028 18.3562 5.36046 17.9228 5.18262 17.445C4.96817 16.8651 4.85322 16.2531 4.84262 15.635C4.84262 14.845 4.84262 14.635 4.84262 12.575C4.84262 10.515 4.84262 10.305 4.84262 9.51495C4.85322 8.89678 4.96817 8.28484 5.18262 7.70495C5.3669 7.20905 5.66089 6.76123 6.04262 6.39495C6.40295 6.03457 6.83588 5.75504 7.31262 5.57495C7.89311 5.36136 8.50435 5.24316 9.12262 5.22495C9.91262 5.22495 10.1226 5.22495 12.1826 5.22495C14.2426 5.22495 14.4526 5.22495 15.2426 5.22495C15.8609 5.24316 16.4721 5.36136 17.0526 5.57495C17.5485 5.75923 17.9963 6.05323 18.3626 6.43495C18.725 6.7937 19.0048 7.22708 19.1826 7.70495C19.3962 8.28544 19.5144 8.89668 19.5326 9.51495C19.5326 10.305 19.5326 10.515 19.5326 12.575C19.5326 14.635 19.6026 14.845 19.5726 15.635V15.645ZM17.9726 8.20495C17.8536 7.88194 17.6658 7.58859 17.4224 7.34516C17.179 7.10174 16.8856 6.91401 16.5626 6.79495C16.1191 6.64121 15.652 6.56674 15.1826 6.57495C14.4026 6.57495 14.1826 6.57495 12.1826 6.57495C10.1826 6.57495 9.96262 6.57495 9.18262 6.57495C8.71088 6.57956 8.24369 6.66758 7.80262 6.83495C7.48455 6.94861 7.19431 7.12866 6.9512 7.36315C6.70809 7.59764 6.51768 7.88119 6.39262 8.19495C6.24739 8.64032 6.17645 9.10655 6.18262 9.57495C6.18262 10.355 6.18262 10.575 6.18262 12.575C6.18262 14.575 6.18262 14.795 6.18262 15.575C6.19253 16.0461 6.28039 16.5125 6.44262 16.955C6.56168 17.278 6.7494 17.5713 6.99283 17.8147C7.23626 18.0582 7.5296 18.2459 7.85262 18.365C8.27928 18.5219 8.72827 18.6096 9.18262 18.625C9.96262 18.625 10.1826 18.625 12.1826 18.625C14.1826 18.625 14.4026 18.625 15.1826 18.625C15.6544 18.6203 16.1215 18.5323 16.5626 18.365C16.8856 18.2459 17.179 18.0582 17.4224 17.8147C17.6658 17.5713 17.8536 17.278 17.9726 16.955C18.14 16.5139 18.228 16.0467 18.2326 15.575C18.2326 14.795 18.2326 14.575 18.2326 12.575C18.2326 10.575 18.2326 10.355 18.2326 9.57495C18.2329 9.10275 18.1447 8.63467 17.9726 8.19495V8.20495ZM12.1826 16.395C11.6814 16.395 11.1852 16.2961 10.7223 16.104C10.2594 15.9119 9.83892 15.6303 9.485 15.2755C9.13108 14.9206 8.85064 14.4995 8.65976 14.036C8.46888 13.5726 8.3713 13.0761 8.37262 12.575C8.37262 11.819 8.59691 11.08 9.0171 10.4516C9.43729 9.82323 10.0345 9.33362 10.7331 9.04478C11.4317 8.75595 12.2003 8.68089 12.9415 8.8291C13.6828 8.97731 14.3635 9.34212 14.8973 9.87736C15.4311 10.4126 15.7942 11.0942 15.9404 11.8359C16.0867 12.5775 16.0096 13.3459 15.719 14.0437C15.4283 14.7416 14.9371 15.3375 14.3076 15.756C13.6781 16.1746 12.9386 16.3969 12.1826 16.395ZM16.1826 9.50495C15.9616 9.48155 15.757 9.37717 15.6083 9.21192C15.4596 9.04667 15.3774 8.83224 15.3774 8.60995C15.3774 8.38766 15.4596 8.17323 15.6083 8.00798C15.757 7.84273 15.9616 7.73835 16.1826 7.71495C16.4037 7.73835 16.6083 7.84273 16.7569 8.00798C16.9056 8.17323 16.9879 8.38766 16.9879 8.60995C16.9879 8.83224 16.9056 9.04667 16.7569 9.21192C16.6083 9.37717 16.4037 9.48155 16.1826 9.50495Z" fill="white"/>
</svg>
