<svg xmlns="http://www.w3.org/2000/svg" width="17" height="18" viewBox="0 0 17 18" fill="none">
  <path d="M8.49978 7.16276C8.31192 7.16276 8.13175 7.23739 7.99892 7.37023C7.86608 7.50306 7.79145 7.68323 7.79145 7.87109V10.7044C7.79145 10.8923 7.86608 11.0725 7.99892 11.2053C8.13175 11.3381 8.31192 11.4128 8.49978 11.4128C8.68764 11.4128 8.86781 11.3381 9.00065 11.2053C9.13349 11.0725 9.20812 10.8923 9.20812 10.7044V7.87109C9.20812 7.68323 9.13349 7.50306 9.00065 7.37023C8.86781 7.23739 8.68764 7.16276 8.49978 7.16276ZM5.66645 9.28776C5.47859 9.28776 5.29842 9.36239 5.16558 9.49523C5.03274 9.62806 4.95812 9.80823 4.95812 9.99609V10.7044C4.95812 10.8923 5.03274 11.0725 5.16558 11.2053C5.29842 11.3381 5.47859 11.4128 5.66645 11.4128C5.85431 11.4128 6.03448 11.3381 6.16732 11.2053C6.30015 11.0725 6.37478 10.8923 6.37478 10.7044V9.99609C6.37478 9.80823 6.30015 9.62806 6.16732 9.49523C6.03448 9.36239 5.85431 9.28776 5.66645 9.28776V9.28776ZM8.49978 1.49609C7.56959 1.49609 6.6485 1.67931 5.78911 2.03528C4.92972 2.39125 4.14886 2.91301 3.49111 3.57075C2.16273 4.89914 1.41645 6.70081 1.41645 8.57943C1.41026 10.2151 1.97659 11.8013 3.01728 13.0632L1.60062 14.4798C1.50233 14.5795 1.43575 14.7059 1.40928 14.8433C1.3828 14.9808 1.39762 15.1229 1.45187 15.2519C1.5107 15.3794 1.60607 15.4865 1.72588 15.5596C1.84569 15.6328 1.98453 15.6687 2.12478 15.6628H8.49978C10.3784 15.6628 12.1801 14.9165 13.5085 13.5881C14.8368 12.2597 15.5831 10.458 15.5831 8.57943C15.5831 6.70081 14.8368 4.89914 13.5085 3.57075C12.1801 2.24237 10.3784 1.49609 8.49978 1.49609V1.49609ZM8.49978 14.2461H3.83187L4.49062 13.5873C4.55755 13.5217 4.61079 13.4435 4.64727 13.3572C4.68374 13.2709 4.70273 13.1781 4.70312 13.0844C4.70045 12.8976 4.62408 12.7194 4.49062 12.5886C3.56311 11.6621 2.98553 10.4427 2.85627 9.13816C2.72701 7.83359 3.05408 6.52456 3.78174 5.43409C4.5094 4.34362 5.59263 3.53918 6.8469 3.15782C8.10116 2.77647 9.44885 2.84179 10.6604 3.34266C11.8719 3.84353 12.8722 4.74896 13.491 5.90468C14.1098 7.06041 14.3087 8.39494 14.0539 9.68089C13.7991 10.9668 13.1063 12.1247 12.0935 12.9571C11.0808 13.7895 9.81074 14.2451 8.49978 14.2461V14.2461ZM11.3331 5.74609C11.1453 5.74609 10.9651 5.82072 10.8322 5.95356C10.6994 6.0864 10.6248 6.26657 10.6248 6.45443V10.7044C10.6248 10.8923 10.6994 11.0725 10.8322 11.2053C10.9651 11.3381 11.1453 11.4128 11.3331 11.4128C11.521 11.4128 11.7011 11.3381 11.834 11.2053C11.9668 11.0725 12.0414 10.8923 12.0414 10.7044V6.45443C12.0414 6.26657 11.9668 6.0864 11.834 5.95356C11.7011 5.82072 11.521 5.74609 11.3331 5.74609Z" fill="url(#paint0_linear_1244_7216)"/>
  <defs>
    <linearGradient id="paint0_linear_1244_7216" x1="1.39648" y1="8.57946" x2="15.5832" y2="8.57946" gradientUnits="userSpaceOnUse">
      <stop stop-color="#AE8556"/>
      <stop offset="1" stop-color="#90794C"/>
    </linearGradient>
  </defs>
</svg>