<svg width="24" height="25" viewBox="0 0 24 25" fill="none" xmlns="http://www.w3.org/2000/svg">
<path d="M20.4705 2.92201H3.53055C3.34013 2.91937 3.15105 2.95426 2.97411 3.0247C2.79718 3.09513 2.63585 3.19974 2.49934 3.33253C2.36284 3.46532 2.25383 3.6237 2.17854 3.79862C2.10325 3.97355 2.06316 4.16159 2.06055 4.35201V21.492C2.06316 21.6824 2.10325 21.8705 2.17854 22.0454C2.25383 22.2203 2.36284 22.3787 2.49934 22.5115C2.63585 22.6443 2.79718 22.7489 2.97411 22.8193C3.15105 22.8898 3.34013 22.9247 3.53055 22.922H20.4705C20.661 22.9247 20.85 22.8898 21.027 22.8193C21.2039 22.7489 21.3652 22.6443 21.5017 22.5115C21.6383 22.3787 21.7473 22.2203 21.8226 22.0454C21.8978 21.8705 21.9379 21.6824 21.9405 21.492V4.35201C21.9379 4.16159 21.8978 3.97355 21.8226 3.79862C21.7473 3.6237 21.6383 3.46532 21.5017 3.33253C21.3652 3.19974 21.2039 3.09513 21.027 3.0247C20.85 2.95426 20.661 2.91937 20.4705 2.92201ZM8.09055 19.662H5.09055V10.662H8.09055V19.662ZM6.59055 9.40201C6.17681 9.40201 5.78002 9.23766 5.48746 8.9451C5.1949 8.65254 5.03055 8.25575 5.03055 7.84201C5.03055 7.42828 5.1949 7.03149 5.48746 6.73893C5.78002 6.44637 6.17681 6.28201 6.59055 6.28201C6.81024 6.2571 7.03272 6.27887 7.24342 6.3459C7.45412 6.41293 7.64829 6.5237 7.8132 6.67098C7.97812 6.81825 8.11007 6.99869 8.20042 7.2005C8.29076 7.4023 8.33746 7.62091 8.33746 7.84201C8.33746 8.06312 8.29076 8.28173 8.20042 8.48353C8.11007 8.68534 7.97812 8.86578 7.8132 9.01305C7.64829 9.16033 7.45412 9.2711 7.24342 9.33813C7.03272 9.40516 6.81024 9.42693 6.59055 9.40201ZM18.9105 19.662H15.9105V14.832C15.9105 13.622 15.4805 12.832 14.3905 12.832C14.0532 12.8345 13.7247 12.9403 13.4494 13.1352C13.174 13.3301 12.965 13.6047 12.8505 13.922C12.7723 14.1571 12.7384 14.4046 12.7505 14.652V19.652H9.75055C9.75055 19.652 9.75055 11.472 9.75055 10.652H12.7505V11.922C13.0231 11.4491 13.4195 11.0595 13.897 10.7952C14.3745 10.5309 14.9151 10.4019 15.4605 10.422C17.4605 10.422 18.9105 11.712 18.9105 14.482V19.662Z" fill="white"/>
</svg>
