<svg xmlns="http://www.w3.org/2000/svg" width="17" height="18" viewBox="0 0 17 18" fill="none">
  <g clip-path="url(#clip0_1244_6772)">
    <path d="M14.5485 1.82175C13.9699 1.24168 13.2081 0.880161 12.3928 0.798774C11.5776 0.717386 10.7593 0.921165 10.0775 1.3754C9.39562 1.82963 8.89233 2.50621 8.65336 3.28989C8.41439 4.07357 8.45451 4.91586 8.76689 5.67327C9.07927 6.43069 9.64458 7.05637 10.3665 7.44374C11.0885 7.8311 11.9224 7.95618 12.7262 7.79768C13.53 7.63917 14.254 7.20687 14.7749 6.57444C15.2957 5.942 15.5812 5.14855 15.5827 4.32925C15.5835 3.86384 15.4926 3.40283 15.3152 2.97257C15.1377 2.54232 14.8772 2.15126 14.5485 1.82175V1.82175ZM9.91602 4.32925C9.91602 3.76566 10.1399 3.22516 10.5384 2.82665C10.9369 2.42813 11.4774 2.20425 12.041 2.20425C12.3576 2.20612 12.6698 2.27873 12.9548 2.41675L10.1214 5.25008C9.98482 4.96241 9.91462 4.64771 9.91602 4.32925V4.32925ZM13.5427 5.83091C13.2273 6.13072 12.8295 6.32936 12.4003 6.4013C11.9711 6.47325 11.5303 6.41522 11.1343 6.23466L13.9677 3.40133C14.1029 3.69173 14.1707 4.00895 14.166 4.32925C14.1655 4.89264 13.9413 5.43278 13.5427 5.83091V5.83091ZM13.4577 9.28758C13.2698 9.28758 13.0897 9.36221 12.9568 9.49505C12.824 9.62789 12.7493 9.80805 12.7493 9.99591V10.2722L11.701 9.21675C11.3241 8.86265 10.8263 8.66553 10.3091 8.66553C9.79196 8.66553 9.29422 8.86265 8.91727 9.21675L8.42143 9.71966L6.66477 7.95591C6.28781 7.60181 5.79007 7.4047 5.27289 7.4047C4.75571 7.4047 4.25797 7.60181 3.88102 7.95591L2.83268 9.01133V5.03758C2.83268 4.84972 2.90731 4.66955 3.04015 4.53671C3.17299 4.40388 3.35315 4.32925 3.54102 4.32925H6.37435C6.56221 4.32925 6.74238 4.25462 6.87522 4.12178C7.00805 3.98894 7.08268 3.80878 7.08268 3.62091C7.08268 3.43305 7.00805 3.25289 6.87522 3.12005C6.74238 2.98721 6.56221 2.91258 6.37435 2.91258H3.54102C2.97743 2.91258 2.43693 3.13646 2.03841 3.53498C1.6399 3.93349 1.41602 4.474 1.41602 5.03758V13.5376C1.41602 14.1012 1.6399 14.6417 2.03841 15.0402C2.43693 15.4387 2.97743 15.6626 3.54102 15.6626H12.041C12.2703 15.659 12.4976 15.6184 12.7139 15.5422H12.7777C13.1409 15.4125 13.4621 15.1865 13.7067 14.8883C13.9512 14.59 14.11 14.2309 14.166 13.8492C14.17 13.7974 14.17 13.7453 14.166 13.6934V9.99591C14.166 9.80805 14.0914 9.62789 13.9585 9.49505C13.8257 9.36221 13.6455 9.28758 13.4577 9.28758ZM3.54102 14.2459C3.35315 14.2459 3.17299 14.1713 3.04015 14.0384C2.90731 13.9056 2.83268 13.7254 2.83268 13.5376V11.0088L4.88685 8.96175C4.99091 8.86258 5.12914 8.80726 5.27289 8.80726C5.41664 8.80726 5.55487 8.86258 5.65893 8.96175L7.91852 11.2142L10.9502 14.2459H3.54102ZM12.7493 13.5376C12.7448 13.6747 12.7005 13.8076 12.6218 13.9201L9.42018 10.7042L9.9231 10.2084C10.0272 10.1092 10.1654 10.0539 10.3091 10.0539C10.4529 10.0539 10.5911 10.1092 10.6952 10.2084L12.7493 12.2697V13.5376Z" fill="url(#paint0_linear_1244_6772)"/>
  </g>
  <defs>
    <linearGradient id="paint0_linear_1244_6772" x1="1.41602" y1="8.22162" x2="15.5828" y2="8.22162" gradientUnits="userSpaceOnUse">
      <stop stop-color="#AE8556"/>
      <stop offset="1" stop-color="#90794C"/>
    </linearGradient>
    <clipPath id="clip0_1244_6772">
      <rect width="17" height="17" fill="white" transform="translate(0 0.0800781)"/>
    </clipPath>
  </defs>
</svg>