<svg xmlns="http://www.w3.org/2000/svg" width="17" height="18" viewBox="0 0 17 18" fill="none">
  <path d="M9.91732 9.99609H9.20898V9.28776C9.20898 9.0999 9.13436 8.91973 9.00152 8.78689C8.86868 8.65405 8.68851 8.57943 8.50065 8.57943C8.31279 8.57943 8.13262 8.65405 7.99978 8.78689C7.86695 8.91973 7.79232 9.0999 7.79232 9.28776V9.99609H7.08398C6.89612 9.99609 6.71596 10.0707 6.58312 10.2036C6.45028 10.3364 6.37565 10.5166 6.37565 10.7044C6.37565 10.8923 6.45028 11.0725 6.58312 11.2053C6.71596 11.3381 6.89612 11.4128 7.08398 11.4128H7.79232V12.1211C7.79232 12.309 7.86695 12.4891 7.99978 12.622C8.13262 12.7548 8.31279 12.8294 8.50065 12.8294C8.68851 12.8294 8.86868 12.7548 9.00152 12.622C9.13436 12.4891 9.20898 12.309 9.20898 12.1211V11.4128H9.91732C10.1052 11.4128 10.2853 11.3381 10.4182 11.2053C10.551 11.0725 10.6257 10.8923 10.6257 10.7044C10.6257 10.5166 10.551 10.3364 10.4182 10.2036C10.2853 10.0707 10.1052 9.99609 9.91732 9.99609ZM14.1673 6.41193C14.1599 6.34686 14.1457 6.28275 14.1248 6.22068V6.15693C14.0908 6.0841 14.0453 6.01715 13.9902 5.95859V5.95859L9.74023 1.70859C9.68168 1.6535 9.61473 1.60807 9.5419 1.57401H9.47815C9.4062 1.53274 9.32673 1.50625 9.2444 1.49609H4.95898C4.3954 1.49609 3.8549 1.71998 3.45638 2.11849C3.05787 2.51701 2.83398 3.05751 2.83398 3.62109V13.5378C2.83398 14.1013 3.05787 14.6418 3.45638 15.0404C3.8549 15.4389 4.3954 15.6628 4.95898 15.6628H12.0423C12.6059 15.6628 13.1464 15.4389 13.5449 15.0404C13.9434 14.6418 14.1673 14.1013 14.1673 13.5378V6.45443C14.1673 6.45443 14.1673 6.45443 14.1673 6.41193V6.41193ZM9.91732 3.91151L11.7519 5.74609H10.6257C10.4378 5.74609 10.2576 5.67147 10.1248 5.53863C9.99195 5.40579 9.91732 5.22562 9.91732 5.03776V3.91151ZM12.7507 13.5378C12.7507 13.7256 12.676 13.9058 12.5432 14.0386C12.4103 14.1715 12.2302 14.2461 12.0423 14.2461H4.95898C4.77112 14.2461 4.59096 14.1715 4.45812 14.0386C4.32528 13.9058 4.25065 13.7256 4.25065 13.5378V3.62109C4.25065 3.43323 4.32528 3.25306 4.45812 3.12023C4.59096 2.98739 4.77112 2.91276 4.95898 2.91276H8.50065V5.03776C8.50065 5.60135 8.72453 6.14185 9.12305 6.54036C9.52156 6.93888 10.0621 7.16276 10.6257 7.16276H12.7507V13.5378Z" fill="url(#paint0_linear_1244_7341)"/>
  <defs>
    <linearGradient id="paint0_linear_1244_7341" x1="2.83398" y1="8.57914" x2="14.1674" y2="8.57914" gradientUnits="userSpaceOnUse">
      <stop stop-color="#AE8556"/>
      <stop offset="1" stop-color="#90794C"/>
    </linearGradient>
  </defs>
</svg>