<svg xmlns="http://www.w3.org/2000/svg" width="17" height="18" viewBox="0 0 17 18" fill="none">
  <path d="M6.37565 7.16276H7.08398C7.27185 7.16276 7.45201 7.08813 7.58485 6.95529C7.71769 6.82246 7.79232 6.64229 7.79232 6.45443C7.79232 6.26657 7.71769 6.0864 7.58485 5.95356C7.45201 5.82072 7.27185 5.74609 7.08398 5.74609H6.37565C6.18779 5.74609 6.00762 5.82072 5.87478 5.95356C5.74195 6.0864 5.66732 6.26657 5.66732 6.45443C5.66732 6.64229 5.74195 6.82246 5.87478 6.95529C6.00762 7.08813 6.18779 7.16276 6.37565 7.16276V7.16276ZM6.37565 8.57943C6.18779 8.57943 6.00762 8.65405 5.87478 8.78689C5.74195 8.91973 5.66732 9.0999 5.66732 9.28776C5.66732 9.47562 5.74195 9.65579 5.87478 9.78863C6.00762 9.92147 6.18779 9.99609 6.37565 9.99609H10.6257C10.8135 9.99609 10.9937 9.92147 11.1265 9.78863C11.2594 9.65579 11.334 9.47562 11.334 9.28776C11.334 9.0999 11.2594 8.91973 11.1265 8.78689C10.9937 8.65405 10.8135 8.57943 10.6257 8.57943H6.37565ZM14.1673 6.41193C14.1599 6.34686 14.1457 6.28275 14.1248 6.22068V6.15693C14.0908 6.0841 14.0453 6.01715 13.9902 5.95859V5.95859L9.74023 1.70859C9.68168 1.6535 9.61473 1.60807 9.5419 1.57401C9.52076 1.57101 9.4993 1.57101 9.47815 1.57401C9.4062 1.53274 9.32673 1.50625 9.2444 1.49609H4.95898C4.3954 1.49609 3.8549 1.71998 3.45638 2.11849C3.05787 2.51701 2.83398 3.05751 2.83398 3.62109V13.5378C2.83398 14.1013 3.05787 14.6418 3.45638 15.0404C3.8549 15.4389 4.3954 15.6628 4.95898 15.6628H12.0423C12.6059 15.6628 13.1464 15.4389 13.5449 15.0404C13.9434 14.6418 14.1673 14.1013 14.1673 13.5378V6.45443C14.1673 6.45443 14.1673 6.45443 14.1673 6.41193ZM9.91732 3.91151L11.7519 5.74609H10.6257C10.4378 5.74609 10.2576 5.67147 10.1248 5.53863C9.99195 5.40579 9.91732 5.22562 9.91732 5.03776V3.91151ZM12.7507 13.5378C12.7507 13.7256 12.676 13.9058 12.5432 14.0386C12.4103 14.1715 12.2302 14.2461 12.0423 14.2461H4.95898C4.77112 14.2461 4.59096 14.1715 4.45812 14.0386C4.32528 13.9058 4.25065 13.7256 4.25065 13.5378V3.62109C4.25065 3.43323 4.32528 3.25306 4.45812 3.12023C4.59096 2.98739 4.77112 2.91276 4.95898 2.91276H8.50065V5.03776C8.50065 5.60135 8.72453 6.14185 9.12305 6.54036C9.52156 6.93888 10.0621 7.16276 10.6257 7.16276H12.7507V13.5378ZM10.6257 11.4128H6.37565C6.18779 11.4128 6.00762 11.4874 5.87478 11.6202C5.74195 11.7531 5.66732 11.9332 5.66732 12.1211C5.66732 12.309 5.74195 12.4891 5.87478 12.622C6.00762 12.7548 6.18779 12.8294 6.37565 12.8294H10.6257C10.8135 12.8294 10.9937 12.7548 11.1265 12.622C11.2594 12.4891 11.334 12.309 11.334 12.1211C11.334 11.9332 11.2594 11.7531 11.1265 11.6202C10.9937 11.4874 10.8135 11.4128 10.6257 11.4128Z" fill="url(#paint0_linear_1244_2423)"/>
  <defs>
    <linearGradient id="paint0_linear_1244_2423" x1="2.83398" y1="8.57914" x2="14.1674" y2="8.57914" gradientUnits="userSpaceOnUse">
      <stop stop-color="#AE8556"/>
      <stop offset="1" stop-color="#90794C"/>
    </linearGradient>
  </defs>
</svg>