<svg width="24" height="24" viewBox="0 0 24 24" fill="none" xmlns="http://www.w3.org/2000/svg">
<path d="M21.7094 20.2894L17.9994 16.6094C19.4395 14.8138 20.1369 12.5347 19.9482 10.2407C19.7595 7.94672 18.6991 5.8122 16.9849 4.27606C15.2708 2.73992 13.0332 1.91893 10.7323 1.98189C8.43145 2.04485 6.24214 2.98698 4.61456 4.61456C2.98698 6.24214 2.04485 8.43145 1.98189 10.7323C1.91893 13.0332 2.73992 15.2708 4.27606 16.9849C5.8122 18.6991 7.94672 19.7595 10.2407 19.9482C12.5347 20.1369 14.8138 19.4395 16.6094 17.9994L20.2894 21.6794C20.3824 21.7731 20.493 21.8475 20.6148 21.8983C20.7367 21.9491 20.8674 21.9752 20.9994 21.9752C21.1314 21.9752 21.2621 21.9491 21.384 21.8983C21.5059 21.8475 21.6165 21.7731 21.7094 21.6794C21.8897 21.493 21.9904 21.2438 21.9904 20.9844C21.9904 20.7251 21.8897 20.4759 21.7094 20.2894ZM10.9994 17.9994C9.61495 17.9994 8.26157 17.5889 7.11042 16.8197C5.95928 16.0505 5.06207 14.9573 4.53226 13.6782C4.00245 12.3991 3.86382 10.9917 4.13392 9.63378C4.40402 8.27592 5.0707 7.02864 6.04967 6.04967C7.02864 5.0707 8.27592 4.40402 9.63378 4.13392C10.9917 3.86382 12.3991 4.00245 13.6782 4.53226C14.9573 5.06207 16.0505 5.95928 16.8197 7.11042C17.5889 8.26157 17.9994 9.61495 17.9994 10.9994C17.9994 12.8559 17.2619 14.6364 15.9492 15.9492C14.6364 17.2619 12.8559 17.9994 10.9994 17.9994Z" fill="url(#paint0_linear_651_257877)"/>
<defs>
<linearGradient id="paint0_linear_651_257877" x1="1.97852" y1="11.9765" x2="21.9906" y2="11.9765" gradientUnits="userSpaceOnUse">
<stop stop-color="#AE8556"/>
<stop offset="1" stop-color="#90794C"/>
</linearGradient>
</defs>
</svg>
