<svg xmlns="http://www.w3.org/2000/svg" width="17" height="18" viewBox="0 0 17 18" fill="none">
  <path d="M15.584 6.92885C15.5393 6.79929 15.4579 6.68548 15.3498 6.60125C15.2417 6.51701 15.1114 6.46595 14.9749 6.45427L10.9444 5.86635L9.1382 2.20427C9.08019 2.08451 8.98963 1.98351 8.87688 1.91284C8.76414 1.84217 8.63376 1.80469 8.5007 1.80469C8.36763 1.80469 8.23726 1.84217 8.12451 1.91284C8.01176 1.98351 7.9212 2.08451 7.8632 2.20427L6.05695 5.85927L2.02653 6.45427C1.89543 6.4729 1.77218 6.52791 1.67077 6.61304C1.56935 6.69818 1.49383 6.81004 1.45278 6.93593C1.4152 7.05895 1.41183 7.18988 1.44302 7.31467C1.47422 7.43946 1.53881 7.5534 1.62986 7.64427L4.55528 10.4776L3.84695 14.5009C3.81835 14.6344 3.82892 14.7733 3.87739 14.9009C3.92587 15.0285 4.01017 15.1394 4.12017 15.2202C4.23017 15.301 4.36118 15.3483 4.49743 15.3564C4.63368 15.3645 4.76938 15.3331 4.8882 15.2659L8.5007 13.3747L12.1132 15.2659C12.2126 15.322 12.3249 15.3513 12.439 15.3509C12.5891 15.3515 12.7354 15.3043 12.8569 15.2163C12.9668 15.1376 13.0519 15.0291 13.1021 14.9036C13.1523 14.7781 13.1656 14.6408 13.1403 14.508L12.4319 10.4847L15.3574 7.65135C15.4596 7.5647 15.5352 7.45082 15.5753 7.32293C15.6155 7.19504 15.6185 7.05838 15.584 6.92885ZM11.2278 9.76218C11.1458 9.8418 11.0843 9.94008 11.0485 10.0486C11.0128 10.1572 11.0038 10.2728 11.0224 10.3855L11.5324 13.3605L8.86903 11.9438C8.76552 11.8926 8.65159 11.866 8.53611 11.866C8.42063 11.866 8.3067 11.8926 8.2032 11.9438L5.53986 13.3605L6.04986 10.3855C6.06845 10.2728 6.05947 10.1572 6.0237 10.0486C5.98793 9.94008 5.92643 9.8418 5.84445 9.76218L3.71945 7.63718L6.70153 7.2051C6.81628 7.18914 6.92536 7.14527 7.01922 7.07735C7.11307 7.00943 7.18883 6.91953 7.23986 6.81552L8.5007 4.11677L9.83236 6.8226C9.88339 6.92661 9.95915 7.01651 10.053 7.08444C10.1469 7.15236 10.2559 7.19622 10.3707 7.21218L13.3528 7.64427L11.2278 9.76218Z" fill="url(#paint0_linear_1244_6601)"/>
  <defs>
    <linearGradient id="paint0_linear_1244_6601" x1="1.42188" y1="8.58091" x2="15.608" y2="8.58091" gradientUnits="userSpaceOnUse">
      <stop stop-color="#AE8556"/>
      <stop offset="1" stop-color="#90794C"/>
    </linearGradient>
  </defs>
</svg>