<svg width="25" height="25" viewBox="0 0 25 25" fill="none" xmlns="http://www.w3.org/2000/svg">
<path d="M15.1826 16.575H9.18262C8.9174 16.575 8.66305 16.6803 8.47551 16.8678C8.28797 17.0554 8.18262 17.3097 8.18262 17.575C8.18262 17.8402 8.28797 18.0945 8.47551 18.2821C8.66305 18.4696 8.9174 18.575 9.18262 18.575H15.1826C15.4478 18.575 15.7022 18.4696 15.8897 18.2821C16.0773 18.0945 16.1826 17.8402 16.1826 17.575C16.1826 17.3097 16.0773 17.0554 15.8897 16.8678C15.7022 16.6803 15.4478 16.575 15.1826 16.575ZM9.18262 10.575H10.1826C10.4478 10.575 10.7022 10.4696 10.8897 10.2821C11.0773 10.0945 11.1826 9.84017 11.1826 9.57495C11.1826 9.30973 11.0773 9.05538 10.8897 8.86784C10.7022 8.68031 10.4478 8.57495 10.1826 8.57495H9.18262C8.9174 8.57495 8.66305 8.68031 8.47551 8.86784C8.28797 9.05538 8.18262 9.30973 8.18262 9.57495C8.18262 9.84017 8.28797 10.0945 8.47551 10.2821C8.66305 10.4696 8.9174 10.575 9.18262 10.575ZM15.1826 12.575H9.18262C8.9174 12.575 8.66305 12.6803 8.47551 12.8678C8.28797 13.0554 8.18262 13.3097 8.18262 13.575C8.18262 13.8402 8.28797 14.0945 8.47551 14.2821C8.66305 14.4696 8.9174 14.575 9.18262 14.575H15.1826C15.4478 14.575 15.7022 14.4696 15.8897 14.2821C16.0773 14.0945 16.1826 13.8402 16.1826 13.575C16.1826 13.3097 16.0773 13.0554 15.8897 12.8678C15.7022 12.6803 15.4478 12.575 15.1826 12.575ZM19.8926 15.865C19.7975 15.7739 19.6854 15.7025 19.5626 15.655C19.4432 15.6008 19.3137 15.5728 19.1826 15.5728C19.0515 15.5728 18.922 15.6008 18.8026 15.655C18.6799 15.7025 18.5677 15.7739 18.4726 15.865C18.3843 15.9622 18.3133 16.0738 18.2626 16.195C18.186 16.3771 18.1651 16.5778 18.2025 16.7718C18.2399 16.9658 18.3339 17.1443 18.4726 17.285C18.5661 17.3776 18.6769 17.451 18.7987 17.5007C18.9205 17.5505 19.051 17.5757 19.1826 17.575C19.3133 17.5734 19.4424 17.5462 19.5626 17.495C19.6838 17.4443 19.7954 17.3733 19.8926 17.285C20.0314 17.1443 20.1254 16.9658 20.1627 16.7718C20.2001 16.5778 20.1792 16.3771 20.1026 16.195C20.052 16.0738 19.9809 15.9622 19.8926 15.865ZM20.1826 9.51495C20.1722 9.42309 20.1521 9.33258 20.1226 9.24495V9.15495C20.0745 9.05213 20.0104 8.95762 19.9326 8.87495L13.9326 2.87495C13.85 2.79717 13.7554 2.73303 13.6526 2.68495C13.6228 2.68071 13.5925 2.68071 13.5626 2.68495C13.461 2.62669 13.3488 2.5893 13.2326 2.57495H7.18262C6.38697 2.57495 5.62391 2.89102 5.0613 3.45363C4.49869 4.01624 4.18262 4.7793 4.18262 5.57495V19.575C4.18262 20.3706 4.49869 21.1337 5.0613 21.6963C5.62391 22.2589 6.38697 22.575 7.18262 22.575H15.1826C15.4478 22.575 15.7022 22.4696 15.8897 22.2821C16.0773 22.0945 16.1826 21.8402 16.1826 21.575C16.1826 21.3097 16.0773 21.0554 15.8897 20.8678C15.7022 20.6803 15.4478 20.575 15.1826 20.575H7.18262C6.9174 20.575 6.66305 20.4696 6.47551 20.2821C6.28797 20.0945 6.18262 19.8402 6.18262 19.575V5.57495C6.18262 5.30973 6.28797 5.05538 6.47551 4.86784C6.66305 4.68031 6.9174 4.57495 7.18262 4.57495H12.1826V7.57495C12.1826 8.3706 12.4987 9.13366 13.0613 9.69627C13.6239 10.2589 14.387 10.575 15.1826 10.575H18.1826V12.575C18.1826 12.8402 18.288 13.0945 18.4755 13.2821C18.663 13.4696 18.9174 13.575 19.1826 13.575C19.4478 13.575 19.7022 13.4696 19.8897 13.2821C20.0773 13.0945 20.1826 12.8402 20.1826 12.575V9.57495C20.1826 9.57495 20.1826 9.57495 20.1826 9.51495ZM15.1826 8.57495C14.9174 8.57495 14.663 8.46959 14.4755 8.28206C14.288 8.09452 14.1826 7.84017 14.1826 7.57495V5.98495L16.7726 8.57495H15.1826ZM19.1826 18.575C18.9174 18.575 18.663 18.6803 18.4755 18.8678C18.288 19.0554 18.1826 19.3097 18.1826 19.575V21.575C18.1826 21.8402 18.288 22.0945 18.4755 22.2821C18.663 22.4696 18.9174 22.575 19.1826 22.575C19.4478 22.575 19.7022 22.4696 19.8897 22.2821C20.0773 22.0945 20.1826 21.8402 20.1826 21.575V19.575C20.1826 19.3097 20.0773 19.0554 19.8897 18.8678C19.7022 18.6803 19.4478 18.575 19.1826 18.575Z" fill="white"/>
</svg>
