<svg xmlns="http://www.w3.org/2000/svg" width="17" height="18" viewBox="0 0 17 18" fill="none">
  <path d="M8.49935 1.49609C6.68346 1.50127 4.9389 2.20366 3.62602 3.45818V2.20443C3.62602 2.01657 3.55139 1.8364 3.41855 1.70356C3.28571 1.57072 3.10554 1.49609 2.91768 1.49609C2.72982 1.49609 2.54965 1.57072 2.41682 1.70356C2.28398 1.8364 2.20935 2.01657 2.20935 2.20443V5.39193C2.20935 5.57979 2.28398 5.75996 2.41682 5.89279C2.54965 6.02563 2.72982 6.10026 2.91768 6.10026H6.10518C6.29304 6.10026 6.47321 6.02563 6.60605 5.89279C6.73889 5.75996 6.81352 5.57979 6.81352 5.39193C6.81352 5.20407 6.73889 5.0239 6.60605 4.89106C6.47321 4.75822 6.29304 4.68359 6.10518 4.68359H4.40518C5.31594 3.73185 6.52983 3.12714 7.83814 2.97344C9.14646 2.81974 10.4674 3.12666 11.574 3.84142C12.6805 4.55617 13.5035 5.63412 13.9013 6.8899C14.2992 8.14569 14.2471 9.50086 13.7541 10.7224C13.261 11.944 12.3578 12.9556 11.1996 13.5833C10.0415 14.211 8.70086 14.4157 7.4082 14.162C6.11554 13.9084 4.95164 13.2123 4.1166 12.1935C3.28156 11.1747 2.82757 9.89673 2.83268 8.57943C2.83268 8.39157 2.75805 8.2114 2.62522 8.07856C2.49238 7.94572 2.31221 7.87109 2.12435 7.87109C1.93649 7.87109 1.75632 7.94572 1.62348 8.07856C1.49064 8.2114 1.41602 8.39157 1.41602 8.57943C1.41602 9.98038 1.83145 11.3499 2.60977 12.5147C3.3881 13.6796 4.49436 14.5875 5.78867 15.1236C7.08298 15.6597 8.50721 15.8 9.88124 15.5267C11.2553 15.2533 12.5174 14.5787 13.508 13.5881C14.4986 12.5975 15.1733 11.3353 15.4466 9.96132C15.7199 8.58728 15.5796 7.16306 15.0435 5.86875C14.5074 4.57444 13.5995 3.46818 12.4346 2.68985C11.2698 1.91152 9.9003 1.49609 8.49935 1.49609ZM8.49935 5.74609C8.31149 5.74609 8.13132 5.82072 7.99848 5.95356C7.86564 6.0864 7.79102 6.26657 7.79102 6.45443V8.57943C7.79102 8.76729 7.86564 8.94746 7.99848 9.08029C8.13132 9.21313 8.31149 9.28776 8.49935 9.28776H9.91602C10.1039 9.28776 10.284 9.21313 10.4169 9.08029C10.5497 8.94746 10.6243 8.76729 10.6243 8.57943C10.6243 8.39157 10.5497 8.2114 10.4169 8.07856C10.284 7.94572 10.1039 7.87109 9.91602 7.87109H9.20768V6.45443C9.20768 6.26657 9.13305 6.0864 9.00022 5.95356C8.86738 5.82072 8.68721 5.74609 8.49935 5.74609Z" fill="url(#paint0_linear_1244_1259)"/>
  <defs>
    <linearGradient id="paint0_linear_1244_1259" x1="1.41602" y1="8.57914" x2="15.5828" y2="8.57914" gradientUnits="userSpaceOnUse">
      <stop stop-color="#AE8556"/>
      <stop offset="1" stop-color="#90794C"/>
    </linearGradient>
  </defs>
</svg>