<svg width="21" height="21" viewBox="0 0 21 21" fill="none" xmlns="http://www.w3.org/2000/svg">
<path  d="M20.1826 5.12495C20.1714 4.69352 20.138 4.26296 20.0826 3.83495C20.0079 3.46008 19.8835 3.09686 19.7126 2.75495C19.5339 2.38406 19.2938 2.04598 19.0026 1.75495C18.7087 1.46716 18.3712 1.22754 18.0026 1.04495C17.6603 0.877395 17.297 0.756325 16.9226 0.684951C16.4987 0.621451 16.0712 0.584711 15.6426 0.574951H4.73262C4.30119 0.586188 3.87062 0.619565 3.44262 0.674951C3.06774 0.74962 2.70453 0.874054 2.36262 1.04495C1.99172 1.22369 1.65364 1.46372 1.36262 1.75495C1.07482 2.04886 0.835208 2.38635 0.652617 2.75495C0.485061 3.09731 0.363991 3.46053 0.292617 3.83495C0.229117 4.25889 0.192377 4.6864 0.182617 5.11495C0.182617 5.30495 0.182617 5.57495 0.182617 5.65495V15.495C0.182617 15.605 0.182617 15.845 0.182617 16.025C0.193854 16.4564 0.227231 16.8869 0.282617 17.315C0.357286 17.6898 0.481721 18.053 0.652617 18.395C0.831354 18.7658 1.07139 19.1039 1.36262 19.395C1.65653 19.6827 1.99401 19.9224 2.36262 20.105C2.70498 20.2725 3.06819 20.3936 3.44262 20.465C3.86655 20.5285 4.29406 20.5652 4.72262 20.575H15.6326C16.064 20.5637 16.4946 20.5303 16.9226 20.475C17.2975 20.4003 17.6607 20.2758 18.0026 20.105C18.3735 19.9262 18.7116 19.6862 19.0026 19.395C19.2904 19.101 19.53 18.7636 19.7126 18.395C19.8802 18.0526 20.0012 17.6894 20.0726 17.315C20.1361 16.891 20.1729 16.4635 20.1826 16.035C20.1826 15.845 20.1826 15.605 20.1826 15.495V5.65495C20.1826 5.57495 20.1826 5.30495 20.1826 5.12495ZM10.4126 17.575C9.21168 17.569 8.03175 17.2594 6.98262 16.675L3.18262 17.675L4.18262 13.955C3.53773 12.8714 3.1926 11.6358 3.18262 10.375C3.1866 8.95788 3.60982 7.57367 4.39898 6.39666C5.18813 5.21965 6.30794 4.30248 7.61735 3.76067C8.92676 3.21885 10.3672 3.07662 11.7573 3.35189C13.1474 3.62716 14.4249 4.30761 15.429 5.30755C16.4332 6.3075 17.1189 7.58221 17.4 8.97114C17.681 10.3601 17.5448 11.8011 17.0084 13.1128C16.472 14.4244 15.5595 15.548 14.3858 16.3421C13.2121 17.1361 11.8297 17.5651 10.4126 17.575ZM10.4126 4.44495C9.35243 4.45708 8.31438 4.74993 7.40417 5.29369C6.49396 5.83744 5.74409 6.61268 5.23091 7.54047C4.71773 8.46826 4.45957 9.51547 4.4827 10.5755C4.50584 11.6355 4.80945 12.6704 5.36262 13.575L5.50262 13.805L4.90262 15.995L7.18262 15.375L7.40262 15.505C8.31219 16.0407 9.34701 16.327 10.4026 16.335C11.9939 16.335 13.52 15.7028 14.6453 14.5776C15.7705 13.4524 16.4026 11.9263 16.4026 10.335C16.4026 8.74365 15.7705 7.21753 14.6453 6.09231C13.52 4.96709 11.9939 4.33495 10.4026 4.33495L10.4126 4.44495ZM13.9126 12.965C13.7816 13.1834 13.6063 13.372 13.3978 13.5184C13.1894 13.6648 12.9526 13.7658 12.7026 13.815C12.3292 13.8832 11.9447 13.8592 11.5826 13.745C11.242 13.6385 10.908 13.5116 10.5826 13.365C9.34636 12.7446 8.29206 11.8143 7.52262 10.665C7.1045 10.1324 6.8508 9.4895 6.79262 8.81495C6.78666 8.53474 6.83967 8.2564 6.9482 7.998C7.05673 7.73959 7.21837 7.50688 7.42262 7.31495C7.48278 7.24674 7.55659 7.19191 7.63927 7.15402C7.72195 7.11612 7.81167 7.096 7.90262 7.09495H8.18262C8.29262 7.09495 8.44262 7.09495 8.58262 7.40495C8.72262 7.71495 9.09262 8.64495 9.14262 8.73495C9.16719 8.78292 9.18 8.83605 9.18 8.88995C9.18 8.94385 9.16719 8.99698 9.14262 9.04495C9.09841 9.15362 9.0377 9.25481 8.96262 9.34495C8.87262 9.45495 8.77262 9.58495 8.69262 9.66495C8.61262 9.74495 8.51262 9.84495 8.61262 10.025C8.8847 10.4841 9.22149 10.9018 9.61262 11.265C10.0385 11.6413 10.5255 11.9423 11.0526 12.155C11.2326 12.245 11.3426 12.235 11.4426 12.155C11.5426 12.075 11.8926 11.635 12.0126 11.455C12.1326 11.275 12.2526 11.305 12.4126 11.365C12.5726 11.425 13.4626 11.855 13.6426 11.945C13.8226 12.035 13.9326 12.075 13.9826 12.155C14.026 12.4167 14.0019 12.6851 13.9126 12.935V12.965Z" fill="white"/>
</svg>
