<svg width="24" height="25" viewBox="0 0 24 25" fill="none" xmlns="http://www.w3.org/2000/svg">
<path d="M22.9991 10.6314C23.0485 9.20002 22.7355 7.77939 22.0891 6.50137C21.6505 5.97697 21.0418 5.62308 20.3691 5.50137C17.5866 5.2489 14.7926 5.14541 11.9991 5.19137C9.2157 5.14333 6.43176 5.24347 3.65905 5.49137C3.11087 5.59109 2.60357 5.84821 2.19905 6.23137C1.29905 7.06137 1.19905 8.48137 1.09905 9.68137C0.953962 11.8389 0.953962 14.0038 1.09905 16.1614C1.12798 16.8368 1.22854 17.5072 1.39905 18.1614C1.51963 18.6664 1.76357 19.1337 2.10905 19.5214C2.51632 19.9248 3.03543 20.1966 3.59905 20.3014C5.75497 20.5675 7.92727 20.6778 10.0991 20.6314C13.5991 20.6814 16.669 20.6314 20.299 20.3514C20.8765 20.253 21.4102 19.9809 21.8291 19.5714C22.109 19.2913 22.3181 18.9485 22.4391 18.5714C22.7967 17.474 22.9723 16.3255 22.959 15.1714C22.9991 14.6114 22.9991 11.2314 22.9991 10.6314ZM9.73905 15.7714V9.58137L15.659 12.6914C13.9991 13.6114 11.809 14.6514 9.73905 15.7714Z" fill="white"/>
</svg>
