<svg width="506" height="41" viewBox="0 0 506 41" fill="none" xmlns="http://www.w3.org/2000/svg">
<path d="M2.77072 16.0906L3.77072 14.5306C4.29751 14.8375 4.80818 15.1713 5.30072 15.5306C5.33539 15.5661 5.37808 15.5928 5.42518 15.6083C5.47229 15.6239 5.52244 15.6279 5.57143 15.6201C5.62042 15.6123 5.66682 15.5928 5.70672 15.5633C5.74661 15.5338 5.77885 15.4952 5.80072 15.4506L7.19072 13.2606C7.24139 13.1778 7.2602 13.0794 7.24364 12.9837C7.22708 12.888 7.17628 12.8016 7.10072 12.7406C6.48173 12.1905 5.7617 11.766 4.98072 11.4906C4.89523 11.4553 4.80028 11.4498 4.71132 11.4752C4.62236 11.5007 4.54462 11.5554 4.49072 11.6306L3.58072 12.9806C3.08736 12.6245 2.54508 12.3415 1.97072 12.1406C1.88499 12.107 1.7906 12.1025 1.70206 12.1278C1.61353 12.1531 1.53575 12.2068 1.48072 12.2806L0.0807158 14.3806C0.0479217 14.4158 0.0240471 14.4582 0.0110975 14.5045C-0.00185201 14.5508 -0.00349453 14.5995 0.00630629 14.6465C0.0161071 14.6936 0.0370658 14.7376 0.0674177 14.7748C0.0977697 14.8121 0.13663 14.8415 0.180722 14.8606C1.38072 15.5706 2.07072 16.0106 2.27072 16.1606C2.30568 16.1945 2.34791 16.22 2.39419 16.2351C2.44048 16.2502 2.4896 16.2545 2.53782 16.2478C2.58603 16.241 2.63208 16.2234 2.67244 16.1961C2.7128 16.1689 2.74641 16.1328 2.77072 16.0906Z" fill="#F2F4FF"/>
<path d="M51.051 31.2208C50.9655 31.1855 50.8705 31.1801 50.7816 31.2055C50.6926 31.2309 50.6149 31.2856 50.561 31.3608L49.651 32.6908C49.1564 32.3367 48.6144 32.0539 48.041 31.8509C47.9555 31.8155 47.8606 31.8101 47.7716 31.8355C47.6826 31.8609 47.6049 31.9157 47.551 31.9909L46.151 34.0908C46.1181 34.125 46.094 34.1667 46.081 34.2123C46.068 34.2579 46.0663 34.306 46.0762 34.3524C46.086 34.3988 46.1071 34.4421 46.1376 34.4784C46.1681 34.5147 46.207 34.543 46.251 34.5609C47.451 35.2809 48.141 35.7208 48.341 35.8708C48.3751 35.9092 48.418 35.9387 48.466 35.957C48.5139 35.9752 48.5656 35.9817 48.6166 35.9758C48.6675 35.97 48.7164 35.9519 48.7589 35.9232C48.8015 35.8945 48.8365 35.8559 48.861 35.8109L49.861 34.2508C50.3878 34.5578 50.8984 34.8915 51.391 35.2508C51.4256 35.2863 51.4683 35.313 51.5154 35.3286C51.5625 35.3441 51.6127 35.3482 51.6617 35.3403C51.7107 35.3325 51.7571 35.313 51.797 35.2835C51.8369 35.254 51.8691 35.2154 51.891 35.1709L53.271 32.9909C53.3216 32.908 53.3405 32.8096 53.3239 32.7139C53.3073 32.6182 53.2565 32.5318 53.181 32.4708C52.559 31.9196 51.8355 31.495 51.051 31.2208Z" fill="#F2F4FF"/>
<path d="M77.8105 19.4007C77.8457 19.439 77.8894 19.4685 77.9381 19.4867C77.9868 19.5049 78.0391 19.5113 78.0908 19.5055C78.1424 19.4996 78.192 19.4817 78.2354 19.453C78.2788 19.4244 78.3148 19.3859 78.3405 19.3407L79.7205 17.1507C79.7723 17.069 79.7927 16.9713 79.778 16.8757C79.7633 16.7801 79.7145 16.6931 79.6405 16.6307C79.02 16.0826 78.3004 15.6584 77.5205 15.3807C77.4335 15.3446 77.337 15.3388 77.2463 15.3642C77.1556 15.3896 77.0761 15.4447 77.0205 15.5207L75.6205 17.6107C75.5878 17.6468 75.564 17.69 75.5511 17.737C75.5382 17.784 75.5366 17.8333 75.5463 17.8811C75.556 17.9288 75.5769 17.9735 75.6072 18.0117C75.6374 18.0499 75.6763 18.0804 75.7205 18.1007C76.9205 18.8107 77.6205 19.2507 77.8105 19.4007Z" fill="#F2F4FF"/>
<path d="M140.491 31.2208C140.406 31.1835 140.31 31.1771 140.221 31.2026C140.131 31.2282 140.054 31.2841 140.001 31.3608L139.091 32.6908C138.595 32.3386 138.053 32.056 137.481 31.8508C137.394 31.8147 137.297 31.8089 137.207 31.8343C137.116 31.8596 137.036 31.9148 136.981 31.9908L135.591 34.0908C135.558 34.1249 135.534 34.1666 135.521 34.2122C135.508 34.2578 135.506 34.3059 135.516 34.3523C135.526 34.3987 135.547 34.442 135.578 34.4783C135.608 34.5147 135.647 34.543 135.691 34.5608C136.881 35.2808 137.581 35.7208 137.781 35.8708C137.815 35.9091 137.858 35.9386 137.906 35.9569C137.954 35.9752 138.006 35.9816 138.057 35.9758C138.107 35.9699 138.156 35.9518 138.199 35.9231C138.241 35.8944 138.276 35.8559 138.301 35.8108L139.301 34.2508C140.141 34.7608 140.651 35.0908 140.841 35.2508C140.876 35.2863 140.918 35.3129 140.965 35.3285C141.012 35.344 141.063 35.3481 141.112 35.3402C141.161 35.3324 141.207 35.3129 141.247 35.2834C141.287 35.2539 141.319 35.2153 141.341 35.1708L142.721 32.9808C142.775 32.8998 142.797 32.8015 142.782 32.7053C142.767 32.609 142.717 32.5218 142.641 32.4608C142.012 31.9109 141.282 31.4896 140.491 31.2208Z" fill="#F2F4FF"/>
<path d="M182.271 30.0508C183.115 30.0646 183.95 29.8688 184.701 29.4808C185.214 29.1987 185.661 28.81 186.011 28.3408C186.678 27.2562 186.92 25.9633 186.691 24.7108C186.391 21.7108 186.051 17.7108 185.561 13.0408L186.271 12.1108C186.348 12.0354 186.408 11.9436 186.445 11.8421C186.482 11.7405 186.496 11.6319 186.485 11.5244C186.475 11.4168 186.44 11.3129 186.384 11.2206C186.328 11.1282 186.251 11.0497 186.161 10.9908C185.55 10.4787 185.093 9.80713 184.841 9.05083C184.561 8.26083 184.281 8.13082 184.011 8.67082L183.271 10.1108C183.172 10.3186 183.121 10.5458 183.121 10.7758C183.121 11.0059 183.172 11.233 183.271 11.4408C183.337 11.7142 183.427 12.2142 183.541 12.9408C184.391 19.3508 184.771 23.2008 184.951 24.7508C185.05 25.2226 184.96 25.7145 184.701 26.1208C184.052 26.7735 183.189 27.168 182.271 27.2308C152.761 27.3908 144.021 27.1308 143.681 27.0008C143.681 27.0008 143.211 26.8208 142.461 26.6108C142.094 26.5565 141.743 26.425 141.431 26.225C141.119 26.0251 140.853 25.7612 140.651 25.4508C140.651 25.4508 140.651 25.2508 140.651 24.9408C140.651 24.6308 140.491 24.4708 140.201 24.4708C139.911 24.4708 139.811 24.6108 139.651 24.9008C139.131 25.9008 137.721 26.4308 135.431 26.6008C123.707 27.721 111.904 27.721 100.181 26.6008C98.8206 26.4786 97.53 25.9449 96.4808 25.0708C95.4598 24.2596 94.5635 23.3027 93.8208 22.2308C93.7405 22.1075 93.6177 22.018 93.4758 21.9792C93.3338 21.9405 93.1826 21.9553 93.0508 22.0208C91.5355 22.699 90.3395 23.9344 89.7108 25.4708C89.3908 26.1708 88.4008 26.5408 86.7108 26.6008C86.4308 26.6008 86.0508 26.6008 85.5608 26.6008C84.5914 26.6508 83.6201 26.6508 82.6508 26.6008C82.0808 26.6008 81.6508 26.6008 81.4008 26.6008C81.0352 26.5476 80.6853 26.4165 80.3748 26.2164C80.0642 26.0163 79.8003 25.7518 79.6008 25.4408C79.5877 25.2711 79.5877 25.1006 79.6008 24.9308C79.6008 24.6108 79.4408 24.4608 79.1608 24.4608C78.8808 24.4608 78.7608 24.6008 78.6008 24.8908C78.0808 25.8908 76.6708 26.4208 74.3808 26.5908C71.3108 26.8308 67.7608 26.9608 63.7108 26.9608C59.6608 26.9608 56.1808 26.8308 53.2408 26.5908C53.2177 26.5857 53.1938 26.5857 53.1708 26.5908C52.81 26.5349 52.465 26.4035 52.1583 26.2054C51.8516 26.0073 51.5901 25.7467 51.3908 25.4408C51.3908 25.4408 51.3908 25.2408 51.3908 24.9308C51.3908 24.6208 51.2308 24.4608 50.9508 24.4608C50.6708 24.4608 50.5608 24.6008 50.4008 24.8908C49.8708 25.8908 48.4608 26.4208 46.1708 26.5908C34.4475 27.711 22.6441 27.711 10.9208 26.5908C10.9208 26.5908 10.9208 26.5908 10.8708 26.5908C9.8708 26.5908 9.27079 25.7308 9.05079 23.9208L8.22079 16.9908C8.12079 15.9308 7.86079 15.6608 7.41079 16.2008L6.27079 17.2608C6.03079 17.5608 5.98079 18.4708 6.13079 19.9708C4.81928 20.6921 3.62554 21.6093 2.59079 22.6908C2.22919 23.1406 1.9205 23.6305 1.6708 24.1508C1.33714 24.7495 1.11359 25.4032 1.01079 26.0808C0.990522 26.3253 1.03987 26.5706 1.15313 26.7883C1.26638 27.0059 1.43891 27.1871 1.65079 27.3108C2.35099 27.722 3.13987 27.9587 3.95079 28.0008C4.44165 28.0716 4.94233 28.0236 5.41079 27.8608C6.03696 27.3488 6.56255 26.7249 6.9608 26.0208C7.00819 27.1379 7.35345 28.222 7.9608 29.1608C8.28834 29.4979 8.6878 29.7566 9.12936 29.9177C9.57092 30.0787 10.0432 30.1379 10.5108 30.0908C22.2599 31.231 34.0917 31.231 45.8408 30.0908C46.5877 30.0738 47.3229 29.9014 47.9995 29.5846C48.6762 29.2678 49.2794 28.8136 49.7708 28.2508C50.1135 28.7776 50.5735 29.2178 51.1148 29.537C51.6561 29.8563 52.264 30.0458 52.8908 30.0908C55.8908 30.3308 59.3608 30.4608 63.4208 30.4608C67.4808 30.4608 71.0608 30.3308 74.1408 30.0908C74.8769 30.0675 75.6003 29.8929 76.266 29.5781C76.9318 29.2633 77.5257 28.8149 78.0108 28.2608C78.3525 28.7863 78.8109 29.2257 79.3504 29.5449C79.8898 29.8641 80.4957 30.0543 81.1208 30.1008C82.9258 30.2108 84.7358 30.2108 86.5408 30.1008C87.1458 29.9809 87.7176 29.731 88.2166 29.3684C88.7155 29.0058 89.1298 28.5392 89.4308 28.0008C90.1354 28.7976 90.9918 29.4459 91.9499 29.9078C92.908 30.3697 93.9486 30.6359 95.0108 30.6908C95.2151 30.6803 95.4135 30.619 95.5881 30.5125C95.7627 30.406 95.908 30.2576 96.0108 30.0808C96.1534 29.7202 96.2345 29.3383 96.2508 28.9508C97.3619 29.6494 98.639 30.0394 99.9508 30.0808C111.697 31.221 123.525 31.221 135.271 30.0808C136.032 30.0698 136.782 29.8974 137.471 29.5751C138.161 29.2527 138.774 28.7877 139.271 28.2108C139.613 28.7363 140.071 29.1757 140.61 29.4949C141.15 29.8141 141.756 30.0043 142.381 30.0508H182.271ZM3.4208 24.2308C3.39305 24.2192 3.36846 24.2012 3.34904 24.1782C3.32962 24.1553 3.31593 24.128 3.30909 24.0987C3.30226 24.0694 3.30248 24.0389 3.30973 24.0097C3.31698 23.9806 3.33105 23.9535 3.3508 23.9308C4.12125 23.0003 5.17474 22.3471 6.3508 22.0708C6.4708 22.9608 6.57079 23.7108 6.65079 24.3308C5.59274 24.6559 4.45671 24.6208 3.4208 24.2308ZM93.9808 26.8408C93.0728 26.5719 92.2267 26.1268 91.4908 25.5308C91.4687 25.5094 91.4512 25.4837 91.4392 25.4554C91.4272 25.4271 91.421 25.3966 91.421 25.3658C91.421 25.3351 91.4272 25.3046 91.4392 25.2763C91.4512 25.2479 91.4687 25.2223 91.4908 25.2008C91.8121 24.824 92.2536 24.5697 92.7408 24.4808C92.8408 24.4808 92.9008 24.4808 92.9308 24.5408C93.2662 25.2977 93.6783 26.0181 94.1608 26.6908C94.3008 26.8708 94.2408 26.9208 93.9808 26.8408Z" fill="#F2F4FF"/>
<path d="M191.781 10.1708C191.661 8.93081 191.411 8.73081 191.011 9.59081L189.811 12.1708C189.63 12.5396 189.567 12.9551 189.631 13.3608L190.251 18.1808C190.778 21.512 191.112 24.871 191.251 28.2408C191.251 29.1108 191.311 29.5708 191.491 29.6408C191.671 29.7108 191.851 29.5608 192.041 29.2008C192.887 27.5808 193.024 23.5808 192.451 17.2008L191.781 10.1708Z" fill="#F2F4FF"/>
<path d="M265.351 21.2907C265.141 20.9007 264.881 21.0307 264.581 21.6807L263.771 23.4707C263.687 23.6652 263.667 23.8814 263.713 24.0881C263.76 24.2948 263.871 24.4813 264.031 24.6207C264.378 24.9864 264.62 25.439 264.731 25.9307C264.029 26.4577 263.152 26.6941 262.281 26.5907C251.168 27.6512 239.983 27.7081 228.861 26.7607C228.148 26.6983 227.457 26.4806 226.837 26.123C226.217 25.7655 225.682 25.2766 225.271 24.6907C224.401 23.4407 223.511 20.1107 223.271 11.4207C223.131 10.0707 222.851 9.92074 222.421 10.9807L221.581 12.9807C221.401 13.4868 221.339 14.0272 221.401 14.5607L222.901 32.0007C222.968 32.725 222.819 33.453 222.471 34.0922C222.124 34.7313 221.595 35.253 220.951 35.5907C219.804 36.1859 218.542 36.5269 217.251 36.5907C214.411 36.7607 212.701 36.0507 212.121 34.4807C211.621 33.0807 212.121 31.3007 213.551 29.1407C213.644 29.0362 213.696 28.9009 213.696 28.7607C213.696 28.6205 213.644 28.4852 213.551 28.3807C213.361 28.1707 213.141 28.2407 212.901 28.6107C211.717 30.247 210.902 32.1198 210.511 34.1007C210.361 34.9345 210.391 35.7908 210.6 36.6119C210.808 37.433 211.191 38.1998 211.721 38.8607C212.282 39.4533 212.971 39.91 213.735 40.1959C214.499 40.4819 215.319 40.5895 216.131 40.5107C218.392 40.4145 220.548 39.5341 222.231 38.0207C223.416 36.7056 224.208 35.0843 224.517 33.3413C224.827 31.5982 224.641 29.8034 223.981 28.1607C224.362 28.7426 224.875 29.2268 225.477 29.5742C226.08 29.9216 226.756 30.1225 227.451 30.1607C239.054 31.2706 250.737 31.2706 262.341 30.1607C264.341 30.1607 265.561 29.1007 266.071 27.0007C266.338 26.0491 266.412 25.0536 266.289 24.0729C266.165 23.0922 265.846 22.1462 265.351 21.2907Z" fill="#F2F4FF"/>
<path d="M267.571 15.8607C267.27 15.8726 266.972 15.9162 266.681 15.9907C266.399 16.0655 266.111 16.1124 265.821 16.1307C264.851 16.1645 263.902 15.8446 263.151 15.2307C263.115 15.2017 263.086 15.165 263.067 15.1235C263.047 15.082 263.037 15.0367 263.037 14.9907C263.037 14.9448 263.047 14.8994 263.067 14.8579C263.086 14.8164 263.115 14.7798 263.151 14.7507C263.238 14.6618 263.345 14.5954 263.464 14.5571C263.582 14.5187 263.708 14.5097 263.831 14.5307C263.984 14.5474 264.132 14.5994 264.262 14.6826C264.392 14.7659 264.501 14.8782 264.581 15.0107C264.611 15.0753 264.656 15.1319 264.712 15.1762C264.768 15.2204 264.833 15.251 264.903 15.2655C264.973 15.2801 265.045 15.2782 265.114 15.26C265.183 15.2418 265.247 15.2078 265.301 15.1607C265.474 15.0054 265.626 14.8271 265.751 14.6307C266.01 14.1759 266.155 13.6643 266.171 13.1407C266.205 12.9967 266.205 12.8465 266.169 12.7027C266.133 12.5589 266.063 12.4259 265.965 12.3149C265.867 12.204 265.744 12.1184 265.605 12.0654C265.467 12.0125 265.318 11.9937 265.171 12.0107C264.609 12.0114 264.059 12.1618 263.575 12.4467C263.092 12.7315 262.693 13.1402 262.421 13.6307C262.065 14.0406 261.794 14.5165 261.622 15.0312C261.451 15.546 261.382 16.0895 261.421 16.6307C261.499 16.8858 261.629 17.1225 261.8 17.3269C261.972 17.5312 262.183 17.6992 262.421 17.8207C261.551 18.4107 261.251 18.9207 261.531 19.3607C261.619 19.483 261.749 19.5687 261.897 19.6019C262.044 19.635 262.198 19.6133 262.331 19.5407C263.511 19.0207 264.331 18.7007 264.751 18.5407C265.474 18.3306 266.208 18.1603 266.951 18.0307C267.331 17.9407 267.721 17.4807 268.121 16.6407C268.154 16.5563 268.167 16.4651 268.159 16.3747C268.15 16.2842 268.12 16.1971 268.071 16.1207C268.016 16.0385 267.942 15.9714 267.854 15.9259C267.767 15.8804 267.669 15.858 267.571 15.8607Z" fill="#F2F4FF"/>
<path d="M294.101 32.6207C294.015 32.5834 293.92 32.577 293.83 32.6025C293.741 32.6281 293.663 32.684 293.611 32.7607L292.211 34.8507C292.178 34.8858 292.154 34.9283 292.141 34.9746C292.128 35.0208 292.126 35.0696 292.136 35.1166C292.146 35.1636 292.167 35.2076 292.197 35.2449C292.228 35.2822 292.267 35.3116 292.311 35.3307C293.501 36.0507 294.201 36.4907 294.401 36.6407C294.435 36.679 294.478 36.7085 294.526 36.7268C294.574 36.7451 294.625 36.7516 294.676 36.7457C294.727 36.7398 294.776 36.7217 294.819 36.693C294.861 36.6643 294.896 36.6258 294.921 36.5807L296.271 34.3907C296.32 34.3058 296.338 34.2062 296.321 34.1094C296.305 34.0126 296.255 33.9246 296.181 33.8607C295.57 33.3215 294.865 32.9009 294.101 32.6207Z" fill="#F2F4FF"/>
<path d="M311.921 14.7407C311.955 14.779 311.998 14.8085 312.046 14.8268C312.094 14.8451 312.146 14.8515 312.197 14.8456C312.248 14.8398 312.296 14.8217 312.339 14.793C312.381 14.7643 312.416 14.7257 312.441 14.6806L313.441 13.1207C314.281 13.6307 314.791 13.9607 314.981 14.1207C315.015 14.1565 315.057 14.1837 315.104 14.2001C315.15 14.2164 315.2 14.2213 315.249 14.2145C315.298 14.2076 315.344 14.1892 315.385 14.1607C315.425 14.1322 315.458 14.0945 315.481 14.0507L316.861 11.8606C316.916 11.7781 316.938 11.6782 316.923 11.5803C316.908 11.4824 316.858 11.3934 316.781 11.3307C316.159 10.7871 315.44 10.3664 314.661 10.0907C314.576 10.0534 314.48 10.047 314.391 10.0725C314.301 10.0981 314.224 10.154 314.171 10.2307L313.271 11.5507C312.775 11.2016 312.233 10.9224 311.661 10.7207C311.576 10.6834 311.48 10.677 311.391 10.7025C311.301 10.7281 311.224 10.784 311.171 10.8606L309.771 12.9507C309.736 12.9847 309.71 13.0271 309.695 13.0738C309.681 13.1206 309.679 13.1703 309.689 13.2182C309.699 13.2661 309.721 13.3107 309.752 13.3479C309.784 13.385 309.825 13.4135 309.871 13.4306C311.021 14.1506 311.721 14.5907 311.921 14.7407Z" fill="#F2F4FF"/>
<path d="M367.881 10.1708C367.771 8.93081 367.521 8.73081 367.121 9.59081L365.921 12.1708C365.74 12.5396 365.677 12.9551 365.741 13.3608L366.361 18.1808C366.885 21.5124 367.219 24.8712 367.361 28.2408C367.361 29.1108 367.431 29.5708 367.601 29.6408C367.771 29.7108 367.971 29.5608 368.161 29.2008C369.001 27.5808 369.138 23.5808 368.571 17.2008L367.881 10.1708Z" fill="#F2F4FF"/>
<path d="M393.191 14.8808L392.271 16.2208C391.776 15.8666 391.234 15.5838 390.661 15.3808C390.575 15.3454 390.48 15.34 390.392 15.3654C390.303 15.3908 390.225 15.4456 390.171 15.5208L388.771 17.6108C388.738 17.6468 388.714 17.6901 388.702 17.7371C388.689 17.784 388.687 17.8334 388.697 17.8811C388.706 17.9288 388.727 17.9736 388.758 18.0117C388.788 18.0499 388.827 18.0804 388.871 18.1008C390.071 18.8108 390.761 19.2508 390.961 19.4008C390.995 19.4391 391.038 19.4686 391.086 19.4869C391.134 19.5052 391.185 19.5116 391.236 19.5057C391.287 19.4999 391.336 19.4818 391.379 19.4531C391.421 19.4244 391.456 19.3858 391.481 19.3408L392.481 17.7908C393.009 18.0952 393.52 18.429 394.011 18.7908C394.046 18.8262 394.088 18.8529 394.135 18.8685C394.182 18.884 394.233 18.8881 394.282 18.8802C394.331 18.8724 394.377 18.8529 394.417 18.8234C394.457 18.7939 394.489 18.7553 394.511 18.7108L395.901 16.5208C395.952 16.4379 395.97 16.3395 395.954 16.2438C395.937 16.1481 395.886 16.0617 395.811 16.0008C395.191 15.4316 394.468 14.9868 393.681 14.6908C393.59 14.66 393.491 14.6622 393.401 14.6969C393.312 14.7316 393.237 14.7967 393.191 14.8808Z" fill="#F2F4FF"/>
<path d="M402.031 18.8306L401.171 21.3906C401.119 21.5035 401.104 21.6295 401.128 21.7513C401.151 21.873 401.211 21.9846 401.301 22.0706C401.937 22.5786 402.39 23.281 402.591 24.0706C399.067 25.887 395.132 26.7587 391.171 26.6006C385.744 26.6006 382.847 25.4906 382.481 23.2706C382.456 22.8818 382.521 22.4926 382.672 22.1334C382.823 21.7742 383.055 21.4549 383.351 21.2006C383.611 20.9306 383.641 20.7006 383.451 20.5106C383.261 20.3206 383.021 20.3606 382.751 20.6706C382.115 21.3397 381.613 22.1237 381.271 22.9806C380.933 23.7039 380.797 24.5051 380.878 25.2991C380.959 26.0932 381.254 26.8505 381.731 27.4906C383.404 29.5506 386.521 30.4606 391.081 30.2206C395.155 30.109 399.132 28.952 402.631 26.8606C402.984 26.5938 403.277 26.2555 403.49 25.8678C403.704 25.4801 403.834 25.0518 403.871 24.6106C404.291 22.6918 403.962 20.6848 402.951 19.0006C402.511 18.3606 402.211 18.3006 402.031 18.8306Z" fill="#F2F4FF"/>
<path d="M410.161 17.2408L409.461 10.1708C409.351 8.93081 409.101 8.73081 408.701 9.59081L407.501 12.1708C407.32 12.5396 407.257 12.9551 407.321 13.3608L407.941 18.1808C408.463 21.5127 408.796 24.8714 408.941 28.2408C408.941 29.1108 409.001 29.5708 409.181 29.6408C409.361 29.7108 409.541 29.5608 409.731 29.2008C410.597 27.5808 410.741 23.5941 410.161 17.2408Z" fill="#F2F4FF"/>
<path d="M493.821 20.9506C491.891 20.7806 490.341 22.1906 488.121 24.1706C487.312 24.9261 486.544 25.7239 485.821 26.5606C484.628 26.289 483.567 25.61 482.821 24.6406C482.74 24.4634 482.615 24.3103 482.457 24.1963C482.299 24.0823 482.114 24.0114 481.921 23.9906C481.736 24.0039 481.56 24.0679 481.409 24.1756C481.259 24.2833 481.142 24.4304 481.071 24.6006C480.823 25.0946 480.471 25.5292 480.04 25.8744C479.608 26.2196 479.107 26.4674 478.571 26.6006H421.871C421.807 25.4927 421.463 24.4191 420.871 23.4806C420.747 23.2908 420.586 23.129 420.396 23.0059C420.206 22.8827 419.992 22.8011 419.768 22.7661C419.545 22.7312 419.316 22.7439 419.098 22.8032C418.879 22.8626 418.676 22.9673 418.501 23.1106C417.611 23.6606 416.951 24.8806 416.501 26.7806C416.327 27.2243 416.307 27.713 416.443 28.1694C416.579 28.6258 416.863 29.0239 417.251 29.3006C418.216 29.7539 419.274 29.9765 420.341 29.9506C419.463 31.8332 417.996 33.3781 416.161 34.3506C414.014 35.684 412.074 36.0406 410.341 35.4206C409.971 35.2806 409.741 35.3006 409.631 35.4906C409.521 35.6806 409.631 35.8806 409.901 36.1106C411.521 37.4706 412.821 38.1106 413.801 38.1106C414.618 38.0903 415.422 37.8996 416.161 37.5506C419.087 36.2173 420.897 33.724 421.591 30.0706C440.381 29.7706 459.171 30.3506 477.961 30.0706C478.505 30.0637 479.034 29.8918 479.479 29.5775C479.924 29.2633 480.262 28.8215 480.451 28.3106C480.481 28.2246 480.534 28.1479 480.603 28.0881C480.672 28.0283 480.755 27.9873 480.845 27.9692C480.934 27.9511 481.027 27.9564 481.114 27.9847C481.201 28.013 481.279 28.0633 481.341 28.1306C481.941 28.8065 482.701 29.3221 483.551 29.6306C483.302 30.2319 483.108 30.8545 482.971 31.4906C482.939 31.5772 482.925 31.6692 482.93 31.7613C482.935 31.8533 482.958 31.9434 482.998 32.0263C483.038 32.1093 483.094 32.1834 483.163 32.2442C483.233 32.3051 483.313 32.3515 483.401 32.3806C483.771 32.5006 484.011 32.3806 484.111 31.8706C484.236 31.2515 484.438 30.6503 484.711 30.0806C485.781 30.3432 486.878 30.484 487.981 30.5006C490.402 30.5749 492.785 29.8742 494.781 28.5006C495.263 28.0033 495.658 27.4287 495.951 26.8006C496.425 25.9773 496.763 25.0823 496.951 24.1506C497.031 23.8222 497.031 23.4791 496.951 23.1506C496.691 21.9306 495.141 21.0706 493.821 20.9506ZM420.051 26.9506C419.051 26.9506 418.361 26.7906 418.051 26.4006C417.982 26.3314 417.944 26.238 417.944 26.1406C417.944 26.0433 417.982 25.9499 418.051 25.8806C418.238 25.6789 418.496 25.5571 418.771 25.5406C419.331 25.5406 419.771 25.9206 420.161 26.7306C420.211 26.8706 420.171 26.9406 420.051 26.9406V26.9506ZM491.541 26.6906C490.106 26.8426 488.663 26.9094 487.221 26.8906C488.394 25.8177 489.84 25.0878 491.401 24.7806C492.75 24.6819 494.089 25.0842 495.161 25.9106C494.017 26.4073 492.787 26.6725 491.541 26.6906Z" fill="#F2F4FF"/>
<path d="M505.101 4.14076C504.799 4.14184 504.5 4.18561 504.211 4.27076C503.926 4.34642 503.634 4.39333 503.341 4.41076C502.37 4.44172 501.421 4.11826 500.671 3.50076C500.635 3.47169 500.606 3.43507 500.587 3.39357C500.567 3.35206 500.557 3.3067 500.557 3.26076C500.557 3.21482 500.567 3.16946 500.587 3.12796C500.606 3.08645 500.635 3.04984 500.671 3.02076C500.758 2.93218 500.865 2.86662 500.984 2.82997C501.103 2.79331 501.229 2.78671 501.351 2.81076C501.505 2.8248 501.654 2.87458 501.786 2.95615C501.918 3.03772 502.029 3.14885 502.111 3.28076C502.141 3.34533 502.186 3.40196 502.242 3.44618C502.298 3.4904 502.363 3.52099 502.433 3.53554C502.503 3.55009 502.575 3.5482 502.644 3.53001C502.713 3.51183 502.777 3.47785 502.831 3.43076C503.001 3.27213 503.152 3.09427 503.281 2.90076C503.536 2.44785 503.68 1.94047 503.701 1.42076C503.735 1.27632 503.734 1.12577 503.698 0.981696C503.662 0.837619 503.593 0.704203 503.495 0.592601C503.397 0.480999 503.274 0.394457 503.136 0.340205C502.997 0.285954 502.848 0.26557 502.701 0.280761C502.139 0.284452 501.588 0.437322 501.105 0.723727C500.622 1.01013 500.223 1.41979 499.951 1.91076C499.593 2.31941 499.321 2.79514 499.149 3.31021C498.977 3.82527 498.91 4.36937 498.951 4.91076C499.029 5.16582 499.158 5.40251 499.33 5.60688C499.502 5.81126 499.713 5.97919 499.951 6.10076C499.081 6.69076 498.79 7.21076 499.06 7.64076C499.148 7.7674 499.28 7.85632 499.43 7.8897C499.58 7.92308 499.738 7.89846 499.87 7.82076C501.04 7.30076 501.871 6.98076 502.281 6.82076C502.691 6.66076 503.451 6.51076 504.481 6.31076C504.861 6.22076 505.251 5.76076 505.661 4.92076C505.692 4.83545 505.703 4.74393 505.693 4.65361C505.682 4.56328 505.651 4.47667 505.601 4.40076C505.548 4.31709 505.473 4.24895 505.386 4.20328C505.298 4.15761 505.199 4.13604 505.101 4.14076Z" fill="#F2F4FF"/>
<path d="M502.841 10.1708C502.731 8.93081 502.481 8.73081 502.081 9.59081L500.881 12.1708C500.7 12.5396 500.637 12.9551 500.701 13.3608L501.321 18.1808C501.838 21.5134 502.171 24.8717 502.321 28.2408C502.321 29.1108 502.381 29.5708 502.561 29.6408C502.741 29.7108 502.921 29.5608 503.111 29.2008C503.951 27.5808 504.088 23.5808 503.521 17.2008L502.841 10.1708Z" fill="#F2F4FF"/>
<path d="M363.271 12.0407C363.348 11.9637 363.407 11.8704 363.443 11.7677C363.48 11.665 363.493 11.5554 363.481 11.447C363.47 11.3387 363.434 11.2342 363.377 11.1414C363.32 11.0486 363.243 10.9698 363.151 10.9107C362.539 10.375 362.083 9.684 361.831 8.91072C361.541 8.11072 361.261 7.98072 360.991 8.53072L360.271 10.0207C360.169 10.2294 360.116 10.4586 360.116 10.6907C360.116 10.9229 360.169 11.152 360.271 11.3607C360.341 11.6307 360.431 12.1407 360.541 12.8807C361.621 20.9407 362.168 25.2041 362.181 25.6707C361.943 25.9927 361.63 26.252 361.269 26.4262C360.909 26.6004 360.511 26.6843 360.111 26.6707L320.271 26.6907H319.041C318.177 26.6305 317.326 26.4522 316.511 26.1607C316.793 25.6863 317.047 25.1954 317.271 24.6907C317.903 23.3048 318.091 21.7578 317.811 20.2607C317.773 19.8841 317.655 19.52 317.465 19.1924C317.276 18.8649 317.019 18.5813 316.711 18.3607C316.55 18.2897 316.377 18.2523 316.201 18.2507C315.539 18.3151 314.913 18.5842 314.411 19.0207C312.867 20.1363 311.673 21.6698 310.971 23.4407C310.642 24.2763 310.502 25.1745 310.561 26.0707C309.686 26.3474 308.79 26.5515 307.881 26.6807H307.811C307.341 26.6807 306.631 26.6807 305.601 26.6807C303.861 26.7407 302.121 26.7407 300.361 26.6807C299.241 26.6807 298.481 26.6807 298.021 26.6807H297.941C297.573 26.6223 297.221 26.4882 296.908 26.2868C296.595 26.0854 296.327 25.8211 296.121 25.5107C296.121 25.5107 296.121 25.3107 296.121 24.9907C296.121 24.6707 295.961 24.5107 295.671 24.5107C295.381 24.5107 295.281 24.6607 295.111 24.9507C294.578 25.9174 293.158 26.4874 290.851 26.6607C287.353 26.944 283.839 26.944 280.341 26.6607C275.881 26.1607 273.061 24.5007 271.891 21.6607C271.281 20.1907 270.951 16.7907 270.891 11.4507C270.891 10.4507 271.021 9.85072 271.271 9.74072C271.642 9.60991 272.029 9.52919 272.421 9.50072C272.931 9.44072 273.221 9.20072 273.281 8.77072L273.521 6.77072C273.601 6.13072 273.331 5.83072 272.731 5.87072C271.979 5.88094 271.26 6.18618 270.731 6.72072C270.238 7.28047 269.931 7.97915 269.851 8.72072C269.615 11.7984 269.575 14.8879 269.731 17.9707C269.731 18.7007 269.841 19.7207 269.991 21.0407C270.102 23.0751 270.769 25.0399 271.921 26.7207C273.834 29.0874 278.031 30.2807 284.511 30.3007C286.663 30.3587 288.817 30.2919 290.961 30.1007C291.697 30.072 292.42 29.8941 293.085 29.5778C293.75 29.2615 294.344 28.8134 294.831 28.2607C295.179 28.79 295.644 29.2321 296.19 29.5529C296.737 29.8737 297.349 30.0646 297.981 30.1107C301.314 30.264 304.668 30.264 308.041 30.1107C308.041 30.1107 308.041 30.1107 308.101 30.1107C308.839 30.0079 309.564 29.8234 310.261 29.5607C311.19 29.2809 312.101 28.947 312.991 28.5607C314.803 29.6446 316.879 30.2086 318.991 30.1907C319.391 30.1907 360.081 30.1907 360.101 30.1907C362.001 29.8774 363.121 28.0974 363.461 24.8507C363.668 22.7041 363.378 18.7574 362.591 13.0107L363.271 12.0407ZM312.271 23.5007C312.544 23.0771 312.923 22.7318 313.37 22.4987C313.817 22.2655 314.317 22.1525 314.821 22.1707C315.571 22.1707 315.951 22.8407 315.951 24.1007C314.271 25.3307 313.051 25.1307 312.271 23.5007Z" fill="#F2F4FF"/>
</svg>
