<svg width="156" height="32" viewBox="0 0 156 32" fill="none" xmlns="http://www.w3.org/2000/svg">
<path d="M3 30.8125L3 1.00098" stroke="#BC9665" stroke-linecap="round"/>
<path d="M9 23.3594L9 8.45312" stroke="#BC9665" stroke-linecap="round"/>
<path d="M15 25.5332L15 6.28174" stroke="#BC9665" stroke-linecap="round"/>
<path d="M21 23.3594L21 8.45312" stroke="#BC9665" stroke-linecap="round"/>
<path d="M27 23.3594L27 8.45312" stroke="#BC9665" stroke-linecap="round"/>
<path d="M33 28.0352L33 3.77759" stroke="#BC9665" stroke-linecap="round"/>
<path d="M39 23.3594L39 8.45312" stroke="#BC9665" stroke-linecap="round"/>
<path d="M45 23.3594L45 8.45312" stroke="#BC9665" stroke-linecap="round"/>
<path d="M51 23.3594L51 8.45312" stroke="#BC9665" stroke-linecap="round"/>
<path d="M57 30.8125L57 1.00098" stroke="#BC9665" stroke-linecap="round"/>
<path d="M63 26.6445L63 5.16821" stroke="#BC9665" stroke-linecap="round"/>
<path d="M69 23.3594L69 8.45312" stroke="#BC9665" stroke-linecap="round"/>
<path d="M75 23.3594L75 8.45312" stroke="#BC9665" stroke-linecap="round"/>
<path d="M81 26.3672L81 5.44702" stroke="#BC9665" stroke-linecap="round"/>
<path d="M87 23.3594L87 8.45312" stroke="#BC9665" stroke-linecap="round"/>
<path d="M93 23.3594L93 8.45312" stroke="#BC9665" stroke-linecap="round"/>
<path d="M99 23.3594L99 8.45312" stroke="#BC9665" stroke-linecap="round"/>
<path d="M105 30.8125L105 1.00098" stroke="#BC9665" stroke-linecap="round"/>
<path d="M111 26.6445L111 5.16821" stroke="#BC9665" stroke-linecap="round"/>
<path d="M117 23.3594L117 8.45312" stroke="#BC9665" stroke-linecap="round"/>
<path d="M123 23.3594L123 8.45312" stroke="#BC9665" stroke-linecap="round"/>
<path d="M129 26.3672L129 5.44702" stroke="#BC9665" stroke-linecap="round"/>
<path d="M135 23.3594L135 8.45312" stroke="#BC9665" stroke-linecap="round"/>
<path d="M141 23.3594L141 8.45312" stroke="#BC9665" stroke-linecap="round"/>
<path d="M147 23.3594L147 8.45312" stroke="#BC9665" stroke-linecap="round"/>
<path d="M153 30.3125L153 1.50183" stroke="#BC9665" stroke-linecap="round"/>
</svg>
