<svg width="156" height="32" viewBox="0 0 156 32" fill="none" xmlns="http://www.w3.org/2000/svg">
<path d="M3 31.2759L3 1.46436" stroke="#FEFAEF" stroke-linecap="round"/>
<path d="M9 23.8232L9 8.91699" stroke="#FEFAEF" stroke-linecap="round"/>
<path d="M15 25.9958L15 6.74439" stroke="#FEFAEF" stroke-linecap="round"/>
<path d="M21 23.8232L21 8.91699" stroke="#FEFAEF" stroke-linecap="round"/>
<path d="M27 23.8232L27 8.91699" stroke="#FEFAEF" stroke-linecap="round"/>
<path d="M33 28.4989L33 4.24133" stroke="#FEFAEF" stroke-linecap="round"/>
<path d="M39 23.8232L39 8.91699" stroke="#FEFAEF" stroke-linecap="round"/>
<path d="M45 23.8232L45 8.91699" stroke="#FEFAEF" stroke-linecap="round"/>
<path d="M51 23.8232L51 8.91699" stroke="#FEFAEF" stroke-linecap="round"/>
<path d="M57 31.2759L57 1.46436" stroke="#FEFAEF" stroke-linecap="round"/>
<path d="M63 27.1083L63 5.63196" stroke="#FEFAEF" stroke-linecap="round"/>
<path d="M69 23.8232L69 8.91699" stroke="#FEFAEF" stroke-linecap="round"/>
<path d="M75 23.8232L75 8.91699" stroke="#FEFAEF" stroke-linecap="round"/>
<path d="M81 26.8302L81 5.91003" stroke="#FEFAEF" stroke-linecap="round"/>
<path d="M87 23.8232L87 8.91699" stroke="#FEFAEF" stroke-linecap="round"/>
<path d="M93 23.8232L93 8.91699" stroke="#FEFAEF" stroke-linecap="round"/>
<path d="M99 23.8232L99 8.91699" stroke="#FEFAEF" stroke-linecap="round"/>
<path d="M105 31.2759L105 1.46436" stroke="#FEFAEF" stroke-linecap="round"/>
<path d="M111 27.1083L111 5.63196" stroke="#FEFAEF" stroke-linecap="round"/>
<path d="M117 23.8232L117 8.91699" stroke="#FEFAEF" stroke-linecap="round"/>
<path d="M123 23.8232L123 8.91699" stroke="#FEFAEF" stroke-linecap="round"/>
<path d="M129 26.8302L129 5.91003" stroke="#FEFAEF" stroke-linecap="round"/>
<path d="M135 23.8232L135 8.91699" stroke="#FEFAEF" stroke-linecap="round"/>
<path d="M141 23.8232L141 8.91699" stroke="#FEFAEF" stroke-linecap="round"/>
<path d="M147 23.8232L147 8.91699" stroke="#FEFAEF" stroke-linecap="round"/>
<path d="M153 30.7754L153 1.96472" stroke="#FEFAEF" stroke-linecap="round"/>
</svg>
