<svg width="160" height="70" viewBox="0 0 160 70" fill="none" xmlns="http://www.w3.org/2000/svg">
<path d="M0.405172 63.5252C2.01117 62.5348 6.65072 59.4317 9.52903 55.0384C11.7899 51.5819 13.039 47.326 13.039 47.326L13.0551 47.2689C13.0694 47.2225 14.4969 42.5241 14.6896 35.6701C14.7572 34.0776 14.719 32.4823 14.5754 30.8949C14.4862 29.8046 14.3524 28.7536 14.1579 27.5651C14.0532 26.9247 14.0782 26.2698 14.2315 25.6393C14.3848 25.0087 14.6631 24.4154 15.0501 23.8945H14.8806C9.68427 23.8945 5.38555 27.5187 3.96692 32.517C3.96172 32.5351 3.95755 32.5536 3.95443 32.5723C3.24752 36.0841 3.00752 39.6739 3.24065 43.2486C3.43872 47.6347 2.95157 54.0802 0.0946797 63.2754C0.0796847 63.3167 0.0779775 63.3616 0.0897977 63.4039C0.101618 63.4462 0.126373 63.4838 0.160597 63.5113C0.194821 63.5388 0.2368 63.555 0.280657 63.5575C0.324513 63.56 0.368051 63.5487 0.405172 63.5252Z" fill="#0C356A"/>
<path d="M30.2422 23.8965H18.9645C18.7471 23.8961 18.5303 23.9207 18.3185 23.9697C18.2953 23.9697 18.2757 23.9857 18.2543 23.9911C17.5543 24.1668 16.9457 24.5986 16.5486 25.2012C16.1515 25.8038 15.9948 26.5334 16.1094 27.2459C16.2878 28.3166 16.4413 29.4622 16.5484 30.7327C16.6959 32.3939 16.7358 34.0628 16.6679 35.7291C16.4663 42.974 14.9406 47.8491 14.9406 47.8491C14.1325 50.7924 12.8603 53.588 11.1718 56.1307C10.9416 56.4733 10.7079 56.8034 10.4723 57.1264L10.2564 57.4137C10.0839 57.6421 9.91024 57.8663 9.73536 58.0864C9.65685 58.181 9.58011 58.2791 9.50338 58.3719C9.30591 58.6098 9.10724 58.8436 8.90738 59.0732L8.76284 59.2392C8.51302 59.5193 8.2632 59.7888 8.00981 60.0493C7.94914 60.1135 7.88668 60.1724 7.83136 60.2277C7.63686 60.4258 7.44414 60.6185 7.24785 60.8041C7.16755 60.8826 7.08725 60.9594 7.00516 61.0343C6.81839 61.2116 6.62984 61.3841 6.4395 61.5518L6.23785 61.7302C5.98446 61.9515 5.73107 62.1656 5.48125 62.3691L5.38668 62.444C5.16541 62.6225 4.94592 62.8009 4.72822 62.9615L4.49981 63.14C4.32136 63.2756 4.14292 63.4058 3.96448 63.5308C3.89131 63.5825 3.81994 63.636 3.74677 63.686C3.53264 63.8359 3.32029 63.9804 3.11151 64.1196L3.033 64.1714C2.79507 64.3272 2.56309 64.4753 2.33706 64.6157L2.15862 64.7263C1.99088 64.828 1.82493 64.928 1.66255 65.0225L1.46447 65.1385L1.30744 65.2295C1.27402 65.2482 1.24897 65.2788 1.23744 65.3153C1.22591 65.3518 1.22876 65.3913 1.24541 65.4257C1.26206 65.4602 1.29125 65.487 1.327 65.5006C1.36275 65.5142 1.40236 65.5136 1.43771 65.499C2.42807 65.1153 3.63078 64.6246 4.94413 64.0447C6.05406 63.5539 7.2425 62.9954 8.4577 62.378C9.50695 61.8427 10.574 61.2699 11.6251 60.6489C14.3772 59.0728 16.9609 57.2192 19.3357 55.1171C19.3357 55.1171 19.4409 55.019 19.5391 54.9387C24.2087 50.951 27.8591 45.9064 30.1869 40.2242C31.0515 38.1213 31.7344 35.9482 32.2283 33.7288C32.7234 31.49 33.0278 29.2132 33.1383 26.9229C33.157 26.5315 33.0958 26.1404 32.9585 25.7734C32.8212 25.4064 32.6108 25.0712 32.3398 24.7881C32.0689 24.505 31.7433 24.2799 31.3826 24.1267C31.022 23.9734 30.634 23.8951 30.2422 23.8965Z" fill="#BC9665"/>
<path d="M48.334 15.5336C48.2763 15.5137 48.2164 15.5011 48.1556 15.4961C44.312 15.0622 40.5363 14.1573 36.9136 12.8016C36.636 12.6975 36.3953 12.5138 36.2217 12.2735C36.048 12.0332 35.9492 11.747 35.9375 11.4508C35.9375 8.41538 34.7323 5.50419 32.5868 3.35701C30.4413 1.20983 27.531 0.00236511 24.4957 0H3.24117C3.06578 0.00316421 2.89521 0.057963 2.75079 0.157544C2.60637 0.257124 2.49451 0.397071 2.42919 0.559882C2.36388 0.722692 2.34801 0.901143 2.38356 1.07293C2.41912 1.24471 2.50453 1.4022 2.62911 1.5257H0.867862C0.6687 1.53114 0.47709 1.60308 0.323563 1.73007C0.170037 1.85705 0.0634302 2.03177 0.0207315 2.22638C-0.0219672 2.42098 0.0016984 2.62428 0.0879584 2.80388C0.174219 2.98348 0.318109 3.12903 0.496699 3.21735C2.25524 4.02642 3.94892 4.96961 5.56273 6.03856C9.14946 8.41187 14.8168 12.0075 16.1088 17.8962C16.2462 18.5162 16.3327 19.1464 16.3675 19.7805C16.4218 20.4283 16.7144 21.0328 17.1888 21.4772C17.6631 21.9215 18.2855 22.1741 18.9353 22.186H31.2159C31.3357 22.1849 31.4551 22.173 31.5728 22.1503C32.0155 22.0661 32.4152 21.8304 32.703 21.4836C32.9909 21.1368 33.149 20.7006 33.1502 20.2499V18.6046C33.1501 18.3713 33.2008 18.1408 33.2988 17.9291C33.3968 17.7174 33.5397 17.5295 33.7177 17.3787C34.2798 16.9201 35.0007 17.086 35.0881 17.1075C38.0889 17.5562 41.1239 17.7353 44.1566 17.6428C45.47 17.5982 46.8119 17.4965 48.1449 17.3412C48.3489 17.3239 48.5411 17.2385 48.6907 17.0987C48.8402 16.9588 48.9384 16.7727 48.9693 16.5703C48.9983 16.3509 48.951 16.1281 48.8354 15.9394C48.7197 15.7506 48.5427 15.6074 48.334 15.5336ZM30.6556 11.8416C30.4215 11.8419 30.1926 11.7728 29.9978 11.643C29.803 11.5133 29.6511 11.3286 29.5613 11.1125C29.4714 10.8963 29.4478 10.6584 29.4932 10.4288C29.5386 10.1992 29.6512 9.98818 29.8166 9.82254C29.982 9.65691 30.1928 9.54405 30.4223 9.49826C30.6518 9.45246 30.8898 9.47578 31.1061 9.56528C31.3224 9.65477 31.5073 9.80641 31.6373 10.001C31.7674 10.1956 31.8369 10.4244 31.8369 10.6585C31.8364 10.9718 31.7118 11.2722 31.4904 11.4939C31.2691 11.7156 30.9689 11.8406 30.6556 11.8416Z" fill="#0C356A"/>
<path d="M17.5361 60.0841C14.1457 62.113 9.06539 64.7575 1.75988 67.3468C1.71137 67.363 1.66872 67.3931 1.63723 67.4335C1.60574 67.4738 1.58682 67.5225 1.58283 67.5735C1.57883 67.6245 1.58994 67.6755 1.61476 67.7202C1.63958 67.765 1.67702 67.8014 1.72241 67.825C4.30049 69.155 7.14213 69.895 10.0415 69.9913C14.3884 70.1144 21.5208 68.7886 23.489 64.1312C24.3438 62.1076 24.3045 59.2632 22.9858 58.421C21.585 57.5127 19.1421 59.1205 17.5361 60.0841Z" fill="#0C356A"/>
<path d="M43.521 43.431H46.5581V39.6391L51.1298 33.4863H47.6145L45.0395 37.2194L42.4806 33.4863H38.9492L43.521 39.6391V43.431Z" fill="#BC9665"/>
<path d="M50.0977 39.5869C50.0956 40.1441 50.2105 40.6955 50.4349 41.2054C50.6648 41.7185 51.0083 42.1725 51.4396 42.5331C51.929 42.9343 52.4913 43.2372 53.0956 43.4253C53.8376 43.6529 54.6107 43.7624 55.3868 43.7501C55.9964 43.7553 56.6043 43.6839 57.1962 43.5377C57.697 43.4118 58.1776 43.216 58.6237 42.956C59.023 42.7215 59.3786 42.4196 59.6748 42.0638C59.9567 41.7227 60.1836 41.3398 60.3475 40.9289L60.4314 40.7147H57.7012L57.6566 40.795C57.4776 41.1042 57.1931 41.3386 56.8554 41.4553C56.3828 41.6179 55.8846 41.6935 55.385 41.6783C55.0617 41.6802 54.7396 41.64 54.4267 41.5588C54.1458 41.4882 53.8783 41.3725 53.6345 41.2161C53.4136 41.0715 53.2252 40.8825 53.0813 40.6612C52.9643 40.4798 52.8837 40.2774 52.8439 40.0652H60.36V39.9081C60.3561 39.3852 60.2724 38.8659 60.112 38.3682C59.9392 37.8301 59.6539 37.335 59.2751 36.9156C58.8448 36.4499 58.3197 36.0817 57.7351 35.8361C56.9893 35.5373 56.1899 35.3951 55.3868 35.4185C54.5637 35.3994 53.7447 35.5388 52.9742 35.8289C52.3636 36.0662 51.8045 36.4188 51.3272 36.8675C50.9244 37.2519 50.6054 37.7154 50.3903 38.229C50.2077 38.659 50.1084 39.1199 50.0977 39.5869ZM53.8736 37.7936C54.3487 37.5796 54.8658 37.4747 55.3868 37.4867C55.7708 37.4708 56.1542 37.5314 56.5145 37.6651C56.7664 37.7678 57.0006 37.9093 57.2087 38.0845C57.3311 38.1954 57.439 38.3213 57.5299 38.4592H53.092C53.2842 38.1678 53.5553 37.937 53.8736 37.7936Z" fill="#BC9665"/>
<path d="M64.9439 39.2571C64.9439 38.6611 65.1348 38.2293 65.5274 37.9366C65.92 37.644 66.598 37.487 67.5117 37.487C67.8133 37.4793 68.1143 37.5184 68.4039 37.6029C68.6038 37.6635 68.785 37.774 68.9303 37.9241C69.0648 38.0757 69.156 38.2606 69.1944 38.4595C69.2507 38.724 69.2777 38.9939 69.2747 39.2643V43.4309H72.1602V39.2571C72.1602 38.6611 72.3511 38.2293 72.7437 37.9366C73.1362 37.644 73.8143 37.487 74.728 37.487C75.0296 37.4793 75.3306 37.5184 75.6202 37.6029C75.8201 37.6635 76.0013 37.774 76.1466 37.9241C76.2809 38.076 76.3726 38.2607 76.4125 38.4595C76.4685 38.724 76.4948 38.9939 76.491 39.2643V43.4309H79.3782V39.1054C79.3841 38.5866 79.3241 38.0692 79.1998 37.5655C79.0918 37.1256 78.8759 36.7196 78.5716 36.3842C78.2409 36.0416 77.8272 35.7902 77.3707 35.6543C76.7727 35.4815 76.1515 35.4021 75.5292 35.4188C74.749 35.3962 73.9709 35.5116 73.2308 35.7596C72.6936 35.9597 72.2181 36.2968 71.8514 36.7375C71.709 36.5041 71.5209 36.302 71.2983 36.1433C71.017 35.946 70.7086 35.7903 70.3828 35.6811C70.0459 35.5706 69.6975 35.4988 69.3443 35.467C68.9874 35.4366 68.6305 35.4188 68.304 35.4188C67.5678 35.398 66.8351 35.5267 66.1502 35.7971C65.6984 35.9923 65.2874 36.2708 64.9385 36.6179V35.7364H62.0566V43.4309H64.9439V39.2571Z" fill="#BC9665"/>
<path d="M90.5436 42.059C90.8255 41.7179 91.0524 41.335 91.2163 40.9241L91.3002 40.7099H88.5682L88.5236 40.7902C88.3449 41.099 88.0612 41.3333 87.7242 41.4505C87.2515 41.6129 86.7534 41.6884 86.2538 41.6735C85.9305 41.6756 85.6084 41.6354 85.2956 41.554C85.0142 41.4832 84.746 41.3675 84.5015 41.2114C84.2815 41.0657 84.0933 40.8769 83.9483 40.6564C83.832 40.4746 83.7515 40.2723 83.711 40.0604H91.2324V39.9034C91.2284 39.3804 91.1448 38.8611 90.9844 38.3634C90.8112 37.8251 90.5253 37.3299 90.1457 36.9109C89.7161 36.4443 89.1908 36.076 88.6057 35.8313C87.8585 35.5334 87.0578 35.3931 86.2538 35.4191C85.4307 35.4 84.6117 35.5393 83.8412 35.8295C83.2305 36.0664 82.6712 36.419 82.1942 36.868C81.7907 37.2511 81.4716 37.7143 81.2574 38.2278C81.0733 38.6606 80.9734 39.1245 80.9629 39.5947C80.9602 40.1521 81.0757 40.7037 81.302 41.2131C81.5316 41.7258 81.8745 42.1797 82.3048 42.5408C82.7942 42.942 83.3565 43.2449 83.9608 43.433C84.7035 43.6604 85.4772 43.77 86.2538 43.7578C86.8629 43.7631 87.4702 43.6917 88.0614 43.5454C88.5624 43.4198 89.043 43.224 89.489 42.9637C89.8908 42.7261 90.2477 42.4199 90.5436 42.059ZM84.737 37.7942C85.2136 37.5806 85.7317 37.4757 86.2538 37.4872C86.6378 37.4717 87.0211 37.5323 87.3816 37.6657C87.6338 37.7712 87.8676 37.9164 88.0739 38.0957C88.1963 38.2066 88.3043 38.3325 88.3951 38.4705H83.959C84.1501 38.1768 84.4196 37.9425 84.737 37.7942Z" fill="#BC9665"/>
<path d="M95.8073 39.5867C95.8073 38.8247 96.0232 38.3001 96.4658 37.9807C96.9083 37.6613 97.6168 37.4882 98.5411 37.4882C98.844 37.4787 99.1461 37.5234 99.4333 37.6202C99.6329 37.6921 99.8127 37.8101 99.9579 37.9646C100.085 38.1086 100.177 38.2803 100.226 38.4661C100.283 38.6747 100.312 38.8902 100.311 39.1067V43.4304H103.188V39.1049C103.195 38.5836 103.128 38.0639 102.99 37.5614C102.866 37.1147 102.629 36.7074 102.303 36.3783C101.95 36.0407 101.522 35.7917 101.054 35.652C100.443 35.4802 99.8091 35.4014 99.1746 35.4182C97.747 35.4182 96.621 35.8233 95.8073 36.6192V35.7269H92.9219V43.4304H95.8073V39.5867Z" fill="#BC9665"/>
<path d="M43.3838 57.8332H46.421V50.1262H50.5091V47.8867H39.2832V50.1262H43.3838V57.8332Z" fill="#BC9665"/>
<path d="M59.2911 52.3145V49.9001L59.1537 49.884C58.9967 49.8662 58.8432 49.8484 58.6951 49.8341C58.547 49.8198 58.3703 49.8145 58.1723 49.8145C56.7447 49.8145 55.6187 50.2177 54.805 51.0136V50.1303H51.916V57.8319H54.8015V54.3041C54.8015 53.5457 55.0281 52.9479 55.476 52.5197C55.9239 52.0914 56.618 51.8808 57.5352 51.8808C57.79 51.8834 58.0442 51.906 58.2954 51.9486C58.5617 51.9908 58.82 52.0738 59.0609 52.1949L59.2911 52.3145Z" fill="#BC9665"/>
<path d="M63.6647 46.9219H60.7793V49.3255H63.6647V46.9219Z" fill="#BC9665"/>
<path d="M63.6647 50.1289H60.7793V57.8323H63.6647V50.1289Z" fill="#BC9665"/>
<path d="M65.7031 46.9219V57.8302H68.5886V56.9379C69.4023 57.7356 70.5318 58.1389 71.954 58.1389C72.5863 58.1538 73.2173 58.0738 73.8259 57.9016C74.2938 57.7616 74.7219 57.5127 75.075 57.1753C75.3987 56.8471 75.6343 56.4427 75.7602 55.9993C75.8995 55.4993 75.9668 54.982 75.9601 54.4629V53.4993C75.9664 52.978 75.8991 52.4583 75.7602 51.9558C75.6357 51.5103 75.3999 51.1038 75.075 50.7745C74.7228 50.4358 74.2944 50.1868 73.8259 50.0482C73.2191 49.8762 72.5899 49.7967 71.9594 49.8127C70.5318 49.8127 69.4076 50.216 68.5939 51.0118V46.9219H65.7031ZM71.3223 51.8862C71.6254 51.8763 71.9277 51.9216 72.2146 52.02C72.4141 52.0919 72.5939 52.2099 72.7392 52.3644C72.8664 52.5086 72.9586 52.6802 73.0086 52.8659C73.0653 53.074 73.0935 53.2889 73.0925 53.5047V54.4683C73.0936 54.684 73.0654 54.899 73.0086 55.1071C72.9589 55.2934 72.8666 55.4656 72.7392 55.6103C72.5949 55.7632 72.4154 55.8784 72.2163 55.9458C71.9284 56.0387 71.6266 56.0816 71.3241 56.0725C69.4844 56.0725 68.5904 55.3908 68.5904 53.9865C68.5904 53.2263 68.8063 52.6999 69.2488 52.3805C69.6914 52.0611 70.3962 51.8862 71.3223 51.8862Z" fill="#BC9665"/>
<path d="M84.9958 51.0136C84.1821 50.2178 83.0472 49.8145 81.6161 49.8145C80.9843 49.7985 80.3537 49.8786 79.746 50.0518C79.2776 50.1908 78.8493 50.4398 78.4969 50.7781C78.1718 51.1075 77.9355 51.5139 77.8099 51.9594C77.6722 52.4622 77.6056 52.9817 77.6118 53.5029V54.4665C77.6052 54.9854 77.6719 55.5027 77.8099 56.0029C77.9336 56.4496 78.168 56.8577 78.4915 57.1896C78.8444 57.5273 79.2726 57.7762 79.7406 57.9159C80.3484 58.0892 80.9788 58.1704 81.6107 58.1568C83.0383 58.1568 84.1767 57.7535 84.9904 56.9558V57.8481H87.8634V50.1303H84.9904L84.9958 51.0136ZM82.262 56.0743C81.9596 56.0832 81.6578 56.0404 81.3698 55.9476C81.1671 55.8794 80.9835 55.7638 80.8345 55.6104C80.7054 55.4685 80.6134 55.2968 80.5668 55.1107C80.5141 54.9013 80.4883 54.686 80.4901 54.4701V53.5065C80.4885 53.29 80.5142 53.0741 80.5668 52.8641C80.6134 52.6791 80.7054 52.5086 80.8345 52.368C80.9836 52.2126 81.1669 52.094 81.3698 52.0218C81.6566 51.9235 81.959 51.8781 82.262 51.888C83.1792 51.888 83.868 52.054 84.332 52.3823C84.7959 52.7106 84.9958 53.2281 84.9958 53.9883C84.9958 54.7021 84.7781 55.2053 84.3284 55.5497C83.8787 55.8941 83.1774 56.0743 82.262 56.0743Z" fill="#BC9665"/>
<path d="M92.8054 46.9219H89.9199V57.8302H92.8054V46.9219Z" fill="#BC9665"/>
<path d="M98.6445 47.8867L102.993 57.7386L103.034 57.8332H106.94L111.33 47.8867H108.097L104.981 55.0406L101.876 47.8867H98.6445Z" fill="#BC9665"/>
<path d="M111.377 55.6118C111.63 56.1246 111.992 56.5763 112.437 56.9359C112.92 57.3272 113.469 57.6293 114.059 57.8281C114.73 58.051 115.434 58.1608 116.141 58.1528C116.818 58.1569 117.492 58.0471 118.133 57.8281C118.722 57.6264 119.273 57.3245 119.76 56.9359C120.214 56.5745 120.589 56.1246 120.863 55.6136C121.127 55.1119 121.265 54.5532 121.264 53.9862C121.265 53.4204 121.135 52.8622 120.884 52.3552C120.628 51.8424 120.268 51.389 119.826 51.024C119.345 50.6316 118.796 50.3293 118.208 50.1318C117.542 49.9092 116.843 49.7994 116.141 49.807C115.468 49.8032 114.799 49.913 114.162 50.1318C113.571 50.3343 113.018 50.636 112.528 51.024C112.069 51.386 111.689 51.8385 111.412 52.3534C111.143 52.8559 111.002 53.4175 111.002 53.988C111 54.5509 111.128 55.1066 111.377 55.6118ZM116.141 56.074C115.81 56.0806 115.481 56.0237 115.172 55.9062C114.91 55.8043 114.671 55.6521 114.467 55.4583C114.279 55.2739 114.132 55.0512 114.037 54.8052C113.937 54.5445 113.886 54.2673 113.887 53.988C113.864 53.4269 114.064 52.8794 114.444 52.4658C114.801 52.0822 115.381 51.8877 116.141 51.8877C116.492 51.8799 116.841 51.9367 117.171 52.0554C117.432 52.1545 117.669 52.3084 117.865 52.5069C118.044 52.6945 118.18 52.9193 118.263 53.1653C118.351 53.4306 118.395 53.7085 118.393 53.988C118.395 54.2697 118.348 54.5497 118.256 54.8159C118.172 55.0633 118.034 55.2885 117.851 55.4744C117.655 55.67 117.419 55.8199 117.158 55.9134C116.832 56.0275 116.487 56.0819 116.141 56.074Z" fill="#BC9665"/>
<path d="M125.833 46.9219H122.947V49.3255H125.833V46.9219Z" fill="#BC9665"/>
<path d="M125.833 50.1289H122.947V57.8323H125.833V50.1289Z" fill="#BC9665"/>
<path d="M137.092 56.4619C137.373 56.1211 137.599 55.7381 137.761 55.327L137.847 55.1129H135.024L134.979 55.1932C134.798 55.5048 134.508 55.7391 134.166 55.8517C133.729 56.0074 133.268 56.083 132.804 56.0747C132.472 56.0798 132.141 56.0229 131.83 55.907C131.561 55.8046 131.314 55.652 131.102 55.4573C130.905 55.2735 130.748 55.0504 130.643 54.8024C130.536 54.5447 130.482 54.2679 130.484 53.9887C130.471 53.7088 130.517 53.4293 130.617 53.1679C130.718 52.9065 130.872 52.6689 131.07 52.4701C131.46 52.0847 132.044 51.8884 132.804 51.8884C133.27 51.88 133.733 51.958 134.171 52.1186C134.508 52.2364 134.794 52.4679 134.979 52.7735L135.024 52.852H137.845L137.767 52.6414C137.614 52.2323 137.4 51.849 137.131 51.5048C136.846 51.1475 136.499 50.8452 136.105 50.6125C135.66 50.3503 135.179 50.1543 134.678 50.0308C134.066 49.8814 133.439 49.8089 132.809 49.8149C132.079 49.8066 131.352 49.9157 130.656 50.1379C130.05 50.3318 129.485 50.6341 128.987 51.0301C128.54 51.3926 128.175 51.8457 127.916 52.3595C127.659 52.8652 127.526 53.4249 127.527 53.9923C127.524 54.5493 127.639 55.1008 127.863 55.6108C128.093 56.124 128.437 56.578 128.869 56.9384C129.358 57.3402 129.921 57.6433 130.525 57.8306C131.265 58.0565 132.036 58.1643 132.809 58.15C133.418 58.1563 134.026 58.085 134.617 57.9377C135.118 57.813 135.599 57.6178 136.045 57.3577C136.442 57.121 136.796 56.8181 137.092 56.4619Z" fill="#BC9665"/>
<path d="M140.373 56.9335C140.862 57.3354 141.425 57.6384 142.029 57.8258C142.771 58.054 143.544 58.1637 144.32 58.1505C144.93 58.1567 145.538 58.0854 146.13 57.9382C146.631 57.8132 147.111 57.618 147.557 57.3582C147.957 57.1232 148.313 56.8214 148.61 56.466C148.891 56.1246 149.117 55.7418 149.281 55.3311L149.365 55.117H146.635L146.59 55.1973C146.411 55.5055 146.128 55.7392 145.791 55.8557C145.317 56.0183 144.819 56.0938 144.319 56.0788C143.995 56.0803 143.673 56.0407 143.36 55.961C143.079 55.8908 142.811 55.7744 142.568 55.6166C142.348 55.4721 142.159 55.2838 142.015 55.0634C141.899 54.8809 141.818 54.6781 141.778 54.4656H149.292V54.3086C149.289 53.7841 149.207 53.263 149.047 52.7633C148.875 52.2252 148.589 51.7301 148.21 51.3108C147.78 50.8476 147.255 50.4824 146.67 50.2401C145.925 49.9405 145.125 49.7978 144.322 49.8207C143.499 49.8 142.68 49.9387 141.91 50.2294C141.299 50.4652 140.739 50.8173 140.263 51.2661C139.859 51.6503 139.539 52.1139 139.324 52.6277C139.141 53.0603 139.042 53.5234 139.031 53.9928C139.029 54.5499 139.144 55.1014 139.369 55.6113C139.599 56.1226 139.942 56.5748 140.373 56.9335ZM142.802 52.1923C143.277 51.977 143.794 51.8715 144.315 51.8836C144.7 51.8693 145.083 51.9331 145.443 52.0709C145.695 52.1729 145.929 52.3145 146.137 52.4903C146.26 52.6008 146.368 52.7268 146.458 52.865H142.026C142.215 52.5717 142.485 52.3384 142.802 52.1923Z" fill="#BC9665"/>
<path d="M158.933 53.6211C158.48 53.4026 158 53.2471 157.505 53.1589C156.938 53.0447 156.242 52.9251 155.384 52.802C155.235 52.7735 155.036 52.7431 154.782 52.711C154.529 52.6789 154.306 52.6396 154.068 52.5897C153.87 52.547 153.676 52.4873 153.488 52.4112C153.36 52.3595 153.331 52.3131 153.331 52.3024C153.331 52.2399 153.351 52.1596 153.51 52.0865C153.699 52.0016 153.898 51.9417 154.102 51.908C154.338 51.8683 154.577 51.8439 154.816 51.8349C155.055 51.8259 155.235 51.8224 155.351 51.8224C155.467 51.8224 155.644 51.8313 155.853 51.8491C156.061 51.8673 156.266 51.9025 156.468 51.9544C156.644 51.9975 156.811 52.0712 156.961 52.1721C157.011 52.2021 157.052 52.2448 157.081 52.2959C157.109 52.347 157.123 52.4046 157.122 52.463V52.6271L159.843 52.5022V52.3523C159.849 51.9447 159.719 51.5466 159.473 51.221C159.212 50.8847 158.875 50.614 158.49 50.4305C158.041 50.2143 157.564 50.0595 157.073 49.9701C156.506 49.8648 155.929 49.8134 155.351 49.8166C154.73 49.8123 154.11 49.8661 153.499 49.9773C152.993 50.0649 152.501 50.2197 152.036 50.4376C151.659 50.6102 151.326 50.8644 151.06 51.1818C150.825 51.4747 150.699 51.8397 150.703 52.2149C150.664 52.6671 150.775 53.1196 151.018 53.5026C151.262 53.8856 151.624 54.1781 152.05 54.3349C152.516 54.5274 153.004 54.6634 153.503 54.7399C154.054 54.8303 154.663 54.9261 155.332 55.0272C155.446 55.0469 155.624 55.0647 155.867 55.0843C156.103 55.1034 156.338 55.1367 156.57 55.1843C156.778 55.2251 156.98 55.2942 157.17 55.3895C157.227 55.4111 157.276 55.4498 157.31 55.5003C157.344 55.5507 157.362 55.6105 157.361 55.6714C157.363 55.7054 157.357 55.7394 157.343 55.7705C157.329 55.8016 157.307 55.8288 157.28 55.8498C157.191 55.9166 157.089 55.9651 156.981 55.9926C156.831 56.0332 156.677 56.0595 156.522 56.0711C156.23 56.0918 155.938 56.0959 155.646 56.0836C155.528 56.0836 155.432 56.0836 155.357 56.0836C155.239 56.0836 155.073 56.0836 154.862 56.0711C154.656 56.062 154.451 56.0357 154.249 55.9926C154.072 55.9564 153.902 55.8907 153.747 55.7981C153.697 55.7725 153.656 55.7332 153.627 55.6849C153.599 55.6365 153.585 55.5811 153.587 55.5251V55.3627L150.865 55.4715V55.6214C150.858 56.0232 150.976 56.4174 151.203 56.7492C151.445 57.0855 151.763 57.3595 152.132 57.5486C152.574 57.775 153.048 57.9309 153.538 58.0108C154.139 58.1142 154.747 58.1637 155.357 58.1589C155.96 58.1623 156.563 58.1224 157.161 58.0394C157.662 57.9756 158.152 57.8448 158.619 57.6504C159.009 57.49 159.353 57.2356 159.622 56.9098C159.876 56.5809 160.009 56.1744 159.998 55.7588C160.017 55.3062 159.935 54.855 159.757 54.4384C159.579 54.083 159.29 53.7959 158.933 53.6211Z" fill="#BC9665"/>
<path d="M39.821 64.1643L40.0547 63.7931C40.2546 63.9144 40.3759 63.9929 40.4205 64.0269C40.4288 64.0352 40.439 64.0415 40.4501 64.0452C40.4613 64.0489 40.4732 64.05 40.4848 64.0482C40.4965 64.0465 40.5076 64.042 40.5172 64.0352C40.5268 64.0284 40.5346 64.0194 40.5401 64.009L40.8702 63.4862C40.8827 63.4664 40.8875 63.4427 40.8835 63.4196C40.8796 63.3965 40.8672 63.3757 40.8488 63.3613C40.7009 63.2312 40.5295 63.1307 40.3438 63.065C40.3233 63.0558 40.3003 63.0541 40.2787 63.0603C40.2571 63.0665 40.2384 63.0802 40.226 63.0989L40.0101 63.4184C39.8918 63.3352 39.7627 63.2686 39.6265 63.2203C39.6059 63.2114 39.583 63.2099 39.5615 63.2161C39.54 63.2223 39.5213 63.2357 39.5087 63.2542L39.175 63.752C39.1668 63.7602 39.1607 63.7702 39.1573 63.7813C39.1539 63.7924 39.1534 63.8041 39.1557 63.8154C39.158 63.8268 39.1631 63.8373 39.1705 63.8462C39.1779 63.8551 39.1874 63.862 39.1982 63.8662C39.4837 64.0447 39.6497 64.1428 39.6978 64.1785C39.706 64.1874 39.7162 64.1942 39.7275 64.1984C39.7389 64.2026 39.751 64.2041 39.763 64.2027C39.775 64.2013 39.7865 64.1971 39.7966 64.1904C39.8067 64.1837 39.815 64.1748 39.821 64.1643Z" fill="url(#paint0_linear_638_435103)"/>
<path d="M51.3404 67.774C51.3199 67.7648 51.2968 67.7631 51.2752 67.7693C51.2537 67.7755 51.235 67.7892 51.2226 67.8079L51.0067 68.1273C50.8879 68.0439 50.7582 67.9772 50.6212 67.9293C50.6009 67.9202 50.5781 67.9184 50.5566 67.9243C50.5351 67.9302 50.5164 67.9433 50.5035 67.9614L50.1698 68.461C50.1619 68.4693 50.1562 68.4794 50.1531 68.4904C50.15 68.5014 50.1495 68.5129 50.1518 68.5241C50.1541 68.5353 50.159 68.5458 50.1662 68.5547C50.1733 68.5636 50.1825 68.5706 50.193 68.5752C50.4785 68.7537 50.6462 68.85 50.6926 68.8875C50.7009 68.8967 50.7113 68.9037 50.7229 68.908C50.7345 68.9123 50.747 68.9137 50.7593 68.9121C50.7715 68.9105 50.7832 68.906 50.7934 68.8989C50.8035 68.8918 50.8118 68.8824 50.8175 68.8714L51.0495 68.5021C51.2494 68.6234 51.3707 68.7019 51.4064 68.7358C51.4147 68.7442 51.4248 68.7505 51.436 68.7542C51.4472 68.7579 51.459 68.7589 51.4707 68.7572C51.4823 68.7555 51.4934 68.751 51.503 68.7442C51.5126 68.7374 51.5205 68.7284 51.5259 68.718L51.8561 68.1951C51.8684 68.1755 51.8732 68.152 51.8696 68.129C51.866 68.1061 51.8542 68.0852 51.8364 68.0702C51.6914 67.9409 51.523 67.8404 51.3404 67.774Z" fill="url(#paint1_linear_638_435103)"/>
<path d="M57.5322 64.0292L57.1986 64.5289C57.1908 64.5373 57.1852 64.5475 57.1822 64.5586C57.1792 64.5696 57.1789 64.5813 57.1813 64.5925C57.1838 64.6037 57.1889 64.6141 57.1962 64.6229C57.2036 64.6317 57.213 64.6386 57.2235 64.6431C57.5073 64.8215 57.675 64.9179 57.7214 64.9553C57.7299 64.9641 57.7403 64.9708 57.7519 64.9749C57.7634 64.9789 57.7758 64.9802 57.7879 64.9787C57.8 64.9771 57.8116 64.9727 57.8218 64.9659C57.8319 64.9591 57.8403 64.9499 57.8463 64.9393L58.1764 64.4182C58.1888 64.3985 58.1936 64.375 58.19 64.3521C58.1864 64.3291 58.1746 64.3083 58.1568 64.2933C58.0087 64.1626 57.8366 64.062 57.65 63.9971C57.6298 63.9877 57.6068 63.9857 57.5853 63.9916C57.5637 63.9975 57.5449 64.0108 57.5322 64.0292Z" fill="url(#paint2_linear_638_435103)"/>
<path d="M72.6777 67.774C72.6573 67.7648 72.6342 67.7631 72.6126 67.7693C72.591 67.7755 72.5724 67.7892 72.56 67.8079L72.3441 68.1273C72.2259 68.0439 72.0968 67.9772 71.9604 67.9293C71.9398 67.9204 71.9167 67.9188 71.895 67.9246C71.8734 67.9304 71.8543 67.9434 71.8408 67.9614L71.5071 68.461C71.4994 68.4695 71.4938 68.4797 71.4908 68.4907C71.4878 68.5018 71.4875 68.5134 71.4899 68.5246C71.4924 68.5358 71.4975 68.5463 71.5048 68.5551C71.5122 68.5639 71.5215 68.5708 71.5321 68.5752C71.8176 68.7537 71.9836 68.85 72.03 68.8875C72.0383 68.8967 72.0487 68.9037 72.0603 68.908C72.0719 68.9123 72.0844 68.9137 72.0966 68.9121C72.1089 68.9105 72.1206 68.906 72.1308 68.8989C72.1409 68.8918 72.1492 68.8824 72.1549 68.8714L72.3887 68.5021C72.5885 68.6234 72.7099 68.7019 72.7456 68.7358C72.7538 68.7442 72.764 68.7505 72.7751 68.7542C72.7863 68.7579 72.7982 68.7589 72.8098 68.7572C72.8215 68.7555 72.8326 68.751 72.8422 68.7442C72.8518 68.7374 72.8596 68.7284 72.8651 68.718L73.197 68.1951C73.2092 68.1753 73.2137 68.1516 73.2097 68.1287C73.2058 68.1057 73.1937 68.0849 73.1756 68.0702C73.0302 67.9404 72.8612 67.8398 72.6777 67.774Z" fill="url(#paint3_linear_638_435103)"/>
<path d="M83.4204 63.4365L83.5881 63.2134C83.6053 63.1949 83.6183 63.1729 83.6263 63.1489C83.6343 63.125 83.6371 63.0996 83.6346 63.0744C83.6321 63.0493 83.6242 63.025 83.6116 63.0031C83.599 62.9813 83.5818 62.9623 83.5613 62.9475C83.4176 62.824 83.3092 62.6645 83.2473 62.4854C83.1795 62.2962 83.1134 62.2659 83.0492 62.3944L82.8708 62.7388C82.8465 62.7879 82.8339 62.8419 82.8339 62.8967C82.8339 62.9515 82.8465 63.0055 82.8708 63.0546C82.8868 63.1188 82.9065 63.233 82.935 63.4115C83.1384 64.9408 83.2294 65.858 83.2723 66.2291C83.2958 66.3417 83.274 66.459 83.2116 66.5557C83.0567 66.7118 82.8495 66.8053 82.6299 66.818C75.5885 66.8573 73.5042 66.7948 73.4239 66.7662C73.4239 66.7662 73.3115 66.7216 73.1331 66.6717C73.0457 66.6584 72.9621 66.627 72.8877 66.5793C72.8133 66.5317 72.7498 66.4689 72.7012 66.3951C72.7012 66.3951 72.7012 66.3487 72.7012 66.272C72.7012 66.1952 72.662 66.1595 72.5942 66.1595C72.5264 66.1595 72.5014 66.1952 72.4621 66.2648C72.3372 66.4932 72.0017 66.6217 71.4557 66.6681C68.6587 66.9358 65.8426 66.9358 63.0456 66.6681C62.7223 66.6416 62.4148 66.5171 62.1641 66.3112C61.9201 66.1178 61.7055 65.89 61.5271 65.6349C61.5089 65.6058 61.4807 65.5845 61.4477 65.5749C61.4148 65.5654 61.3795 65.5683 61.3486 65.5832C61.0328 65.6991 60.7669 65.9722 60.5492 66.4058C60.4725 66.5717 60.2369 66.6627 59.8354 66.6752C59.7676 66.6752 59.6784 66.6752 59.5606 66.6859C59.3288 66.6984 59.0965 66.6984 58.8647 66.6859C58.729 66.6859 58.638 66.6752 58.5684 66.6752C58.4737 66.6662 58.3823 66.6358 58.301 66.5863C58.2198 66.5369 58.1507 66.4697 58.0991 66.3897C58.0991 66.3897 58.0991 66.3433 58.0991 66.2666C58.0991 66.1899 58.0599 66.1542 57.9921 66.1542C57.9243 66.1542 57.8993 66.1899 57.8618 66.2595C57.7351 66.4879 57.3996 66.6164 56.8536 66.6628C56.1244 66.7222 55.2768 66.7514 54.3108 66.7502C53.3448 66.749 52.5121 66.7199 51.8126 66.6628H51.7965C51.7106 66.6486 51.6286 66.6169 51.5555 66.5696C51.4825 66.5223 51.4199 66.4605 51.3718 66.3879C51.3718 66.3879 51.3718 66.3415 51.3718 66.2648C51.3718 66.1881 51.3325 66.1524 51.2665 66.1524C51.2005 66.1524 51.1719 66.1881 51.1345 66.2577C51.0078 66.4861 50.6723 66.6146 50.1263 66.661C47.3299 66.9287 44.5143 66.9287 41.718 66.661H41.7037C41.4658 66.6681 41.3212 66.4558 41.2701 66.0239L41.0702 64.3733C41.047 64.1199 40.9846 64.0557 40.8775 64.1842L40.6723 64.4375C40.6152 64.5089 40.6027 64.7248 40.6384 65.0835C40.3312 65.2535 40.0509 65.4682 39.8068 65.7206C39.7203 65.8308 39.6467 65.9505 39.5873 66.0775C39.5069 66.22 39.4531 66.376 39.4285 66.5378C39.4244 66.5961 39.4365 66.6543 39.4637 66.706C39.4908 66.7577 39.5317 66.8008 39.582 66.8305C39.7487 66.9287 39.9366 66.9856 40.1298 66.9964C40.2499 67.0147 40.3726 67.0024 40.4867 66.9608C40.6358 66.8396 40.7606 66.6913 40.8543 66.5236C40.8703 66.7904 40.9552 67.0486 41.1005 67.273C41.1791 67.3529 41.2744 67.4143 41.3797 67.4526C41.485 67.4909 41.5975 67.5051 41.709 67.4943C44.5112 67.7656 47.333 67.7656 50.1352 67.4943C50.3133 67.4904 50.4886 67.4493 50.6499 67.3737C50.8113 67.2981 50.955 67.1897 51.072 67.0553C51.1538 67.1809 51.2636 67.2858 51.3926 67.362C51.5217 67.4381 51.6667 67.4834 51.8161 67.4943C52.5216 67.5526 53.3591 67.5817 54.3286 67.5817C55.2982 67.5817 56.1505 67.5526 56.8857 67.4943C57.0615 67.4887 57.2343 67.447 57.3933 67.3718C57.5523 67.2966 57.6942 67.1895 57.8101 67.0571C57.8919 67.1827 58.0016 67.2876 58.1307 67.3638C58.2598 67.4399 58.4047 67.4852 58.5542 67.4961C58.985 67.5229 59.4171 67.5229 59.8479 67.4961H59.8568C60.0888 67.4765 60.3172 67.3176 60.5456 66.9947C60.8779 67.3745 61.3467 67.6079 61.85 67.6442C61.9001 67.6437 61.9492 67.63 61.9924 67.6047C62.0356 67.5793 62.0714 67.5431 62.0963 67.4996C62.1299 67.4135 62.1491 67.3225 62.1534 67.2302C62.4178 67.3974 62.7222 67.4905 63.0349 67.4996C65.8371 67.7709 68.6589 67.7709 71.461 67.4996C71.6391 67.4954 71.8143 67.4542 71.9756 67.3786C72.1369 67.3031 72.2807 67.1948 72.3979 67.0607C72.4795 67.186 72.589 67.2908 72.7177 67.3669C72.8465 67.4431 72.991 67.4885 73.1402 67.4996H82.6531C82.8549 67.5038 83.0545 67.4566 83.233 67.3623C83.3558 67.2967 83.4625 67.2047 83.5453 67.0928C83.7065 66.8351 83.7645 66.526 83.7077 66.2273C83.6184 65.4975 83.5346 64.5625 83.4204 63.4365ZM39.9763 66.1131C39.9442 66.0953 39.9407 66.0721 39.9603 66.0418C40.1439 65.8203 40.3943 65.6644 40.6741 65.5974C40.7026 65.8116 40.7276 65.99 40.7454 66.1328C40.4933 66.2098 40.2226 66.2004 39.9763 66.106V66.1131ZM61.5788 66.7288C61.3625 66.6652 61.161 66.5591 60.9864 66.4165C60.981 66.4115 60.9767 66.4054 60.9737 66.3987C60.9708 66.3919 60.9692 66.3846 60.9692 66.3772C60.9692 66.3699 60.9708 66.3626 60.9737 66.3558C60.9767 66.3491 60.981 66.343 60.9864 66.338C61.0606 66.245 61.1657 66.1817 61.2826 66.1595C61.3076 66.1595 61.3236 66.1595 61.329 66.1738C61.4103 66.3542 61.5108 66.5253 61.6288 66.6842C61.6585 66.7318 61.6419 66.7466 61.5788 66.7288Z" fill="url(#paint4_linear_638_435103)"/>
<path d="M84.9106 62.7513C84.8821 62.4551 84.8214 62.4087 84.7322 62.6139L84.4467 63.2296C84.4042 63.3177 84.3893 63.4166 84.4038 63.5133L84.5519 64.6625C84.6781 65.4572 84.7586 66.2586 84.7929 67.0625C84.7929 67.2695 84.8089 67.3802 84.8517 67.3962C84.8946 67.4123 84.9374 67.3784 84.982 67.2927C85.1854 66.9061 85.2181 65.9544 85.0801 64.4376L84.9106 62.7513Z" fill="url(#paint5_linear_638_435103)"/>
<path d="M102.278 65.4965L102.084 65.923C102.062 65.9696 102.057 66.0219 102.068 66.0719C102.079 66.1218 102.107 66.1667 102.146 66.1996C102.229 66.2857 102.287 66.3932 102.312 66.5101C102.145 66.6357 101.936 66.692 101.728 66.6671C99.0774 66.9205 96.409 66.9343 93.7555 66.7082C93.5853 66.6927 93.4206 66.6401 93.2729 66.5541C93.1252 66.4681 92.9982 66.3507 92.9008 66.2103C92.6938 65.9123 92.4815 65.1182 92.4154 63.0447C92.3815 62.7217 92.3137 62.6878 92.2138 62.9394L92.0121 63.4212C91.9696 63.5419 91.955 63.6706 91.9693 63.7977L92.3262 67.9573C92.342 68.1301 92.3063 68.3038 92.2238 68.4565C92.1413 68.6092 92.0155 68.7341 91.8623 68.8156C91.5889 68.9571 91.2882 69.0381 90.9807 69.0529C90.3009 69.094 89.894 68.9262 89.7548 68.5515C89.6359 68.216 89.7501 67.7907 90.0974 67.2756C90.119 67.2509 90.1309 67.2192 90.1309 67.1864C90.1309 67.1536 90.119 67.1219 90.0974 67.0972C90.051 67.0472 89.9993 67.0651 89.9422 67.1525C89.5996 67.6878 89.4069 68.1232 89.373 68.4623C89.3212 68.9512 89.4176 69.3295 89.6585 69.599C89.7929 69.7401 89.9578 69.8488 90.1405 69.9169C90.3232 69.9849 90.519 70.0104 90.7131 69.9915C91.2525 69.9698 91.7671 69.7596 92.1674 69.3973C92.7348 68.8209 92.8937 67.902 92.5867 67.0454C92.6662 67.1645 92.7688 67.2665 92.8883 67.3452C93.0453 67.4464 93.2263 67.5042 93.4129 67.513C96.1808 67.7779 98.9677 67.7779 101.736 67.513C102.208 67.513 102.503 67.2614 102.628 66.7599C102.691 66.5378 102.709 66.3053 102.683 66.076C102.656 65.8466 102.584 65.6249 102.471 65.4234C102.408 65.3181 102.348 65.3431 102.278 65.4965Z" fill="url(#paint6_linear_638_435103)"/>
<path d="M102.99 64.1078C102.918 64.1104 102.847 64.1206 102.777 64.1381C102.71 64.1575 102.64 64.1694 102.57 64.1738C102.339 64.181 102.113 64.1043 101.933 63.9579C101.925 63.9507 101.918 63.9418 101.914 63.9318C101.909 63.9218 101.907 63.9109 101.907 63.8999C101.907 63.8889 101.909 63.878 101.914 63.868C101.918 63.858 101.925 63.8491 101.933 63.8419C101.954 63.8207 101.98 63.8051 102.008 63.7963C102.036 63.7876 102.067 63.7861 102.096 63.7919C102.132 63.7959 102.167 63.8081 102.198 63.8276C102.229 63.8471 102.255 63.8733 102.274 63.9044C102.281 63.9211 102.292 63.9359 102.306 63.9474C102.319 63.9589 102.336 63.9668 102.354 63.9703C102.371 63.9739 102.39 63.973 102.407 63.9677C102.424 63.9624 102.44 63.9529 102.452 63.94C102.495 63.9031 102.531 63.8605 102.561 63.8133C102.624 63.7046 102.657 63.5818 102.659 63.4565C102.668 63.4224 102.668 63.3869 102.66 63.3528C102.652 63.3187 102.636 63.287 102.613 63.2604C102.59 63.2339 102.561 63.2132 102.528 63.2001C102.496 63.187 102.461 63.1819 102.426 63.1852C102.188 63.1674 101.969 63.2964 101.771 63.5724C101.572 63.8484 101.489 64.0864 101.523 64.2862C101.541 64.347 101.572 64.4033 101.613 64.4517C101.655 64.5002 101.705 64.5398 101.762 64.5682C101.555 64.7091 101.485 64.8323 101.55 64.9358C101.571 64.9653 101.602 64.9862 101.638 64.9944C101.673 65.0026 101.71 64.9976 101.742 64.9804C101.93 64.8929 102.123 64.8148 102.319 64.7466C102.491 64.6961 102.666 64.655 102.843 64.6235C102.934 64.6021 103.022 64.4914 103.123 64.2916C103.131 64.2713 103.134 64.2493 103.132 64.2276C103.13 64.2059 103.123 64.185 103.111 64.1667C103.097 64.1477 103.079 64.1325 103.058 64.1222C103.036 64.1119 103.013 64.107 102.99 64.1078Z" fill="url(#paint7_linear_638_435103)"/>
<path d="M109.32 68.108C109.3 68.0989 109.277 68.0972 109.255 68.103C109.234 68.1089 109.215 68.122 109.202 68.1401L108.868 68.6397C108.86 68.6479 108.854 68.6579 108.851 68.669C108.847 68.68 108.847 68.6918 108.849 68.7031C108.851 68.7145 108.856 68.725 108.864 68.7339C108.871 68.7428 108.881 68.7497 108.892 68.7539C109.177 68.9324 109.343 69.0305 109.389 69.0662C109.398 69.0751 109.408 69.0819 109.42 69.0861C109.431 69.0903 109.443 69.0917 109.455 69.0904C109.468 69.089 109.479 69.0848 109.489 69.0781C109.5 69.0714 109.508 69.0625 109.514 69.0519L109.844 68.5291C109.857 68.5094 109.862 68.4859 109.858 68.463C109.854 68.44 109.843 68.4191 109.825 68.4042C109.677 68.2742 109.505 68.1736 109.32 68.108Z" fill="url(#paint8_linear_638_435103)"/>
<path d="M114.098 62.7606L113.882 63.08C113.764 62.9969 113.634 62.9303 113.498 62.8819C113.478 62.873 113.455 62.8716 113.433 62.8778C113.412 62.8839 113.393 62.8974 113.38 62.9158L113.047 63.4155C113.039 63.4238 113.033 63.4339 113.03 63.4449C113.027 63.4558 113.026 63.4674 113.029 63.4786C113.031 63.4898 113.036 63.5003 113.043 63.5092C113.05 63.518 113.059 63.5251 113.07 63.5297C113.355 63.6992 113.521 63.8045 113.568 63.8402C113.576 63.8491 113.586 63.8559 113.598 63.8601C113.609 63.8642 113.622 63.8657 113.634 63.8643C113.646 63.8629 113.658 63.8587 113.668 63.8521C113.678 63.8454 113.687 63.8365 113.693 63.8259L113.926 63.4547C114.126 63.5761 114.248 63.6546 114.292 63.6885C114.337 63.7224 114.374 63.7171 114.412 63.6707L114.742 63.1478C114.754 63.1281 114.759 63.1043 114.755 63.0813C114.751 63.0582 114.739 63.0374 114.721 63.0229C114.573 62.8929 114.401 62.7924 114.216 62.7267C114.195 62.7178 114.172 62.7163 114.151 62.7225C114.129 62.7287 114.11 62.7422 114.098 62.7606Z" fill="url(#paint9_linear_638_435103)"/>
<path d="M125.574 62.9469C125.429 62.8241 125.321 62.6644 125.26 62.4847C125.192 62.2956 125.126 62.2653 125.062 62.3937L124.883 62.7381C124.86 62.7875 124.847 62.8414 124.847 62.8961C124.847 62.9507 124.86 63.0046 124.883 63.054C124.899 63.1182 124.92 63.2372 124.947 63.4109C125.126 64.7385 125.245 65.6307 125.304 66.0875C125.314 66.1548 125.309 66.2233 125.292 66.2889C125.275 66.3546 125.245 66.4163 125.204 66.4703C125.163 66.5244 125.111 66.5698 125.053 66.6039C124.994 66.6381 124.929 66.6603 124.862 66.6693C118.536 66.6693 115.638 66.6693 115.458 66.6853C115.36 66.6868 115.262 66.6832 115.165 66.6746C114.959 66.6569 114.755 66.6131 114.56 66.5444C114.626 66.4324 114.686 66.3168 114.739 66.1982C114.887 65.8709 114.932 65.506 114.867 65.1525C114.858 65.0639 114.83 64.9782 114.785 64.9011C114.741 64.8239 114.68 64.757 114.608 64.7046C114.57 64.6866 114.529 64.6775 114.487 64.6778C114.331 64.6917 114.183 64.7541 114.064 64.8563C113.699 65.1196 113.418 65.4818 113.252 65.9002C113.175 66.0975 113.142 66.3096 113.156 66.5212C112.946 66.597 112.728 66.6479 112.506 66.6728C112.332 66.6894 112.158 66.6936 111.983 66.6853C111.287 66.6853 111.321 66.7049 110.747 66.6853C110.481 66.6853 110.302 66.6746 110.192 66.6746H110.176C110.088 66.6614 110.005 66.6299 109.93 66.5823C109.856 66.5346 109.792 66.4718 109.744 66.398C109.744 66.398 109.744 66.3516 109.744 66.2749C109.744 66.1982 109.706 66.1625 109.639 66.1625C109.571 66.1625 109.546 66.1982 109.507 66.2678C109.382 66.4962 109.044 66.6247 108.498 66.6711C107.672 66.7363 106.842 66.7363 106.016 66.6711C104.963 66.5521 104.298 66.1619 104.021 65.5005C103.875 65.1543 103.799 64.3513 103.793 63.0915C103.793 62.847 103.821 62.7114 103.882 62.6864C103.969 62.6548 104.061 62.6356 104.153 62.6293C104.275 62.615 104.342 62.5579 104.355 62.4508L104.412 61.9905C104.43 61.8388 104.369 61.7692 104.234 61.7781C104.052 61.7794 103.879 61.8518 103.75 61.9797C103.634 62.1118 103.562 62.2763 103.543 62.4508C103.489 63.1776 103.48 63.9071 103.516 64.635C103.516 64.8134 103.541 65.0508 103.577 65.3613C103.647 65.9644 103.799 66.4117 104.032 66.7032C104.483 67.2611 105.474 67.5424 107.005 67.5472C107.513 67.5622 108.022 67.5467 108.529 67.5008C108.703 67.4936 108.873 67.4512 109.03 67.3761C109.187 67.3009 109.328 67.1946 109.442 67.0636C109.524 67.1892 109.634 67.2941 109.763 67.3703C109.892 67.4464 110.037 67.4917 110.186 67.5026C110.752 67.5329 111.279 67.5026 111.83 67.5151C112.069 67.5158 112.308 67.4973 112.544 67.4598C112.983 67.3991 113.42 67.4437 113.861 67.3045C114.31 67.4169 114.753 67.3866 115.21 67.4633C115.4 67.4925 115.593 67.5056 115.786 67.5026H124.887C125.206 67.1203 125.473 66.6966 125.679 66.2428C125.857 65.8127 126.138 64.8402 125.641 63.2217C125.659 63.2003 125.671 63.1753 125.676 63.1486C125.682 63.1219 125.682 63.0942 125.675 63.0676C125.669 63.041 125.656 63.0163 125.639 62.9954C125.621 62.9745 125.599 62.9579 125.574 62.9469ZM113.543 65.9198C113.608 65.8199 113.698 65.7384 113.803 65.6834C113.909 65.6284 114.027 65.6016 114.146 65.6057C114.325 65.6057 114.412 65.7645 114.412 66.0608C114.025 66.3534 113.736 66.3052 113.543 65.9198Z" fill="url(#paint10_linear_638_435103)"/>
<path d="M126.925 62.7513C126.898 62.4551 126.838 62.4087 126.747 62.6139L126.461 63.2296C126.419 63.3178 126.404 63.4164 126.417 63.5133L126.565 64.6625C126.692 65.4571 126.773 66.2585 126.807 67.0625C126.807 67.2695 126.822 67.3802 126.864 67.3962C126.907 67.4123 126.952 67.3784 126.997 67.2927C127.199 66.9061 127.231 65.9544 127.095 64.4376L126.925 62.7513Z" fill="url(#paint11_linear_638_435103)"/>
<path d="M132.553 64.9388L132.785 64.5694C132.985 64.6907 133.106 64.7675 133.142 64.8014C133.15 64.8101 133.16 64.8167 133.171 64.8207C133.183 64.8246 133.195 64.8258 133.206 64.824C133.218 64.8223 133.229 64.8177 133.239 64.8106C133.249 64.8035 133.256 64.7942 133.261 64.7835L133.592 64.2607C133.604 64.2413 133.609 64.2181 133.605 64.1954C133.601 64.1728 133.59 64.1522 133.572 64.1376C133.423 64.007 133.251 63.9058 133.065 63.8396C133.045 63.831 133.022 63.8297 133 63.8359C132.979 63.842 132.96 63.8553 132.947 63.8735L132.731 64.1947C132.614 64.1102 132.485 64.0434 132.348 63.9966C132.328 63.9872 132.305 63.9852 132.283 63.9911C132.261 63.997 132.243 64.0103 132.23 64.0287L131.896 64.5283C131.889 64.5367 131.883 64.5467 131.88 64.5577C131.877 64.5687 131.876 64.5803 131.878 64.5914C131.881 64.6026 131.886 64.6131 131.893 64.622C131.9 64.6309 131.909 64.6379 131.92 64.6426C132.205 64.821 132.371 64.9174 132.419 64.9548C132.427 64.9656 132.438 64.974 132.451 64.9792C132.463 64.9845 132.477 64.9864 132.491 64.9848C132.504 64.9831 132.517 64.9781 132.528 64.97C132.539 64.9619 132.547 64.9512 132.553 64.9388Z" fill="url(#paint12_linear_638_435103)"/>
<path d="M135.068 64.8178L134.861 65.428C134.849 65.4551 134.846 65.4852 134.852 65.5143C134.858 65.5433 134.872 65.5699 134.893 65.5904C135.043 65.7088 135.151 65.873 135.199 66.0579C134.485 66.4624 133.577 66.6635 132.475 66.6611C131.182 66.6611 130.491 66.3964 130.402 65.867C130.397 65.7743 130.413 65.6816 130.45 65.5962C130.486 65.5108 130.542 65.4349 130.613 65.3745C130.673 65.3103 130.68 65.2532 130.636 65.2085C130.591 65.1639 130.532 65.1746 130.466 65.246C130.313 65.4096 130.192 65.6002 130.109 65.8081C129.958 66.2453 129.993 66.604 130.222 66.8788C130.618 67.3713 131.361 67.5884 132.452 67.5301C133.424 67.5043 134.372 67.2277 135.206 66.7271C135.29 66.6642 135.361 66.5839 135.412 66.4916C135.463 66.3992 135.494 66.297 135.502 66.1918C135.602 65.7342 135.525 65.2556 135.284 64.8534C135.181 64.7053 135.111 64.6928 135.068 64.8178Z" fill="url(#paint13_linear_638_435103)"/>
<path d="M137.006 64.4376L136.84 62.7513C136.813 62.4551 136.752 62.4087 136.661 62.6139L136.376 63.2296C136.333 63.3175 136.317 63.4164 136.331 63.5133L136.479 64.6625C136.606 65.4572 136.687 66.2586 136.722 67.0625C136.722 67.2695 136.736 67.3802 136.779 67.3962C136.822 67.4123 136.866 67.3784 136.911 67.2927C137.111 66.9061 137.142 65.9544 137.006 64.4376Z" fill="url(#paint14_linear_638_435103)"/>
<path d="M156.962 65.3178C156.501 65.2768 156.132 65.614 155.604 66.0851C155.41 66.2652 155.226 66.4558 155.054 66.6562C154.77 66.5913 154.517 66.429 154.34 66.1976C154.321 66.1552 154.291 66.1188 154.253 66.0918C154.215 66.0649 154.171 66.0484 154.124 66.0441C154.08 66.0461 154.038 66.0605 154.002 66.0859C153.967 66.1112 153.939 66.1462 153.923 66.1869C153.864 66.3044 153.78 66.4077 153.677 66.4897C153.574 66.5717 153.454 66.6303 153.327 66.6615H139.799C139.788 66.398 139.71 66.1414 139.574 65.9156C139.544 65.8705 139.506 65.8321 139.46 65.8029C139.415 65.7737 139.364 65.7544 139.311 65.7461C139.257 65.7379 139.203 65.7409 139.151 65.7551C139.099 65.7692 139.05 65.7941 139.008 65.8282C138.795 65.959 138.638 66.2511 138.535 66.7043C138.473 66.9916 138.535 67.1915 138.714 67.3039C138.945 67.4119 139.198 67.465 139.453 67.4592C139.299 67.8458 138.967 68.1961 138.455 68.5102C137.943 68.8225 137.479 68.9081 137.067 68.7636C136.978 68.7297 136.922 68.735 136.888 68.7814C136.854 68.8278 136.888 68.8742 136.954 68.9295C137.342 69.2525 137.65 69.4149 137.884 69.4149C138.079 69.4096 138.272 69.3634 138.448 69.2793C139.145 68.9676 139.576 68.3728 139.742 67.4949C144.224 67.4217 148.708 67.5609 153.191 67.4949C153.32 67.4926 153.446 67.4514 153.552 67.3766C153.658 67.3018 153.738 67.1968 153.783 67.0755C153.791 67.055 153.803 67.0368 153.82 67.0226C153.836 67.0084 153.856 66.9986 153.878 66.9943C153.899 66.99 153.921 66.9913 153.942 66.998C153.962 67.0047 153.981 67.0167 153.996 67.0327C154.14 67.1963 154.325 67.3194 154.531 67.3896C154.472 67.534 154.425 67.6832 154.392 67.8357C154.385 67.8563 154.382 67.8781 154.383 67.9C154.384 67.9218 154.39 67.9431 154.399 67.9627C154.409 67.9823 154.423 67.9998 154.439 68.0142C154.455 68.0285 154.475 68.0394 154.495 68.0462C154.585 68.0766 154.64 68.0355 154.674 67.9267C154.704 67.7786 154.752 67.6348 154.817 67.4984C155.073 67.5609 155.335 67.595 155.598 67.6001C156.176 67.6152 156.743 67.4458 157.218 67.1166C157.335 66.9981 157.429 66.8605 157.499 66.7097C157.612 66.514 157.692 66.3013 157.738 66.0798C157.758 66.0013 157.758 65.9191 157.738 65.8407C157.647 65.5552 157.276 65.3517 156.962 65.3178ZM139.363 66.7454C139.119 66.7454 138.96 66.7079 138.889 66.6151C138.873 66.5982 138.864 66.5759 138.864 66.5527C138.864 66.5294 138.873 66.5071 138.889 66.4902C138.911 66.4652 138.939 66.4451 138.969 66.4313C139 66.4175 139.033 66.4102 139.067 66.4099C139.199 66.4099 139.31 66.4991 139.397 66.6919C139.403 66.7329 139.392 66.7454 139.363 66.7454ZM156.419 66.6883C156.076 66.7245 155.732 66.7406 155.388 66.7365C155.8 66.4171 156.134 66.2493 156.385 66.2333C156.706 66.21 157.023 66.3059 157.277 66.5027C157.163 66.5901 156.874 66.6508 156.419 66.6936V66.6883Z" fill="url(#paint15_linear_638_435103)"/>
<path d="M159.653 61.3127C159.581 61.3134 159.51 61.3236 159.441 61.343C159.373 61.3611 159.304 61.3724 159.234 61.3769C159.002 61.3853 158.776 61.3085 158.597 61.161C158.588 61.1538 158.582 61.1449 158.577 61.1349C158.573 61.1249 158.57 61.114 158.57 61.103C158.57 61.092 158.573 61.0811 158.577 61.0711C158.582 61.0611 158.588 61.0522 158.597 61.045C158.617 61.0241 158.643 61.0086 158.671 60.9999C158.699 60.9912 158.729 60.9895 158.757 60.9951C158.794 60.9995 158.829 61.0121 158.86 61.0318C158.891 61.0516 158.917 61.0781 158.936 61.1093C158.943 61.1259 158.954 61.1405 158.968 61.1518C158.982 61.1632 158.998 61.1708 159.016 61.1742C159.034 61.1776 159.052 61.1765 159.069 61.1711C159.086 61.1657 159.102 61.1561 159.114 61.1432C159.156 61.1065 159.192 61.0638 159.221 61.0165C159.284 60.9079 159.319 60.7851 159.321 60.6596C159.329 60.6256 159.329 60.5902 159.321 60.5563C159.313 60.5223 159.296 60.4909 159.274 60.4644C159.251 60.4379 159.222 60.4173 159.19 60.404C159.157 60.3908 159.122 60.3854 159.088 60.3884C158.852 60.3705 158.632 60.499 158.431 60.7774C158.229 61.0557 158.147 61.2931 158.185 61.4911C158.203 61.5518 158.233 61.6081 158.274 61.6566C158.315 61.7051 158.365 61.7447 158.422 61.7731C158.217 61.9158 158.145 62.039 158.211 62.1407C158.232 62.1704 158.263 62.1915 158.298 62.1997C158.334 62.2079 158.371 62.2028 158.402 62.1853C158.684 62.0604 158.875 61.9836 158.979 61.9515C159.152 61.9011 159.328 61.86 159.505 61.8284C159.594 61.807 159.684 61.6981 159.785 61.4965C159.793 61.4763 159.795 61.4546 159.793 61.4332C159.791 61.4118 159.783 61.3913 159.771 61.3734C159.758 61.3539 159.741 61.3381 159.72 61.3274C159.699 61.3168 159.676 61.3117 159.653 61.3127Z" fill="url(#paint16_linear_638_435103)"/>
<path d="M159.116 62.7513C159.09 62.4551 159.027 62.4087 158.938 62.6139L158.651 63.2296C158.609 63.3178 158.593 63.4164 158.606 63.5133L158.756 64.6625C158.881 65.4574 158.962 66.2586 158.999 67.0625C158.999 67.2695 159.013 67.3802 159.056 67.3962C159.099 67.4123 159.141 67.3784 159.188 67.2927C159.389 66.9061 159.421 65.9544 159.284 64.4376L159.116 62.7513Z" fill="#BC9665"/>
<defs>
<linearGradient id="paint0_linear_638_435103" x1="39.3713" y1="63.6307" x2="159.532" y2="63.6307" gradientUnits="userSpaceOnUse">
<stop stop-color="#C99A64"/>
<stop offset="1" stop-color="#90794C"/>
</linearGradient>
<linearGradient id="paint1_linear_638_435103" x1="39.3721" y1="68.3397" x2="159.533" y2="68.3397" gradientUnits="userSpaceOnUse">
<stop stop-color="#C99A64"/>
<stop offset="1" stop-color="#90794C"/>
</linearGradient>
<linearGradient id="paint2_linear_638_435103" x1="39.3702" y1="64.4843" x2="159.531" y2="64.4843" gradientUnits="userSpaceOnUse">
<stop stop-color="#C99A64"/>
<stop offset="1" stop-color="#90794C"/>
</linearGradient>
<linearGradient id="paint3_linear_638_435103" x1="39.3712" y1="68.3397" x2="159.532" y2="68.3397" gradientUnits="userSpaceOnUse">
<stop stop-color="#C99A64"/>
<stop offset="1" stop-color="#90794C"/>
</linearGradient>
<linearGradient id="paint4_linear_638_435103" x1="39.3982" y1="65.0068" x2="159.561" y2="65.0068" gradientUnits="userSpaceOnUse">
<stop stop-color="#C99A64"/>
<stop offset="1" stop-color="#90794C"/>
</linearGradient>
<linearGradient id="paint5_linear_638_435103" x1="39.3718" y1="64.9444" x2="159.532" y2="64.9444" gradientUnits="userSpaceOnUse">
<stop stop-color="#C99A64"/>
<stop offset="1" stop-color="#90794C"/>
</linearGradient>
<linearGradient id="paint6_linear_638_435103" x1="39.3711" y1="66.3745" x2="159.532" y2="66.3745" gradientUnits="userSpaceOnUse">
<stop stop-color="#C99A64"/>
<stop offset="1" stop-color="#90794C"/>
</linearGradient>
<linearGradient id="paint7_linear_638_435103" x1="39.3708" y1="64.0953" x2="159.531" y2="64.0953" gradientUnits="userSpaceOnUse">
<stop stop-color="#C99A64"/>
<stop offset="1" stop-color="#90794C"/>
</linearGradient>
<linearGradient id="paint8_linear_638_435103" x1="39.3713" y1="68.5951" x2="159.532" y2="68.5951" gradientUnits="userSpaceOnUse">
<stop stop-color="#C99A64"/>
<stop offset="1" stop-color="#90794C"/>
</linearGradient>
<linearGradient id="paint9_linear_638_435103" x1="39.3707" y1="63.2924" x2="159.531" y2="63.2924" gradientUnits="userSpaceOnUse">
<stop stop-color="#C99A64"/>
<stop offset="1" stop-color="#90794C"/>
</linearGradient>
<linearGradient id="paint10_linear_638_435103" x1="39.3727" y1="64.6546" x2="159.533" y2="64.6546" gradientUnits="userSpaceOnUse">
<stop stop-color="#C99A64"/>
<stop offset="1" stop-color="#90794C"/>
</linearGradient>
<linearGradient id="paint11_linear_638_435103" x1="39.3717" y1="64.9444" x2="159.532" y2="64.9444" gradientUnits="userSpaceOnUse">
<stop stop-color="#C99A64"/>
<stop offset="1" stop-color="#90794C"/>
</linearGradient>
<linearGradient id="paint12_linear_638_435103" x1="39.371" y1="64.407" x2="159.532" y2="64.407" gradientUnits="userSpaceOnUse">
<stop stop-color="#C99A64"/>
<stop offset="1" stop-color="#90794C"/>
</linearGradient>
<linearGradient id="paint13_linear_638_435103" x1="39.3722" y1="66.1382" x2="159.533" y2="66.1382" gradientUnits="userSpaceOnUse">
<stop stop-color="#C99A64"/>
<stop offset="1" stop-color="#90794C"/>
</linearGradient>
<linearGradient id="paint14_linear_638_435103" x1="39.3721" y1="64.9444" x2="159.532" y2="64.9444" gradientUnits="userSpaceOnUse">
<stop stop-color="#C99A64"/>
<stop offset="1" stop-color="#90794C"/>
</linearGradient>
<linearGradient id="paint15_linear_638_435103" x1="39.3704" y1="67.3664" x2="159.531" y2="67.3664" gradientUnits="userSpaceOnUse">
<stop stop-color="#C99A64"/>
<stop offset="1" stop-color="#90794C"/>
</linearGradient>
<linearGradient id="paint16_linear_638_435103" x1="39.3712" y1="61.3002" x2="159.532" y2="61.3002" gradientUnits="userSpaceOnUse">
<stop stop-color="#C99A64"/>
<stop offset="1" stop-color="#90794C"/>
</linearGradient>
</defs>
</svg>
