<svg width="49" height="86" viewBox="0 0 49 86" fill="none" xmlns="http://www.w3.org/2000/svg">
<path d="M30.2399 29.3184H18.9623C18.7449 29.3179 18.5282 29.348 18.3164 29.4082C18.2932 29.4082 18.2736 29.4279 18.2521 29.4344C17.5522 29.65 16.9436 30.1798 16.5465 30.9192C16.1494 31.6586 15.9927 32.5538 16.1073 33.428C16.2857 34.7417 16.4392 36.1474 16.5462 37.7063C16.6938 39.7445 16.7337 41.7923 16.6658 43.8368C16.4641 52.7261 14.9385 58.7077 14.9385 58.7077C14.1304 62.3191 12.8582 65.7492 11.1698 68.869C10.9396 69.2894 10.7058 69.6945 10.4703 70.0908L10.2544 70.4433C10.0819 70.7235 9.90818 70.9987 9.73331 71.2687C9.6548 71.3848 9.57806 71.5052 9.50133 71.619C9.30386 71.911 9.10519 72.1978 8.90534 72.4795L8.7608 72.6831C8.51098 73.0269 8.26116 73.3575 8.00777 73.6771C7.9471 73.756 7.88465 73.8282 7.82933 73.8961C7.63483 74.1391 7.44211 74.3756 7.24583 74.6033C7.16553 74.6996 7.08523 74.7938 7.00314 74.8857C6.81638 75.1032 6.62782 75.3149 6.43748 75.5207L6.23584 75.7396C5.98246 76.0111 5.72907 76.2738 5.47925 76.5234L5.38468 76.6154C5.16341 76.8344 4.94392 77.0533 4.72622 77.2504L4.49782 77.4693C4.31938 77.6357 4.14093 77.7955 3.96249 77.9488C3.88933 78.0123 3.81795 78.078 3.74479 78.1393C3.53066 78.3232 3.31832 78.5005 3.10954 78.6713L3.03102 78.7348C2.7931 78.926 2.56113 79.1078 2.3351 79.28L2.15666 79.4157C1.98892 79.5405 1.82297 79.6632 1.66059 79.7792L1.46252 79.9215L1.30549 80.0332C1.27206 80.056 1.24702 80.0937 1.23549 80.1384C1.22396 80.1832 1.22681 80.2317 1.24346 80.2739C1.26011 80.3162 1.2893 80.349 1.32505 80.3657C1.3608 80.3824 1.4004 80.3817 1.43575 80.3638C2.4261 79.893 3.6288 79.2909 4.94214 78.5794C6.05205 77.9773 7.24047 77.292 8.45566 76.5344C9.5049 75.8776 10.572 75.1747 11.623 74.4128C14.3751 72.479 16.9587 70.2047 19.3335 67.6254C19.3335 67.6254 19.4388 67.505 19.5369 67.4065C24.2065 62.5137 27.8568 56.3241 30.1846 49.3521C31.0492 46.7719 31.7321 44.1056 32.2259 41.3824C32.7211 38.6354 33.0255 35.8418 33.136 33.0317C33.1546 32.5515 33.0935 32.0716 32.9562 31.6213C32.8189 31.171 32.6084 30.7597 32.3375 30.4123C32.0666 30.065 31.741 29.7889 31.3803 29.6008C31.0197 29.4127 30.6317 29.3167 30.2399 29.3184Z" fill="white"/>
<path d="M48.3335 19.0594C48.2758 19.035 48.2158 19.0195 48.155 19.0134C44.3114 18.481 40.5358 17.3707 36.9132 15.7073C36.6356 15.5796 36.3949 15.3542 36.2213 15.0593C36.0476 14.7645 35.9488 14.4133 35.9371 14.0499C35.9371 10.3255 34.7319 6.75353 32.5864 4.11898C30.441 1.48444 27.5307 0.00290195 24.4954 0H3.24113C3.06574 0.00388243 2.89517 0.0711194 2.75076 0.193303C2.60634 0.315486 2.49448 0.487198 2.42916 0.686964C2.36385 0.886729 2.34798 1.10568 2.38354 1.31646C2.41909 1.52723 2.5045 1.72047 2.62908 1.872H0.867852C0.668692 1.87868 0.477084 1.96695 0.32356 2.12276C0.170035 2.27856 0.0634294 2.49294 0.0207312 2.73172C-0.021967 2.9705 0.00169838 3.21994 0.0879574 3.4403C0.174217 3.66066 0.318105 3.83926 0.496694 3.94763C2.25521 4.94034 3.94887 6.09761 5.56267 7.40919C9.14935 10.3212 14.8167 14.733 16.1086 21.9582C16.246 22.719 16.3325 23.4923 16.3673 24.2703C16.4216 25.0651 16.7142 25.8068 17.1886 26.3521C17.6629 26.8973 18.2853 27.2072 18.9351 27.2217H31.2155C31.3353 27.2205 31.4548 27.2058 31.5724 27.1779C32.0152 27.0747 32.4148 26.7854 32.7027 26.3599C32.9905 25.9344 33.1486 25.3992 33.1498 24.8462V22.8275C33.1497 22.5412 33.2004 22.2584 33.2984 21.9986C33.3964 21.7388 33.5393 21.5084 33.7173 21.3233C34.2794 20.7606 35.0003 20.9642 35.0877 20.9905C38.0885 21.5411 41.1234 21.7609 44.1561 21.6473C45.4695 21.5926 46.8114 21.4678 48.1443 21.2773C48.3483 21.2561 48.5406 21.1513 48.6901 20.9797C48.8397 20.8081 48.9378 20.5798 48.9687 20.3315C48.9977 20.0622 48.9505 19.7889 48.8348 19.5573C48.7192 19.3257 48.5422 19.1499 48.3335 19.0594ZM30.6552 14.5294C30.4211 14.5298 30.1922 14.445 29.9974 14.2858C29.8027 14.1265 29.6507 13.9 29.5609 13.6348C29.4711 13.3696 29.4474 13.0776 29.4929 12.7959C29.5383 12.5142 29.6508 12.2553 29.8162 12.0521C29.9816 11.8488 30.1924 11.7104 30.422 11.6542C30.6515 11.598 30.8895 11.6266 31.1057 11.7364C31.322 11.8462 31.5069 12.0323 31.637 12.271C31.7671 12.5098 31.8365 12.7905 31.8365 13.0777C31.836 13.4622 31.7115 13.8307 31.4901 14.1028C31.2687 14.3748 30.9685 14.5282 30.6552 14.5294Z" fill="white"/>
<path d="M17.536 73.7218C14.1456 76.2112 9.0653 79.456 1.75988 82.6329C1.71137 82.6529 1.66871 82.6898 1.63723 82.7393C1.60574 82.7888 1.58682 82.8485 1.58283 82.9111C1.57883 82.9737 1.58994 83.0363 1.61476 83.0912C1.63958 83.1461 1.67702 83.1908 1.72241 83.2197C4.30046 84.8516 7.14206 85.7596 10.0414 85.8777C14.3882 86.0288 21.5206 84.402 23.4888 78.6875C24.3435 76.2046 24.3043 72.7146 22.9856 71.6812C21.5848 70.5667 19.1419 72.5395 17.536 73.7218Z" fill="white"/>
<path d="M1.32314 78.626C2.92912 77.4109 7.56861 73.6034 10.4469 68.2129C12.7077 63.9719 13.9568 58.75 13.9568 58.75L13.9729 58.6799C13.9872 58.623 15.4147 52.8581 15.6074 44.4483C15.675 42.4944 15.6368 40.5371 15.4932 38.5893C15.404 37.2515 15.2702 35.9619 15.0757 34.5037C14.971 33.718 14.996 32.9144 15.1493 32.1408C15.3026 31.3671 15.5809 30.6391 15.9679 30H15.7984C10.6021 30 6.30346 34.4468 4.88484 40.5795C4.87964 40.6019 4.87547 40.6245 4.87235 40.6474C4.16546 44.9564 3.92546 49.361 4.15858 53.747C4.35665 59.1288 3.86951 67.0371 1.01265 78.3195C0.997653 78.3702 0.995946 78.4253 1.00777 78.4772C1.01959 78.5291 1.04434 78.5752 1.07856 78.609C1.11279 78.6428 1.15477 78.6626 1.19862 78.6656C1.24248 78.6687 1.28602 78.6548 1.32314 78.626Z" fill="white"/>
</svg>
