<svg width="160" height="87" viewBox="0 0 160 87" fill="none" xmlns="http://www.w3.org/2000/svg">
<g clip-path="url(#clip0_1235_7913)">
<path d="M0.405169 78.2588C2.01115 77.0436 6.65065 73.2361 9.52892 67.8457C11.7898 63.6046 13.0389 58.3827 13.0389 58.3827L13.0549 58.3127C13.0692 58.2558 14.4967 52.4909 14.6895 44.0811C14.757 42.1271 14.7189 40.1698 14.5753 38.2221C14.486 36.8843 14.3522 35.5947 14.1577 34.1365C14.053 33.3507 14.0781 32.5472 14.2313 31.7735C14.3846 30.9999 14.663 30.2719 15.0499 29.6328H14.8804C9.68416 29.6328 5.38549 34.0796 3.96687 40.2123C3.96167 40.2346 3.9575 40.2573 3.95438 40.2802C3.24749 44.5891 3.00749 48.9937 3.24061 53.3798C3.43869 58.7615 2.95154 66.6699 0.0946796 77.9523C0.0796847 78.0029 0.0779775 78.0581 0.0897976 78.11C0.101618 78.1619 0.126372 78.208 0.160596 78.2417C0.19482 78.2755 0.236799 78.2953 0.280654 78.2984C0.32451 78.3015 0.368047 78.2876 0.405169 78.2588Z" fill="#0C356A"/>
<path d="M30.2399 29.6328H18.9623C18.7449 29.6324 18.5282 29.6625 18.3164 29.7226C18.2932 29.7226 18.2736 29.7423 18.2521 29.7489C17.5522 29.9645 16.9436 30.4943 16.5465 31.2337C16.1494 31.973 15.9927 32.8682 16.1073 33.7425C16.2857 35.0562 16.4392 36.4618 16.5462 38.0207C16.6938 40.0589 16.7337 42.1067 16.6658 44.1512C16.4641 53.0405 14.9385 59.0222 14.9385 59.0222C14.1304 62.6335 12.8582 66.0637 11.1698 69.1835C10.9396 69.6039 10.7058 70.0089 10.4703 70.4052L10.2544 70.7577C10.0819 71.038 9.90818 71.3131 9.73331 71.5832C9.6548 71.6992 9.57806 71.8196 9.50133 71.9335C9.30386 72.2254 9.10519 72.5122 8.90534 72.7939L8.7608 72.9976C8.51098 73.3413 8.26116 73.6719 8.00777 73.9916C7.9471 74.0704 7.88465 74.1427 7.82933 74.2105C7.63483 74.4536 7.44211 74.69 7.24583 74.9177C7.16553 75.0141 7.08523 75.1082 7.00314 75.2002C6.81638 75.4177 6.62782 75.6293 6.43748 75.8351L6.23584 76.0541C5.98246 76.3256 5.72907 76.5883 5.47925 76.8379L5.38468 76.9299C5.16341 77.1488 4.94392 77.3678 4.72622 77.5648L4.49782 77.7838C4.31938 77.9502 4.14093 78.11 3.96249 78.2633C3.88933 78.3267 3.81795 78.3924 3.74479 78.4537C3.53066 78.6377 3.31832 78.815 3.10954 78.9858L3.03102 79.0493C2.7931 79.2405 2.56113 79.4222 2.3351 79.5945L2.15666 79.7302C1.98892 79.855 1.82297 79.9776 1.66059 80.0936L1.46252 80.236L1.30549 80.3476C1.27206 80.3705 1.24702 80.4081 1.23549 80.4529C1.22396 80.4976 1.22681 80.5461 1.24346 80.5884C1.26011 80.6306 1.2893 80.6635 1.32505 80.6802C1.3608 80.6969 1.4004 80.6962 1.43575 80.6782C2.4261 80.2075 3.6288 79.6054 4.94214 78.8938C6.05205 78.2917 7.24047 77.6064 8.45566 76.8488C9.5049 76.192 10.572 75.4892 11.623 74.7272C14.3751 72.7934 16.9587 70.5191 19.3335 67.9399C19.3335 67.9399 19.4388 67.8195 19.5369 67.7209C24.2065 62.8282 27.8568 56.6385 30.1846 49.6665C31.0492 47.0863 31.7321 44.42 32.2259 41.6968C32.7211 38.9498 33.0255 36.1563 33.136 33.3462C33.1546 32.866 33.0935 32.3861 32.9562 31.9358C32.8189 31.4855 32.6084 31.0741 32.3375 30.7268C32.0666 30.3794 31.741 30.1033 31.3803 29.9153C31.0197 29.7272 30.6317 29.6311 30.2399 29.6328Z" fill="#BC9665"/>
<path d="M48.3335 19.3718C48.2758 19.3474 48.2158 19.332 48.155 19.3259C44.3114 18.7935 40.5358 17.6831 36.9132 16.0197C36.6356 15.892 36.3949 15.6666 36.2213 15.3718C36.0476 15.0769 35.9488 14.7258 35.9371 14.3623C35.9371 10.638 34.7319 7.06603 32.5864 4.43149C30.441 1.79694 27.5307 0.315402 24.4954 0.3125H3.24113C3.06574 0.316383 2.89517 0.38362 2.75076 0.505803C2.60634 0.627986 2.49448 0.799698 2.42916 0.999467C2.36385 1.19923 2.34798 1.41819 2.38354 1.62896C2.41909 1.83973 2.5045 2.03297 2.62908 2.18451H0.867852C0.668692 2.19118 0.477084 2.27945 0.32356 2.43526C0.170035 2.59107 0.0634294 2.80544 0.0207312 3.04422C-0.021967 3.283 0.0016984 3.53245 0.0879574 3.75281C0.174217 3.97317 0.318105 4.15176 0.496694 4.26013C2.25521 5.25284 3.94887 6.41011 5.56267 7.72169C9.14935 10.6336 14.8167 15.0454 16.1086 22.2707C16.246 23.0315 16.3325 23.8047 16.3673 24.5828C16.4216 25.3775 16.7142 26.1193 17.1886 26.6645C17.6629 27.2097 18.2853 27.5196 18.9351 27.5342H31.2155C31.3353 27.5329 31.4548 27.5182 31.5724 27.4904C32.0152 27.3871 32.4148 27.0979 32.7027 26.6724C32.9905 26.2468 33.1486 25.7116 33.1498 25.1586V23.1399C33.1497 22.8537 33.2004 22.5708 33.2984 22.3111C33.3964 22.0513 33.5393 21.8209 33.7173 21.6357C34.2794 21.0731 35.0003 21.2767 35.0877 21.303C38.0885 21.8535 41.1234 22.0733 44.1561 21.9598C45.4695 21.9051 46.8114 21.7803 48.1443 21.5898C48.3483 21.5686 48.5406 21.4637 48.6901 21.2922C48.8397 21.1206 48.9378 20.8922 48.9687 20.6439C48.9977 20.3747 48.9505 20.1013 48.8348 19.8697C48.7192 19.6382 48.5422 19.4624 48.3335 19.3718ZM30.6552 14.8418C30.4211 14.8422 30.1922 14.7575 29.9974 14.5982C29.8027 14.439 29.6507 14.2124 29.5609 13.9472C29.4711 13.682 29.4474 13.3901 29.4929 13.1083C29.5383 12.8266 29.6508 12.5677 29.8162 12.3645C29.9816 12.1613 30.1924 12.0228 30.422 11.9666C30.6515 11.9104 30.8895 11.939 31.1057 12.0489C31.322 12.1587 31.5069 12.3447 31.637 12.5835C31.7671 12.8222 31.8365 13.103 31.8365 13.3902C31.836 13.7746 31.7115 14.1432 31.4901 14.4152C31.2687 14.6873 30.9685 14.8407 30.6552 14.8418Z" fill="#0C356A"/>
<path d="M17.536 74.0343C14.1456 76.5238 9.0653 79.7686 1.75988 82.9455C1.71137 82.9654 1.66871 83.0024 1.63723 83.0519C1.60574 83.1013 1.58682 83.1611 1.58283 83.2236C1.57883 83.2862 1.58994 83.3489 1.61476 83.4037C1.63958 83.4586 1.67702 83.5033 1.72241 83.5323C4.30046 85.1642 7.14206 86.0721 10.0414 86.1903C14.3882 86.3414 21.5206 84.7146 23.4888 79.0001C24.3435 76.5172 24.3043 73.0272 22.9856 71.9937C21.5848 70.8793 19.1419 72.852 17.536 74.0343Z" fill="#0C356A"/>
<path d="M43.5229 53.5262H46.5599V48.8735L51.1316 41.3242H47.6163L45.0414 45.9046L42.4825 41.3242H38.9512L43.5229 48.8735V53.5262Z" fill="#0C356A"/>
<path d="M50.0996 48.8091C50.0975 49.4927 50.2124 50.1693 50.4369 50.795C50.6667 51.4245 51.0103 51.9815 51.4415 52.4239C51.9309 52.9162 52.4932 53.2879 53.0975 53.5187C53.8395 53.7979 54.6126 53.9324 55.3887 53.9172C55.9983 53.9235 56.6062 53.836 57.1981 53.6566C57.6989 53.5022 58.1795 53.2619 58.6256 52.9428C59.0248 52.6551 59.3804 52.2847 59.6766 51.8481C59.9585 51.4297 60.1855 50.9599 60.3494 50.4556L60.4332 50.1929H57.7031L57.6585 50.2914C57.4794 50.6708 57.195 50.9584 56.8572 51.1015C56.3846 51.3011 55.8865 51.3938 55.3869 51.3752C55.0636 51.3774 54.7415 51.3281 54.4286 51.2285C54.1478 51.1419 53.8802 50.9999 53.6364 50.8081C53.4155 50.6306 53.2272 50.3987 53.0832 50.1272C52.9662 49.9046 52.8856 49.6562 52.8459 49.3959H60.3619V49.2032C60.3579 48.5616 60.2743 47.9244 60.1138 47.3137C59.9411 46.6535 59.6558 46.046 59.2769 45.5315C58.8467 44.96 58.3215 44.5083 57.737 44.2068C56.9911 43.8402 56.1918 43.6658 55.3887 43.6945C54.5656 43.6711 53.7466 43.8421 52.9761 44.1981C52.3656 44.4893 51.8064 44.9219 51.3291 45.4724C50.9263 45.944 50.6074 46.5128 50.3923 47.1429C50.2097 47.6706 50.1104 48.236 50.0996 48.8091ZM53.8755 46.6087C54.3506 46.3461 54.8677 46.2175 55.3887 46.2321C55.7727 46.2126 56.1561 46.287 56.5164 46.4511C56.7683 46.577 57.0025 46.7506 57.2106 46.9656C57.333 47.1016 57.4409 47.2561 57.5318 47.4254H53.0939C53.2861 47.0678 53.5572 46.7846 53.8755 46.6087Z" fill="#0C356A"/>
<path d="M64.9458 48.4082C64.9458 47.6769 65.1367 47.1471 65.5293 46.788C65.9219 46.4289 66.5999 46.2363 67.5136 46.2363C67.8152 46.2269 68.1162 46.2749 68.4058 46.3786C68.6057 46.4529 68.7869 46.5885 68.9322 46.7727C69.0666 46.9586 69.1578 47.1855 69.1963 47.4295C69.2526 47.754 69.2795 48.0852 69.2766 48.417V53.5294H72.162V48.4082C72.162 47.6769 72.3529 47.1471 72.7455 46.788C73.1381 46.4289 73.8162 46.2363 74.7298 46.2363C75.0314 46.2269 75.3324 46.2749 75.622 46.3786C75.8219 46.4529 76.0031 46.5885 76.1484 46.7727C76.2827 46.959 76.3744 47.1856 76.4143 47.4295C76.4703 47.7541 76.4966 48.0853 76.4928 48.417V53.5294H79.38V48.2221C79.3859 47.5856 79.3259 46.9507 79.2015 46.3326C79.0936 45.7929 78.8777 45.2948 78.5734 44.8832C78.2426 44.4628 77.829 44.1543 77.3725 43.9877C76.7744 43.7756 76.1533 43.6782 75.531 43.6987C74.7508 43.671 73.9727 43.8125 73.2326 44.1168C72.6955 44.3624 72.2199 44.776 71.8533 45.3167C71.7109 45.0303 71.5227 44.7823 71.3001 44.5876C71.0188 44.3455 70.7105 44.1545 70.3847 44.0205C70.0477 43.885 69.6993 43.7968 69.3462 43.7578C68.9893 43.7206 68.6324 43.6987 68.3059 43.6987C67.5697 43.6731 66.837 43.831 66.1521 44.1628C65.7003 44.4024 65.2893 44.744 64.9404 45.17V44.0884H62.0586V53.5294H64.9458V48.4082Z" fill="#0C356A"/>
<path d="M90.5435 51.8421C90.8254 51.4237 91.0523 50.9539 91.2162 50.4496L91.3001 50.1869H88.5681L88.5235 50.2854C88.3448 50.6643 88.0611 50.9518 87.7241 51.0955C87.2515 51.2948 86.7533 51.3875 86.2537 51.3692C85.9305 51.3717 85.6083 51.3224 85.2955 51.2225C85.0141 51.1357 84.746 50.9937 84.5015 50.8021C84.2814 50.6234 84.0932 50.3918 83.9483 50.1212C83.832 49.8982 83.7514 49.65 83.7109 49.3899H91.2323V49.1972C91.2283 48.5556 91.1447 47.9184 90.9843 47.3077C90.8111 46.6473 90.5252 46.0397 90.1456 45.5255C89.716 44.953 89.1907 44.5012 88.6056 44.2009C87.8584 43.8354 87.0577 43.6633 86.2537 43.6952C85.4307 43.6718 84.6117 43.8427 83.8412 44.1987C83.2304 44.4893 82.6712 44.922 82.1942 45.473C81.7907 45.943 81.4716 46.5113 81.2574 47.1413C81.0733 47.6724 80.9734 48.2416 80.9629 48.8185C80.9602 49.5024 81.0757 50.1793 81.302 50.8044C81.5316 51.4334 81.8745 51.9903 82.3048 52.4333C82.7942 52.9256 83.3565 53.2973 83.9608 53.528C84.7034 53.8071 85.4771 53.9415 86.2537 53.9265C86.8628 53.933 87.4701 53.8455 88.0614 53.666C88.5623 53.5119 89.0429 53.2716 89.4889 52.9522C89.8907 52.6607 90.2476 52.285 90.5435 51.8421ZM84.737 46.6094C85.2135 46.3473 85.7316 46.2186 86.2537 46.2327C86.6378 46.2136 87.0211 46.2881 87.3815 46.4518C87.6338 46.5812 87.8675 46.7592 88.0739 46.9793C88.1963 47.1154 88.3042 47.27 88.3951 47.4392H83.959C84.1501 47.0789 84.4196 46.7914 84.737 46.6094Z" fill="#0C356A"/>
<path d="M95.8073 48.8127C95.8073 47.8778 96.0232 47.2341 96.4657 46.8422C96.9083 46.4503 97.6167 46.2379 98.541 46.2379C98.8439 46.2263 99.1461 46.2811 99.4332 46.3999C99.6328 46.488 99.8126 46.6328 99.9579 46.8225C100.085 46.9991 100.177 47.2098 100.226 47.4377C100.283 47.6937 100.312 47.9581 100.311 48.2237V53.5288H103.188V48.2215C103.195 47.5819 103.128 46.9443 102.99 46.3276C102.866 45.7796 102.629 45.2798 102.303 44.876C101.95 44.4618 101.521 44.1564 101.053 43.9849C100.442 43.7741 99.809 43.6774 99.1745 43.6981C97.747 43.6981 96.621 44.1951 95.8073 45.1716V44.0769H92.9219V53.5288H95.8073V48.8127Z" fill="#0C356A"/>
<path d="M43.3838 71.1964H46.4209V61.74H50.509V58.9922H39.2832V61.74H43.3838V71.1964Z" fill="#0C356A"/>
<path d="M59.291 64.4268V61.4645L59.1536 61.4448C58.9966 61.4229 58.8431 61.401 58.695 61.3835C58.5469 61.366 58.3703 61.3594 58.1722 61.3594C56.7447 61.3594 55.6187 61.8542 54.805 62.8307V61.7469H51.916V71.1967H54.8014V66.8681C54.8014 65.9376 55.028 65.2041 55.4759 64.6786C55.9238 64.1532 56.618 63.8948 57.5352 63.8948C57.7899 63.8979 58.0441 63.9257 58.2953 63.978C58.5617 64.0297 58.8199 64.1316 59.0608 64.2801L59.291 64.4268Z" fill="#0C356A"/>
<path d="M63.6647 57.8125H60.7793V60.7617H63.6647V57.8125Z" fill="#0C356A"/>
<path d="M63.6647 61.7461H60.7793V71.1981H63.6647V61.7461Z" fill="#0C356A"/>
<path d="M65.7051 57.8125V71.1968H68.5905V70.102C69.4042 71.0807 70.5337 71.5755 71.9559 71.5755C72.5882 71.5938 73.2192 71.4957 73.8278 71.2843C74.2957 71.1126 74.7237 70.8072 75.0769 70.3932C75.4005 69.9906 75.6362 69.4944 75.7621 68.9504C75.9013 68.3368 75.9686 67.7021 75.9619 67.0652V65.8829C75.9682 65.2432 75.901 64.6056 75.7621 63.989C75.6375 63.4424 75.4017 62.9436 75.0769 62.5396C74.7247 62.1241 74.2963 61.8184 73.8278 61.6485C73.221 61.4373 72.5917 61.3399 71.9613 61.3595C70.5337 61.3595 69.4095 61.8543 68.5958 62.8308V57.8125H65.7051ZM71.3242 63.9036C71.6273 63.8915 71.9296 63.9471 72.2164 64.0678C72.416 64.156 72.5958 64.3008 72.7411 64.4904C72.8683 64.6673 72.9605 64.8779 73.0105 65.1057C73.0672 65.3611 73.0954 65.6248 73.0944 65.8895V67.0718C73.0955 67.3365 73.0673 67.6002 73.0105 67.8556C72.9607 68.0842 72.8685 68.2955 72.7411 68.4731C72.5968 68.6606 72.4173 68.8019 72.2182 68.8847C71.9302 68.9987 71.6285 69.0512 71.326 69.0401C69.4863 69.0401 68.5923 68.2038 68.5923 66.4806C68.5923 65.5479 68.8082 64.902 69.2507 64.5101C69.6933 64.1182 70.3981 63.9036 71.3242 63.9036Z" fill="#0C356A"/>
<path d="M84.9957 62.8331C84.182 61.8566 83.0471 61.3618 81.616 61.3618C80.9842 61.3422 80.3537 61.4404 79.7459 61.653C79.2776 61.8235 78.8493 62.129 78.4969 62.5441C78.1718 62.9483 77.9354 63.447 77.8099 63.9935C77.6722 64.6104 77.6056 65.2479 77.6118 65.8874V67.0697C77.6052 67.7064 77.6719 68.341 77.8099 68.9549C77.9336 69.5028 78.168 70.0037 78.4915 70.4109C78.8444 70.8252 79.2726 71.1306 79.7406 71.302C80.3484 71.5146 80.9788 71.6142 81.6107 71.5976C83.0382 71.5976 84.1767 71.1027 84.9904 70.124V71.2188H87.8633V61.7493H84.9904L84.9957 62.8331ZM82.262 69.0424C81.9595 69.0534 81.6578 69.0008 81.3698 68.887C81.167 68.8033 80.9835 68.6614 80.8344 68.4732C80.7053 68.2991 80.6134 68.0885 80.5668 67.8601C80.5141 67.6032 80.4883 67.3391 80.49 67.0741V65.8918C80.4884 65.6261 80.5142 65.3613 80.5668 65.1036C80.6134 64.8765 80.7054 64.6673 80.8344 64.4949C80.9835 64.3042 81.1668 64.1587 81.3698 64.0701C81.6566 63.9494 81.9589 63.8938 82.262 63.9059C83.1792 63.9059 83.868 64.1096 84.3319 64.5124C84.7959 64.9153 84.9957 65.5502 84.9957 66.4829C84.9957 67.3587 84.778 67.9762 84.3283 68.3987C83.8787 68.8213 83.1774 69.0424 82.262 69.0424Z" fill="#0C356A"/>
<path d="M92.8053 57.8125H89.9199V71.1968H92.8053V57.8125Z" fill="#0C356A"/>
<path d="M98.6445 58.9922L102.993 71.0803L103.034 71.1964H106.94L111.33 58.9922H108.097L104.981 67.7698L101.876 58.9922H98.6445Z" fill="#0C356A"/>
<path d="M111.377 68.4743C111.63 69.1035 111.992 69.6578 112.437 70.0989C112.92 70.5791 113.469 70.9498 114.059 71.1937C114.73 71.4672 115.434 71.6019 116.141 71.5921C116.818 71.5971 117.492 71.4624 118.133 71.1937C118.722 70.9462 119.273 70.5758 119.76 70.0989C120.213 69.6556 120.589 69.1035 120.863 68.4765C121.127 67.861 121.265 67.1755 121.264 66.4797C121.265 65.7856 121.135 65.1006 120.884 64.4785C120.628 63.8494 120.268 63.293 119.826 62.8452C119.345 62.3637 118.796 61.9928 118.207 61.7504C117.542 61.4774 116.843 61.3427 116.141 61.352C115.468 61.3473 114.799 61.482 114.162 61.7504C113.571 61.9989 113.018 62.3691 112.528 62.8452C112.069 63.2894 111.689 63.8446 111.412 64.4763C111.143 65.0929 111.002 65.782 111.002 66.4819C111 67.1726 111.128 67.8544 111.377 68.4743ZM116.141 69.0414C115.81 69.0496 115.481 68.9797 115.172 68.8356C114.91 68.7105 114.671 68.5238 114.467 68.286C114.279 68.0597 114.132 67.7865 114.037 67.4847C113.937 67.1647 113.886 66.8247 113.887 66.4819C113.864 65.7934 114.064 65.1218 114.444 64.6143C114.801 64.1435 115.381 63.9049 116.141 63.9049C116.492 63.8953 116.841 63.9651 117.171 64.1107C117.432 64.2322 117.668 64.4212 117.865 64.6646C118.044 64.8948 118.18 65.1707 118.263 65.4726C118.351 65.7981 118.395 66.139 118.393 66.4819C118.394 66.8276 118.348 67.1712 118.256 67.4978C118.172 67.8014 118.034 68.0777 117.851 68.3057C117.655 68.5457 117.419 68.7296 117.158 68.8443C116.832 68.9844 116.487 69.0511 116.141 69.0414Z" fill="#0C356A"/>
<path d="M125.833 57.8125H122.947V60.7617H125.833V57.8125Z" fill="#0C356A"/>
<path d="M125.833 61.7461H122.947V71.1981H125.833V61.7461Z" fill="#0C356A"/>
<path d="M137.092 69.5157C137.373 69.0975 137.599 68.6276 137.761 68.1232L137.847 67.8605H135.024L134.979 67.959C134.798 68.3414 134.508 68.6288 134.165 68.7669C133.729 68.958 133.267 69.0507 132.804 69.0406C132.472 69.0468 132.141 68.977 131.83 68.8348C131.561 68.7092 131.314 68.5219 131.102 68.283C130.905 68.0575 130.748 67.7838 130.643 67.4795C130.536 67.1633 130.482 66.8236 130.484 66.4811C130.471 66.1377 130.517 65.7948 130.617 65.474C130.718 65.1533 130.872 64.8617 131.069 64.6178C131.46 64.1449 132.044 63.9041 132.804 63.9041C133.27 63.8937 133.733 63.9895 134.171 64.1865C134.508 64.331 134.794 64.6151 134.979 64.9901L135.024 65.0864H137.845L137.766 64.828C137.614 64.326 137.4 63.8557 137.131 63.4333C136.846 62.9951 136.498 62.6241 136.105 62.3386C135.66 62.0168 135.179 61.7764 134.678 61.6248C134.066 61.4416 133.439 61.3526 132.809 61.3599C132.079 61.3498 131.352 61.4836 130.655 61.7562C130.05 61.9942 129.485 62.3651 128.987 62.8509C128.54 63.2957 128.175 63.8516 127.916 64.4821C127.659 65.1026 127.526 65.7893 127.527 66.4855C127.524 67.169 127.639 67.8456 127.863 68.4713C128.093 69.101 128.437 69.6581 128.869 70.1003C129.358 70.5934 129.921 70.9652 130.525 71.195C131.265 71.4722 132.036 71.6045 132.809 71.5869C133.418 71.5947 134.026 71.5071 134.617 71.3264C135.118 71.1735 135.598 70.9339 136.044 70.6148C136.442 70.3244 136.796 69.9527 137.092 69.5157Z" fill="#0C356A"/>
<path d="M140.373 70.0973C140.862 70.5904 141.425 70.9622 142.029 71.192C142.771 71.4722 143.544 71.6066 144.32 71.5905C144.93 71.5981 145.538 71.5106 146.13 71.33C146.631 71.1767 147.111 70.9371 147.557 70.6184C147.957 70.33 148.313 69.9597 148.61 69.5237C148.891 69.1048 149.117 68.635 149.281 68.1312L149.365 67.8684H146.635L146.59 67.967C146.411 68.3451 146.127 68.6319 145.791 68.7749C145.317 68.9743 144.819 69.067 144.319 69.0486C143.995 69.0504 143.673 69.0019 143.36 68.904C143.079 68.8178 142.811 68.6751 142.568 68.4815C142.348 68.3042 142.159 68.0731 142.015 67.8027C141.899 67.5787 141.818 67.3299 141.778 67.0693H149.292V66.8766C149.289 66.233 149.207 65.5936 149.047 64.9805C148.874 64.3203 148.589 63.7128 148.21 63.1983C147.78 62.6299 147.255 62.1819 146.67 61.8846C145.925 61.517 145.125 61.3419 144.322 61.3701C143.499 61.3446 142.68 61.5148 141.91 61.8715C141.299 62.1608 140.739 62.5928 140.263 63.1435C139.859 63.6149 139.539 64.1837 139.324 64.8141C139.141 65.3449 139.042 65.9131 139.031 66.4891C139.029 67.1727 139.144 67.8493 139.369 68.4749C139.599 69.1023 139.942 69.6572 140.373 70.0973ZM142.802 64.2799C143.277 64.0158 143.794 63.8863 144.315 63.9011C144.7 63.8837 145.083 63.9619 145.443 64.131C145.695 64.2561 145.929 64.4298 146.137 64.6455C146.26 64.7811 146.368 64.9357 146.458 65.1053H142.026C142.215 64.7455 142.485 64.4592 142.802 64.2799Z" fill="#0C356A"/>
<path d="M158.933 66.0276C158.48 65.7596 158 65.5688 157.505 65.4606C156.938 65.3204 156.242 65.1737 155.383 65.0227C155.235 64.9876 155.036 64.9504 154.782 64.911C154.529 64.8716 154.306 64.8234 154.068 64.7621C153.87 64.7098 153.676 64.6366 153.488 64.5432C153.36 64.4797 153.331 64.4227 153.331 64.4096C153.331 64.333 153.351 64.2345 153.51 64.1447C153.699 64.0406 153.898 63.967 154.102 63.9257C154.338 63.877 154.577 63.847 154.816 63.836C155.055 63.825 155.235 63.8206 155.351 63.8206C155.467 63.8206 155.644 63.8316 155.853 63.8535C156.061 63.8757 156.266 63.9189 156.468 63.9827C156.644 64.0355 156.811 64.1259 156.961 64.2498C157.011 64.2865 157.052 64.3389 157.08 64.4016C157.109 64.4643 157.123 64.5351 157.121 64.6067V64.8081L159.843 64.6548V64.4709C159.849 63.9707 159.719 63.4823 159.473 63.0828C159.211 62.6701 158.875 62.338 158.49 62.1129C158.041 61.8476 157.564 61.6576 157.073 61.548C156.505 61.4187 155.929 61.3557 155.351 61.3597C154.73 61.3544 154.11 61.4203 153.499 61.5567C152.993 61.6642 152.501 61.8542 152.036 62.1216C151.659 62.3333 151.326 62.6452 151.06 63.0346C150.825 63.3941 150.699 63.8419 150.703 64.3023C150.664 64.8571 150.775 65.4123 151.018 65.8823C151.262 66.3523 151.624 66.711 152.05 66.9034C152.516 67.1397 153.004 67.3066 153.503 67.4004C154.053 67.5114 154.663 67.6289 155.332 67.7529C155.446 67.777 155.624 67.7989 155.867 67.823C156.103 67.8464 156.338 67.8873 156.57 67.9456C156.778 67.9958 156.98 68.0805 157.17 68.1974C157.227 68.224 157.276 68.2714 157.31 68.3333C157.344 68.3953 157.362 68.4686 157.361 68.5433C157.363 68.5851 157.356 68.6268 157.342 68.665C157.328 68.7031 157.307 68.7365 157.28 68.7623C157.191 68.8442 157.089 68.9037 156.981 68.9374C156.83 68.9873 156.677 69.0196 156.522 69.0338C156.23 69.0591 155.938 69.0642 155.646 69.0491C155.528 69.0491 155.432 69.0491 155.357 69.0491C155.239 69.0491 155.073 69.0491 154.862 69.0338C154.656 69.0226 154.451 68.9904 154.249 68.9374C154.072 68.893 153.902 68.8124 153.747 68.6988C153.697 68.6673 153.656 68.6192 153.627 68.5599C153.599 68.5006 153.585 68.4326 153.587 68.3638V68.1646L150.865 68.2981V68.482C150.858 68.975 150.976 69.4586 151.203 69.8658C151.445 70.2784 151.763 70.6146 152.132 70.8467C152.574 71.1244 153.048 71.3157 153.538 71.4137C154.139 71.5405 154.747 71.6014 155.357 71.5955C155.96 71.5997 156.563 71.5506 157.161 71.4488C157.662 71.3705 158.152 71.21 158.619 70.9715C159.009 70.7747 159.353 70.4626 159.621 70.0628C159.876 69.6593 160.009 69.1605 159.998 68.6506C160.017 68.0953 159.935 67.5416 159.757 67.0304C159.579 66.5944 159.29 66.2421 158.933 66.0276Z" fill="#0C356A"/>
<path d="M39.9967 79.0622L40.2305 78.6068C40.4304 78.7557 40.5517 78.8519 40.5963 78.8935C40.6046 78.9038 40.6147 78.9115 40.6259 78.916C40.6371 78.9206 40.649 78.9219 40.6606 78.9197C40.6722 78.9176 40.6833 78.9121 40.6929 78.9038C40.7025 78.8954 40.7104 78.8844 40.7159 78.8716L41.046 78.2301C41.0585 78.2058 41.0632 78.1767 41.0593 78.1484C41.0553 78.1201 41.043 78.0946 41.0246 78.0768C40.8767 77.9173 40.7052 77.7939 40.5196 77.7134C40.4991 77.702 40.476 77.7001 40.4545 77.7077C40.4329 77.7153 40.4142 77.7321 40.4018 77.7551L40.1859 78.147C40.0676 78.045 39.9385 77.9631 39.8022 77.9039C39.7817 77.893 39.7588 77.8912 39.7373 77.8988C39.7158 77.9064 39.6971 77.9229 39.6845 77.9456L39.3508 78.5563C39.3425 78.5663 39.3365 78.5786 39.3331 78.5922C39.3297 78.6058 39.3292 78.6202 39.3315 78.6341C39.3338 78.648 39.3389 78.661 39.3463 78.6719C39.3537 78.6828 39.3632 78.6912 39.374 78.6965C39.6595 78.9154 39.8254 79.0358 39.8736 79.0796C39.8818 79.0905 39.892 79.099 39.9033 79.1041C39.9146 79.1092 39.9268 79.1109 39.9388 79.1092C39.9508 79.1075 39.9623 79.1024 39.9724 79.0942C39.9824 79.086 39.9908 79.0751 39.9967 79.0622Z" fill="#0C356A"/>
<path d="M51.5161 83.4946C51.4957 83.4833 51.4726 83.4812 51.451 83.4889C51.4294 83.4965 51.4108 83.5134 51.3984 83.5363L51.1824 83.9282C51.0637 83.8258 50.934 83.7439 50.797 83.6851C50.7767 83.674 50.7539 83.6719 50.7324 83.6791C50.7109 83.6863 50.6921 83.7024 50.6792 83.7246L50.3455 84.3377C50.3377 84.3479 50.332 84.3601 50.3289 84.3736C50.3258 84.3871 50.3253 84.4014 50.3276 84.4151C50.3299 84.4288 50.3348 84.4416 50.342 84.4525C50.3491 84.4634 50.3583 84.472 50.3687 84.4777C50.6543 84.6966 50.822 84.815 50.8684 84.861C50.8767 84.8722 50.8871 84.8808 50.8987 84.8861C50.9103 84.8913 50.9228 84.8929 50.935 84.891C50.9473 84.8891 50.959 84.8836 50.9692 84.875C50.9793 84.8663 50.9876 84.8547 50.9933 84.8412L51.2253 84.388C51.4251 84.5369 51.5465 84.6332 51.5822 84.6748C51.5904 84.685 51.6006 84.6927 51.6118 84.6973C51.6229 84.7018 51.6348 84.7031 51.6465 84.701C51.6581 84.6988 51.6692 84.6934 51.6788 84.685C51.6884 84.6767 51.6962 84.6657 51.7017 84.6529L52.0318 84.0113C52.0442 83.9872 52.049 83.9584 52.0454 83.9302C52.0418 83.902 52.03 83.8765 52.0122 83.8582C51.8671 83.6995 51.6988 83.5761 51.5161 83.4946Z" fill="#0C356A"/>
<path d="M57.708 78.8978L57.3743 79.5109C57.3666 79.5212 57.3609 79.5337 57.3579 79.5473C57.3549 79.5609 57.3547 79.5752 57.3571 79.5889C57.3596 79.6027 57.3647 79.6155 57.372 79.6263C57.3794 79.6371 57.3887 79.6456 57.3993 79.651C57.683 79.87 57.8508 79.9882 57.8972 80.0342C57.9057 80.045 57.9161 80.0532 57.9277 80.0581C57.9392 80.0631 57.9515 80.0647 57.9637 80.0628C57.9758 80.0609 57.9874 80.0555 57.9975 80.0471C58.0077 80.0387 58.0161 80.0275 58.0221 80.0145L58.3522 79.3751C58.3645 79.351 58.3693 79.3222 58.3657 79.294C58.3621 79.2658 58.3504 79.2402 58.3326 79.2219C58.1845 79.0615 58.0123 78.9381 57.8258 78.8584C57.8055 78.8469 57.7826 78.8445 57.761 78.8517C57.7395 78.8589 57.7207 78.8753 57.708 78.8978Z" fill="#0C356A"/>
<path d="M72.8535 83.4946C72.833 83.4833 72.81 83.4812 72.7884 83.4889C72.7668 83.4965 72.7481 83.5134 72.7357 83.5363L72.5198 83.9282C72.4017 83.8258 72.2726 83.744 72.1362 83.6851C72.1155 83.6742 72.0925 83.6722 72.0708 83.6794C72.0491 83.6865 72.03 83.7025 72.0166 83.7246L71.6829 84.3377C71.6752 84.348 71.6695 84.3605 71.6665 84.3741C71.6635 84.3877 71.6633 84.4019 71.6657 84.4156C71.6682 84.4294 71.6733 84.4423 71.6806 84.4531C71.688 84.4639 71.6973 84.4723 71.7079 84.4777C71.9934 84.6966 72.1594 84.815 72.2058 84.861C72.2141 84.8722 72.2245 84.8808 72.2361 84.8861C72.2477 84.8913 72.2601 84.8929 72.2724 84.891C72.2847 84.8891 72.2964 84.8836 72.3065 84.875C72.3167 84.8663 72.325 84.8547 72.3307 84.8412L72.5644 84.388C72.7643 84.5369 72.8856 84.6332 72.9213 84.6748C72.9296 84.685 72.9397 84.6927 72.9509 84.6973C72.9621 84.7018 72.974 84.7031 72.9856 84.701C72.9973 84.6988 73.0083 84.6934 73.0179 84.685C73.0275 84.6767 73.0354 84.6657 73.0409 84.6529L73.3728 84.0113C73.3849 83.9869 73.3894 83.9581 73.3855 83.9299C73.3816 83.9017 73.3694 83.8762 73.3514 83.8582C73.206 83.6989 73.037 83.5754 72.8535 83.4946Z" fill="#0C356A"/>
<path d="M83.5957 78.1711L83.7634 77.8974C83.7805 77.8747 83.7935 77.8477 83.8016 77.8183C83.8096 77.7889 83.8124 77.7578 83.8099 77.7269C83.8073 77.6961 83.7995 77.6663 83.7869 77.6394C83.7742 77.6126 83.7571 77.5893 83.7366 77.5712C83.5929 77.4196 83.4845 77.2239 83.4226 77.0041C83.3548 76.7721 83.2887 76.7348 83.2245 76.8925L83.0461 77.315C83.0218 77.3753 83.0092 77.4416 83.0092 77.5088C83.0092 77.576 83.0218 77.6423 83.0461 77.7026C83.0621 77.7814 83.0817 77.9215 83.1103 78.1405C83.3137 80.0168 83.4047 81.1422 83.4475 81.5976C83.4711 81.7358 83.4493 81.8798 83.3869 81.9983C83.2319 82.1899 83.0248 82.3046 82.8052 82.3202C75.7638 82.3683 73.6796 82.2917 73.5993 82.2567C73.5993 82.2567 73.4869 82.2019 73.3085 82.1406C73.2211 82.1244 73.1375 82.0858 73.0631 82.0273C72.9887 81.9689 72.9252 81.8918 72.8766 81.8013C72.8766 81.8013 72.8766 81.7444 72.8766 81.6502C72.8766 81.5561 72.8374 81.5123 72.7696 81.5123C72.7018 81.5123 72.6768 81.556 72.6375 81.6414C72.5126 81.9217 72.1771 82.0793 71.6311 82.1363C68.8342 82.4647 66.0181 82.4647 63.2211 82.1363C62.8978 82.1038 62.5903 81.951 62.3396 81.6984C62.0956 81.4611 61.881 81.1816 61.7026 80.8686C61.6844 80.8329 61.6562 80.8066 61.6233 80.7949C61.5903 80.7832 61.555 80.7868 61.5241 80.8051C61.2083 80.9474 60.9424 81.2824 60.7247 81.8144C60.648 82.018 60.4124 82.1297 60.011 82.145C59.9431 82.145 59.8539 82.145 59.7361 82.1581C59.5043 82.1735 59.272 82.1735 59.0402 82.1581C58.9046 82.1581 58.8136 82.145 58.744 82.145C58.6493 82.1339 58.5579 82.0966 58.4766 82.0359C58.3953 81.9753 58.3263 81.8928 58.2747 81.7947C58.2747 81.7947 58.2747 81.7378 58.2747 81.6436C58.2747 81.5495 58.2355 81.5057 58.1676 81.5057C58.0998 81.5057 58.0749 81.5495 58.0374 81.6349C57.9107 81.9151 57.5752 82.0728 57.0292 82.1297C56.3 82.2027 55.4524 82.2384 54.4864 82.237C53.5204 82.2355 52.6877 82.1998 51.9882 82.1297H51.9721C51.8863 82.1123 51.8042 82.0734 51.7312 82.0154C51.6581 81.9574 51.5956 81.8815 51.5474 81.7925C51.5474 81.7925 51.5474 81.7356 51.5474 81.6414C51.5474 81.5473 51.5082 81.5035 51.4422 81.5035C51.3761 81.5035 51.3476 81.5473 51.3101 81.6327C51.1834 81.9129 50.8479 82.0706 50.3019 82.1275C47.5056 82.456 44.6901 82.456 41.8937 82.1275H41.8794C41.6415 82.1363 41.497 81.8757 41.4458 81.3459L41.246 79.3206C41.2228 79.0097 41.1603 78.9309 41.0533 79.0885L40.848 79.3994C40.7909 79.487 40.7785 79.7519 40.8141 80.192C40.5069 80.4005 40.2267 80.664 39.9826 80.9736C39.8961 81.1089 39.8225 81.2558 39.7631 81.4115C39.6827 81.5864 39.6288 81.7779 39.6043 81.9764C39.6002 82.0479 39.6123 82.1193 39.6394 82.1827C39.6665 82.2462 39.7075 82.2991 39.7578 82.3355C39.9245 82.456 40.1124 82.5258 40.3056 82.5391C40.4257 82.5616 40.5484 82.5465 40.6625 82.4953C40.8116 82.3467 40.9364 82.1647 41.0301 81.9589C41.0461 82.2864 41.1309 82.6032 41.2763 82.8785C41.3548 82.9766 41.4502 83.0518 41.5555 83.0988C41.6608 83.1458 41.7733 83.1633 41.8848 83.15C44.6869 83.4829 47.5087 83.4829 50.3108 83.15C50.4889 83.1452 50.6643 83.0948 50.8256 83.0021C50.9869 82.9093 51.1307 82.7762 51.2477 82.6114C51.3295 82.7654 51.4392 82.8942 51.5683 82.9876C51.6974 83.0811 51.8423 83.1366 51.9918 83.15C52.6972 83.2215 53.5347 83.2573 54.5042 83.2573C55.4738 83.2573 56.3261 83.2215 57.0613 83.15C57.2371 83.1431 57.4099 83.0919 57.5689 82.9996C57.7279 82.9074 57.8698 82.7759 57.9856 82.6136C58.0675 82.7676 58.1772 82.8964 58.3063 82.9898C58.4353 83.0833 58.5803 83.1388 58.7297 83.1522C59.1606 83.185 59.5926 83.185 60.0234 83.1522H60.0324C60.2643 83.1281 60.4927 82.9332 60.7212 82.5369C61.0535 83.003 61.5222 83.2893 62.0256 83.3339C62.0756 83.3333 62.1247 83.3165 62.1679 83.2854C62.2111 83.2543 62.2469 83.2099 62.2718 83.1565C62.3054 83.0509 62.3247 82.9392 62.3289 82.8259C62.5933 83.0311 62.8977 83.1453 63.2104 83.1565C66.0125 83.4894 68.8343 83.4894 71.6365 83.1565C71.8145 83.1513 71.9897 83.1008 72.151 83.0081C72.3123 82.9153 72.4561 82.7825 72.5733 82.6179C72.6549 82.7717 72.7644 82.9003 72.8931 82.9937C73.0219 83.0871 73.1664 83.1429 73.3156 83.1565H82.8284C83.0302 83.1617 83.2298 83.1037 83.4083 82.988C83.5311 82.9075 83.6377 82.7946 83.7206 82.6574C83.8818 82.3411 83.9398 81.9619 83.8829 81.5955C83.7937 80.7 83.7099 79.5527 83.5957 78.1711ZM40.1521 81.4553C40.12 81.4334 40.1164 81.405 40.1361 81.3678C40.3197 81.0961 40.5701 80.9048 40.8498 80.8226C40.8784 81.0853 40.9034 81.3043 40.9212 81.4794C40.669 81.5739 40.3983 81.5624 40.1521 81.4466V81.4553ZM61.7543 82.2107C61.538 82.1328 61.3366 82.0025 61.1619 81.8275C61.1565 81.8214 61.1522 81.8139 61.1492 81.8057C61.1463 81.7974 61.1448 81.7884 61.1448 81.7794C61.1448 81.7703 61.1463 81.7614 61.1492 81.7531C61.1522 81.7448 61.1565 81.7374 61.1619 81.7312C61.2362 81.6171 61.3412 81.5395 61.4581 81.5123C61.4831 81.5123 61.4992 81.5123 61.5045 81.5298C61.5858 81.7511 61.6863 81.9611 61.8043 82.156C61.834 82.2144 61.8174 82.2326 61.7543 82.2107Z" fill="#0C356A"/>
<path d="M85.0864 77.3267C85.0578 76.9633 84.9972 76.9063 84.908 77.1581L84.6225 77.9135C84.58 78.0216 84.5651 78.1429 84.5796 78.2616L84.7277 79.6716C84.8539 80.6468 84.9343 81.63 84.9686 82.6165C84.9686 82.8705 84.9847 83.0062 85.0275 83.0259C85.0703 83.0456 85.1132 83.004 85.1578 82.8989C85.3612 82.4245 85.3939 81.2568 85.2559 79.3958L85.0864 77.3267Z" fill="#0C356A"/>
<path d="M102.454 80.7005L102.259 81.2238C102.238 81.2809 102.232 81.3451 102.244 81.4064C102.255 81.4677 102.282 81.5228 102.322 81.5632C102.405 81.6688 102.462 81.8007 102.488 81.9441C102.321 82.0983 102.112 82.1673 101.904 82.1368C99.2531 82.4477 96.5847 82.4646 93.9313 82.1872C93.7611 82.1682 93.5963 82.1037 93.4486 81.9981C93.301 81.8926 93.1739 81.7486 93.0765 81.5763C92.8695 81.2107 92.6572 80.2363 92.5912 77.6922C92.5573 77.2959 92.4895 77.2543 92.3895 77.563L92.1879 78.1541C92.1454 78.3022 92.1307 78.4601 92.1451 78.6161L92.502 83.7198C92.5177 83.9319 92.4821 84.145 92.3996 84.3323C92.317 84.5197 92.1912 84.6729 92.038 84.7729C91.7646 84.9466 91.464 85.0459 91.1565 85.0641C90.4766 85.1145 90.0698 84.9087 89.9306 84.4489C89.8116 84.0373 89.9258 83.5154 90.2732 82.8834C90.2948 82.8531 90.3067 82.8142 90.3067 82.7739C90.3067 82.7337 90.2948 82.6948 90.2732 82.6645C90.2268 82.6032 90.1751 82.6251 90.118 82.7323C89.7754 83.3892 89.5826 83.9234 89.5487 84.3394C89.497 84.9393 89.5933 85.4035 89.8342 85.7341C89.9687 85.9073 90.1336 86.0407 90.3163 86.1241C90.499 86.2076 90.6948 86.2389 90.8888 86.2158C91.4282 86.1892 91.9429 85.9311 92.3431 85.4867C92.9106 84.7795 93.0694 83.6519 92.7625 82.601C92.8419 82.7471 92.9445 82.8722 93.064 82.9688C93.2211 83.0929 93.4021 83.1639 93.5887 83.1746C96.3565 83.4997 99.1434 83.4997 101.911 83.1746C102.384 83.1746 102.679 82.8659 102.803 82.2507C102.867 81.9781 102.885 81.6929 102.858 81.4115C102.831 81.1301 102.759 80.858 102.646 80.6107C102.584 80.4816 102.523 80.5122 102.454 80.7005Z" fill="#0C356A"/>
<path d="M103.165 78.9934C103.094 78.9966 103.023 79.0091 102.953 79.0306C102.886 79.0543 102.816 79.069 102.746 79.0744C102.515 79.0832 102.288 78.9891 102.109 78.8095C102.101 78.8006 102.094 78.7897 102.089 78.7774C102.085 78.7651 102.083 78.7518 102.083 78.7383C102.083 78.7248 102.085 78.7115 102.089 78.6992C102.094 78.6869 102.101 78.676 102.109 78.6671C102.13 78.6412 102.156 78.622 102.184 78.6113C102.212 78.6006 102.242 78.5987 102.271 78.6058C102.308 78.6107 102.343 78.6257 102.374 78.6496C102.404 78.6735 102.431 78.7057 102.45 78.7438C102.457 78.7643 102.467 78.7825 102.481 78.7966C102.495 78.8107 102.512 78.8204 102.529 78.8248C102.547 78.8291 102.565 78.828 102.583 78.8215C102.6 78.815 102.616 78.8033 102.628 78.7876C102.67 78.7423 102.707 78.6899 102.737 78.6321C102.799 78.4987 102.833 78.348 102.835 78.1942C102.844 78.1525 102.844 78.1088 102.836 78.067C102.828 78.0251 102.811 77.9863 102.788 77.9537C102.766 77.9211 102.737 77.8957 102.704 77.8797C102.672 77.8636 102.636 77.8574 102.601 77.8614C102.364 77.8395 102.145 77.9979 101.947 78.3365C101.748 78.6752 101.665 78.9671 101.699 79.2123C101.717 79.2868 101.748 79.3559 101.789 79.4154C101.83 79.4749 101.881 79.5235 101.938 79.5583C101.731 79.7312 101.661 79.8823 101.725 80.0093C101.747 80.0456 101.778 80.0711 101.813 80.0812C101.849 80.0913 101.886 80.0852 101.918 80.064C102.106 79.9567 102.299 79.8609 102.494 79.7772C102.667 79.7153 102.842 79.6648 103.019 79.6261C103.11 79.5999 103.197 79.4641 103.299 79.2189C103.307 79.194 103.31 79.1671 103.308 79.1404C103.306 79.1138 103.299 79.0881 103.287 79.0656C103.273 79.0424 103.254 79.0237 103.233 79.0111C103.212 78.9985 103.189 78.9924 103.165 78.9934Z" fill="#0C356A"/>
<path d="M109.496 83.9008C109.475 83.8897 109.452 83.8876 109.431 83.8947C109.41 83.9019 109.391 83.918 109.378 83.9402L109.044 84.5533C109.036 84.5633 109.03 84.5756 109.026 84.5892C109.023 84.6028 109.023 84.6172 109.025 84.6311C109.027 84.645 109.032 84.658 109.04 84.6689C109.047 84.6797 109.057 84.6882 109.067 84.6934C109.353 84.9124 109.519 85.0328 109.565 85.0766C109.574 85.0875 109.584 85.0958 109.595 85.101C109.607 85.1061 109.619 85.1079 109.631 85.1062C109.643 85.1045 109.655 85.0993 109.665 85.0912C109.675 85.083 109.684 85.072 109.69 85.0591L110.02 84.4176C110.033 84.3934 110.037 84.3646 110.034 84.3364C110.03 84.3083 110.018 84.2826 110.001 84.2643C109.853 84.1048 109.681 83.9814 109.496 83.9008Z" fill="#0C356A"/>
<path d="M114.274 77.3405L114.058 77.7324C113.939 77.6304 113.81 77.5486 113.674 77.4893C113.653 77.4784 113.63 77.4766 113.609 77.4842C113.588 77.4918 113.569 77.5083 113.556 77.5309L113.223 78.144C113.215 78.1542 113.209 78.1666 113.206 78.18C113.203 78.1935 113.202 78.2077 113.205 78.2214C113.207 78.2352 113.212 78.248 113.219 78.2589C113.226 78.2698 113.235 78.2785 113.246 78.2841C113.531 78.4921 113.697 78.6213 113.744 78.6651C113.752 78.676 113.762 78.6843 113.774 78.6895C113.785 78.6946 113.797 78.6964 113.81 78.6947C113.822 78.693 113.833 78.6879 113.844 78.6797C113.854 78.6715 113.862 78.6605 113.868 78.6476L114.102 78.1922C114.302 78.3411 114.423 78.4374 114.468 78.479C114.513 78.5206 114.55 78.514 114.588 78.4571L114.918 77.8156C114.93 77.7913 114.935 77.7622 114.931 77.7339C114.927 77.7056 114.915 77.6801 114.896 77.6623C114.748 77.5028 114.577 77.3794 114.391 77.2989C114.371 77.288 114.348 77.2861 114.326 77.2937C114.305 77.3013 114.286 77.3178 114.274 77.3405Z" fill="#0C356A"/>
<path d="M125.747 77.5717C125.603 77.4211 125.494 77.2251 125.433 77.0046C125.365 76.7726 125.299 76.7353 125.235 76.893L125.057 77.3155C125.033 77.3761 125.021 77.4423 125.021 77.5093C125.021 77.5763 125.033 77.6426 125.057 77.7032C125.072 77.782 125.094 77.9279 125.121 78.141C125.299 79.7699 125.418 80.8647 125.478 81.4252C125.487 81.5077 125.483 81.5918 125.466 81.6724C125.449 81.753 125.419 81.8286 125.377 81.8949C125.336 81.9612 125.285 82.0169 125.226 82.0588C125.167 82.1007 125.103 82.1279 125.035 82.139C118.71 82.139 115.812 82.139 115.631 82.1587C115.534 82.1604 115.436 82.156 115.339 82.1455C115.132 82.1238 114.929 82.0702 114.734 81.9858C114.8 81.8485 114.859 81.7065 114.912 81.5609C115.061 81.1594 115.106 80.7116 115.041 80.2779C115.031 80.1692 115.003 80.0641 114.959 79.9694C114.914 79.8748 114.854 79.7927 114.782 79.7283C114.744 79.7063 114.703 79.6952 114.661 79.6956C114.505 79.7127 114.357 79.7891 114.238 79.9144C113.873 80.2375 113.591 80.682 113.426 81.1953C113.348 81.4375 113.315 81.6976 113.329 81.9572C113.12 82.0503 112.902 82.1129 112.68 82.1434C112.506 82.1638 112.331 82.1688 112.157 82.1587C111.461 82.1587 111.495 82.1827 110.921 82.1587C110.655 82.1587 110.476 82.1455 110.366 82.1455H110.349C110.262 82.1293 110.179 82.0907 110.104 82.0322C110.03 81.9737 109.966 81.8967 109.918 81.8062C109.918 81.8062 109.918 81.7492 109.918 81.6551C109.918 81.5609 109.88 81.5171 109.812 81.5171C109.745 81.5171 109.72 81.5609 109.68 81.6463C109.555 81.9266 109.218 82.0842 108.672 82.1411C107.846 82.2212 107.016 82.2212 106.19 82.1411C105.137 81.9952 104.472 81.5165 104.195 80.705C104.049 80.2802 103.973 79.2948 103.967 77.7491C103.967 77.4491 103.995 77.2827 104.056 77.252C104.143 77.2133 104.234 77.1898 104.327 77.182C104.448 77.1645 104.516 77.0944 104.529 76.963L104.586 76.3981C104.604 76.212 104.543 76.1267 104.407 76.1376C104.226 76.1392 104.052 76.2281 103.924 76.3851C103.808 76.5471 103.736 76.7488 103.717 76.963C103.662 77.8548 103.653 78.7498 103.69 79.643C103.69 79.8619 103.715 80.1532 103.751 80.5342C103.821 81.2742 103.973 81.823 104.206 82.1807C104.657 82.8652 105.648 83.2103 107.179 83.2162C107.687 83.2346 108.196 83.2156 108.702 83.1593C108.876 83.1506 109.047 83.0985 109.204 83.0063C109.361 82.9141 109.501 82.7836 109.616 82.6229C109.698 82.777 109.808 82.9057 109.937 82.9991C110.066 83.0925 110.211 83.1481 110.36 83.1614C110.926 83.1987 111.452 83.1614 112.004 83.1768C112.243 83.1777 112.481 83.1551 112.717 83.109C113.156 83.0346 113.594 83.0892 114.034 82.9184C114.484 83.0563 114.927 83.0191 115.383 83.1133C115.574 83.149 115.767 83.1651 115.96 83.1614H125.06C125.38 82.6924 125.647 82.1724 125.853 81.6157C126.031 81.088 126.311 79.8947 125.815 77.9089C125.832 77.8827 125.844 77.852 125.85 77.8192C125.856 77.7864 125.855 77.7525 125.849 77.7199C125.842 77.6873 125.83 77.657 125.812 77.6313C125.795 77.6056 125.772 77.5852 125.747 77.5717ZM113.717 81.2194C113.782 81.0968 113.871 80.9968 113.977 80.9293C114.083 80.8618 114.201 80.829 114.32 80.834C114.498 80.834 114.586 81.029 114.586 81.3924C114.198 81.7515 113.909 81.6923 113.717 81.2194Z" fill="#0C356A"/>
<path d="M127.099 77.3267C127.072 76.9633 127.012 76.9063 126.921 77.1581L126.635 77.9135C126.593 78.0218 126.577 78.1427 126.59 78.2616L126.739 79.6716C126.866 80.6467 126.947 81.6299 126.981 82.6165C126.981 82.8705 126.995 83.0062 127.038 83.0259C127.081 83.0456 127.126 83.004 127.17 82.8989C127.373 82.4245 127.405 81.2568 127.268 79.3958L127.099 77.3267Z" fill="#0C356A"/>
<path d="M132.727 80.0142L132.959 79.561C133.159 79.7099 133.28 79.804 133.316 79.8456C133.324 79.8563 133.334 79.8645 133.345 79.8693C133.356 79.8742 133.368 79.8756 133.38 79.8734C133.392 79.8712 133.403 79.8656 133.413 79.8569C133.422 79.8483 133.43 79.8369 133.435 79.8237L133.765 79.1822C133.778 79.1584 133.782 79.1299 133.779 79.1021C133.775 79.0743 133.763 79.0491 133.746 79.0311C133.597 78.8709 133.425 78.7468 133.239 78.6655C133.218 78.655 133.196 78.6534 133.174 78.6609C133.153 78.6685 133.134 78.6848 133.121 78.7071L132.905 79.1012C132.788 78.9975 132.659 78.9156 132.522 78.8582C132.501 78.8466 132.478 78.8442 132.457 78.8514C132.435 78.8586 132.417 78.875 132.404 78.8976L132.07 79.5106C132.062 79.5208 132.057 79.5332 132.054 79.5466C132.05 79.5601 132.05 79.5743 132.052 79.588C132.054 79.6018 132.059 79.6146 132.067 79.6255C132.074 79.6364 132.083 79.6451 132.093 79.6507C132.379 79.8697 132.545 79.9879 132.593 80.0339C132.601 80.0471 132.612 80.0574 132.625 80.0638C132.637 80.0703 132.651 80.0726 132.664 80.0706C132.678 80.0686 132.691 80.0624 132.702 80.0525C132.713 80.0426 132.721 80.0294 132.727 80.0142Z" fill="#0C356A"/>
<path d="M135.242 79.8626L135.035 80.6113C135.023 80.6445 135.02 80.6816 135.026 80.7172C135.031 80.7528 135.046 80.7853 135.067 80.8105C135.217 80.9558 135.324 81.1572 135.372 81.3842C134.659 81.8804 133.751 82.1271 132.649 82.1242C131.356 82.1242 130.665 81.7995 130.576 81.15C130.571 81.0362 130.587 80.9225 130.624 80.8177C130.66 80.7129 130.716 80.6197 130.786 80.5456C130.847 80.4668 130.854 80.3968 130.81 80.3421C130.765 80.2873 130.706 80.3005 130.64 80.388C130.487 80.5887 130.366 80.8225 130.283 81.0776C130.131 81.614 130.167 82.0542 130.396 82.3914C130.792 82.9957 131.535 83.262 132.626 83.1905C133.598 83.1588 134.546 82.8194 135.379 82.2052C135.464 82.128 135.534 82.0295 135.586 81.9162C135.637 81.8029 135.667 81.6775 135.676 81.5484C135.776 80.987 135.698 80.3998 135.458 79.9064C135.354 79.7246 135.285 79.7093 135.242 79.8626Z" fill="#0C356A"/>
<path d="M137.179 79.3958L137.013 77.3267C136.987 76.9633 136.926 76.9063 136.835 77.1581L136.55 77.9135C136.507 78.0214 136.491 78.1427 136.505 78.2616L136.653 79.6716C136.779 80.6468 136.86 81.63 136.896 82.6165C136.896 82.8705 136.91 83.0062 136.953 83.0259C136.996 83.0456 137.04 83.004 137.085 82.8989C137.285 82.4245 137.316 81.2568 137.179 79.3958Z" fill="#0C356A"/>
<path d="M157.135 80.4807C156.675 80.4304 156.305 80.8442 155.777 81.4222C155.584 81.6431 155.4 81.877 155.228 82.1228C154.943 82.0432 154.691 81.8441 154.514 81.5601C154.495 81.5082 154.464 81.4634 154.426 81.4304C154.389 81.3973 154.344 81.3771 154.298 81.3718C154.254 81.3742 154.212 81.392 154.176 81.4231C154.14 81.4541 154.113 81.4971 154.096 81.547C154.037 81.6912 153.953 81.818 153.85 81.9186C153.748 82.0191 153.628 82.0911 153.5 82.1294H139.973C139.961 81.806 139.884 81.4913 139.748 81.2142C139.718 81.1588 139.679 81.1117 139.634 81.0759C139.589 81.0401 139.538 81.0163 139.484 81.0062C139.431 80.9961 139.377 80.9998 139.324 81.0172C139.272 81.0345 139.224 81.0651 139.182 81.1069C138.969 81.2675 138.811 81.6258 138.709 82.1819C138.647 82.5344 138.709 82.7797 138.888 82.9176C139.119 83.0501 139.371 83.1153 139.626 83.1081C139.473 83.5825 139.14 84.0123 138.629 84.3977C138.117 84.7808 137.653 84.8859 137.241 84.7086C137.151 84.667 137.096 84.6735 137.062 84.7305C137.028 84.7874 137.062 84.8443 137.128 84.9122C137.515 85.3085 137.824 85.5077 138.058 85.5077C138.253 85.5013 138.445 85.4446 138.622 85.3413C139.319 84.9589 139.75 84.2291 139.915 83.1519C144.398 83.0621 148.882 83.2329 153.365 83.1519C153.494 83.1491 153.62 83.0985 153.726 83.0067C153.831 82.9149 153.912 82.7862 153.957 82.6373C153.964 82.6122 153.977 82.5898 153.993 82.5724C154.01 82.555 154.03 82.543 154.051 82.5377C154.073 82.5325 154.095 82.534 154.115 82.5423C154.136 82.5505 154.155 82.5651 154.169 82.5848C154.314 82.7856 154.498 82.9366 154.705 83.0227C154.646 83.1998 154.599 83.383 154.566 83.5701C154.558 83.5953 154.555 83.6222 154.556 83.6489C154.558 83.6757 154.563 83.7019 154.573 83.7259C154.583 83.75 154.596 83.7715 154.613 83.7891C154.629 83.8067 154.648 83.82 154.669 83.8284C154.758 83.8656 154.814 83.8153 154.847 83.6817C154.877 83.5001 154.925 83.3236 154.99 83.1562C155.246 83.2329 155.508 83.2748 155.772 83.281C156.35 83.2995 156.917 83.0917 157.392 82.6877C157.508 82.5424 157.603 82.3735 157.672 82.1885C157.785 81.9483 157.866 81.6874 157.911 81.4156C157.931 81.3193 157.931 81.2185 157.911 81.1222C157.82 80.7719 157.449 80.5223 157.135 80.4807ZM139.537 82.2323C139.293 82.2323 139.134 82.1863 139.062 82.0725C139.047 82.0517 139.038 82.0243 139.038 81.9958C139.038 81.9673 139.047 81.9399 139.062 81.9192C139.085 81.8885 139.113 81.8638 139.143 81.8469C139.174 81.8299 139.207 81.821 139.241 81.8207C139.373 81.8207 139.484 81.9301 139.571 82.1666C139.576 82.217 139.566 82.2323 139.537 82.2323ZM156.593 82.1622C156.25 82.2067 155.906 82.2264 155.561 82.2213C155.973 81.8294 156.307 81.6236 156.559 81.6039C156.879 81.5753 157.197 81.6931 157.451 81.9345C157.337 82.0418 157.048 82.1163 156.593 82.1688V82.1622Z" fill="#0C356A"/>
<path d="M159.829 75.562C159.757 75.5628 159.686 75.5753 159.617 75.5992C159.549 75.6213 159.48 75.6353 159.41 75.6408C159.178 75.6511 158.951 75.5568 158.773 75.3759C158.764 75.367 158.758 75.3561 158.753 75.3438C158.748 75.3316 158.746 75.3182 158.746 75.3047C158.746 75.2912 158.748 75.2779 158.753 75.2656C158.758 75.2533 158.764 75.2424 158.773 75.2336C158.793 75.2079 158.819 75.1889 158.847 75.1782C158.875 75.1675 158.904 75.1655 158.933 75.1723C158.97 75.1777 159.005 75.1931 159.035 75.2174C159.066 75.2416 159.092 75.2741 159.112 75.3124C159.119 75.3328 159.13 75.3507 159.143 75.3646C159.157 75.3785 159.174 75.3879 159.192 75.3921C159.209 75.3962 159.228 75.3949 159.245 75.3882C159.262 75.3816 159.278 75.3698 159.29 75.354C159.332 75.309 159.368 75.2566 159.397 75.1985C159.46 75.0654 159.495 74.9147 159.497 74.7606C159.505 74.7189 159.505 74.6755 159.497 74.6339C159.488 74.5922 159.472 74.5536 159.449 74.5212C159.426 74.4887 159.398 74.4633 159.365 74.4471C159.333 74.4309 159.298 74.4243 159.263 74.4278C159.028 74.4059 158.808 74.5636 158.607 74.9051C158.405 75.2467 158.323 75.5379 158.36 75.7809C158.379 75.8554 158.409 75.9245 158.45 75.9839C158.491 76.0434 158.541 76.0921 158.598 76.1269C158.392 76.302 158.321 76.4531 158.387 76.5779C158.408 76.6144 158.439 76.6402 158.474 76.6503C158.509 76.6604 158.546 76.6541 158.578 76.6326C158.86 76.4794 159.051 76.3852 159.154 76.3458C159.328 76.2839 159.503 76.2335 159.681 76.1947C159.77 76.1685 159.859 76.0349 159.961 75.7875C159.969 75.7627 159.971 75.7361 159.969 75.7098C159.966 75.6836 159.959 75.6584 159.947 75.6364C159.934 75.6125 159.917 75.5931 159.896 75.5801C159.875 75.567 159.852 75.5608 159.829 75.562Z" fill="#0C356A"/>
<path d="M159.29 77.3267C159.263 76.9633 159.201 76.9063 159.112 77.1581L158.824 77.9135C158.782 78.0218 158.767 78.1427 158.78 78.2616L158.93 79.6716C159.055 80.647 159.136 81.6301 159.172 82.6165C159.172 82.8705 159.187 83.0062 159.23 83.0259C159.272 83.0456 159.315 83.004 159.362 82.8989C159.563 82.4245 159.595 81.2568 159.458 79.3958L159.29 77.3267Z" fill="#0C356A"/>
</g>
<defs>
<clipPath id="clip0_1235_7913">
<rect width="160" height="87" fill="white"/>
</clipPath>
</defs>
</svg>
