<svg width="160" height="87" viewBox="0 0 160 87" fill="none" xmlns="http://www.w3.org/2000/svg">
<path d="M0.405169 78.2569C2.01115 77.0417 6.65065 73.2342 9.52892 67.8438C11.7898 63.6027 13.0389 58.3808 13.0389 58.3808L13.0549 58.3108C13.0692 58.2539 14.4967 52.489 14.6895 44.0792C14.757 42.1252 14.7189 40.1679 14.5753 38.2202C14.486 36.8824 14.3522 35.5928 14.1577 34.1346C14.053 33.3488 14.0781 32.5453 14.2313 31.7716C14.3846 30.998 14.663 30.27 15.0499 29.6309H14.8804C9.68416 29.6309 5.38549 34.0777 3.96687 40.2104C3.96167 40.2327 3.9575 40.2554 3.95438 40.2783C3.24749 44.5872 3.00749 48.9918 3.24061 53.3779C3.43869 58.7596 2.95154 66.668 0.0946796 77.9504C0.0796847 78.001 0.0779775 78.0562 0.0897976 78.1081C0.101618 78.16 0.126372 78.2061 0.160596 78.2398C0.19482 78.2736 0.236799 78.2934 0.280654 78.2965C0.32451 78.2996 0.368047 78.2857 0.405169 78.2569Z" fill="white"/>
<path d="M30.2399 29.6328H18.9623C18.7449 29.6324 18.5282 29.6625 18.3164 29.7226C18.2932 29.7226 18.2736 29.7423 18.2521 29.7489C17.5522 29.9645 16.9436 30.4943 16.5465 31.2337C16.1494 31.973 15.9927 32.8682 16.1073 33.7425C16.2857 35.0562 16.4392 36.4618 16.5462 38.0207C16.6938 40.0589 16.7337 42.1067 16.6658 44.1512C16.4641 53.0405 14.9385 59.0222 14.9385 59.0222C14.1304 62.6335 12.8582 66.0637 11.1698 69.1835C10.9396 69.6039 10.7058 70.0089 10.4703 70.4052L10.2544 70.7577C10.0819 71.038 9.90818 71.3131 9.73331 71.5832C9.6548 71.6992 9.57806 71.8196 9.50133 71.9335C9.30386 72.2254 9.10519 72.5122 8.90534 72.7939L8.7608 72.9976C8.51098 73.3413 8.26116 73.6719 8.00777 73.9916C7.9471 74.0704 7.88465 74.1427 7.82933 74.2105C7.63483 74.4536 7.44211 74.69 7.24583 74.9177C7.16553 75.0141 7.08523 75.1082 7.00314 75.2002C6.81638 75.4177 6.62782 75.6293 6.43748 75.8351L6.23584 76.0541C5.98246 76.3256 5.72907 76.5883 5.47925 76.8379L5.38468 76.9299C5.16341 77.1488 4.94392 77.3678 4.72622 77.5648L4.49782 77.7838C4.31938 77.9502 4.14093 78.11 3.96249 78.2633C3.88933 78.3267 3.81795 78.3924 3.74479 78.4537C3.53066 78.6377 3.31832 78.815 3.10954 78.9858L3.03102 79.0493C2.7931 79.2405 2.56113 79.4222 2.3351 79.5945L2.15666 79.7302C1.98892 79.855 1.82297 79.9776 1.66059 80.0936L1.46252 80.236L1.30549 80.3476C1.27206 80.3705 1.24702 80.4081 1.23549 80.4529C1.22396 80.4976 1.22681 80.5461 1.24346 80.5884C1.26011 80.6306 1.2893 80.6635 1.32505 80.6802C1.3608 80.6969 1.4004 80.6962 1.43575 80.6782C2.4261 80.2075 3.6288 79.6054 4.94214 78.8938C6.05205 78.2917 7.24047 77.6064 8.45566 76.8488C9.5049 76.192 10.572 75.4892 11.623 74.7272C14.3751 72.7934 16.9587 70.5191 19.3335 67.9399C19.3335 67.9399 19.4388 67.8195 19.5369 67.7209C24.2065 62.8282 27.8568 56.6385 30.1846 49.6665C31.0492 47.0863 31.7321 44.42 32.2259 41.6968C32.7211 38.9498 33.0255 36.1563 33.136 33.3462C33.1546 32.866 33.0935 32.3861 32.9562 31.9358C32.8189 31.4855 32.6084 31.0741 32.3375 30.7268C32.0666 30.3794 31.741 30.1033 31.3803 29.9153C31.0197 29.7272 30.6317 29.6311 30.2399 29.6328Z" fill="white"/>
<path d="M48.3335 19.3738C48.2758 19.3494 48.2158 19.334 48.155 19.3279C44.3114 18.7955 40.5358 17.6851 36.9132 16.0217C36.6356 15.894 36.3949 15.6686 36.2213 15.3738C36.0476 15.0789 35.9488 14.7278 35.9371 14.3643C35.9371 10.64 34.7319 7.06798 32.5864 4.43344C30.441 1.79889 27.5307 0.317355 24.4954 0.314453H3.24113C3.06574 0.318336 2.89517 0.385573 2.75076 0.507756C2.60634 0.629939 2.49448 0.801651 2.42916 1.00142C2.36385 1.20118 2.34798 1.42014 2.38354 1.63091C2.41909 1.84168 2.5045 2.03492 2.62908 2.18646H0.867852C0.668692 2.19313 0.477084 2.2814 0.32356 2.43721C0.170035 2.59302 0.0634294 2.80739 0.0207312 3.04617C-0.021967 3.28495 0.00169838 3.5344 0.0879574 3.75476C0.174217 3.97512 0.318105 4.15371 0.496694 4.26208C2.25521 5.25479 3.94887 6.41206 5.56267 7.72364C9.14935 10.6356 14.8167 15.0474 16.1086 22.2727C16.246 23.0335 16.3325 23.8067 16.3673 24.5848C16.4216 25.3795 16.7142 26.1213 17.1886 26.6665C17.6629 27.2117 18.2853 27.5216 18.9351 27.5362H31.2155C31.3353 27.5349 31.4548 27.5202 31.5724 27.4924C32.0152 27.3891 32.4148 27.0999 32.7027 26.6744C32.9905 26.2488 33.1486 25.7136 33.1498 25.1606V23.1419C33.1497 22.8557 33.2004 22.5728 33.2984 22.3131C33.3964 22.0533 33.5393 21.8229 33.7173 21.6377C34.2794 21.0751 35.0003 21.2787 35.0877 21.305C38.0885 21.8555 41.1234 22.0753 44.1561 21.9618C45.4695 21.9071 46.8114 21.7823 48.1443 21.5918C48.3483 21.5706 48.5406 21.4657 48.6901 21.2942C48.8397 21.1226 48.9378 20.8942 48.9687 20.6459C48.9977 20.3767 48.9505 20.1033 48.8348 19.8717C48.7192 19.6402 48.5422 19.4644 48.3335 19.3738ZM30.6552 14.8438C30.4211 14.8442 30.1922 14.7595 29.9974 14.6002C29.8027 14.441 29.6507 14.2144 29.5609 13.9492C29.4711 13.684 29.4474 13.3921 29.4929 13.1103C29.5383 12.8286 29.6508 12.5697 29.8162 12.3665C29.9816 12.1633 30.1924 12.0248 30.422 11.9686C30.6515 11.9124 30.8895 11.941 31.1057 12.0509C31.322 12.1607 31.5069 12.3467 31.637 12.5855C31.7671 12.8242 31.8365 13.105 31.8365 13.3922C31.836 13.7766 31.7115 14.1452 31.4901 14.4172C31.2687 14.6893 30.9685 14.8427 30.6552 14.8438Z" fill="white"/>
<path d="M17.536 74.0362C14.1456 76.5257 9.0653 79.7705 1.75988 82.9474C1.71137 82.9673 1.66871 83.0043 1.63723 83.0538C1.60574 83.1032 1.58682 83.163 1.58283 83.2255C1.57883 83.2881 1.58994 83.3508 1.61476 83.4056C1.63958 83.4605 1.67702 83.5052 1.72241 83.5342C4.30046 85.1661 7.14206 86.074 10.0414 86.1922C14.3882 86.3433 21.5206 84.7165 23.4888 79.002C24.3435 76.5191 24.3043 73.0291 22.9856 71.9956C21.5848 70.8812 19.1419 72.8539 17.536 74.0362Z" fill="white"/>
<path d="M43.5229 53.5262H46.5599V48.8735L51.1316 41.3242H47.6163L45.0414 45.9046L42.4825 41.3242H38.9512L43.5229 48.8735V53.5262Z" fill="white"/>
<path d="M50.0996 48.811C50.0975 49.4946 50.2124 50.1712 50.4369 50.7969C50.6667 51.4264 51.0103 51.9834 51.4415 52.4258C51.9309 52.9181 52.4932 53.2898 53.0975 53.5206C53.8395 53.7998 54.6126 53.9343 55.3887 53.9191C55.9983 53.9254 56.6062 53.8379 57.1981 53.6585C57.6989 53.5041 58.1795 53.2638 58.6256 52.9447C59.0248 52.657 59.3804 52.2866 59.6766 51.85C59.9585 51.4316 60.1855 50.9618 60.3494 50.4575L60.4332 50.1948H57.7031L57.6585 50.2933C57.4794 50.6727 57.195 50.9603 56.8572 51.1034C56.3846 51.303 55.8865 51.3957 55.3869 51.3771C55.0636 51.3793 54.7415 51.33 54.4286 51.2304C54.1478 51.1438 53.8802 51.0018 53.6364 50.81C53.4155 50.6325 53.2272 50.4006 53.0832 50.1291C52.9662 49.9065 52.8856 49.6581 52.8459 49.3978H60.3619V49.2051C60.3579 48.5635 60.2743 47.9263 60.1138 47.3156C59.9411 46.6554 59.6558 46.0479 59.2769 45.5334C58.8467 44.9619 58.3215 44.5102 57.737 44.2087C56.9911 43.8421 56.1918 43.6677 55.3887 43.6964C54.5656 43.673 53.7466 43.844 52.9761 44.2C52.3656 44.4912 51.8064 44.9238 51.3291 45.4743C50.9263 45.9459 50.6074 46.5147 50.3923 47.1448C50.2097 47.6725 50.1104 48.2379 50.0996 48.811ZM53.8755 46.6106C54.3506 46.348 54.8677 46.2194 55.3887 46.234C55.7727 46.2145 56.1561 46.2889 56.5164 46.453C56.7683 46.5789 57.0025 46.7525 57.2106 46.9675C57.333 47.1035 57.4409 47.258 57.5318 47.4273H53.0939C53.2861 47.0697 53.5572 46.7865 53.8755 46.6106Z" fill="white"/>
<path d="M64.9458 48.4063C64.9458 47.675 65.1367 47.1452 65.5293 46.7861C65.9219 46.427 66.5999 46.2344 67.5136 46.2344C67.8152 46.225 68.1162 46.273 68.4058 46.3767C68.6057 46.451 68.7869 46.5866 68.9322 46.7708C69.0666 46.9567 69.1578 47.1836 69.1963 47.4276C69.2526 47.7521 69.2795 48.0833 69.2766 48.4151V53.5275H72.162V48.4063C72.162 47.675 72.3529 47.1452 72.7455 46.7861C73.1381 46.427 73.8162 46.2344 74.7298 46.2344C75.0314 46.225 75.3324 46.273 75.622 46.3767C75.8219 46.451 76.0031 46.5866 76.1484 46.7708C76.2827 46.9571 76.3744 47.1837 76.4143 47.4276C76.4703 47.7522 76.4966 48.0834 76.4928 48.4151V53.5275H79.38V48.2202C79.3859 47.5837 79.3259 46.9488 79.2015 46.3307C79.0936 45.791 78.8777 45.2929 78.5734 44.8813C78.2426 44.4609 77.829 44.1524 77.3725 43.9858C76.7744 43.7737 76.1533 43.6763 75.531 43.6968C74.7508 43.6691 73.9727 43.8106 73.2326 44.1149C72.6955 44.3605 72.2199 44.7741 71.8533 45.3148C71.7109 45.0284 71.5227 44.7804 71.3001 44.5857C71.0188 44.3436 70.7105 44.1526 70.3847 44.0186C70.0477 43.8831 69.6993 43.7949 69.3462 43.7559C68.9893 43.7187 68.6324 43.6968 68.3059 43.6968C67.5697 43.6712 66.837 43.8291 66.1521 44.1609C65.7003 44.4005 65.2893 44.7421 64.9404 45.1681V44.0865H62.0586V53.5275H64.9458V48.4063Z" fill="white"/>
<path d="M90.5435 51.8441C90.8254 51.4257 91.0523 50.9559 91.2162 50.4516L91.3001 50.1889H88.5681L88.5235 50.2874C88.3448 50.6663 88.0611 50.9538 87.7241 51.0975C87.2515 51.2968 86.7533 51.3895 86.2537 51.3712C85.9305 51.3737 85.6083 51.3244 85.2955 51.2245C85.0141 51.1377 84.746 50.9957 84.5015 50.8041C84.2814 50.6254 84.0932 50.3938 83.9483 50.1232C83.832 49.9002 83.7514 49.652 83.7109 49.3919H91.2323V49.1992C91.2283 48.5576 91.1447 47.9204 90.9843 47.3097C90.8111 46.6493 90.5252 46.0417 90.1456 45.5275C89.716 44.955 89.1907 44.5032 88.6056 44.2029C87.8584 43.8374 87.0577 43.6652 86.2537 43.6971C85.4307 43.6737 84.6117 43.8447 83.8412 44.2007C83.2304 44.4913 82.6712 44.924 82.1942 45.475C81.7907 45.945 81.4716 46.5133 81.2574 47.1433C81.0733 47.6744 80.9734 48.2436 80.9629 48.8205C80.9602 49.5044 81.0757 50.1812 81.302 50.8063C81.5316 51.4353 81.8745 51.9923 82.3048 52.4353C82.7942 52.9276 83.3565 53.2993 83.9608 53.53C84.7034 53.8091 85.4771 53.9435 86.2537 53.9285C86.8628 53.935 87.4701 53.8475 88.0614 53.668C88.5623 53.5139 89.0429 53.2736 89.4889 52.9542C89.8907 52.6627 90.2476 52.287 90.5435 51.8441ZM84.737 46.6113C85.2135 46.3492 85.7316 46.2206 86.2537 46.2347C86.6378 46.2156 87.0211 46.29 87.3815 46.4537C87.6338 46.5831 87.8675 46.7612 88.0739 46.9813C88.1963 47.1174 88.3042 47.2719 88.3951 47.4411H83.959C84.1501 47.0808 84.4196 46.7933 84.737 46.6113Z" fill="white"/>
<path d="M95.8073 48.8107C95.8073 47.8758 96.0232 47.2321 96.4657 46.8402C96.9083 46.4483 97.6167 46.2359 98.541 46.2359C98.8439 46.2243 99.1461 46.2791 99.4332 46.3979C99.6328 46.486 99.8126 46.6308 99.9579 46.8205C100.085 46.9971 100.177 47.2078 100.226 47.4357C100.283 47.6917 100.312 47.9561 100.311 48.2217V53.5268H103.188V48.2195C103.195 47.5799 103.128 46.9423 102.99 46.3256C102.866 45.7776 102.629 45.2778 102.303 44.874C101.95 44.4598 101.521 44.1544 101.053 43.9829C100.442 43.7721 99.809 43.6754 99.1745 43.6961C97.747 43.6961 96.621 44.1931 95.8073 45.1696V44.0749H92.9219V53.5268H95.8073V48.8107Z" fill="white"/>
<path d="M43.3838 71.1983H46.4209V61.7419H50.509V58.9941H39.2832V61.7419H43.3838V71.1983Z" fill="white"/>
<path d="M59.291 64.4268V61.4645L59.1536 61.4448C58.9966 61.4229 58.8431 61.401 58.695 61.3835C58.5469 61.366 58.3703 61.3594 58.1722 61.3594C56.7447 61.3594 55.6187 61.8542 54.805 62.8307V61.7469H51.916V71.1967H54.8014V66.8681C54.8014 65.9376 55.028 65.2041 55.4759 64.6786C55.9238 64.1532 56.618 63.8948 57.5352 63.8948C57.7899 63.8979 58.0441 63.9257 58.2953 63.978C58.5617 64.0297 58.8199 64.1316 59.0608 64.2801L59.291 64.4268Z" fill="white"/>
<path d="M63.6647 57.8125H60.7793V60.7617H63.6647V57.8125Z" fill="white"/>
<path d="M63.6647 61.7461H60.7793V71.1981H63.6647V61.7461Z" fill="white"/>
<path d="M65.7051 57.8125V71.1968H68.5905V70.102C69.4042 71.0807 70.5337 71.5755 71.9559 71.5755C72.5882 71.5938 73.2192 71.4957 73.8278 71.2843C74.2957 71.1126 74.7237 70.8072 75.0769 70.3932C75.4005 69.9906 75.6362 69.4944 75.7621 68.9504C75.9013 68.3368 75.9686 67.7021 75.9619 67.0652V65.8829C75.9682 65.2432 75.901 64.6056 75.7621 63.989C75.6375 63.4424 75.4017 62.9436 75.0769 62.5396C74.7247 62.1241 74.2963 61.8184 73.8278 61.6485C73.221 61.4373 72.5917 61.3399 71.9613 61.3595C70.5337 61.3595 69.4095 61.8543 68.5958 62.8308V57.8125H65.7051ZM71.3242 63.9036C71.6273 63.8915 71.9296 63.9471 72.2164 64.0678C72.416 64.156 72.5958 64.3008 72.7411 64.4904C72.8683 64.6673 72.9605 64.8779 73.0105 65.1057C73.0672 65.3611 73.0954 65.6248 73.0944 65.8895V67.0718C73.0955 67.3365 73.0673 67.6002 73.0105 67.8556C72.9607 68.0842 72.8685 68.2955 72.7411 68.4731C72.5968 68.6606 72.4173 68.8019 72.2182 68.8847C71.9302 68.9987 71.6285 69.0512 71.326 69.0401C69.4863 69.0401 68.5923 68.2038 68.5923 66.4806C68.5923 65.5479 68.8082 64.902 69.2507 64.5101C69.6933 64.1182 70.3981 63.9036 71.3242 63.9036Z" fill="white"/>
<path d="M84.9957 62.8312C84.182 61.8547 83.0471 61.3599 81.616 61.3599C80.9842 61.3403 80.3537 61.4385 79.7459 61.6511C79.2776 61.8216 78.8493 62.1271 78.4969 62.5422C78.1718 62.9464 77.9354 63.4451 77.8099 63.9916C77.6722 64.6085 77.6056 65.246 77.6118 65.8855V67.0678C77.6052 67.7045 77.6719 68.3391 77.8099 68.953C77.9336 69.5009 78.168 70.0018 78.4915 70.409C78.8444 70.8233 79.2726 71.1287 79.7406 71.3001C80.3484 71.5127 80.9788 71.6123 81.6107 71.5957C83.0382 71.5957 84.1767 71.1008 84.9904 70.1221V71.2169H87.8633V61.7474H84.9904L84.9957 62.8312ZM82.262 69.0405C81.9595 69.0515 81.6578 68.9989 81.3698 68.8851C81.167 68.8014 80.9835 68.6595 80.8344 68.4713C80.7053 68.2972 80.6134 68.0866 80.5668 67.8582C80.5141 67.6013 80.4883 67.3372 80.49 67.0722V65.8899C80.4884 65.6242 80.5142 65.3594 80.5668 65.1017C80.6134 64.8746 80.7054 64.6654 80.8344 64.493C80.9835 64.3023 81.1668 64.1568 81.3698 64.0682C81.6566 63.9475 81.9589 63.8919 82.262 63.904C83.1792 63.904 83.868 64.1077 84.3319 64.5105C84.7959 64.9134 84.9957 65.5483 84.9957 66.481C84.9957 67.3568 84.778 67.9743 84.3283 68.3968C83.8787 68.8194 83.1774 69.0405 82.262 69.0405Z" fill="white"/>
<path d="M92.8053 57.8125H89.9199V71.1968H92.8053V57.8125Z" fill="white"/>
<path d="M98.6445 58.9941L102.993 71.0822L103.034 71.1983H106.94L111.33 58.9941H108.097L104.981 67.7717L101.876 58.9941H98.6445Z" fill="white"/>
<path d="M111.377 68.4724C111.63 69.1016 111.992 69.6559 112.437 70.097C112.92 70.5772 113.469 70.9479 114.059 71.1918C114.73 71.4653 115.434 71.6 116.141 71.5902C116.818 71.5952 117.492 71.4605 118.133 71.1918C118.722 70.9443 119.273 70.5739 119.76 70.097C120.213 69.6537 120.589 69.1016 120.863 68.4746C121.127 67.8591 121.265 67.1736 121.264 66.4778C121.265 65.7837 121.135 65.0987 120.884 64.4766C120.628 63.8475 120.268 63.2911 119.826 62.8433C119.345 62.3618 118.796 61.9909 118.207 61.7485C117.542 61.4755 116.843 61.3408 116.141 61.3501C115.468 61.3454 114.799 61.4801 114.162 61.7485C113.571 61.997 113.018 62.3672 112.528 62.8433C112.069 63.2875 111.689 63.8427 111.412 64.4744C111.143 65.091 111.002 65.7801 111.002 66.48C111 67.1707 111.128 67.8525 111.377 68.4724ZM116.141 69.0395C115.81 69.0477 115.481 68.9778 115.172 68.8337C114.91 68.7086 114.671 68.5219 114.467 68.2841C114.279 68.0578 114.132 67.7846 114.037 67.4828C113.937 67.1628 113.886 66.8228 113.887 66.48C113.864 65.7915 114.064 65.1199 114.444 64.6124C114.801 64.1416 115.381 63.903 116.141 63.903C116.492 63.8934 116.841 63.9632 117.171 64.1088C117.432 64.2303 117.668 64.4193 117.865 64.6627C118.044 64.8929 118.18 65.1688 118.263 65.4707C118.351 65.7962 118.395 66.1371 118.393 66.48C118.394 66.8257 118.348 67.1693 118.256 67.4959C118.172 67.7995 118.034 68.0758 117.851 68.3038C117.655 68.5438 117.419 68.7277 117.158 68.8424C116.832 68.9825 116.487 69.0492 116.141 69.0395Z" fill="white"/>
<path d="M125.833 57.8125H122.947V60.7617H125.833V57.8125Z" fill="white"/>
<path d="M125.833 61.7461H122.947V71.1981H125.833V61.7461Z" fill="white"/>
<path d="M137.092 69.5157C137.373 69.0975 137.599 68.6276 137.761 68.1232L137.847 67.8605H135.024L134.979 67.959C134.798 68.3414 134.508 68.6288 134.165 68.7669C133.729 68.958 133.267 69.0507 132.804 69.0406C132.472 69.0468 132.141 68.977 131.83 68.8348C131.561 68.7092 131.314 68.5219 131.102 68.283C130.905 68.0575 130.748 67.7838 130.643 67.4795C130.536 67.1633 130.482 66.8236 130.484 66.4811C130.471 66.1377 130.517 65.7948 130.617 65.474C130.718 65.1533 130.872 64.8617 131.069 64.6178C131.46 64.1449 132.044 63.9041 132.804 63.9041C133.27 63.8937 133.733 63.9895 134.171 64.1865C134.508 64.331 134.794 64.6151 134.979 64.9901L135.024 65.0864H137.845L137.766 64.828C137.614 64.326 137.4 63.8557 137.131 63.4333C136.846 62.9951 136.498 62.6241 136.105 62.3386C135.66 62.0168 135.179 61.7764 134.678 61.6248C134.066 61.4416 133.439 61.3526 132.809 61.3599C132.079 61.3498 131.352 61.4836 130.655 61.7562C130.05 61.9942 129.485 62.3651 128.987 62.8509C128.54 63.2957 128.175 63.8516 127.916 64.4821C127.659 65.1026 127.526 65.7893 127.527 66.4855C127.524 67.169 127.639 67.8456 127.863 68.4713C128.093 69.101 128.437 69.6581 128.869 70.1003C129.358 70.5934 129.921 70.9652 130.525 71.195C131.265 71.4722 132.036 71.6045 132.809 71.5869C133.418 71.5947 134.026 71.5071 134.617 71.3264C135.118 71.1735 135.598 70.9339 136.044 70.6148C136.442 70.3244 136.796 69.9527 137.092 69.5157Z" fill="white"/>
<path d="M140.373 70.0954C140.862 70.5885 141.425 70.9603 142.029 71.1901C142.771 71.4703 143.544 71.6047 144.32 71.5886C144.93 71.5962 145.538 71.5087 146.13 71.3281C146.631 71.1748 147.111 70.9352 147.557 70.6165C147.957 70.3281 148.313 69.9578 148.61 69.5218C148.891 69.1029 149.117 68.6331 149.281 68.1293L149.365 67.8665H146.635L146.59 67.9651C146.411 68.3432 146.127 68.63 145.791 68.773C145.317 68.9724 144.819 69.0651 144.319 69.0467C143.995 69.0485 143.673 69 143.36 68.9021C143.079 68.8159 142.811 68.6732 142.568 68.4796C142.348 68.3023 142.159 68.0712 142.015 67.8008C141.899 67.5768 141.818 67.328 141.778 67.0674H149.292V66.8747C149.289 66.2311 149.207 65.5917 149.047 64.9786C148.874 64.3184 148.589 63.7109 148.21 63.1964C147.78 62.628 147.255 62.18 146.67 61.8827C145.925 61.5151 145.125 61.34 144.322 61.3682C143.499 61.3427 142.68 61.5129 141.91 61.8696C141.299 62.1589 140.739 62.5909 140.263 63.1416C139.859 63.613 139.539 64.1818 139.324 64.8122C139.141 65.343 139.042 65.9112 139.031 66.4872C139.029 67.1708 139.144 67.8474 139.369 68.473C139.599 69.1004 139.942 69.6553 140.373 70.0954ZM142.802 64.278C143.277 64.0139 143.794 63.8844 144.315 63.8992C144.7 63.8818 145.083 63.96 145.443 64.1291C145.695 64.2542 145.929 64.4279 146.137 64.6436C146.26 64.7792 146.368 64.9338 146.458 65.1034H142.026C142.215 64.7436 142.485 64.4573 142.802 64.278Z" fill="white"/>
<path d="M158.933 66.0276C158.48 65.7596 158 65.5688 157.505 65.4606C156.938 65.3204 156.242 65.1737 155.383 65.0227C155.235 64.9876 155.036 64.9504 154.782 64.911C154.529 64.8716 154.306 64.8234 154.068 64.7621C153.87 64.7098 153.676 64.6366 153.488 64.5432C153.36 64.4797 153.331 64.4227 153.331 64.4096C153.331 64.333 153.351 64.2345 153.51 64.1447C153.699 64.0406 153.898 63.967 154.102 63.9257C154.338 63.877 154.577 63.847 154.816 63.836C155.055 63.825 155.235 63.8206 155.351 63.8206C155.467 63.8206 155.644 63.8316 155.853 63.8535C156.061 63.8757 156.266 63.9189 156.468 63.9827C156.644 64.0355 156.811 64.1259 156.961 64.2498C157.011 64.2865 157.052 64.3389 157.08 64.4016C157.109 64.4643 157.123 64.5351 157.121 64.6067V64.8081L159.843 64.6548V64.4709C159.849 63.9707 159.719 63.4823 159.473 63.0828C159.211 62.6701 158.875 62.338 158.49 62.1129C158.041 61.8476 157.564 61.6576 157.073 61.548C156.505 61.4187 155.929 61.3557 155.351 61.3597C154.73 61.3544 154.11 61.4203 153.499 61.5567C152.993 61.6642 152.501 61.8542 152.036 62.1216C151.659 62.3333 151.326 62.6452 151.06 63.0346C150.825 63.3941 150.699 63.8419 150.703 64.3023C150.664 64.8571 150.775 65.4123 151.018 65.8823C151.262 66.3523 151.624 66.711 152.05 66.9034C152.516 67.1397 153.004 67.3066 153.503 67.4004C154.053 67.5114 154.663 67.6289 155.332 67.7529C155.446 67.777 155.624 67.7989 155.867 67.823C156.103 67.8464 156.338 67.8873 156.57 67.9456C156.778 67.9958 156.98 68.0805 157.17 68.1974C157.227 68.224 157.276 68.2714 157.31 68.3333C157.344 68.3953 157.362 68.4686 157.361 68.5433C157.363 68.5851 157.356 68.6268 157.342 68.665C157.328 68.7031 157.307 68.7365 157.28 68.7623C157.191 68.8442 157.089 68.9037 156.981 68.9374C156.83 68.9873 156.677 69.0196 156.522 69.0338C156.23 69.0591 155.938 69.0642 155.646 69.0491C155.528 69.0491 155.432 69.0491 155.357 69.0491C155.239 69.0491 155.073 69.0491 154.862 69.0338C154.656 69.0226 154.451 68.9904 154.249 68.9374C154.072 68.893 153.902 68.8124 153.747 68.6988C153.697 68.6673 153.656 68.6192 153.627 68.5599C153.599 68.5006 153.585 68.4326 153.587 68.3638V68.1646L150.865 68.2981V68.482C150.858 68.975 150.976 69.4586 151.203 69.8658C151.445 70.2784 151.763 70.6146 152.132 70.8467C152.574 71.1244 153.048 71.3157 153.538 71.4137C154.139 71.5405 154.747 71.6014 155.357 71.5955C155.96 71.5997 156.563 71.5506 157.161 71.4488C157.662 71.3705 158.152 71.21 158.619 70.9715C159.009 70.7747 159.353 70.4626 159.621 70.0628C159.876 69.6593 160.009 69.1605 159.998 68.6506C160.017 68.0953 159.935 67.5416 159.757 67.0304C159.579 66.5944 159.29 66.2421 158.933 66.0276Z" fill="white"/>
<path d="M39.9967 79.0641L40.2305 78.6087C40.4304 78.7576 40.5517 78.8539 40.5963 78.8955C40.6046 78.9058 40.6147 78.9135 40.6259 78.918C40.6371 78.9226 40.649 78.9239 40.6606 78.9217C40.6722 78.9196 40.6833 78.9141 40.6929 78.9058C40.7025 78.8974 40.7104 78.8864 40.7159 78.8736L41.046 78.2321C41.0585 78.2078 41.0632 78.1787 41.0593 78.1504C41.0553 78.1221 41.043 78.0966 41.0246 78.0788C40.8767 77.9193 40.7052 77.7959 40.5196 77.7154C40.4991 77.704 40.476 77.702 40.4545 77.7096C40.4329 77.7172 40.4142 77.734 40.4018 77.757L40.1859 78.1489C40.0676 78.0469 39.9385 77.9651 39.8022 77.9059C39.7817 77.895 39.7588 77.8931 39.7373 77.9007C39.7158 77.9083 39.6971 77.9248 39.6845 77.9475L39.3508 78.5583C39.3425 78.5683 39.3365 78.5806 39.3331 78.5942C39.3297 78.6078 39.3292 78.6222 39.3315 78.6361C39.3338 78.65 39.3389 78.663 39.3463 78.6739C39.3537 78.6848 39.3632 78.6932 39.374 78.6985C39.6595 78.9174 39.8254 79.0378 39.8736 79.0816C39.8818 79.0925 39.892 79.1009 39.9033 79.106C39.9146 79.1111 39.9268 79.1129 39.9388 79.1112C39.9508 79.1095 39.9623 79.1044 39.9724 79.0962C39.9824 79.088 39.9908 79.077 39.9967 79.0641Z" fill="white"/>
<path d="M51.5161 83.4927C51.4957 83.4814 51.4726 83.4793 51.451 83.487C51.4294 83.4946 51.4108 83.5114 51.3984 83.5343L51.1824 83.9262C51.0637 83.8238 50.934 83.742 50.797 83.6832C50.7767 83.6721 50.7539 83.6699 50.7324 83.6771C50.7109 83.6843 50.6921 83.7004 50.6792 83.7226L50.3455 84.3357C50.3377 84.3459 50.332 84.3582 50.3289 84.3717C50.3258 84.3852 50.3253 84.3994 50.3276 84.4131C50.3299 84.4268 50.3348 84.4397 50.342 84.4506C50.3491 84.4615 50.3583 84.4701 50.3687 84.4758C50.6543 84.6947 50.822 84.813 50.8684 84.859C50.8767 84.8702 50.8871 84.8788 50.8987 84.8841C50.9103 84.8893 50.9228 84.891 50.935 84.8891C50.9473 84.8872 50.959 84.8816 50.9692 84.873C50.9793 84.8643 50.9876 84.8527 50.9933 84.8392L51.2253 84.386C51.4251 84.5349 51.5465 84.6313 51.5822 84.6729C51.5904 84.6831 51.6006 84.6908 51.6118 84.6954C51.6229 84.6999 51.6348 84.7012 51.6465 84.6991C51.6581 84.6969 51.6692 84.6915 51.6788 84.6831C51.6884 84.6748 51.6962 84.6637 51.7017 84.6509L52.0318 84.0094C52.0442 83.9853 52.049 83.9565 52.0454 83.9283C52.0418 83.9001 52.03 83.8745 52.0122 83.8562C51.8671 83.6975 51.6988 83.5742 51.5161 83.4927Z" fill="white"/>
<path d="M57.708 78.8959L57.3743 79.509C57.3666 79.5193 57.3609 79.5318 57.3579 79.5454C57.3549 79.559 57.3547 79.5733 57.3571 79.587C57.3596 79.6008 57.3647 79.6136 57.372 79.6244C57.3794 79.6352 57.3887 79.6437 57.3993 79.6491C57.683 79.8681 57.8508 79.9863 57.8972 80.0323C57.9057 80.0431 57.9161 80.0513 57.9277 80.0562C57.9392 80.0612 57.9515 80.0628 57.9637 80.0609C57.9758 80.059 57.9874 80.0536 57.9975 80.0452C58.0077 80.0368 58.0161 80.0256 58.0221 80.0126L58.3522 79.3732C58.3645 79.3491 58.3693 79.3203 58.3657 79.2921C58.3621 79.2639 58.3504 79.2383 58.3326 79.22C58.1845 79.0596 58.0123 78.9362 57.8258 78.8565C57.8055 78.845 57.7826 78.8426 57.761 78.8498C57.7395 78.857 57.7207 78.8734 57.708 78.8959Z" fill="white"/>
<path d="M72.8535 83.4927C72.833 83.4814 72.81 83.4793 72.7884 83.487C72.7668 83.4946 72.7481 83.5114 72.7357 83.5343L72.5198 83.9262C72.4017 83.8238 72.2726 83.7421 72.1362 83.6832C72.1155 83.6723 72.0925 83.6703 72.0708 83.6775C72.0491 83.6846 72.03 83.7005 72.0166 83.7226L71.6829 84.3357C71.6752 84.346 71.6695 84.3585 71.6665 84.3721C71.6635 84.3857 71.6633 84.4 71.6657 84.4137C71.6682 84.4275 71.6733 84.4403 71.6806 84.4511C71.688 84.4619 71.6973 84.4704 71.7079 84.4758C71.9934 84.6947 72.1594 84.813 72.2058 84.859C72.2141 84.8702 72.2245 84.8788 72.2361 84.8841C72.2477 84.8893 72.2601 84.891 72.2724 84.8891C72.2847 84.8872 72.2964 84.8816 72.3065 84.873C72.3167 84.8643 72.325 84.8527 72.3307 84.8392L72.5644 84.386C72.7643 84.5349 72.8856 84.6313 72.9213 84.6729C72.9296 84.6831 72.9397 84.6908 72.9509 84.6954C72.9621 84.6999 72.974 84.7012 72.9856 84.6991C72.9973 84.6969 73.0083 84.6915 73.0179 84.6831C73.0275 84.6748 73.0354 84.6637 73.0409 84.6509L73.3728 84.0094C73.3849 83.985 73.3894 83.9561 73.3855 83.9279C73.3816 83.8997 73.3694 83.8742 73.3514 83.8562C73.206 83.6969 73.037 83.5735 72.8535 83.4927Z" fill="white"/>
<path d="M83.5957 78.1692L83.7634 77.8955C83.7805 77.8728 83.7935 77.8458 83.8016 77.8164C83.8096 77.787 83.8124 77.7559 83.8099 77.725C83.8073 77.6942 83.7995 77.6644 83.7869 77.6375C83.7742 77.6107 83.7571 77.5874 83.7366 77.5693C83.5929 77.4177 83.4845 77.222 83.4226 77.0022C83.3548 76.7702 83.2887 76.7329 83.2245 76.8906L83.0461 77.3131C83.0218 77.3734 83.0092 77.4397 83.0092 77.5069C83.0092 77.5741 83.0218 77.6404 83.0461 77.7007C83.0621 77.7795 83.0817 77.9196 83.1103 78.1386C83.3137 80.0149 83.4047 81.1403 83.4475 81.5957C83.4711 81.7339 83.4493 81.8779 83.3869 81.9964C83.2319 82.188 83.0248 82.3027 82.8052 82.3183C75.7638 82.3664 73.6796 82.2898 73.5993 82.2548C73.5993 82.2548 73.4869 82.2 73.3085 82.1387C73.2211 82.1225 73.1375 82.0839 73.0631 82.0254C72.9887 81.967 72.9252 81.8899 72.8766 81.7994C72.8766 81.7994 72.8766 81.7425 72.8766 81.6483C72.8766 81.5542 72.8374 81.5104 72.7696 81.5104C72.7018 81.5104 72.6768 81.5541 72.6375 81.6395C72.5126 81.9198 72.1771 82.0774 71.6311 82.1344C68.8342 82.4628 66.0181 82.4628 63.2211 82.1344C62.8978 82.1019 62.5903 81.9491 62.3396 81.6965C62.0956 81.4592 61.881 81.1797 61.7026 80.8667C61.6844 80.831 61.6562 80.8047 61.6233 80.793C61.5903 80.7813 61.555 80.7849 61.5241 80.8032C61.2083 80.9455 60.9424 81.2805 60.7247 81.8125C60.648 82.0161 60.4124 82.1278 60.011 82.1431C59.9431 82.1431 59.8539 82.1431 59.7361 82.1562C59.5043 82.1716 59.272 82.1716 59.0402 82.1562C58.9046 82.1562 58.8136 82.1431 58.744 82.1431C58.6493 82.132 58.5579 82.0947 58.4766 82.034C58.3953 81.9734 58.3263 81.8909 58.2747 81.7928C58.2747 81.7928 58.2747 81.7359 58.2747 81.6417C58.2747 81.5476 58.2355 81.5038 58.1676 81.5038C58.0998 81.5038 58.0749 81.5476 58.0374 81.633C57.9107 81.9132 57.5752 82.0709 57.0292 82.1278C56.3 82.2008 55.4524 82.2365 54.4864 82.2351C53.5204 82.2336 52.6877 82.1979 51.9882 82.1278H51.9721C51.8863 82.1104 51.8042 82.0715 51.7312 82.0135C51.6581 81.9555 51.5956 81.8796 51.5474 81.7906C51.5474 81.7906 51.5474 81.7337 51.5474 81.6395C51.5474 81.5454 51.5082 81.5016 51.4422 81.5016C51.3761 81.5016 51.3476 81.5454 51.3101 81.6308C51.1834 81.911 50.8479 82.0687 50.3019 82.1256C47.5056 82.4541 44.6901 82.4541 41.8937 82.1256H41.8794C41.6415 82.1344 41.497 81.8738 41.4458 81.344L41.246 79.3187C41.2228 79.0078 41.1603 78.929 41.0533 79.0866L40.848 79.3975C40.7909 79.4851 40.7785 79.75 40.8141 80.1901C40.5069 80.3986 40.2267 80.6621 39.9826 80.9717C39.8961 81.107 39.8225 81.2539 39.7631 81.4096C39.6827 81.5845 39.6288 81.776 39.6043 81.9745C39.6002 82.046 39.6123 82.1174 39.6394 82.1808C39.6665 82.2443 39.7075 82.2972 39.7578 82.3336C39.9245 82.4541 40.1124 82.5239 40.3056 82.5372C40.4257 82.5597 40.5484 82.5446 40.6625 82.4934C40.8116 82.3448 40.9364 82.1628 41.0301 81.957C41.0461 82.2845 41.1309 82.6013 41.2763 82.8766C41.3548 82.9747 41.4502 83.0499 41.5555 83.0969C41.6608 83.1439 41.7733 83.1614 41.8848 83.1481C44.6869 83.481 47.5087 83.481 50.3108 83.1481C50.4889 83.1433 50.6643 83.0929 50.8256 83.0002C50.9869 82.9074 51.1307 82.7743 51.2477 82.6095C51.3295 82.7635 51.4392 82.8923 51.5683 82.9857C51.6974 83.0792 51.8423 83.1347 51.9918 83.1481C52.6972 83.2196 53.5347 83.2554 54.5042 83.2554C55.4738 83.2554 56.3261 83.2196 57.0613 83.1481C57.2371 83.1412 57.4099 83.09 57.5689 82.9977C57.7279 82.9055 57.8698 82.774 57.9856 82.6117C58.0675 82.7657 58.1772 82.8945 58.3063 82.9879C58.4353 83.0814 58.5803 83.1369 58.7297 83.1503C59.1606 83.1831 59.5926 83.1831 60.0234 83.1503H60.0324C60.2643 83.1262 60.4927 82.9313 60.7212 82.535C61.0535 83.0011 61.5222 83.2874 62.0256 83.332C62.0756 83.3314 62.1247 83.3146 62.1679 83.2835C62.2111 83.2524 62.2469 83.208 62.2718 83.1546C62.3054 83.049 62.3247 82.9373 62.3289 82.824C62.5933 83.0292 62.8977 83.1434 63.2104 83.1546C66.0125 83.4875 68.8343 83.4875 71.6365 83.1546C71.8145 83.1494 71.9897 83.0989 72.151 83.0062C72.3123 82.9134 72.4561 82.7806 72.5733 82.616C72.6549 82.7698 72.7644 82.8984 72.8931 82.9918C73.0219 83.0852 73.1664 83.141 73.3156 83.1546H82.8284C83.0302 83.1598 83.2298 83.1018 83.4083 82.9861C83.5311 82.9056 83.6377 82.7927 83.7206 82.6555C83.8818 82.3392 83.9398 81.96 83.8829 81.5936C83.7937 80.6981 83.7099 79.5508 83.5957 78.1692ZM40.1521 81.4534C40.12 81.4315 40.1164 81.4031 40.1361 81.3659C40.3197 81.0942 40.5701 80.9029 40.8498 80.8207C40.8784 81.0834 40.9034 81.3024 40.9212 81.4775C40.669 81.572 40.3983 81.5605 40.1521 81.4447V81.4534ZM61.7543 82.2088C61.538 82.1309 61.3366 82.0006 61.1619 81.8256C61.1565 81.8195 61.1522 81.812 61.1492 81.8038C61.1463 81.7955 61.1448 81.7865 61.1448 81.7775C61.1448 81.7684 61.1463 81.7595 61.1492 81.7512C61.1522 81.7429 61.1565 81.7355 61.1619 81.7293C61.2362 81.6152 61.3412 81.5376 61.4581 81.5104C61.4831 81.5104 61.4992 81.5104 61.5045 81.5279C61.5858 81.7492 61.6863 81.9592 61.8043 82.1541C61.834 82.2125 61.8174 82.2307 61.7543 82.2088Z" fill="white"/>
<path d="M85.0864 77.3286C85.0578 76.9652 84.9972 76.9082 84.908 77.16L84.6225 77.9154C84.58 78.0235 84.5651 78.1448 84.5796 78.2635L84.7277 79.6735C84.8539 80.6487 84.9343 81.6319 84.9686 82.6184C84.9686 82.8724 84.9847 83.0081 85.0275 83.0278C85.0703 83.0475 85.1132 83.0059 85.1578 82.9008C85.3612 82.4264 85.3939 81.2587 85.2559 79.3977L85.0864 77.3286Z" fill="white"/>
<path d="M102.454 80.6986L102.259 81.2219C102.238 81.279 102.232 81.3432 102.244 81.4045C102.255 81.4658 102.282 81.5209 102.322 81.5613C102.405 81.6669 102.462 81.7988 102.488 81.9422C102.321 82.0964 102.112 82.1654 101.904 82.1349C99.2531 82.4458 96.5847 82.4627 93.9313 82.1853C93.7611 82.1663 93.5963 82.1018 93.4486 81.9962C93.301 81.8907 93.1739 81.7467 93.0765 81.5744C92.8695 81.2088 92.6572 80.2344 92.5912 77.6903C92.5573 77.294 92.4895 77.2524 92.3895 77.5611L92.1879 78.1522C92.1454 78.3003 92.1307 78.4582 92.1451 78.6142L92.502 83.7179C92.5177 83.93 92.4821 84.1431 92.3996 84.3304C92.317 84.5178 92.1912 84.671 92.038 84.771C91.7646 84.9447 91.464 85.044 91.1565 85.0622C90.4766 85.1126 90.0698 84.9068 89.9306 84.447C89.8116 84.0354 89.9258 83.5135 90.2732 82.8815C90.2948 82.8512 90.3067 82.8123 90.3067 82.772C90.3067 82.7318 90.2948 82.6929 90.2732 82.6626C90.2268 82.6013 90.1751 82.6232 90.118 82.7304C89.7754 83.3873 89.5826 83.9215 89.5487 84.3375C89.497 84.9374 89.5933 85.4016 89.8342 85.7322C89.9687 85.9054 90.1336 86.0388 90.3163 86.1222C90.499 86.2057 90.6948 86.237 90.8888 86.2139C91.4282 86.1873 91.9429 85.9292 92.3431 85.4848C92.9106 84.7776 93.0694 83.65 92.7625 82.5991C92.8419 82.7452 92.9445 82.8703 93.064 82.9669C93.2211 83.091 93.4021 83.162 93.5887 83.1727C96.3565 83.4978 99.1434 83.4978 101.911 83.1727C102.384 83.1727 102.679 82.864 102.803 82.2488C102.867 81.9762 102.885 81.691 102.858 81.4096C102.831 81.1282 102.759 80.8561 102.646 80.6088C102.584 80.4797 102.523 80.5103 102.454 80.6986Z" fill="white"/>
<path d="M103.165 78.9953C103.094 78.9985 103.023 79.011 102.953 79.0325C102.886 79.0562 102.816 79.0709 102.746 79.0763C102.515 79.0851 102.288 78.991 102.109 78.8114C102.101 78.8025 102.094 78.7916 102.089 78.7793C102.085 78.767 102.083 78.7537 102.083 78.7402C102.083 78.7267 102.085 78.7134 102.089 78.7011C102.094 78.6888 102.101 78.6779 102.109 78.669C102.13 78.6431 102.156 78.6239 102.184 78.6132C102.212 78.6025 102.242 78.6006 102.271 78.6077C102.308 78.6126 102.343 78.6276 102.374 78.6515C102.404 78.6754 102.431 78.7076 102.45 78.7457C102.457 78.7662 102.467 78.7844 102.481 78.7985C102.495 78.8126 102.512 78.8223 102.529 78.8267C102.547 78.831 102.565 78.8299 102.583 78.8234C102.6 78.8169 102.616 78.8052 102.628 78.7895C102.67 78.7442 102.707 78.6918 102.737 78.634C102.799 78.5006 102.833 78.3499 102.835 78.1961C102.844 78.1544 102.844 78.1107 102.836 78.0689C102.828 78.027 102.811 77.9882 102.788 77.9556C102.766 77.923 102.737 77.8976 102.704 77.8816C102.672 77.8655 102.636 77.8593 102.601 77.8633C102.364 77.8414 102.145 77.9998 101.947 78.3384C101.748 78.6771 101.665 78.969 101.699 79.2142C101.717 79.2887 101.748 79.3578 101.789 79.4173C101.83 79.4768 101.881 79.5254 101.938 79.5602C101.731 79.7331 101.661 79.8842 101.725 80.0112C101.747 80.0475 101.778 80.073 101.813 80.0831C101.849 80.0932 101.886 80.0871 101.918 80.0659C102.106 79.9586 102.299 79.8628 102.494 79.7791C102.667 79.7172 102.842 79.6667 103.019 79.628C103.11 79.6018 103.197 79.466 103.299 79.2208C103.307 79.1959 103.31 79.169 103.308 79.1423C103.306 79.1157 103.299 79.09 103.287 79.0675C103.273 79.0443 103.254 79.0256 103.233 79.013C103.212 79.0004 103.189 78.9943 103.165 78.9953Z" fill="white"/>
<path d="M109.496 83.9028C109.475 83.8917 109.452 83.8896 109.431 83.8967C109.41 83.9039 109.391 83.92 109.378 83.9422L109.044 84.5553C109.036 84.5653 109.03 84.5776 109.026 84.5912C109.023 84.6048 109.023 84.6192 109.025 84.6331C109.027 84.647 109.032 84.66 109.04 84.6709C109.047 84.6817 109.057 84.6902 109.067 84.6954C109.353 84.9144 109.519 85.0348 109.565 85.0786C109.574 85.0895 109.584 85.0978 109.595 85.103C109.607 85.1081 109.619 85.1099 109.631 85.1082C109.643 85.1065 109.655 85.1013 109.665 85.0932C109.675 85.085 109.684 85.074 109.69 85.0611L110.02 84.4196C110.033 84.3954 110.037 84.3666 110.034 84.3384C110.03 84.3103 110.018 84.2846 110.001 84.2663C109.853 84.1068 109.681 83.9834 109.496 83.9028Z" fill="white"/>
<path d="M114.274 77.3424L114.058 77.7343C113.939 77.6323 113.81 77.5505 113.674 77.4912C113.653 77.4803 113.63 77.4785 113.609 77.4861C113.588 77.4937 113.569 77.5102 113.556 77.5328L113.223 78.1459C113.215 78.1561 113.209 78.1685 113.206 78.1819C113.203 78.1954 113.202 78.2096 113.205 78.2233C113.207 78.2371 113.212 78.2499 113.219 78.2608C113.226 78.2717 113.235 78.2804 113.246 78.286C113.531 78.494 113.697 78.6232 113.744 78.667C113.752 78.6779 113.762 78.6862 113.774 78.6914C113.785 78.6965 113.797 78.6983 113.81 78.6966C113.822 78.6949 113.833 78.6898 113.844 78.6816C113.854 78.6734 113.862 78.6624 113.868 78.6495L114.102 78.1941C114.302 78.343 114.423 78.4393 114.468 78.4809C114.513 78.5225 114.55 78.5159 114.588 78.459L114.918 77.8175C114.93 77.7932 114.935 77.7641 114.931 77.7358C114.927 77.7075 114.915 77.682 114.896 77.6642C114.748 77.5047 114.577 77.3813 114.391 77.3008C114.371 77.2899 114.348 77.288 114.326 77.2956C114.305 77.3032 114.286 77.3197 114.274 77.3424Z" fill="white"/>
<path d="M125.747 77.5698C125.603 77.4192 125.494 77.2232 125.433 77.0027C125.365 76.7707 125.299 76.7334 125.235 76.8911L125.057 77.3136C125.033 77.3742 125.021 77.4404 125.021 77.5074C125.021 77.5744 125.033 77.6406 125.057 77.7012C125.072 77.78 125.094 77.926 125.121 78.1391C125.299 79.768 125.418 80.8628 125.478 81.4233C125.487 81.5058 125.483 81.5898 125.466 81.6704C125.449 81.751 125.419 81.8267 125.377 81.893C125.336 81.9593 125.285 82.015 125.226 82.0569C125.167 82.0988 125.103 82.126 125.035 82.1371C118.71 82.1371 115.812 82.1371 115.631 82.1568C115.534 82.1585 115.436 82.1541 115.339 82.1436C115.132 82.1219 114.929 82.0682 114.734 81.9838C114.8 81.8465 114.859 81.7046 114.912 81.559C115.061 81.1575 115.106 80.7097 115.041 80.276C115.031 80.1673 115.003 80.0622 114.959 79.9675C114.914 79.8729 114.854 79.7908 114.782 79.7264C114.744 79.7044 114.703 79.6932 114.661 79.6936C114.505 79.7107 114.357 79.7872 114.238 79.9125C113.873 80.2356 113.591 80.6801 113.426 81.1934C113.348 81.4356 113.315 81.6957 113.329 81.9553C113.12 82.0484 112.902 82.1109 112.68 82.1414C112.506 82.1618 112.331 82.1669 112.157 82.1568C111.461 82.1568 111.495 82.1808 110.921 82.1568C110.655 82.1568 110.476 82.1436 110.366 82.1436H110.349C110.262 82.1274 110.179 82.0888 110.104 82.0303C110.03 81.9718 109.966 81.8948 109.918 81.8043C109.918 81.8043 109.918 81.7473 109.918 81.6532C109.918 81.559 109.88 81.5152 109.812 81.5152C109.745 81.5152 109.72 81.559 109.68 81.6444C109.555 81.9247 109.218 82.0823 108.672 82.1392C107.846 82.2193 107.016 82.2193 106.19 82.1392C105.137 81.9933 104.472 81.5145 104.195 80.703C104.049 80.2782 103.973 79.2929 103.967 77.7472C103.967 77.4472 103.995 77.2808 104.056 77.2501C104.143 77.2114 104.234 77.1879 104.327 77.1801C104.448 77.1626 104.516 77.0925 104.529 76.9611L104.586 76.3962C104.604 76.2101 104.543 76.1248 104.407 76.1357C104.226 76.1373 104.052 76.2261 103.924 76.3831C103.808 76.5451 103.736 76.7469 103.717 76.9611C103.662 77.8529 103.653 78.7479 103.69 79.6411C103.69 79.86 103.715 80.1512 103.751 80.5322C103.821 81.2722 103.973 81.821 104.206 82.1787C104.657 82.8632 105.648 83.2084 107.179 83.2143C107.687 83.2327 108.196 83.2136 108.702 83.1573C108.876 83.1486 109.047 83.0965 109.204 83.0043C109.361 82.9121 109.501 82.7816 109.616 82.6209C109.698 82.775 109.808 82.9038 109.937 82.9972C110.066 83.0906 110.211 83.1462 110.36 83.1595C110.926 83.1968 111.452 83.1595 112.004 83.1749C112.243 83.1758 112.481 83.1531 112.717 83.107C113.156 83.0326 113.594 83.0873 114.034 82.9165C114.484 83.0544 114.927 83.0172 115.383 83.1114C115.574 83.1471 115.767 83.1632 115.96 83.1595H125.06C125.38 82.6905 125.647 82.1705 125.853 81.6138C126.031 81.0861 126.311 79.8928 125.815 77.907C125.832 77.8808 125.844 77.8501 125.85 77.8173C125.856 77.7845 125.855 77.7505 125.849 77.7179C125.842 77.6853 125.83 77.655 125.812 77.6293C125.795 77.6036 125.772 77.5833 125.747 77.5698ZM113.717 81.2175C113.782 81.0949 113.871 80.9949 113.977 80.9274C114.083 80.8599 114.201 80.8271 114.32 80.8321C114.498 80.8321 114.586 81.027 114.586 81.3904C114.198 81.7495 113.909 81.6904 113.717 81.2175Z" fill="white"/>
<path d="M127.099 77.3286C127.072 76.9652 127.012 76.9082 126.921 77.16L126.635 77.9154C126.593 78.0237 126.577 78.1446 126.59 78.2635L126.739 79.6735C126.866 80.6486 126.947 81.6318 126.981 82.6184C126.981 82.8724 126.995 83.0081 127.038 83.0278C127.081 83.0475 127.126 83.0059 127.17 82.9008C127.373 82.4264 127.405 81.2587 127.268 79.3977L127.099 77.3286Z" fill="white"/>
<path d="M132.727 80.0142L132.959 79.561C133.159 79.7099 133.28 79.804 133.316 79.8456C133.324 79.8563 133.334 79.8645 133.345 79.8693C133.356 79.8742 133.368 79.8756 133.38 79.8734C133.392 79.8712 133.403 79.8656 133.413 79.8569C133.422 79.8483 133.43 79.8369 133.435 79.8237L133.765 79.1822C133.778 79.1584 133.782 79.1299 133.779 79.1021C133.775 79.0743 133.763 79.0491 133.746 79.0311C133.597 78.8709 133.425 78.7468 133.239 78.6655C133.218 78.655 133.196 78.6534 133.174 78.6609C133.153 78.6685 133.134 78.6848 133.121 78.7071L132.905 79.1012C132.788 78.9975 132.659 78.9156 132.522 78.8582C132.501 78.8466 132.478 78.8442 132.457 78.8514C132.435 78.8586 132.417 78.875 132.404 78.8976L132.07 79.5106C132.062 79.5208 132.057 79.5332 132.054 79.5466C132.05 79.5601 132.05 79.5743 132.052 79.588C132.054 79.6018 132.059 79.6146 132.067 79.6255C132.074 79.6364 132.083 79.6451 132.093 79.6507C132.379 79.8697 132.545 79.9879 132.593 80.0339C132.601 80.0471 132.612 80.0574 132.625 80.0638C132.637 80.0703 132.651 80.0726 132.664 80.0706C132.678 80.0686 132.691 80.0624 132.702 80.0525C132.713 80.0426 132.721 80.0294 132.727 80.0142Z" fill="white"/>
<path d="M135.242 79.8645L135.035 80.6133C135.023 80.6465 135.02 80.6835 135.026 80.7191C135.031 80.7547 135.046 80.7873 135.067 80.8125C135.217 80.9578 135.324 81.1592 135.372 81.3862C134.659 81.8824 133.751 82.1291 132.649 82.1262C131.356 82.1262 130.665 81.8014 130.576 81.1519C130.571 81.0381 130.587 80.9244 130.624 80.8196C130.66 80.7148 130.716 80.6217 130.786 80.5476C130.847 80.4688 130.854 80.3987 130.81 80.344C130.765 80.2892 130.706 80.3024 130.64 80.3899C130.487 80.5906 130.366 80.8245 130.283 81.0796C130.131 81.616 130.167 82.0561 130.396 82.3933C130.792 82.9976 131.535 83.264 132.626 83.1925C133.598 83.1608 134.546 82.8214 135.379 82.2072C135.464 82.13 135.534 82.0315 135.586 81.9182C135.637 81.8049 135.667 81.6795 135.676 81.5504C135.776 80.989 135.698 80.4017 135.458 79.9083C135.354 79.7265 135.285 79.7112 135.242 79.8645Z" fill="white"/>
<path d="M137.179 79.3977L137.013 77.3286C136.987 76.9652 136.926 76.9082 136.835 77.16L136.55 77.9154C136.507 78.0233 136.491 78.1446 136.505 78.2635L136.653 79.6735C136.779 80.6487 136.86 81.6319 136.896 82.6184C136.896 82.8724 136.91 83.0081 136.953 83.0278C136.996 83.0475 137.04 83.0059 137.085 82.9008C137.285 82.4264 137.316 81.2587 137.179 79.3977Z" fill="white"/>
<path d="M157.135 80.4807C156.675 80.4304 156.305 80.8442 155.777 81.4222C155.584 81.6431 155.4 81.877 155.228 82.1228C154.943 82.0432 154.691 81.8441 154.514 81.5601C154.495 81.5082 154.464 81.4634 154.426 81.4304C154.389 81.3973 154.344 81.3771 154.298 81.3718C154.254 81.3742 154.212 81.392 154.176 81.4231C154.14 81.4541 154.113 81.4971 154.096 81.547C154.037 81.6912 153.953 81.818 153.85 81.9186C153.748 82.0191 153.628 82.0911 153.5 82.1294H139.973C139.961 81.806 139.884 81.4913 139.748 81.2142C139.718 81.1588 139.679 81.1117 139.634 81.0759C139.589 81.0401 139.538 81.0163 139.484 81.0062C139.431 80.9961 139.377 80.9998 139.324 81.0172C139.272 81.0345 139.224 81.0651 139.182 81.1069C138.969 81.2675 138.811 81.6258 138.709 82.1819C138.647 82.5344 138.709 82.7797 138.888 82.9176C139.119 83.0501 139.371 83.1153 139.626 83.1081C139.473 83.5825 139.14 84.0123 138.629 84.3977C138.117 84.7808 137.653 84.8859 137.241 84.7086C137.151 84.667 137.096 84.6735 137.062 84.7305C137.028 84.7874 137.062 84.8443 137.128 84.9122C137.515 85.3085 137.824 85.5077 138.058 85.5077C138.253 85.5013 138.445 85.4446 138.622 85.3413C139.319 84.9589 139.75 84.2291 139.915 83.1519C144.398 83.0621 148.882 83.2329 153.365 83.1519C153.494 83.1491 153.62 83.0985 153.726 83.0067C153.831 82.9149 153.912 82.7862 153.957 82.6373C153.964 82.6122 153.977 82.5898 153.993 82.5724C154.01 82.555 154.03 82.543 154.051 82.5377C154.073 82.5325 154.095 82.534 154.115 82.5423C154.136 82.5505 154.155 82.5651 154.169 82.5848C154.314 82.7856 154.498 82.9366 154.705 83.0227C154.646 83.1998 154.599 83.383 154.566 83.5701C154.558 83.5953 154.555 83.6222 154.556 83.6489C154.558 83.6757 154.563 83.7019 154.573 83.7259C154.583 83.75 154.596 83.7715 154.613 83.7891C154.629 83.8067 154.648 83.82 154.669 83.8284C154.758 83.8656 154.814 83.8153 154.847 83.6817C154.877 83.5001 154.925 83.3236 154.99 83.1562C155.246 83.2329 155.508 83.2748 155.772 83.281C156.35 83.2995 156.917 83.0917 157.392 82.6877C157.508 82.5424 157.603 82.3735 157.672 82.1885C157.785 81.9483 157.866 81.6874 157.911 81.4156C157.931 81.3193 157.931 81.2185 157.911 81.1222C157.82 80.7719 157.449 80.5223 157.135 80.4807ZM139.537 82.2323C139.293 82.2323 139.134 82.1863 139.062 82.0725C139.047 82.0517 139.038 82.0243 139.038 81.9958C139.038 81.9673 139.047 81.9399 139.062 81.9192C139.085 81.8885 139.113 81.8638 139.143 81.8469C139.174 81.8299 139.207 81.821 139.241 81.8207C139.373 81.8207 139.484 81.9301 139.571 82.1666C139.576 82.217 139.566 82.2323 139.537 82.2323ZM156.593 82.1622C156.25 82.2067 155.906 82.2264 155.561 82.2213C155.973 81.8294 156.307 81.6236 156.559 81.6039C156.879 81.5753 157.197 81.6931 157.451 81.9345C157.337 82.0418 157.048 82.1163 156.593 82.1688V82.1622Z" fill="white"/>
<path d="M159.829 75.5639C159.757 75.5647 159.686 75.5772 159.617 75.6011C159.549 75.6232 159.48 75.6372 159.41 75.6427C159.178 75.653 158.951 75.5587 158.773 75.3778C158.764 75.3689 158.758 75.358 158.753 75.3457C158.748 75.3335 158.746 75.3201 158.746 75.3066C158.746 75.2931 158.748 75.2798 158.753 75.2675C158.758 75.2552 158.764 75.2443 158.773 75.2355C158.793 75.2098 158.819 75.1908 158.847 75.1801C158.875 75.1694 158.904 75.1674 158.933 75.1742C158.97 75.1796 159.005 75.195 159.035 75.2193C159.066 75.2435 159.092 75.276 159.112 75.3143C159.119 75.3347 159.13 75.3526 159.143 75.3665C159.157 75.3804 159.174 75.3898 159.192 75.394C159.209 75.3981 159.228 75.3968 159.245 75.3901C159.262 75.3835 159.278 75.3717 159.29 75.3559C159.332 75.3109 159.368 75.2585 159.397 75.2004C159.46 75.0673 159.495 74.9166 159.497 74.7625C159.505 74.7208 159.505 74.6774 159.497 74.6358C159.488 74.5941 159.472 74.5555 159.449 74.5231C159.426 74.4906 159.398 74.4652 159.365 74.449C159.333 74.4328 159.298 74.4262 159.263 74.4297C159.028 74.4078 158.808 74.5655 158.607 74.907C158.405 75.2486 158.323 75.5398 158.36 75.7828C158.379 75.8573 158.409 75.9264 158.45 75.9858C158.491 76.0453 158.541 76.094 158.598 76.1288C158.392 76.3039 158.321 76.455 158.387 76.5798C158.408 76.6163 158.439 76.6421 158.474 76.6522C158.509 76.6623 158.546 76.656 158.578 76.6345C158.86 76.4813 159.051 76.3871 159.154 76.3477C159.328 76.2858 159.503 76.2354 159.681 76.1966C159.77 76.1704 159.859 76.0368 159.961 75.7894C159.969 75.7646 159.971 75.738 159.969 75.7117C159.966 75.6855 159.959 75.6603 159.947 75.6383C159.934 75.6144 159.917 75.595 159.896 75.582C159.875 75.5689 159.852 75.5627 159.829 75.5639Z" fill="white"/>
<path d="M159.29 77.3286C159.263 76.9652 159.201 76.9082 159.112 77.16L158.824 77.9154C158.782 78.0237 158.767 78.1446 158.78 78.2635L158.93 79.6735C159.055 80.6489 159.136 81.632 159.172 82.6184C159.172 82.8724 159.187 83.0081 159.23 83.0278C159.272 83.0475 159.315 83.0059 159.362 82.9008C159.563 82.4264 159.595 81.2587 159.458 79.3977L159.29 77.3286Z" fill="white"/>
</svg>
