<svg width="160" height="87" viewBox="0 0 160 87" fill="none" xmlns="http://www.w3.org/2000/svg">
<g clip-path="url(#clip0_1312_7913)">
<mask id="mask0_1312_7913" style="mask-type:luminance" maskUnits="userSpaceOnUse" x="0" y="0" width="160" height="87">
<path d="M160 0H0V87H160V0Z" fill="white"/>
</mask>
<g mask="url(#mask0_1312_7913)">
<path d="M0.405169 78.2588C2.01115 77.0436 6.65065 73.2361 9.52892 67.8457C11.7898 63.6046 13.0389 58.3827 13.0389 58.3827L13.0549 58.3127C13.0692 58.2558 14.4967 52.4909 14.6895 44.0811C14.757 42.1271 14.7189 40.1698 14.5753 38.2221C14.486 36.8843 14.3522 35.5947 14.1577 34.1365C14.053 33.3507 14.0781 32.5472 14.2313 31.7735C14.3846 30.9999 14.663 30.2719 15.0499 29.6328H14.8804C9.68416 29.6328 5.38549 34.0796 3.96687 40.2123C3.96167 40.2346 3.9575 40.2573 3.95438 40.2802C3.24749 44.5891 3.00749 48.9937 3.24061 53.3798C3.43869 58.7615 2.95154 66.6699 0.0946796 77.9523C0.0796847 78.0029 0.0779775 78.0581 0.0897976 78.11C0.101618 78.1619 0.126372 78.208 0.160596 78.2417C0.19482 78.2755 0.236799 78.2953 0.280654 78.2984C0.32451 78.3015 0.368047 78.2876 0.405169 78.2588Z" fill="#0C356A"/>
<path d="M30.2399 29.6328H18.9623C18.7449 29.6324 18.5282 29.6625 18.3164 29.7226C18.2932 29.7226 18.2736 29.7423 18.2521 29.7489C17.5522 29.9645 16.9436 30.4943 16.5465 31.2337C16.1494 31.973 15.9927 32.8682 16.1073 33.7425C16.2857 35.0562 16.4392 36.4618 16.5462 38.0207C16.6938 40.0589 16.7337 42.1067 16.6658 44.1512C16.4641 53.0405 14.9385 59.0222 14.9385 59.0222C14.1304 62.6335 12.8582 66.0637 11.1698 69.1835C10.9396 69.6039 10.7058 70.0089 10.4703 70.4052L10.2544 70.7577C10.0819 71.038 9.90818 71.3131 9.73331 71.5832C9.6548 71.6992 9.57806 71.8196 9.50133 71.9335C9.30386 72.2254 9.10519 72.5122 8.90534 72.7939L8.7608 72.9976C8.51098 73.3413 8.26116 73.6719 8.00777 73.9916C7.9471 74.0704 7.88465 74.1427 7.82933 74.2105C7.63483 74.4536 7.44211 74.69 7.24583 74.9177C7.16553 75.0141 7.08523 75.1082 7.00314 75.2002C6.81638 75.4177 6.62782 75.6293 6.43748 75.8351L6.23584 76.0541C5.98246 76.3256 5.72907 76.5883 5.47925 76.8379L5.38468 76.9299C5.16341 77.1488 4.94392 77.3678 4.72622 77.5648L4.49782 77.7838C4.31938 77.9502 4.14093 78.11 3.96249 78.2633C3.88933 78.3267 3.81795 78.3924 3.74479 78.4537C3.53066 78.6377 3.31832 78.815 3.10954 78.9858L3.03102 79.0493C2.7931 79.2405 2.56113 79.4222 2.3351 79.5945L2.15666 79.7302C1.98892 79.855 1.82297 79.9776 1.66059 80.0936L1.46252 80.236L1.30549 80.3476C1.27206 80.3705 1.24702 80.4081 1.23549 80.4529C1.22396 80.4976 1.22681 80.5461 1.24346 80.5884C1.26011 80.6306 1.2893 80.6635 1.32505 80.6802C1.3608 80.6969 1.4004 80.6962 1.43575 80.6782C2.4261 80.2075 3.6288 79.6054 4.94214 78.8938C6.05205 78.2917 7.24047 77.6064 8.45566 76.8488C9.5049 76.192 10.572 75.4892 11.623 74.7272C14.3751 72.7934 16.9587 70.5191 19.3335 67.9399C19.3335 67.9399 19.4388 67.8195 19.5369 67.7209C24.2065 62.8282 27.8568 56.6385 30.1846 49.6665C31.0492 47.0863 31.7321 44.42 32.2259 41.6968C32.7211 38.9498 33.0255 36.1563 33.136 33.3462C33.1546 32.866 33.0935 32.3861 32.9562 31.9358C32.8189 31.4855 32.6084 31.0741 32.3375 30.7268C32.0666 30.3794 31.741 30.1033 31.3803 29.9153C31.0197 29.7272 30.6317 29.6311 30.2399 29.6328Z" fill="#0C356A"/>
<path d="M48.3335 19.3718C48.2758 19.3474 48.2158 19.332 48.155 19.3259C44.3114 18.7935 40.5358 17.6831 36.9132 16.0197C36.6356 15.892 36.3949 15.6666 36.2213 15.3718C36.0476 15.0769 35.9488 14.7258 35.9371 14.3623C35.9371 10.638 34.7319 7.06603 32.5864 4.43149C30.441 1.79694 27.5307 0.315402 24.4954 0.3125H3.24113C3.06574 0.316383 2.89517 0.38362 2.75076 0.505803C2.60634 0.627986 2.49448 0.799698 2.42916 0.999467C2.36385 1.19923 2.34798 1.41819 2.38354 1.62896C2.41909 1.83973 2.5045 2.03297 2.62908 2.18451H0.867852C0.668692 2.19118 0.477084 2.27945 0.32356 2.43526C0.170035 2.59107 0.0634294 2.80544 0.0207312 3.04422C-0.021967 3.283 0.00169841 3.53245 0.0879574 3.75281C0.174217 3.97317 0.318105 4.15176 0.496694 4.26013C2.25521 5.25284 3.94887 6.41011 5.56267 7.72169C9.14935 10.6336 14.8167 15.0454 16.1086 22.2707C16.246 23.0315 16.3325 23.8047 16.3673 24.5828C16.4216 25.3775 16.7142 26.1193 17.1886 26.6645C17.6629 27.2097 18.2853 27.5196 18.9351 27.5342H31.2155C31.3353 27.5329 31.4548 27.5182 31.5724 27.4904C32.0152 27.3871 32.4148 27.0979 32.7027 26.6724C32.9905 26.2468 33.1486 25.7116 33.1498 25.1586V23.1399C33.1497 22.8537 33.2004 22.5708 33.2984 22.3111C33.3964 22.0513 33.5393 21.8209 33.7173 21.6357C34.2794 21.0731 35.0003 21.2767 35.0877 21.303C38.0885 21.8535 41.1234 22.0733 44.1561 21.9598C45.4695 21.9051 46.8114 21.7803 48.1443 21.5898C48.3483 21.5686 48.5406 21.4637 48.6901 21.2922C48.8397 21.1206 48.9378 20.8922 48.9687 20.6439C48.9977 20.3747 48.9505 20.1013 48.8348 19.8697C48.7192 19.6382 48.5422 19.4624 48.3335 19.3718ZM30.6552 14.8418C30.4211 14.8422 30.1922 14.7575 29.9974 14.5982C29.8027 14.439 29.6507 14.2124 29.5609 13.9472C29.4711 13.682 29.4474 13.3901 29.4929 13.1083C29.5383 12.8266 29.6508 12.5677 29.8162 12.3645C29.9816 12.1613 30.1924 12.0228 30.422 11.9666C30.6515 11.9104 30.8895 11.939 31.1057 12.0489C31.322 12.1587 31.5069 12.3447 31.637 12.5835C31.7671 12.8222 31.8365 13.103 31.8365 13.3902C31.836 13.7746 31.7115 14.1432 31.4901 14.4152C31.2687 14.6873 30.9685 14.8407 30.6552 14.8418Z" fill="#0C356A"/>
<path d="M17.536 74.0343C14.1456 76.5238 9.0653 79.7686 1.75988 82.9455C1.71137 82.9654 1.66871 83.0024 1.63723 83.0519C1.60574 83.1013 1.58682 83.1611 1.58283 83.2236C1.57883 83.2862 1.58994 83.3489 1.61476 83.4037C1.63958 83.4586 1.67702 83.5033 1.72241 83.5323C4.30046 85.1642 7.14206 86.0721 10.0414 86.1903C14.3882 86.3414 21.5206 84.7146 23.4888 79.0001C24.3435 76.5172 24.3043 73.0272 22.9856 71.9937C21.5848 70.8793 19.1419 72.852 17.536 74.0343Z" fill="#0C356A"/>
<path d="M43.5229 53.5262H46.5599V48.8735L51.1316 41.3242H47.6163L45.0414 45.9046L42.4825 41.3242H38.9512L43.5229 48.8735V53.5262Z" fill="#0C356A"/>
<path d="M50.0996 48.8091C50.0975 49.4927 50.2124 50.1693 50.4369 50.795C50.6667 51.4244 51.0103 51.9815 51.4415 52.4239C51.9309 52.9162 52.4932 53.2879 53.0975 53.5187C53.8395 53.7979 54.6126 53.9324 55.3887 53.9172C55.9983 53.9235 56.6062 53.836 57.1981 53.6566C57.6989 53.5022 58.1795 53.2619 58.6256 52.9428C59.0248 52.6551 59.3804 52.2847 59.6766 51.8481C59.9585 51.4297 60.1855 50.9599 60.3494 50.4556L60.4332 50.1929H57.7031L57.6585 50.2914C57.4794 50.6708 57.195 50.9584 56.8572 51.1015C56.3846 51.3011 55.8865 51.3938 55.3869 51.3752C55.0636 51.3774 54.7415 51.3281 54.4286 51.2285C54.1478 51.1419 53.8802 50.9999 53.6364 50.8081C53.4155 50.6306 53.2272 50.3987 53.0832 50.1272C52.9662 49.9046 52.8856 49.6562 52.8459 49.3959H60.3619V49.2032C60.3579 48.5616 60.2743 47.9244 60.1138 47.3137C59.9411 46.6535 59.6558 46.046 59.2769 45.5315C58.8467 44.96 58.3215 44.5083 57.737 44.2068C56.9911 43.8402 56.1918 43.6658 55.3887 43.6945C54.5656 43.6711 53.7466 43.8421 52.9761 44.1981C52.3656 44.4893 51.8064 44.9219 51.3291 45.4724C50.9263 45.944 50.6074 46.5128 50.3923 47.1429C50.2097 47.6706 50.1104 48.236 50.0996 48.8091ZM53.8755 46.6087C54.3506 46.3461 54.8677 46.2175 55.3887 46.2321C55.7727 46.2126 56.1561 46.287 56.5164 46.4511C56.7683 46.577 57.0025 46.7506 57.2106 46.9656C57.333 47.1016 57.4409 47.2561 57.5318 47.4254H53.0939C53.2861 47.0678 53.5572 46.7846 53.8755 46.6087Z" fill="#0C356A"/>
<path d="M64.9458 48.4082C64.9458 47.6769 65.1367 47.1471 65.5293 46.788C65.9219 46.4289 66.5999 46.2363 67.5136 46.2363C67.8152 46.2269 68.1162 46.2749 68.4058 46.3786C68.6057 46.4529 68.7869 46.5885 68.9322 46.7727C69.0666 46.9586 69.1578 47.1855 69.1963 47.4295C69.2526 47.754 69.2795 48.0852 69.2766 48.417V53.5294H72.162V48.4082C72.162 47.6769 72.3529 47.1471 72.7455 46.788C73.1381 46.4289 73.8162 46.2363 74.7298 46.2363C75.0314 46.2269 75.3324 46.2749 75.622 46.3786C75.8219 46.4529 76.0031 46.5885 76.1484 46.7727C76.2827 46.959 76.3744 47.1856 76.4143 47.4295C76.4703 47.7541 76.4966 48.0853 76.4928 48.417V53.5294H79.38V48.2221C79.3859 47.5856 79.3259 46.9507 79.2015 46.3326C79.0936 45.7929 78.8777 45.2948 78.5734 44.8832C78.2426 44.4628 77.829 44.1543 77.3725 43.9877C76.7744 43.7756 76.1533 43.6782 75.531 43.6987C74.7508 43.671 73.9727 43.8125 73.2326 44.1168C72.6955 44.3624 72.2199 44.776 71.8533 45.3167C71.7109 45.0303 71.5227 44.7823 71.3001 44.5876C71.0188 44.3455 70.7105 44.1545 70.3847 44.0205C70.0477 43.885 69.6993 43.7968 69.3462 43.7578C68.9893 43.7206 68.6324 43.6987 68.3059 43.6987C67.5697 43.6731 66.837 43.831 66.1521 44.1628C65.7003 44.4024 65.2893 44.744 64.9404 45.17V44.0884H62.0586V53.5294H64.9458V48.4082Z" fill="#0C356A"/>
<path d="M90.5435 51.842C90.8254 51.4236 91.0523 50.9539 91.2162 50.4496L91.3001 50.1869H88.5681L88.5235 50.2854C88.3448 50.6643 88.0611 50.9518 87.7241 51.0955C87.2515 51.2948 86.7533 51.3875 86.2537 51.3692C85.9305 51.3717 85.6083 51.3224 85.2955 51.2225C85.0141 51.1357 84.746 50.9937 84.5015 50.8021C84.2814 50.6234 84.0932 50.3918 83.9483 50.1212C83.832 49.8982 83.7514 49.65 83.7109 49.3899H91.2323V49.1972C91.2283 48.5556 91.1447 47.9184 90.9843 47.3077C90.8111 46.6473 90.5252 46.0397 90.1456 45.5255C89.716 44.953 89.1907 44.5012 88.6056 44.2009C87.8584 43.8354 87.0577 43.6633 86.2537 43.6952C85.4307 43.6718 84.6117 43.8427 83.8412 44.1987C83.2304 44.4893 82.6712 44.922 82.1942 45.473C81.7907 45.943 81.4716 46.5113 81.2574 47.1413C81.0733 47.6724 80.9734 48.2416 80.9629 48.8185C80.9602 49.5024 81.0757 50.1793 81.302 50.8044C81.5316 51.4334 81.8745 51.9903 82.3048 52.4333C82.7942 52.9256 83.3565 53.2973 83.9608 53.528C84.7034 53.8071 85.4771 53.9414 86.2537 53.9264C86.8628 53.9329 87.4701 53.8455 88.0614 53.666C88.5623 53.5119 89.0429 53.2716 89.4889 52.9522C89.8907 52.6607 90.2476 52.2849 90.5435 51.842ZM84.737 46.6094C85.2135 46.3473 85.7316 46.2186 86.2537 46.2327C86.6378 46.2136 87.0211 46.2881 87.3815 46.4518C87.6338 46.5812 87.8675 46.7592 88.0739 46.9793C88.1963 47.1154 88.3042 47.27 88.3951 47.4392H83.959C84.1501 47.0789 84.4196 46.7914 84.737 46.6094Z" fill="#0C356A"/>
<path d="M95.8073 48.8126C95.8073 47.8777 96.0232 47.2341 96.4657 46.8422C96.9083 46.4503 97.6167 46.2379 98.541 46.2379C98.8439 46.2263 99.1461 46.281 99.4332 46.3998C99.6328 46.4879 99.8126 46.6327 99.9579 46.8224C100.085 46.999 100.177 47.2097 100.226 47.4376C100.283 47.6936 100.312 47.9581 100.311 48.2237V53.5288H103.188V48.2215C103.195 47.5819 103.128 46.9442 102.99 46.3275C102.866 45.7795 102.629 45.2798 102.303 44.876C101.95 44.4618 101.521 44.1564 101.053 43.9849C100.442 43.7741 99.809 43.6774 99.1745 43.6981C97.747 43.6981 96.621 44.1951 95.8073 45.1716V44.0769H92.9219V53.5288H95.8073V48.8126Z" fill="#0C356A"/>
<path d="M43.3838 71.1964H46.4209V61.74H50.509V58.9922H39.2832V61.74H43.3838V71.1964Z" fill="#0C356A"/>
<path d="M59.291 64.4268V61.4645L59.1536 61.4448C58.9966 61.4229 58.8431 61.401 58.695 61.3835C58.5469 61.366 58.3703 61.3594 58.1722 61.3594C56.7447 61.3594 55.6187 61.8542 54.805 62.8307V61.7469H51.916V71.1967H54.8014V66.8681C54.8014 65.9376 55.028 65.2041 55.4759 64.6786C55.9238 64.1532 56.618 63.8948 57.5352 63.8948C57.7899 63.8979 58.0441 63.9257 58.2953 63.978C58.5617 64.0297 58.8199 64.1316 59.0608 64.2801L59.291 64.4268Z" fill="#0C356A"/>
<path d="M63.6647 57.8125H60.7793V60.7617H63.6647V57.8125Z" fill="#0C356A"/>
<path d="M63.6647 61.7461H60.7793V71.1981H63.6647V61.7461Z" fill="#0C356A"/>
<path d="M65.7051 57.8125V71.1968H68.5905V70.102C69.4042 71.0807 70.5337 71.5755 71.9559 71.5755C72.5882 71.5938 73.2192 71.4957 73.8278 71.2843C74.2957 71.1126 74.7237 70.8072 75.0769 70.3932C75.4005 69.9906 75.6362 69.4944 75.7621 68.9504C75.9013 68.3368 75.9686 67.7021 75.9619 67.0652V65.8829C75.9682 65.2432 75.901 64.6056 75.7621 63.989C75.6375 63.4424 75.4017 62.9436 75.0769 62.5396C74.7247 62.1241 74.2963 61.8184 73.8278 61.6485C73.221 61.4373 72.5917 61.3399 71.9613 61.3595C70.5337 61.3595 69.4095 61.8543 68.5958 62.8308V57.8125H65.7051ZM71.3242 63.9036C71.6273 63.8915 71.9296 63.9471 72.2164 64.0678C72.416 64.156 72.5958 64.3008 72.7411 64.4904C72.8683 64.6673 72.9605 64.8779 73.0105 65.1057C73.0672 65.3611 73.0954 65.6248 73.0944 65.8895V67.0718C73.0955 67.3365 73.0673 67.6002 73.0105 67.8556C72.9607 68.0842 72.8685 68.2955 72.7411 68.4731C72.5968 68.6606 72.4173 68.8019 72.2182 68.8847C71.9302 68.9987 71.6285 69.0512 71.326 69.0401C69.4863 69.0401 68.5923 68.2038 68.5923 66.4806C68.5923 65.5479 68.8082 64.902 69.2507 64.5101C69.6933 64.1182 70.3981 63.9036 71.3242 63.9036Z" fill="#0C356A"/>
<path d="M84.9957 62.8331C84.182 61.8566 83.0471 61.3618 81.616 61.3618C80.9842 61.3422 80.3537 61.4404 79.7459 61.653C79.2776 61.8235 78.8493 62.129 78.4969 62.5441C78.1718 62.9483 77.9354 63.447 77.8099 63.9935C77.6722 64.6104 77.6056 65.2479 77.6118 65.8874V67.0697C77.6052 67.7064 77.6719 68.341 77.8099 68.9549C77.9336 69.5028 78.168 70.0037 78.4915 70.4109C78.8444 70.8252 79.2726 71.1306 79.7406 71.302C80.3484 71.5146 80.9788 71.6142 81.6107 71.5976C83.0382 71.5976 84.1767 71.1027 84.9904 70.124V71.2188H87.8633V61.7493H84.9904L84.9957 62.8331ZM82.262 69.0424C81.9595 69.0534 81.6578 69.0008 81.3698 68.887C81.167 68.8033 80.9835 68.6614 80.8344 68.4732C80.7053 68.2991 80.6134 68.0885 80.5668 67.8601C80.5141 67.6032 80.4883 67.3391 80.49 67.0741V65.8918C80.4884 65.6261 80.5142 65.3613 80.5668 65.1036C80.6134 64.8765 80.7054 64.6673 80.8344 64.4949C80.9835 64.3042 81.1668 64.1587 81.3698 64.0701C81.6566 63.9494 81.9589 63.8938 82.262 63.9059C83.1792 63.9059 83.868 64.1096 84.3319 64.5124C84.7959 64.9153 84.9957 65.5502 84.9957 66.4829C84.9957 67.3587 84.778 67.9762 84.3283 68.3987C83.8787 68.8213 83.1774 69.0424 82.262 69.0424Z" fill="#0C356A"/>
<path d="M92.8053 57.8125H89.9199V71.1968H92.8053V57.8125Z" fill="#0C356A"/>
<path d="M98.6445 58.9922L102.993 71.0803L103.034 71.1964H106.94L111.33 58.9922H108.097L104.981 67.7698L101.876 58.9922H98.6445Z" fill="#0C356A"/>
<path d="M111.377 68.4743C111.63 69.1035 111.992 69.6578 112.437 70.0989C112.92 70.5791 113.469 70.9498 114.059 71.1937C114.73 71.4672 115.434 71.6019 116.141 71.5921C116.818 71.5971 117.492 71.4624 118.133 71.1937C118.722 70.9462 119.273 70.5758 119.76 70.0989C120.213 69.6556 120.589 69.1035 120.863 68.4765C121.127 67.861 121.265 67.1755 121.264 66.4797C121.265 65.7856 121.135 65.1006 120.884 64.4785C120.628 63.8494 120.268 63.293 119.826 62.8452C119.345 62.3637 118.796 61.9928 118.207 61.7504C117.542 61.4774 116.843 61.3427 116.141 61.352C115.468 61.3473 114.799 61.482 114.162 61.7504C113.571 61.9989 113.018 62.3691 112.528 62.8452C112.069 63.2894 111.689 63.8446 111.412 64.4763C111.143 65.0929 111.002 65.782 111.002 66.4819C111 67.1726 111.128 67.8544 111.377 68.4743ZM116.141 69.0414C115.81 69.0496 115.481 68.9797 115.172 68.8356C114.91 68.7105 114.671 68.5238 114.467 68.286C114.279 68.0597 114.132 67.7865 114.037 67.4847C113.937 67.1647 113.886 66.8247 113.887 66.4819C113.864 65.7934 114.064 65.1218 114.444 64.6143C114.801 64.1435 115.381 63.9049 116.141 63.9049C116.492 63.8953 116.841 63.9651 117.171 64.1107C117.432 64.2322 117.668 64.4212 117.865 64.6646C118.044 64.8948 118.18 65.1707 118.263 65.4726C118.351 65.7981 118.395 66.139 118.393 66.4819C118.394 66.8276 118.348 67.1712 118.256 67.4978C118.172 67.8014 118.034 68.0777 117.851 68.3057C117.655 68.5457 117.419 68.7296 117.158 68.8443C116.832 68.9844 116.487 69.0511 116.141 69.0414Z" fill="#0C356A"/>
<path d="M125.833 57.8125H122.947V60.7617H125.833V57.8125Z" fill="#0C356A"/>
<path d="M125.833 61.7461H122.947V71.1981H125.833V61.7461Z" fill="#0C356A"/>
<path d="M137.092 69.5157C137.373 69.0975 137.599 68.6276 137.761 68.1232L137.847 67.8605H135.024L134.979 67.959C134.798 68.3414 134.508 68.6288 134.165 68.7669C133.729 68.958 133.267 69.0507 132.804 69.0406C132.472 69.0468 132.141 68.977 131.83 68.8348C131.561 68.7092 131.314 68.5219 131.102 68.283C130.905 68.0575 130.748 67.7838 130.643 67.4795C130.536 67.1633 130.482 66.8236 130.484 66.4811C130.471 66.1377 130.517 65.7948 130.617 65.474C130.718 65.1533 130.872 64.8617 131.069 64.6178C131.46 64.1449 132.044 63.9041 132.804 63.9041C133.27 63.8937 133.733 63.9895 134.171 64.1865C134.508 64.331 134.794 64.6151 134.979 64.9901L135.024 65.0864H137.845L137.766 64.828C137.614 64.326 137.4 63.8557 137.131 63.4333C136.846 62.9951 136.498 62.6241 136.105 62.3386C135.66 62.0168 135.179 61.7764 134.678 61.6248C134.066 61.4416 133.439 61.3526 132.809 61.3599C132.079 61.3498 131.352 61.4836 130.655 61.7562C130.05 61.9942 129.485 62.3651 128.987 62.8509C128.54 63.2957 128.175 63.8516 127.916 64.4821C127.659 65.1026 127.526 65.7893 127.527 66.4855C127.524 67.169 127.639 67.8456 127.863 68.4713C128.093 69.101 128.437 69.6581 128.869 70.1003C129.358 70.5934 129.921 70.9652 130.525 71.195C131.265 71.4722 132.036 71.6045 132.809 71.5869C133.418 71.5947 134.026 71.5071 134.617 71.3264C135.118 71.1735 135.598 70.9339 136.044 70.6148C136.442 70.3244 136.796 69.9527 137.092 69.5157Z" fill="#0C356A"/>
<path d="M140.373 70.0973C140.862 70.5904 141.425 70.9622 142.029 71.192C142.771 71.4722 143.544 71.6066 144.32 71.5905C144.93 71.5981 145.538 71.5106 146.13 71.33C146.631 71.1767 147.111 70.9371 147.557 70.6184C147.957 70.33 148.313 69.9597 148.61 69.5237C148.891 69.1048 149.117 68.635 149.281 68.1312L149.365 67.8684H146.635L146.59 67.967C146.411 68.3451 146.127 68.6319 145.791 68.7749C145.317 68.9743 144.819 69.067 144.319 69.0486C143.995 69.0504 143.673 69.0019 143.36 68.904C143.079 68.8178 142.811 68.6751 142.568 68.4815C142.348 68.3042 142.159 68.0731 142.015 67.8027C141.899 67.5787 141.818 67.3299 141.778 67.0693H149.292V66.8766C149.289 66.233 149.207 65.5936 149.047 64.9805C148.874 64.3203 148.589 63.7128 148.21 63.1983C147.78 62.6299 147.255 62.1819 146.67 61.8846C145.925 61.517 145.125 61.3419 144.322 61.3701C143.499 61.3446 142.68 61.5148 141.91 61.8715C141.299 62.1608 140.739 62.5928 140.263 63.1435C139.859 63.6149 139.539 64.1837 139.324 64.8141C139.141 65.3449 139.042 65.9131 139.031 66.4891C139.029 67.1727 139.144 67.8493 139.369 68.4749C139.599 69.1023 139.942 69.6572 140.373 70.0973ZM142.802 64.2799C143.277 64.0158 143.794 63.8863 144.315 63.9011C144.7 63.8837 145.083 63.9619 145.443 64.131C145.695 64.2561 145.929 64.4298 146.137 64.6455C146.26 64.7811 146.368 64.9357 146.458 65.1053H142.026C142.215 64.7455 142.485 64.4592 142.802 64.2799Z" fill="#0C356A"/>
<path d="M158.933 66.0276C158.48 65.7596 158 65.5688 157.505 65.4606C156.938 65.3204 156.242 65.1737 155.383 65.0227C155.235 64.9876 155.036 64.9504 154.782 64.911C154.529 64.8716 154.306 64.8234 154.068 64.7621C153.87 64.7098 153.676 64.6366 153.488 64.5432C153.36 64.4797 153.331 64.4227 153.331 64.4096C153.331 64.333 153.351 64.2345 153.51 64.1447C153.699 64.0406 153.898 63.967 154.102 63.9257C154.338 63.877 154.577 63.847 154.816 63.836C155.055 63.825 155.235 63.8206 155.351 63.8206C155.467 63.8206 155.644 63.8316 155.853 63.8535C156.061 63.8757 156.266 63.9189 156.468 63.9827C156.644 64.0355 156.811 64.1259 156.961 64.2498C157.011 64.2865 157.052 64.3389 157.08 64.4016C157.109 64.4643 157.123 64.5351 157.121 64.6067V64.8081L159.843 64.6548V64.4709C159.849 63.9707 159.719 63.4823 159.473 63.0828C159.211 62.6701 158.875 62.338 158.49 62.1129C158.041 61.8476 157.564 61.6576 157.073 61.548C156.505 61.4187 155.929 61.3557 155.351 61.3597C154.73 61.3544 154.11 61.4203 153.499 61.5567C152.993 61.6642 152.501 61.8542 152.036 62.1216C151.659 62.3333 151.326 62.6452 151.06 63.0346C150.825 63.3941 150.699 63.8419 150.703 64.3023C150.664 64.8571 150.775 65.4123 151.018 65.8823C151.262 66.3523 151.624 66.711 152.05 66.9034C152.516 67.1397 153.004 67.3066 153.503 67.4004C154.053 67.5114 154.663 67.6289 155.332 67.7529C155.446 67.777 155.624 67.7989 155.867 67.823C156.103 67.8464 156.338 67.8873 156.57 67.9456C156.778 67.9958 156.98 68.0805 157.17 68.1974C157.227 68.224 157.276 68.2714 157.31 68.3333C157.344 68.3953 157.362 68.4686 157.361 68.5433C157.363 68.5851 157.356 68.6268 157.342 68.665C157.328 68.7031 157.307 68.7365 157.28 68.7623C157.191 68.8442 157.089 68.9037 156.981 68.9374C156.83 68.9873 156.677 69.0196 156.522 69.0338C156.23 69.0591 155.938 69.0642 155.646 69.0491C155.528 69.0491 155.432 69.0491 155.357 69.0491C155.239 69.0491 155.073 69.0491 154.862 69.0338C154.656 69.0226 154.451 68.9904 154.249 68.9374C154.072 68.893 153.902 68.8124 153.747 68.6988C153.697 68.6673 153.656 68.6192 153.627 68.5599C153.599 68.5006 153.585 68.4326 153.587 68.3638V68.1646L150.865 68.2981V68.482C150.858 68.975 150.976 69.4586 151.203 69.8658C151.445 70.2784 151.763 70.6146 152.132 70.8467C152.574 71.1244 153.048 71.3157 153.538 71.4137C154.139 71.5405 154.747 71.6014 155.357 71.5955C155.96 71.5997 156.563 71.5506 157.161 71.4488C157.662 71.3705 158.152 71.21 158.619 70.9715C159.009 70.7747 159.353 70.4626 159.621 70.0628C159.876 69.6593 160.009 69.1605 159.998 68.6506C160.017 68.0953 159.935 67.5416 159.757 67.0304C159.579 66.5944 159.29 66.2421 158.933 66.0276Z" fill="#0C356A"/>
</g>
</g>
<defs>
<clipPath id="clip0_1312_7913">
<rect width="160" height="87" fill="white"/>
</clipPath>
</defs>
</svg>
 