<svg width="18" height="18" viewBox="0 0 18 18" fill="none" xmlns="http://www.w3.org/2000/svg">
<path d="M16.3332 0.259766H1.62836C0.979058 0.259766 0.444336 0.832682 0.444336 1.52018V16.1487C0.444336 16.8362 0.979058 17.3709 1.62836 17.3709H16.3332C16.9825 17.3709 17.5554 16.8362 17.5554 16.1487V1.52018C17.5554 0.832682 16.9825 0.259766 16.3332 0.259766ZM5.60059 14.9264H3.07975V6.79102H5.60059V14.9264ZM4.34017 5.64518C3.49989 5.64518 2.85059 4.99588 2.85059 4.19379C2.85059 3.39171 3.49989 2.70421 4.34017 2.70421C5.14225 2.70421 5.79156 3.39171 5.79156 4.19379C5.79156 4.99588 5.14225 5.64518 4.34017 5.64518ZM15.111 14.9264H12.552V10.9542C12.552 10.0375 12.552 8.81532 11.2534 8.81532C9.91656 8.81532 9.72559 9.84657 9.72559 10.916V14.9264H7.20475V6.79102H9.611V7.89865H9.6492C9.99295 7.24935 10.8332 6.56185 12.0554 6.56185C14.6145 6.56185 15.111 8.2806 15.111 10.4577V14.9264Z" fill="#4C4763"/>
</svg>
