<svg width="18" height="18" viewBox="0 0 18 18" fill="none" xmlns="http://www.w3.org/2000/svg">
<path d="M9.0001 0.214844C7.87072 0.214688 6.75238 0.43702 5.70895 0.869141C4.66551 1.30126 3.71743 1.9347 2.91884 2.73329C2.12025 3.53188 1.48681 4.47997 1.05469 5.5234C0.622567 6.56683 0.400235 7.68517 0.400391 8.81455C0.400235 9.94392 0.622567 11.0623 1.05469 12.1057C1.48681 13.1491 2.12025 14.0972 2.91884 14.8958C3.71743 15.6944 4.66551 16.3278 5.70895 16.76C6.75238 17.1921 7.87072 17.4144 9.0001 17.4143C10.1295 17.4145 11.2479 17.1922 12.2914 16.7601C13.3349 16.328 14.2831 15.6946 15.0817 14.896C15.8804 14.0974 16.5139 13.1493 16.946 12.1058C17.3782 11.0624 17.6005 9.94397 17.6004 8.81455C17.6005 7.68512 17.3782 6.56674 16.946 5.52326C16.5139 4.47979 15.8804 3.53168 15.0817 2.73308C14.2831 1.93449 13.3349 1.30106 12.2914 0.868971C11.2479 0.436885 10.1295 0.214611 9.0001 0.214844ZM13.2239 6.10639L11.8124 12.7572C11.7083 13.2307 11.4277 13.3431 11.0359 13.1212L8.88587 11.5369L7.84901 12.5353C7.79795 12.6015 7.73229 12.655 7.65715 12.6917C7.582 12.7283 7.4994 12.7471 7.4158 12.7466L7.56849 10.5569L11.5526 6.95742C11.726 6.80473 11.5147 6.7207 11.2857 6.87102L6.36177 9.97096L4.23892 9.31049C3.77789 9.1649 3.76547 8.84946 4.33598 8.62753L12.6273 5.43172C13.0126 5.29323 13.3488 5.52345 13.2239 6.10639Z" fill="#4C4763"/>
</svg>
