<svg width="18" height="18" viewBox="0 0 18 18" fill="none" xmlns="http://www.w3.org/2000/svg">
<path d="M15.0243 2.71428C14.2351 1.91932 13.2959 1.28902 12.2611 0.859966C11.2263 0.430908 10.1166 0.211637 8.99646 0.214879C6.73673 0.21748 4.5703 1.11631 2.97242 2.71418C1.37455 4.31205 0.475723 6.47849 0.473122 8.73822C0.471796 10.2338 0.863614 11.7035 1.6093 12.9999L0.400391 17.4149L4.92153 16.2286C6.17017 16.9102 7.56996 17.2674 8.99253 17.2675C11.2615 17.2683 13.4389 16.373 15.051 14.7764C16.6631 13.1797 17.5794 11.011 17.6004 8.74215C17.5883 7.6174 17.3545 6.50607 16.9125 5.47175C16.4704 4.43743 15.8288 3.5004 15.0243 2.71428ZM8.99646 15.8295C7.72706 15.8315 6.4805 15.4921 5.38741 14.8467L5.1299 14.6933L2.45063 15.3912L3.16517 12.7768L2.99612 12.5085C2.28691 11.379 1.91207 10.0718 1.91497 8.73822C1.91783 6.86011 2.66531 5.05977 3.99352 3.73192C5.32173 2.40408 7.12228 1.6571 9.00039 1.65476C9.9309 1.65191 10.8527 1.83404 11.7122 2.19056C12.5717 2.54709 13.3518 3.0709 14.0071 3.73154C14.6783 4.3842 15.214 5.16295 15.5835 6.02313C15.9531 6.88331 16.1491 7.80798 16.1605 8.74411C16.1401 10.6306 15.3762 12.4328 14.0349 13.7594C12.6936 15.086 10.883 15.8299 8.99646 15.8295ZM12.8817 10.5221C12.6704 10.415 11.6227 9.89995 11.4271 9.8341C11.2315 9.76825 11.089 9.72697 10.9474 9.94123C10.8059 10.1555 10.398 10.6292 10.2712 10.7786C10.1444 10.928 10.0216 10.9398 9.81027 10.8327C8.58346 10.3423 7.56089 9.44767 6.91182 8.29691C6.69264 7.92048 7.131 7.948 7.5379 7.13321C7.56572 7.07435 7.57849 7.0095 7.57506 6.94448C7.57163 6.87946 7.55211 6.81631 7.51824 6.76071C7.46419 6.65358 7.03861 5.60487 6.86169 5.17929C6.68478 4.75371 6.51278 4.82251 6.38206 4.81465C6.25134 4.80679 6.11669 4.80679 5.97516 4.80679C5.86733 4.80969 5.76125 4.83474 5.66351 4.8804C5.56578 4.92605 5.47849 4.99132 5.40706 5.07216C5.16652 5.30056 4.97608 5.57646 4.84783 5.88237C4.71957 6.18828 4.65631 6.51751 4.66206 6.84916C4.73243 7.6521 5.03386 8.41746 5.52992 9.05273C6.4436 10.4214 7.69657 11.5298 9.16649 12.2696C9.93916 12.7166 10.8349 12.9037 11.7219 12.8033C12.0184 12.7432 12.2992 12.6221 12.5464 12.4476C12.7936 12.2732 13.0019 12.0492 13.1579 11.79C13.2974 11.473 13.3414 11.1222 13.2847 10.7806C13.2355 10.6823 13.093 10.6273 12.8827 10.5231L12.8817 10.5221Z" fill="#4C4763"/>
</svg>
